<?xml version="1.0" encoding="UTF-8"?>
<svg width="16px" height="16px" viewBox="0 0 16 16" version="1.1" xmlns="http://www.w3.org/2000/svg" xmlns:xlink="http://www.w3.org/1999/xlink">
    <!-- Generator: Sketch 52.5 (67469) - http://www.bohemiancoding.com/sketch -->
    <title>Checkbox/Active</title>
    <desc>Created with Sketch.</desc>
    <defs>
        <rect id="path-1" x="0" y="0" width="16" height="16" rx="1"></rect>
        <linearGradient x1="50%" y1="0%" x2="50%" y2="97.783801%" id="linearGradient-3">
            <stop stop-color="#39B54A" offset="0%"></stop>
            <stop stop-color="#36AF47" offset="54.6634865%"></stop>
            <stop stop-color="#34AA44" offset="100%"></stop>
        </linearGradient>
        <path d="M7.4393,11.0103 C7.0483,11.4013 6.4153,11.4013 6.0253,11.0103 L4.4893,9.4753 C4.0993,9.0843 4.0993,8.4513 4.4893,8.0603 C4.8803,7.6703 5.5133,7.6703 5.9033,8.0603 L6.7323,8.8893 L10.0963,5.5253 C10.4863,5.1343 11.1193,5.1343 11.5103,5.5253 C11.9013,5.9153 11.9013,6.5483 11.5103,6.9393 L7.4393,11.0103 Z" id="path-4"></path>
    </defs>
    <g id="Checkbox/Active" stroke="none" stroke-width="1" fill="none" fill-rule="evenodd">
        <g id="UI/Container/Custom-(Your-Setup)">
            <mask id="mask-2" fill="white">
                <use xlink:href="#path-1"></use>
            </mask>
            <use id="Base" fill="#FFFFFF" fill-rule="evenodd" xlink:href="#path-1"></use>
            <g id="UI/Color/Gradient/Green" mask="url(#mask-2)" fill="url(#linearGradient-3)" fill-rule="evenodd">
                <rect id="Base" x="0" y="0" width="16" height="16"></rect>
            </g>
        </g>
        <g id="UI/Border/Custom-(Your-Setup)/1px---10%Black" stroke="#000000" stroke-opacity="0.1">
            <path d="M1,0.5 C0.723857625,0.5 0.5,0.723857625 0.5,1 L0.5,15 C0.5,15.2761424 0.723857625,15.5 1,15.5 L15,15.5 C15.2761424,15.5 15.5,15.2761424 15.5,15 L15.5,1 C15.5,0.723857625 15.2761424,0.5 15,0.5 L1,0.5 Z" id="Border-Shape"></path>
        </g>
        <g id="Icon/Check-Small-(for-Checkbox)">
            <mask id="mask-5" fill="white">
                <use xlink:href="#path-4"></use>
            </mask>
            <g id="Positive-Icon"></g>
            <g id="UI/Color/Flat/White-(Default)" mask="url(#mask-5)" fill="#FFFFFF" fill-rule="evenodd">
                <rect id="Base" x="0" y="0" width="16" height="16"></rect>
            </g>
        </g>
    </g>
</svg>