<?xml version="1.0" encoding="UTF-8"?>
<svg width="41px" height="25px" viewBox="0 0 41 25" version="1.1" xmlns="http://www.w3.org/2000/svg" xmlns:xlink="http://www.w3.org/1999/xlink">
    <!-- Generator: Sketch 52.5 (67469) - http://www.bohemiancoding.com/sketch -->
    <title>shapes</title>
    <desc>Created with Sketch.</desc>
    <g id="cabinet" stroke="none" stroke-width="1" fill="none" fill-rule="evenodd">
        <g id="popups" transform="translate(-876.000000, -1270.000000)" fill-rule="nonzero">
            <g id="shapes" transform="translate(876.000000, 1270.000000)">
                <polygon id="middle" fill="#FF5F00" points="14.7688752 2.92119565 25.5378467 2.92119565 25.5378467 22.1467391 14.7688752 22.1467391"></polygon>
                <path d="M15.4526194,12.5339674 C15.4526194,8.62771739 17.2987288,5.16304348 20.1362673,2.92119565 C18.0508475,1.29076087 15.4184322,0.305706522 12.5467065,0.305706522 C5.74345146,0.305706522 0.239310478,5.77445652 0.239310478,12.5339674 C0.239310478,19.2934783 5.74345146,24.7622283 12.5467065,24.7622283 C15.4184322,24.7622283 18.0508475,23.7771739 20.1362673,22.1467391 C17.2987288,19.9388587 15.4526194,16.4402174 15.4526194,12.5339674 Z" id="red" fill="#EB001B"></path>
                <path d="M40.0674114,12.5339674 C40.0674114,19.2934783 34.5632704,24.7622283 27.7600154,24.7622283 C24.8882897,24.7622283 22.2558744,23.7771739 20.1704545,22.1467391 C23.0421803,19.9048913 24.8541025,16.4402174 24.8541025,12.5339674 C24.8541025,8.62771739 23.0079931,5.16304348 20.1704545,2.92119565 C22.2558744,1.29076087 24.8882897,0.305706522 27.7600154,0.305706522 C34.5632704,0.305706522 40.0674114,5.80842391 40.0674114,12.5339674 Z" id="orange" fill="#F79E1B"></path>
            </g>
        </g>
    </g>
</svg>