<?xml version="1.0" encoding="UTF-8"?>
<svg width="82px" height="20px" viewBox="0 0 82 20" version="1.1" xmlns="http://www.w3.org/2000/svg" xmlns:xlink="http://www.w3.org/1999/xlink">
    <!-- Generator: Sketch 52.5 (67469) - http://www.bohemiancoding.com/sketch -->
    <title>Paypal</title>
    <desc>Created with Sketch.</desc>
    <g id="cabinet" stroke="none" stroke-width="1" fill="none" fill-rule="evenodd">
        <g id="popups" transform="translate(-664.000000, -1272.000000)">
            <g id="Paypal" transform="translate(664.000000, 1272.000000)">
                <g transform="translate(0.000000, 0.399981)">
                    <path d="M30.3081915,4.36159553 L25.8227158,4.36159553 C25.5157356,4.36159553 25.254683,4.57966632 25.2067345,4.87605579 L23.3925933,16.1223295 C23.356586,16.3443522 23.532397,16.5442804 23.7625863,16.5442804 L25.9039159,16.5442804 C26.2108961,16.5442804 26.4719488,16.3263892 26.5198972,16.0294608 L27.0091183,12.9960494 C27.0563319,12.699121 27.3179356,12.4810502 27.6243648,12.4810502 L29.0442632,12.4810502 C31.9988793,12.4810502 33.7040802,11.0829901 34.1495781,8.31273655 C34.35019,7.10059345 34.1580288,6.14837493 33.5775036,5.48140882 C32.9400282,4.74905739 31.80929,4.36159553 30.3081915,4.36159553 Z M30.8255203,8.46919426 C30.5802668,10.0429325 29.3505087,10.0429325 28.1615343,10.0429325 L27.4845611,10.0429325 L27.9594527,7.10382679 C27.9877441,6.92617274 28.1450003,6.79540212 28.3287108,6.79540212 L28.6389979,6.79540212 C29.4489775,6.79540212 30.2130295,6.79540212 30.6078233,7.24681226 C30.8433402,7.51607759 30.9153547,7.91629319 30.8255203,8.46919426 Z" id="Fill-1" fill="#28356A"></path>
                    <path d="M43.7159352,8.41853861 L41.567992,8.41853861 C41.3850163,8.41853861 41.2268416,8.54930924 41.1987339,8.72696328 L41.1035719,9.31435332 L40.9534804,9.10149179 C40.4885091,8.44153125 39.4514633,8.22094563 38.416622,8.22094563 C36.0428986,8.22094563 34.0156532,9.97880461 33.6208593,12.4445853 C33.4156547,13.6745118 33.707387,14.8507289 34.4211023,15.6709194 C35.0756628,16.425006 36.0122189,16.7393585 37.1264232,16.7393585 C39.0390332,16.7393585 40.0994102,15.5369154 40.0994102,15.5369154 L40.0036971,16.1205332 C39.9676898,16.3436337 40.1435008,16.5437415 40.372404,16.5437415 L42.3070594,16.5437415 C42.6147745,16.5437415 42.8745411,16.3256707 42.9230407,16.0287423 L44.0839074,8.84048943 C44.1206495,8.6191853 43.9453896,8.41853861 43.7159352,8.41853861 Z M40.7218214,12.5061984 C40.514596,13.7059471 39.5407466,14.5114079 38.2984962,14.5114079 C37.674799,14.5114079 37.1763924,14.3157908 36.856185,13.9452142 C36.5387333,13.5771524 36.4182192,13.0531717 36.5190762,12.4695539 C36.7127071,11.2800442 37.7029067,10.4481777 38.926235,10.4481777 C39.5361538,10.4481777 40.0319885,10.6464892 40.3586258,11.0201196 C40.6858142,11.3978814 40.8156975,11.9250954 40.7218214,12.5061984 Z" id="Fill-2" fill="#28356A"></path>
                    <path d="M55.1555883,8.41853861 L52.9969899,8.41853861 C52.7910504,8.41853861 52.5976032,8.51859251 52.4809471,8.68600765 L49.5039184,12.9735956 L48.2420109,8.85324316 C48.162648,8.59547414 47.9194153,8.41853861 47.6438495,8.41853861 L45.5229117,8.41853861 C45.2649822,8.41853861 45.0860482,8.66481131 45.167983,8.90210251 L47.5455644,15.7240899 L45.3103587,18.8094144 C45.1345477,19.0524538 45.3116447,19.3865655 45.6153181,19.3865655 L47.7711609,19.3865655 C47.9758144,19.3865655 48.1672407,19.2890264 48.2833458,19.1250243 L55.4623848,8.99245639 C55.6343379,8.75013555 55.4577921,8.41853861 55.1555883,8.41853861" id="Fill-3" fill="#28356A"></path>
                    <path d="M62.3017432,4.36159553 L57.8157164,4.36159553 C57.509471,4.36159553 57.2484184,4.57966632 57.2004699,4.87605579 L55.3863287,16.1223295 C55.3503214,16.3443522 55.5261324,16.5442804 55.7550357,16.5442804 L58.057112,16.5442804 C58.2707673,16.5442804 58.453743,16.3917745 58.4871783,16.1839426 L59.0021188,12.9960494 C59.0493324,12.699121 59.3111199,12.4810502 59.6173653,12.4810502 L61.0367127,12.4810502 C63.9918798,12.4810502 65.6965296,11.0829901 66.1425787,8.31273655 C66.3439254,7.10059345 66.1504782,6.14837493 65.5699531,5.48140882 C64.9330287,4.74905739 63.8030254,4.36159553 62.3017432,4.36159553 Z M62.8192557,8.46919426 C62.5745533,10.0429325 61.3447952,10.0429325 60.155086,10.0429325 L59.4790313,10.0429325 L59.9544741,7.10382679 C59.9825818,6.92617274 60.1387357,6.79540212 60.3229974,6.79540212 L60.6332844,6.79540212 C61.4425292,6.79540212 62.207316,6.79540212 62.6021099,7.24681226 C62.8376267,7.51607759 62.9090901,7.91629319 62.8192557,8.46919426 Z" id="Fill-4" fill="#298FC2"></path>
                    <path d="M75.7089358,8.41853861 L73.5622785,8.41853861 C73.3780169,8.41853861 73.2213118,8.54930924 73.1937553,8.72696328 L73.0985932,9.31435332 L72.9477669,9.10149179 C72.4827956,8.44153125 71.4464847,8.22094563 70.4114597,8.22094563 C68.03792,8.22094563 66.0114094,9.97880461 65.6166155,12.4445853 C65.411962,13.6745118 65.7024083,14.8507289 66.4159399,15.6709194 C67.0719701,16.425006 68.0070566,16.7393585 69.1214445,16.7393585 C71.0338709,16.7393585 72.0944316,15.5369154 72.0944316,15.5369154 L71.9987184,16.1205332 C71.9627112,16.3436337 72.1383384,16.5437415 72.3687114,16.5437415 L74.3028156,16.5437415 C74.609061,16.5437415 74.8701136,16.3256707 74.918062,16.0287423 L76.0794798,8.84048943 C76.114936,8.6191853 75.939125,8.41853861 75.7089358,8.41853861 Z M72.7150057,12.5061984 C72.5090662,13.7059471 71.5337471,14.5114079 70.2914967,14.5114079 C69.6690855,14.5114079 69.169393,14.3157908 68.8491855,13.9452142 C68.5319175,13.5771524 68.4125057,13.0531717 68.5120768,12.4695539 C68.7069936,11.2800442 69.6959073,10.4481777 70.9192355,10.4481777 C71.5291544,10.4481777 72.024989,10.6464892 72.3516263,11.0201196 C72.6801007,11.3978814 72.809984,11.9250954 72.7150057,12.5061984 Z" id="Fill-5" fill="#298FC2"></path>
                    <path d="M78.2412013,4.67019983 L76.4002384,16.1223295 C76.3642311,16.3443522 76.5398584,16.5442804 76.7687617,16.5442804 L78.619645,16.5442804 C78.9273601,16.5442804 79.188229,16.3263892 79.2354426,16.0294608 L81.0508698,4.78372598 C81.0870608,4.56170332 80.9112498,4.36105664 80.6823465,4.36105664 L78.6099083,4.36105664 C78.4269327,4.36159553 78.2694928,4.49254578 78.2412013,4.67019983" id="Fill-6" fill="#298FC2"></path>
                    <path d="M4.76545047,18.7298383 L5.10843798,16.5996064 L4.344386,16.5821823 L0.695895389,16.5821823 L3.23146776,0.862223901 C3.23936732,0.814621956 3.26490308,0.770432981 3.30219631,0.738997735 C3.33967325,0.707562489 3.38743798,0.69031801 3.43740724,0.69031801 L9.58932088,0.69031801 C11.6318143,0.69031801 13.0412413,1.10580215 13.7770018,1.92599264 C14.1220101,2.31076005 14.3417279,2.71295158 14.4480963,3.15538022 C14.5596086,3.61972371 14.5614457,4.17442109 14.4526891,4.85108722 L14.4447895,4.90030584 L14.4447895,5.33393261 L14.7897978,5.5250589 C15.0802441,5.67576846 15.3111682,5.84821324 15.4882652,6.04562658 C15.7833042,6.37470871 15.9741794,6.7928873 16.0548284,7.28848641 C16.1382329,7.79827629 16.1106764,8.40506636 15.9741794,9.0919714 C15.8167395,9.88198405 15.5623005,10.5701465 15.2185781,11.1331069 C14.9025961,11.6518782 14.4999027,12.0822717 14.0217042,12.4156649 C13.5651836,12.7325322 13.0228702,12.9730567 12.4096445,13.1269996 C11.8153411,13.2782481 11.1378167,13.3545908 10.3947077,13.3545908 L9.91595816,13.3545908 C9.57370549,13.3545908 9.24118948,13.4751225 8.98013685,13.6912174 C8.71834938,13.911803 8.54529409,14.2132221 8.49220175,14.5428431 L8.45601078,14.7346879 L7.84994983,18.4894934 L7.82257697,18.6272696 C7.81522855,18.6709197 7.80273623,18.6926549 7.78436518,18.7073846 C7.76801495,18.7208568 7.7445,18.7298383 7.72153619,18.7298383 L4.76545047,18.7298383" id="Fill-7" fill="#28356A"></path>
                    <path d="M15.1162514,4.9504226 C15.0980641,5.06520616 15.0769373,5.18250453 15.0534224,5.30303625 C14.2421568,9.3759664 11.4664748,10.783008 7.92159693,10.783008 L6.11664123,10.783008 C5.68308444,10.783008 5.31768425,11.0907142 5.25026249,11.5088928 L4.06441119,18.8638423 C4.02050438,19.1384965 4.23691535,19.385847 4.52019695,19.385847 L7.72153619,19.385847 C8.10053096,19.385847 8.42257547,19.1165817 8.48228139,18.7510347 L8.51369588,18.5920621 L9.11645005,14.8519863 L9.15521296,14.6468489 C9.21418403,14.2800445 9.53696339,14.0105995 9.91595816,14.0105995 L10.3947077,14.0105995 C13.4962922,14.0105995 15.9243939,12.7794156 16.6340676,9.21627535 C16.9303926,7.72786134 16.7769943,6.48500151 15.9925505,5.61092203 C15.7551965,5.34740485 15.4607086,5.12861554 15.1162514,4.9504226" id="Fill-8" fill="#298FC2"></path>
                    <path d="M14.2676926,4.61954418 C14.143688,4.58415707 14.0158255,4.55218294 13.8846562,4.52326251 C13.752752,4.4950606 13.6177248,4.47009204 13.478656,4.44817718 C12.9920068,4.37129555 12.4586952,4.33483066 11.8875393,4.33483066 L7.06568969,4.33483066 C6.94682899,4.33483066 6.83403075,4.36105664 6.73317368,4.40847895 C6.51070026,4.5130236 6.34554452,4.71887956 6.30549563,4.97090042 L5.27965617,11.3236943 L5.25026249,11.5088928 C5.31768425,11.0907142 5.68308444,10.783008 6.11664123,10.783008 L7.92159693,10.783008 C11.4664748,10.783008 14.2421568,9.37524788 15.0534224,5.30303625 C15.0776722,5.18250453 15.0980641,5.06520616 15.1162514,4.9504226 C14.9110468,4.84390202 14.688757,4.75282962 14.4493823,4.67522947 C14.3902275,4.65600906 14.3292356,4.63750718 14.2676926,4.61954418" id="Fill-9" fill="#22284F"></path>
                    <path d="M6.30549563,4.97090042 C6.34554452,4.71887956 6.51070026,4.5130236 6.73317368,4.40919747 C6.83476559,4.36159553 6.94682899,4.33536955 7.06568969,4.33536955 L11.8875393,4.33536955 C12.4586952,4.33536955 12.9920068,4.37201407 13.478656,4.4488957 C13.6177248,4.47063093 13.752752,4.49577912 13.8846562,4.52398103 C14.0158255,4.55272183 14.143688,4.58487559 14.2676926,4.62008307 C14.3292356,4.63804607 14.3902275,4.65672758 14.4499334,4.67522947 C14.6893082,4.75282962 14.9117816,4.84462054 15.1169862,4.9504226 C15.3583818,3.445303 15.1149654,2.42051397 14.2827568,1.4925455 C13.3651229,0.470810176 11.7091564,0.0335908061 9.59005572,0.0335908061 L3.43795837,0.0335908061 C3.00513642,0.0335908061 2.63587831,0.341296961 2.56900769,0.760194072 L0.00661357814,16.6418194 C-0.0439068104,16.9559923 0.203918659,17.2394484 0.527983988,17.2394484 L4.32601495,17.2394484 L6.30549563,4.97090042" id="Fill-11" fill="#28356A"></path>
                </g>
            </g>
        </g>
    </g>
</svg>