<?xml version="1.0" encoding="UTF-8"?>
<svg width="65px" height="20px" viewBox="0 0 65 20" version="1.1" xmlns="http://www.w3.org/2000/svg" xmlns:xlink="http://www.w3.org/1999/xlink">
    <!-- Generator: Sketch 52.5 (67469) - http://www.bohemiancoding.com/sketch -->
    <title>Visa</title>
    <desc>Created with Sketch.</desc>
    <g id="cabinet" stroke="none" stroke-width="1" fill="none" fill-rule="evenodd">
        <g id="popups" transform="translate(-805.000000, -1272.000000)">
            <g id="Visa" transform="translate(805.000000, 1272.000000)">
                <g transform="translate(0.293169, 0.380246)">
                    <polyline id="Fill-2" fill="#004F8B" points="22.7566553 19.1568845 26.0201298 0.347697741 31.2394149 0.347697741 27.9737395 19.1568845 22.7566553 19.1568845"></polyline>
                    <path d="M46.903506,0.810694215 C45.8694794,0.42948778 44.2492965,0.0208978953 42.2256268,0.0208978953 C37.0686987,0.0208978953 33.4354835,2.57188236 33.4046718,6.22793312 C33.3756941,8.93060748 35.9983583,10.4384987 37.9780112,11.3381891 C40.0093839,12.2598584 40.6927438,12.8478819 40.68284,13.6711869 C40.6700018,14.9319065 39.0604563,15.5080399 37.560219,15.5080399 C35.4712578,15.5080399 34.3616691,15.2230358 32.6475839,14.5207945 L31.9748613,14.2217384 L31.2423494,18.432304 C32.4616131,18.9572735 34.7160039,19.4123432 37.0562273,19.4357633 C42.5429141,19.4357633 46.1042353,16.9139638 46.1449508,13.0096605 C46.1647583,10.8701483 44.7738293,9.24155375 41.7630842,7.89940443 C39.9385903,7.02925931 38.8212986,6.44844194 38.8330364,5.56748756 C38.8330364,4.78561803 39.7786628,3.94970222 41.82214,3.94970222 C43.5288891,3.92376 44.765026,4.28911286 45.728259,4.6703193 L46.1959369,4.88722504 L46.903506,0.810694215" id="Fill-3" fill="#004F8B"></path>
                    <path d="M60.287163,0.365713168 L56.2541291,0.365713168 C55.0047872,0.365713168 54.0697983,0.700439802 53.5210562,1.92548884 L45.7697081,19.1630097 L51.250526,19.1630097 C51.250526,19.1630097 52.1466335,16.8451449 52.3494773,16.3363892 C52.9484718,16.3363892 58.2722967,16.344316 59.0334195,16.344316 C59.1896789,17.0025997 59.6687278,19.1630097 59.6687278,19.1630097 L64.5116697,19.1630097 L60.287163,0.365713168 M53.8515486,12.4890146 C54.2829127,11.4052065 55.9309728,7.23103209 55.9309728,7.23103209 C55.8997943,7.28111498 56.3594024,6.14217968 56.6227693,5.43597495 L56.9756368,7.05772368 C56.9756368,7.05772368 57.9751836,11.5475284 58.1838964,12.4890146 L53.8515486,12.4890146" id="Fill-4" fill="#004F8B"></path>
                    <path d="M18.3791904,0.361389466 L13.2692135,13.1880132 L12.7248731,10.5811809 C11.7737447,7.57620767 8.80995078,4.32082001 5.49622377,2.69114449 L10.1686009,19.1406706 L15.6908679,19.1345453 L23.9076931,0.361389466 L18.3791904,0.361389466" id="Fill-5" fill="#004F8B"></path>
                    <path d="M8.52897725,0.349859593 L0.112976303,0.349859593 L0.0462175784,0.741154667 C6.59407466,2.29804787 10.9264224,6.06038965 12.7248731,10.5811809 L10.8948771,1.93773933 C10.5786902,0.746559295 9.66240834,0.391295075 8.52897725,0.349859593" id="Fill-6" fill="#ED9F2D"></path>
                </g>
            </g>
        </g>
    </g>
</svg>