<?xml version="1.0" encoding="UTF-8"?>
<svg width="24px" height="24px" viewBox="0 0 24 24" version="1.1" xmlns="http://www.w3.org/2000/svg" xmlns:xlink="http://www.w3.org/1999/xlink">
    <!-- Generator: Sketch 52.5 (67469) - http://www.bohemiancoding.com/sketch -->
    <title>Crypto/coins/ADA</title>
    <desc>Created with Sketch.</desc>
    <g id="Crypto/coins/ADA" stroke="none" stroke-width="1" fill="none" fill-rule="evenodd">
        <g id="Group" transform="translate(-0.000000, 0.955224)" fill="#000000">
            <g id="ADA">
                <g id="Page-1">
                    <g id="Artboard">
                        <g id="ADA">
                            <path d="M13.1354627,6.47036421 C12.3543284,6.91537913 12.0817314,7.90940899 12.5267463,8.69066272 C12.9717612,9.47179705 13.9657911,9.74427467 14.7469254,9.29937914 C15.5281792,8.85436422 15.8006568,7.86033436 15.3557613,7.07908063 C14.9107463,6.29794629 13.9165971,6.02534928 13.1354627,6.47036421" id="Fill-579"></path>
                            <path d="M11.5735523,3.70625673 C11.0213135,4.0208836 10.8285971,4.72357017 11.1432239,5.27580898 C11.4577314,5.82804779 12.1605374,6.0207642 12.7127762,5.70613734 C13.265015,5.39151047 13.457612,4.6888239 13.1431045,4.13658509 C12.8284777,3.58434628 12.1257911,3.39162986 11.5735523,3.70625673" id="Fill-580"></path>
                            <path d="M11.5735523,16.5477254 C11.0213135,16.8623523 10.8285971,17.5650389 11.1432239,18.1172777 C11.4577314,18.6696359 12.1605374,18.8622329 12.7127762,18.547606 C13.265015,18.2330986 13.457612,17.5302926 13.1431045,16.9780538 C12.8284777,16.425815 12.1257911,16.233218 11.5735523,16.5477254" id="Fill-581"></path>
                            <path d="M17.1096359,6.88489555 C16.5573971,7.19952242 16.3646807,7.90220899 16.6793075,8.4544478 C16.9939344,9.00680601 17.696621,9.19940302 18.2488598,8.88477616 C18.8010986,8.57026869 18.993815,7.86746272 18.6791881,7.31522391 C18.3645613,6.7629851 17.6618747,6.57038809 17.1096359,6.88489555" id="Fill-582"></path>
                            <path d="M5.92324779,13.3151642 C5.37100898,13.6297911 5.17829256,14.3324777 5.49291943,14.8847165 C5.80754629,15.4369553 6.51023286,15.6296717 7.06247167,15.3150448 C7.61471048,15.0005374 7.8074269,14.2977314 7.49280003,13.7454926 C7.17817316,13.1932538 6.47548659,13.0006568 5.92324779,13.3151642" id="Fill-583"></path>
                            <path d="M5.8471642,6.88489555 C5.2949254,7.19952242 5.10220898,7.90220899 5.41683584,8.4544478 C5.73146271,9.00680601 6.43414928,9.19940302 6.98638809,8.88477616 C7.5386269,8.57026869 7.73134332,7.86746272 7.41671645,7.31522391 C7.10208958,6.7629851 6.39940301,6.57038809 5.8471642,6.88489555" id="Fill-584"></path>
                            <path d="M17.1096359,13.2390807 C16.5573971,13.5537075 16.3646807,14.2563941 16.6793075,14.8086329 C16.9939344,15.3608717 17.696621,15.5535881 18.2488598,15.2389613 C18.8010986,14.9243344 18.993815,14.2216478 18.6791881,13.669409 C18.3645613,13.1171702 17.6618747,12.9244538 17.1096359,13.2390807" id="Fill-585"></path>
                            <path d="M20.0229971,10.2970866 C19.5839523,10.5472359 19.4308777,11.105803 19.6809075,11.5448478 C19.9309374,11.9838926 20.489624,12.1370866 20.9286687,11.8869374 C21.3677135,11.6369075 21.5209076,11.0782209 21.2707583,10.6391762 C21.020609,10.2001314 20.4620419,10.0470568 20.0229971,10.2970866" id="Fill-586"></path>
                            <path d="M3.16735524,10.2970866 C2.72831046,10.5472359 2.57511643,11.105803 2.82526568,11.5448478 C3.07529554,11.9838926 3.6339821,12.1370866 4.07302688,11.8869374 C4.51207166,11.6369075 4.66514629,11.0782209 4.41511644,10.6391762 C4.16496718,10.2001314 3.60640002,10.0470568 3.16735524,10.2970866" id="Fill-587"></path>
                            <path d="M15.4389254,3.83019703 C15.429612,4.33539106 15.8316419,4.75246569 16.3368359,4.76177912 C16.8419105,4.77097315 17.2589851,4.3690627 17.2682986,3.86386867 C17.277612,3.35867464 16.8755822,2.94160001 16.3705075,2.93228658 C15.8653135,2.92297315 15.4482389,3.325003 15.4389254,3.83019703" id="Fill-588"></path>
                            <path d="M6.82768958,18.3202389 C6.81837615,18.8254329 7.220406,19.2425075 7.72560003,19.251821 C8.23067466,19.261015 8.64786869,18.8591046 8.65706272,18.3539105 C8.66637616,17.8487165 8.26446571,17.4316419 7.75927167,17.4223284 C7.25407764,17.413015 6.83700301,17.8150449 6.82768958,18.3202389" id="Fill-589"></path>
                            <path d="M7.33322988,4.6110448 C7.77084182,4.86358211 8.33036421,4.71361196 8.58290153,4.27600002 C8.83543884,3.83838808 8.68546869,3.27886569 8.24785675,3.02632837 C7.81012541,2.77379106 7.25072242,2.92376121 6.9980657,3.36137315 C6.74552839,3.79898509 6.89561794,4.35850748 7.33322988,4.6110448" id="Fill-590"></path>
                            <path d="M15.848215,19.1578031 C16.2859463,19.4103404 16.8453493,19.2602508 17.0978866,18.8226389 C17.3505434,18.3850269 17.2004538,17.825624 16.7628419,17.5730866 C16.3252299,17.3204299 15.7657075,17.4705195 15.5131702,17.9081314 C15.2606329,18.3457434 15.410603,18.9052658 15.848215,19.1578031" id="Fill-591"></path>
                            <path d="M14.9998568,9.72672243 C14.2187224,10.1717374 13.9461254,11.1657672 14.3911404,11.9469015 C14.8361553,12.7281553 15.8301851,13.0006329 16.6114389,12.555618 C17.3925732,12.110603 17.6650508,11.1166926 17.2201553,10.3354388 C16.7751404,9.55430452 15.7809911,9.2817075 14.9998568,9.72672243" id="Fill-592"></path>
                            <path d="M13.1354627,12.983009 C12.3543284,13.4280239 12.0817314,14.4220538 12.5267463,15.2031881 C12.9717612,15.9844419 13.9657911,16.2569195 14.7469254,15.8119045 C15.5281792,15.367009 15.8006568,14.3729792 15.3557613,13.5917254 C14.9107463,12.8105911 13.9165971,12.5379941 13.1354627,12.983009" id="Fill-593"></path>
                            <path d="M10.9610866,6.47036421 C11.7422209,6.91537913 12.014818,7.90940899 11.5699224,8.69066272 C11.1249075,9.47179705 10.1307583,9.74427467 9.34962392,9.29937914 C8.56837018,8.85436422 8.29589257,7.86033436 8.7409075,7.07908063 C9.18592243,6.29794629 10.1799523,6.02534928 10.9610866,6.47036421" id="Fill-594"></path>
                            <path d="M9.09669258,9.72672243 C9.87782691,10.1717374 10.1504239,11.1657672 9.705409,11.9469015 C9.26051347,12.7281553 8.26636421,13.0006329 7.48522988,12.555618 C6.70397615,12.110603 6.43149853,11.1166926 6.87651346,10.3354388 C7.32140899,9.55430452 8.31555824,9.2817075 9.09669258,9.72672243" id="Fill-595"></path>
                            <path d="M10.9610866,12.983009 C11.7422209,13.4280239 12.014818,14.4220538 11.5699224,15.2031881 C11.1249075,15.9844419 10.1307583,16.2569195 9.34962392,15.8119045 C8.56837018,15.367009 8.29589257,14.3729792 8.7409075,13.5917254 C9.18592243,12.8105911 10.1799523,12.5379941 10.9610866,12.983009" id="Fill-596"></path>
                            <path d="M12.7537553,0.841337317 C12.7537553,1.2406209 12.4301732,1.56432239 12.0307702,1.56432239 C11.631606,1.56432239 11.3079045,1.2406209 11.3079045,0.841337317 C11.3079045,0.442053733 11.631606,0.118352239 12.0307702,0.118352239 C12.4301732,0.118352239 12.7537553,0.442053733 12.7537553,0.841337317" id="Fill-597"></path>
                            <path d="M12.7537553,21.2925971 C12.7537553,21.6918807 12.4301732,22.0155822 12.0307702,22.0155822 C11.631606,22.0155822 11.3079045,21.6918807 11.3079045,21.2925971 C11.3079045,20.8933135 11.631606,20.5697314 12.0307702,20.5697314 C12.4301732,20.5697314 12.7537553,20.8933135 12.7537553,21.2925971" id="Fill-598"></path>
                            <path d="M3.50497912,5.37521196 C3.85184479,5.57294331 3.97268061,6.01437614 3.77506867,6.36124182 C3.57733733,6.70822689 3.13590449,6.82906272 2.78891941,6.63133137 C2.44217314,6.43360003 2.32121792,5.99216719 2.51894926,5.64530152 C2.71656121,5.29843584 3.15811345,5.17748062 3.50497912,5.37521196" id="Fill-599"></path>
                            <path d="M21.2727046,15.502603 C21.6195702,15.7003344 21.7404061,16.1417672 21.5427941,16.4886329 C21.3450628,16.8354986 20.9036299,16.9564538 20.5566449,16.7587225 C20.2097792,16.5609911 20.0889434,16.1195583 20.2866747,15.7726926 C20.4842867,15.4258269 20.9258389,15.3048717 21.2727046,15.502603" id="Fill-600"></path>
                            <path d="M2.78675822,15.4979344 C3.1337433,15.3004419 3.57517613,15.4215165 3.77266867,15.7685016 C3.97028061,16.1154866 3.84908658,16.5569195 3.50210151,16.754412 C3.15511643,16.952024 2.713803,16.8308299 2.51619106,16.4838448 C2.31869852,16.1369792 2.43977314,15.6955463 2.78675822,15.4979344" id="Fill-601"></path>
                            <path d="M20.5595583,5.37946271 C20.9065434,5.18197017 21.3479762,5.3030448 21.5454687,5.65002987 C21.7430807,5.99701495 21.6218867,6.43844779 21.2749016,6.63594033 C20.9279165,6.83355227 20.4864837,6.71235824 20.2889911,6.36537316 C20.0914986,6.01850749 20.2125732,5.57707465 20.5595583,5.37946271" id="Fill-602"></path>
                            <path d="M6.87549854,1.29789851 C6.87549854,1.62374926 6.61137913,1.88786866 6.28552838,1.88786866 C5.95955823,1.88786866 5.69543883,1.62374926 5.69543883,1.29789851 C5.69543883,0.972047765 5.95955823,0.707928361 6.28552838,0.707928361 C6.61137913,0.707928361 6.87549854,0.972047765 6.87549854,1.29789851" id="Fill-603"></path>
                            <path d="M18.4005613,20.8550449 C18.4005613,21.1808956 18.1364419,21.445015 17.8105911,21.445015 C17.4847404,21.445015 17.2205016,21.1808956 17.2205016,20.8550449 C17.2205016,20.5291941 17.4847404,20.2650747 17.8105911,20.2650747 C18.1364419,20.2650747 18.4005613,20.5291941 18.4005613,20.8550449" id="Fill-604"></path>
                            <path d="M18.0734329,1.79912837 C17.7887762,1.95769553 17.4293732,1.85548657 17.270806,1.57082986 C17.1122389,1.28617314 17.2145672,0.926770153 17.4991046,0.768202988 C17.7838807,0.609635823 18.1431643,0.711844779 18.3017314,0.996501497 C18.4602986,1.28127762 18.3580896,1.6405612 18.0734329,1.79912837" id="Fill-605"></path>
                            <path d="M6.59687167,21.3847762 C6.31221495,21.5433434 5.95281197,21.4411344 5.7942448,21.1564777 C5.63567764,20.871821 5.73788659,20.512418 6.02254331,20.3538508 C6.30731943,20.1952837 6.66660301,20.2974926 6.82517018,20.5821493 C6.98373734,20.8669255 6.88152839,21.226209 6.59687167,21.3847762" id="Fill-606"></path>
                            <path d="M23.100012,11.5551881 C22.818818,11.3905314 22.7243702,11.0290986 22.889027,10.7479045 C23.0536837,10.4667105 23.4152359,10.3722627 23.6964299,10.5369194 C23.977624,10.7016956 24.0720717,11.063009 23.9072956,11.344203 C23.7426389,11.6253971 23.3810867,11.7198448 23.100012,11.5551881" id="Fill-607"></path>
                            <path d="M0.399629852,11.6160597 C0.118435821,11.451403 0.0239880598,11.0898508 0.188644777,10.8086568 C0.353420897,10.5275821 0.714853734,10.4331344 0.996047765,10.5977911 C1.2772418,10.7624478 1.37168956,11.1238806 1.20691344,11.4050747 C1.04225672,11.6862687 0.680823883,11.7807165 0.399629852,11.6160597" id="Fill-608"></path>
                        </g>
                    </g>
                </g>
            </g>
        </g>
    </g>
</svg>