<?xml version="1.0" encoding="UTF-8"?>
<svg width="24px" height="24px" viewBox="0 0 24 24" version="1.1" xmlns="http://www.w3.org/2000/svg" xmlns:xlink="http://www.w3.org/1999/xlink">
    <!-- Generator: Sketch 52.5 (67469) - http://www.bohemiancoding.com/sketch -->
    <title>Crypto/coins/ADX</title>
    <desc>Created with Sketch.</desc>
    <g id="Crypto/coins/ADX" stroke="none" stroke-width="1" fill="none" fill-rule="evenodd">
        <g id="Group" transform="translate(-0.000000, -0.000000)">
            <g id="ADX">
                <g id="Page-1">
                    <g id="Artboard">
                        <g id="ADX">
                            <path d="M23.9939702,11.9956657 C23.9939702,18.5901732 18.6481792,23.9359643 12.0536717,23.9359643 C5.4591642,23.9359643 0.113373135,18.5901732 0.113373135,11.9956657 C0.113373135,5.40115823 5.4591642,0.0553671644 12.0536717,0.0553671644 C18.6481792,0.0553671644 23.9939702,5.40115823 23.9939702,11.9956657" id="Fill-899" fill="#1472BE"></path>
                            <polygon id="Fill-901" fill="#FFFFFF" points="12.0536717 13.8069971 12.0525971 13.8085493 12.0536717 13.8095045 12.0552239 13.8085493"></polygon>
                            <polygon id="Fill-903" fill="#FFFFFF" points="17.546209 15.6743045 15.7102687 17.5107225 13.9208956 15.6743045 12.0771941 13.830603 12.0536717 13.8069613 12.0525971 13.8085135 12.0300299 13.830603 10.1864478 15.6743045 8.39755227 17.5107225 6.56113436 15.6743045 10.2177314 12.0181851 10.2397015 11.995618 6.56113436 8.31705078 8.39755227 6.48111047 10.1864478 8.31705078 12.0536717 10.1842747 12.0552239 10.1833194 12.0771941 10.1606329 13.9208956 8.31705078 15.7102687 6.48111047 17.546209 8.31705078 13.8900896 11.9736478 13.8675224 11.995618"></polygon>
                            <polygon id="Fill-905" fill="#FFFFFF" points="15.5174568 6.30711644 13.7050389 8.12001197 12.0536956 6.44980301 10.4249194 8.08025078 8.61202392 6.26735525 12.0536956 2.82448956"></polygon>
                            <polygon id="Fill-907" fill="#FFFFFF" points="12.0536717 10.1817672 12.0525971 10.1833194 12.0536717 10.1842747 12.0552239 10.1833194"></polygon>
                            <polygon id="Fill-909" fill="#FFFFFF" points="15.5238807 17.6965732 12.0536717 21.1667822 8.61008959 17.7413493 10.4229851 15.9289314 12.0536717 17.5415881 13.7114627 15.8841553"></polygon>
                        </g>
                    </g>
                </g>
            </g>
        </g>
    </g>
</svg>