<?xml version="1.0" encoding="UTF-8"?>
<svg width="24px" height="24px" viewBox="0 0 24 24" version="1.1" xmlns="http://www.w3.org/2000/svg" xmlns:xlink="http://www.w3.org/1999/xlink">
    <!-- Generator: Sketch 52.5 (67469) - http://www.bohemiancoding.com/sketch -->
    <title>Crypto/coins/AE</title>
    <desc>Created with Sketch.</desc>
    <g id="Crypto/coins/AE" stroke="none" stroke-width="1" fill="none" fill-rule="evenodd">
        <g id="Group" transform="translate(-0.000000, -0.000000)">
            <g id="AE">
                <g id="Page-1">
                    <g id="Artboard">
                        <g id="AE">
                            <path d="M23.9245255,11.9834269 C23.9245255,18.5779344 18.5787344,23.9237255 11.9842269,23.9237255 C5.38983883,23.9237255 0.0439283584,18.5779344 0.0439283584,11.9834269 C0.0439283584,5.38891943 5.38983883,0.0431283584 11.9842269,0.0431283584 C18.5787344,0.0431283584 23.9245255,5.38891943 23.9245255,11.9834269" id="Fill-413" fill="#F4F4F4"></path>
                            <path d="M10.7160956,12.7580299 C10.9705433,13.1294926 11.2198568,13.4934329 11.5032,13.9071642 C11.1197971,14.2898508 10.750006,14.7108657 10.3256478,15.0671642 C9.93006571,15.3994628 9.49436422,15.6942687 9.04445377,15.9494329 C8.23728959,16.4072239 7.34164779,16.5150448 6.43657316,16.4204777 C5.59740898,16.3328359 4.8504239,15.9832239 4.18594629,15.4533135 C3.40803584,14.8332538 2.88134927,14.0441195 2.64970747,13.0867463 C2.42833434,12.1720001 2.45806568,11.2487762 2.81364777,10.361015 C3.25161792,9.26776123 4.0063642,8.45629854 5.06355823,7.94143287 C5.6382448,7.66155227 6.24887167,7.53020899 6.89890152,7.52173137 C7.70224481,7.51146272 8.45149854,7.66704481 9.15836422,8.04304481 C9.85496124,8.41355227 10.4575881,8.9066866 10.9285135,9.53319407 C11.6750209,10.5265075 12.3689911,11.5592239 13.116215,12.5520598 C13.5272001,13.0984478 13.9749613,13.6233433 14.454603,14.1102687 C14.9298269,14.5926568 15.4879165,14.9802389 16.1589613,15.1623284 C17.2492299,15.4580896 18.2266628,15.2196419 19.1158568,14.5419105 C19.4894687,14.2572538 19.7583643,13.8947463 19.9806926,13.4882986 C20.0103046,13.434209 20.0797971,13.3674627 20.1324538,13.3659105 C20.500812,13.3552836 20.8696478,13.3602986 21.2643941,13.3602986 C21.0827822,13.8657314 20.8540061,14.3128956 20.5440359,14.7157613 C20.0869613,15.3094329 19.5061852,15.7493135 18.8243941,16.0541493 C18.3196777,16.2799404 17.7916777,16.4060299 17.2359762,16.4331344 C16.4301254,16.4725374 15.6538866,16.3419105 14.9383045,15.9797613 C14.5159762,15.7660299 14.116215,15.4888956 13.7495284,15.1875225 C12.9352001,14.5180299 12.3587224,13.6444777 11.7595583,12.7890747 C11.1390209,11.9033433 10.5127523,11.0177314 9.82761795,10.1823881 C9.27454332,9.50811944 8.60934929,8.94776123 7.70833436,8.75122392 C6.68385674,8.52794033 5.76982689,8.76555228 4.93758808,9.3705672 C4.37782688,9.77749258 3.99406569,10.321612 3.80839405,10.9854926 C3.39908061,12.4494926 3.87358808,13.9915821 5.27502092,14.8240598 C6.49328958,15.5477613 7.98081197,15.417612 9.0658269,14.5550448 C9.38690153,14.2998807 9.69878213,14.0259702 9.97555825,13.7245971 C10.244812,13.4314627 10.4637971,13.0920001 10.7160956,12.7580299" id="Fill-414" fill="#D14071"></path>
                            <path d="M16.1313314,12.7787821 L16.1313314,11.772812 L20.3197493,11.772812 C20.2612419,11.1433194 20.083212,10.5787821 19.7296598,10.0851702 C19.2264956,9.38320004 18.5296598,8.96648362 17.6864359,8.80397616 C16.4490628,8.56540899 15.4187344,8.99394631 14.4914508,9.79096123 C14.0163463,10.1992 13.6526448,10.6904239 13.290018,11.2212896 C13.0584956,10.8852896 12.8310329,10.5680359 12.6219583,10.2390806 C12.5876896,10.1852299 12.6027344,10.0503045 12.6476299,10.003618 C13.0576598,9.57663288 13.4653015,9.1455881 13.9012418,8.7458269 C14.4411821,8.25042391 15.0711523,7.89579705 15.7810031,7.69997615 C17.1948538,7.30976719 18.5017195,7.53066272 19.6762866,8.42128959 C20.5907941,9.11466272 21.1890031,10.0290508 21.3990329,11.1559762 C21.4902568,11.646006 21.4481076,12.1612299 21.4570628,12.6652299 C21.4577792,12.7048717 21.3874508,12.7507224 21.3430329,12.7841553 C21.3247643,12.798006 21.2876299,12.7873792 21.2590926,12.7873792 C19.595809,12.7873792 17.932406,12.7874986 16.2691225,12.7870209 C16.2276896,12.7870209 16.1862568,12.7822448 16.1313314,12.7787821" id="Fill-415" fill="#D14071"></path>
                        </g>
                    </g>
                </g>
            </g>
        </g>
    </g>
</svg>