<?xml version="1.0" encoding="UTF-8"?>
<svg width="24px" height="24px" viewBox="0 0 24 24" version="1.1" xmlns="http://www.w3.org/2000/svg" xmlns:xlink="http://www.w3.org/1999/xlink">
    <!-- Generator: Sketch 52.5 (67469) - http://www.bohemiancoding.com/sketch -->
    <title>Crypto/coins/ARDR</title>
    <desc>Created with Sketch.</desc>
    <g id="Crypto/coins/ARDR" stroke="none" stroke-width="1" fill="none" fill-rule="evenodd">
        <g id="Group" transform="translate(-0.000000, -0.000000)">
            <g id="ARDR">
                <g id="Page-1">
                    <g id="Artboard">
                        <g id="ARDR">
                            <path d="M12.0545433,0.00434626867 C5.46003584,0.00434626867 0.114244777,5.35013734 0.114244777,11.9446448 C0.114244777,18.5391523 5.46003584,23.8849434 12.0545433,23.8849434 C18.6489314,23.8849434 23.9948419,18.5391523 23.9948419,11.9446448 C23.9948419,5.35013734 18.6489314,0.00434626867 12.0545433,0.00434626867" id="Fill-23" fill="#3886CA"></path>
                            <path d="M12.0545433,0.721814928 C18.2428419,0.721814928 23.2773494,5.75632241 23.2773494,11.9446209 C23.2773494,18.1329195 18.2428419,23.167427 12.0545433,23.167427 C5.8662448,23.167427 0.831737317,18.1329195 0.831737317,11.9446209 C0.831737317,5.75632241 5.8662448,0.721814928 12.0545433,0.721814928" id="Fill-25" fill="#FFFFFF"></path>
                            <polygon id="Fill-27" fill="#0B61A2" points="11.9338627 3.18911046 3.83905673 17.3439762 7.88645973 17.3439762 13.9975045 6.80773734"></polygon>
                            <polygon id="Fill-29" fill="#3886CA" points="15.4507702 9.30740302 20.1884419 17.3440598 16.4245016 17.3440598 11.5705314 11.4291941"></polygon>
                            <polygon id="Fill-31" fill="#08416E" points="11.4978747 11.6617075 13.5325015 14.2194389 8.19888959 17.3439762"></polygon>
                        </g>
                    </g>
                </g>
            </g>
        </g>
    </g>
</svg>