<?xml version="1.0" encoding="UTF-8"?>
<svg width="24px" height="24px" viewBox="0 0 24 24" version="1.1" xmlns="http://www.w3.org/2000/svg" xmlns:xlink="http://www.w3.org/1999/xlink">
    <!-- Generator: Sketch 52.5 (67469) - http://www.bohemiancoding.com/sketch -->
    <title>Crypto/coins/ARK</title>
    <desc>Created with Sketch.</desc>
    <g id="Crypto/coins/ARK" stroke="none" stroke-width="1" fill="none" fill-rule="evenodd">
        <g id="Group" transform="translate(-0.000000, -0.000000)">
            <g id="ARK">
                <g id="Page-1">
                    <g id="Artboard">
                        <g id="ARK">
                            <path d="M12.0050986,0.041552239 C5.42527763,0.041552239 0.0913074631,5.38746271 0.0913074631,11.9818508 C0.0913074631,18.5763583 5.42527763,23.9221494 12.0050986,23.9221494 C18.5848001,23.9221494 23.9188897,18.5763583 23.9188897,11.9818508 C23.9188897,5.38746271 18.5848001,0.041552239 12.0050986,0.041552239" id="Fill-79" fill="#ED1C24"></path>
                            <path d="M12.0316299,0.759020899 C18.2199284,0.759020899 23.2544359,5.79364779 23.2544359,11.9818269 C23.2544359,18.1701254 18.2199284,23.2047523 12.0316299,23.2047523 C5.84333137,23.2047523 0.808823884,18.1701254 0.808823884,11.9818269 C0.808823884,5.79364779 5.84333137,0.759020899 12.0316299,0.759020899" id="Fill-81" fill="#FFFFFF"></path>
                            <path d="M12.0785075,4.78589853 C12.1186269,4.88177912 12.1463284,4.98542092 12.2007762,5.07222689 C14.8425672,9.28189855 17.4866269,13.4901374 20.1303284,17.6987344 C20.1913434,17.795809 20.249612,17.8947941 20.2691941,18.0279284 C17.5361792,15.2048836 14.803403,12.3819583 12.0523583,9.5401672 C9.30394034,12.3783762 6.57032839,15.2011822 3.83671643,18.0241075 C3.82250748,18.0151523 3.80829852,18.0064359 3.79420897,17.9974807 C3.84447763,17.9133016 3.89295524,17.8279284 3.94513434,17.744824 C6.58788062,13.5358687 9.23122392,9.32715228 11.8721792,5.11700301 C11.9362986,5.01491345 11.9743881,4.8965851 12.0246568,4.78589853 L12.0785075,4.78589853 Z" id="Fill-83" fill="#ED1C24"></path>
                            <path d="M15.7907822,15.4338628 L8.31018511,15.4338628 C8.77131944,14.9567284 9.19615526,14.5115941 9.63030452,14.0756538 C9.67734929,14.0284896 9.77788661,14.0183404 9.8535881,14.018221 C11.3163941,14.0149971 12.7792001,14.0147583 14.2418866,14.0189374 C14.3248717,14.0191762 14.4331702,14.037803 14.4863045,14.0910568 C14.9153195,14.5207881 15.3339463,14.9607881 15.7907822,15.4338628" id="Fill-85" fill="#ED1C24"></path>
                            <path d="M10.6374448,12.9361911 C11.125803,12.5007284 11.6142806,12.0652657 12.035415,11.6898627 C12.4719523,12.077803 12.9649672,12.5157732 13.4578627,12.9537433 C13.4424598,12.9754747 13.4270568,12.9970866 13.4115344,13.0186986 L10.6954747,13.0186986 C10.6761314,12.9912359 10.6567881,12.9636538 10.6374448,12.9361911" id="Fill-87" fill="#ED1C24"></path>
                        </g>
                    </g>
                </g>
            </g>
        </g>
    </g>
</svg>