<?xml version="1.0" encoding="UTF-8"?>
<svg width="24px" height="24px" viewBox="0 0 24 24" version="1.1" xmlns="http://www.w3.org/2000/svg" xmlns:xlink="http://www.w3.org/1999/xlink">
    <!-- Generator: Sketch 52.5 (67469) - http://www.bohemiancoding.com/sketch -->
    <title>Crypto/coins/BAT</title>
    <desc>Created with Sketch.</desc>
    <defs>
        <linearGradient x1="50%" y1="0%" x2="50%" y2="100%" id="linearGradient-1">
            <stop stop-color="#000000" offset="0%"></stop>
            <stop stop-color="#000000" stop-opacity="0" offset="97.8336256%"></stop>
        </linearGradient>
    </defs>
    <g id="Crypto/coins/BAT" stroke="none" stroke-width="1" fill="none" fill-rule="evenodd">
        <g id="Group" transform="translate(-0.000000, -0.000000)">
            <g id="BAT">
                <g id="Page-1">
                    <g id="Artboard">
                        <g id="BAT">
                            <path d="M23.9245255,11.9782926 C23.9245255,18.5728001 18.5787344,23.9185911 11.9842269,23.9185911 C5.38983883,23.9185911 0.0439283584,18.5728001 0.0439283584,11.9782926 C0.0439283584,5.3837851 5.38983883,0.03799403 11.9842269,0.03799403 C18.5787344,0.03799403 23.9245255,5.3837851 23.9245255,11.9782926" id="Fill-256" fill="#672893"></path>
                            <path d="M22.8004061,11.9788777 C22.8004061,14.393206 22.0087643,16.6236538 20.6702568,18.4242508 C18.7001075,21.0761911 15.5418986,22.7944001 11.9836896,22.7944001 C11.2935403,22.7944001 10.6189135,22.7299225 9.96458512,22.6057434 C4.95562987,21.6600717 1.16816717,17.2612657 1.16816717,11.9788777 C1.16816717,6.00514629 6.00995823,1.1621612 11.9836896,1.1621612 C17.957421,1.1621612 22.8004061,6.00514629 22.8004061,11.9788777" id="Fill-258" fill="#FFFFFF"></path>
                            <polygon id="Fill-260" fill="#FF4F00" points="12.0082508 9.53018511 9.0408478 14.6029016 9.11619108 14.6029016 4.64419106 17.1355583 4.59654927 17.1355583 12.0082508 4.46463285"></polygon>
                            <polygon id="Fill-262" fill="#672893" points="19.4195702 17.1355941 4.64416718 17.1355941 9.11628661 14.6029374 14.9528239 14.6029374 19.4169434 17.1312956"></polygon>
                            <polygon id="Fill-264" fill="#A01A63" points="14.9528717 14.6029374 14.9752001 14.6029374 12.0082747 9.53022094 12.0082747 4.46466868 19.4169911 17.1312956"></polygon>
                            <polygon id="Fill-266" fill="#FFFFFF" points="12.0082508 9.53018511 9.0409672 14.6029016 14.9755344 14.6029016"></polygon>
                            <path d="M4.64394032,17.1360001 L9.96453735,22.6057314 C10.6189851,22.7299105 11.293612,22.7943882 11.9836418,22.7943882 C15.5419702,22.7943882 18.7000598,21.0761792 20.670209,18.4243583 L19.4164777,17.1360001 L4.64394032,17.1360001 Z" id="Fill-269" fill="url(#linearGradient-1)" opacity="0.100000001"></path>
                        </g>
                    </g>
                </g>
            </g>
        </g>
    </g>
</svg>