<?xml version="1.0" encoding="UTF-8"?>
<svg width="24px" height="24px" viewBox="0 0 24 24" version="1.1" xmlns="http://www.w3.org/2000/svg" xmlns:xlink="http://www.w3.org/1999/xlink">
    <!-- Generator: Sketch 52.5 (67469) - http://www.bohemiancoding.com/sketch -->
    <title>Crypto/coins/BCC</title>
    <desc>Created with Sketch.</desc>
    <g id="Crypto/coins/BCC" stroke="none" stroke-width="1" fill="none" fill-rule="evenodd">
        <g id="Group" transform="translate(-0.000000, -0.000000)">
            <g id="BCC">
                <g id="Page-1">
                    <g id="Artboard">
                        <g id="BCC">
                            <polygon id="Fill-674" fill="#FFFFFF" points="6.79031645 13.682818 11.9117493 16.2472359 11.9117493 20.3705792"></polygon>
                            <polygon id="Fill-676" fill="#FFFFFF" points="17.3641314 13.682818 12.2245493 20.3705792 12.2245493 16.2472359"></polygon>
                            <path d="M23.9715822,11.9773612 C23.9715822,18.5718687 18.6257911,23.9176598 12.0312836,23.9176598 C5.43677614,23.9176598 0.090985075,18.5718687 0.090985075,11.9773612 C0.090985075,5.38285375 5.43677614,0.0370626867 12.0312836,0.0370626867 C18.6257911,0.0370626867 23.9715822,5.38285375 23.9715822,11.9773612" id="Fill-758" fill="#F99400"></path>
                            <path d="M14.7495045,13.6532538 C14.7495045,16.1471045 12.7277732,18.1688359 10.2339224,18.1688359 C7.74007167,18.1688359 5.71834032,16.1471045 5.71834032,13.6532538 C5.71834032,11.159403 7.74007167,9.13767168 10.2339224,9.13767168 C12.7277732,9.13767168 14.7495045,11.159403 14.7495045,13.6532538" id="Fill-760" fill="#FFFFFF"></path>
                            <path d="M18.3441314,4.95194032 C18.3441314,5.82155226 17.6391762,6.52650749 16.7695642,6.52650749 C15.8999523,6.52650749 15.1949971,5.82155226 15.1949971,4.95194032 C15.1949971,4.08232838 15.8999523,3.37737315 16.7695642,3.37737315 C17.6391762,3.37737315 18.3441314,4.08232838 18.3441314,4.95194032" id="Fill-762" fill="#FFFFFF"></path>
                            <path d="M11.6223523,5.87585674 C11.6223523,6.64266271 11.0007403,7.26427466 10.2339344,7.26427466 C9.4671284,7.26427466 8.84563586,6.64266271 8.84563586,5.87585674 C8.84563586,5.10905077 9.4671284,4.48743882 10.2339344,4.48743882 C11.0007403,4.48743882 11.6223523,5.10905077 11.6223523,5.87585674" id="Fill-764" fill="#FFFFFF"></path>
                            <path d="M17.1879404,18.2250866 C17.1879404,18.9829374 16.5734926,19.5973852 15.8156419,19.5973852 C15.0577911,19.5973852 14.4434627,18.9829374 14.4434627,18.2250866 C14.4434627,17.4672359 15.0577911,16.8527881 15.8156419,16.8527881 C16.5734926,16.8527881 17.1879404,17.4672359 17.1879404,18.2250866" id="Fill-766" fill="#FFFFFF"></path>
                            <polygon id="Fill-768" fill="#FFFFFF" points="9.66543288 10.2398806 10.7675224 10.2398806 10.7675224 6.70137316 9.66543288 6.70137316"></polygon>
                            <polygon id="Fill-770" fill="#FFFFFF" points="12.161815 11.0273194 11.3434269 10.2890508 15.8185314 5.32845375 16.6369195 6.06672241"></polygon>
                            <polygon id="Fill-771" fill="#FFFFFF" points="15.5041672 18.6588538 16.2835105 17.8795105 11.5594508 13.1554508 10.7801075 13.9347941"></polygon>
                        </g>
                    </g>
                </g>
            </g>
        </g>
    </g>
</svg>