<?xml version="1.0" encoding="UTF-8"?>
<svg width="24px" height="24px" viewBox="0 0 24 24" version="1.1" xmlns="http://www.w3.org/2000/svg" xmlns:xlink="http://www.w3.org/1999/xlink">
    <!-- Generator: Sketch 52.5 (67469) - http://www.bohemiancoding.com/sketch -->
    <title>Crypto/coins/BCH</title>
    <desc>Created with Sketch.</desc>
    <g id="Crypto/coins/BCH" stroke="none" stroke-width="1" fill="none" fill-rule="evenodd">
        <g id="Group" transform="translate(-0.000000, -0.000000)">
            <g id="BCH">
                <g id="Page-1">
                    <g id="Artboard">
                        <g id="BCH">
                            <path d="M23.9617792,12.0592717 C23.9617792,18.6537792 18.6159881,23.9995702 12.0214806,23.9995702 C5.42697316,23.9995702 0.0811820899,18.6537792 0.0811820899,12.0592717 C0.0811820899,5.4647642 5.42697316,0.118973135 12.0214806,0.118973135 C18.6159881,0.118973135 23.9617792,5.4647642 23.9617792,12.0592717" id="Fill-511" fill="#8AC072"></path>
                            <path d="M16.4385792,12.3573732 C16.6002508,12.6682986 16.6312956,13.0235224 16.5256239,13.3577314 C16.4201911,13.6920598 16.1910568,13.9651344 15.8798926,14.126806 L12.767415,15.7456717 L11.5566687,13.4176717 L14.6691463,11.798806 C15.3109374,11.4650747 16.1047284,11.7155821 16.4385792,12.3573732 M13.6689075,7.86519406 C14.0031165,7.9707463 14.2763105,8.20011944 14.4379821,8.51104481 C14.7717135,9.15271646 14.5208478,9.94662691 13.8796538,10.2804777 C13.8795344,10.2804777 13.879415,10.2804777 13.879415,10.2804777 L10.7669374,11.8993433 L9.55595228,9.57134332 L12.6686687,7.95235824 C12.9794747,7.790806 13.3346986,7.75976123 13.6689075,7.86519406 M14.1842508,6.23331346 C13.4139821,5.99020898 12.5952359,6.06149256 11.878818,6.43414928 L11.4671165,6.64835824 L10.4603105,4.71259703 L8.9809075,5.48191047 L9.98783288,7.41767167 L8.7250269,8.0745075 L7.71810152,6.13862689 L7.36383287,6.3229851 L5.92825077,7.06961197 L6.89875824,8.93564183 L5.1493851,9.84549258 L6.01171346,11.5035224 L7.761206,10.5936717 L10.8999523,16.6282986 L9.15045974,17.5381493 L10.0129075,19.1961792 L11.7622806,18.2863284 L12.5813851,19.8612538 L12.9357732,19.677015 L14.3712359,18.9302687 L13.5157135,17.2854926 L14.7816239,16.6271045 L15.6371463,18.2720001 L17.1104598,17.5056717 L16.2549374,15.8607762 L16.669624,15.6451344 C16.9339822,15.5075822 17.1729075,15.3350448 17.3812657,15.1334926 C17.737206,14.7887762 18.0043105,14.3589254 18.157624,13.8729553 C18.4008478,13.102806 18.3294449,12.2841792 17.9567881,11.5676418 C17.5647881,10.8139702 16.8969672,10.2961194 16.1411463,10.069612 C16.3901016,9.32035825 16.3485493,8.47546272 15.9563105,7.72131347 C15.5836538,7.00477615 14.9541613,6.47641794 14.1842508,6.23331346" id="Fill-512" fill="#FFFFFF" fill-rule="nonzero"></path>
                        </g>
                    </g>
                </g>
            </g>
        </g>
    </g>
</svg>