<?xml version="1.0" encoding="UTF-8"?>
<svg width="24px" height="24px" viewBox="0 0 24 24" version="1.1" xmlns="http://www.w3.org/2000/svg" xmlns:xlink="http://www.w3.org/1999/xlink">
    <!-- Generator: Sketch 52.5 (67469) - http://www.bohemiancoding.com/sketch -->
    <title>Crypto/coins/BCN</title>
    <desc>Created with Sketch.</desc>
    <g id="Crypto/coins/BCN" stroke="none" stroke-width="1" fill="none" fill-rule="evenodd">
        <g id="Group" transform="translate(-0.000000, -0.000000)">
            <g id="BCN">
                <g id="Page-1">
                    <g id="Artboard">
                        <g id="BCN">
                            <path d="M23.9652777,12.0221374 C23.9652777,18.6165255 18.6194866,23.9624359 12.0249792,23.9624359 C5.43047166,23.9624359 0.0846805974,18.6165255 0.0846805974,12.0221374 C0.0846805974,5.42762987 5.43047166,0.0818388063 12.0249792,0.0818388063 C18.6194866,0.0818388063 23.9652777,5.42762987 23.9652777,12.0221374" id="Fill-93" fill="#EF4084"></path>
                            <path d="M11.035009,11.0617792 C12.2775165,11.0017194 13.4530389,11.0087642 14.6100538,10.8660777 C15.3661135,10.7728239 15.739009,10.1645851 15.7350687,9.39885377 C15.7312478,8.6681075 15.3527404,8.04303287 14.6440836,7.96088362 C13.4531583,7.82297317 12.2457553,7.8284657 11.035009,7.77318212 L11.035009,11.0617792 Z M5.30545674,12.9851224 L5.30545674,11.0283463 L8.45459108,11.0283463 L8.45459108,5.89748062 C8.66712839,5.87873435 8.81900899,5.85377913 8.97088959,5.85354032 C10.8797851,5.85151047 12.7886807,5.84291346 14.6973374,5.86118211 C15.1505911,5.86560002 15.6130389,5.92124182 16.0538747,6.02643585 C17.4885016,6.3686448 18.312621,7.34786869 18.3899941,8.74536123 C18.4698747,10.1876299 17.8122031,11.1405851 16.3683822,11.6770627 C16.3326807,11.6903165 16.3021135,11.7169433 16.2031284,11.7781971 C16.3219344,11.8135403 16.3959642,11.8374209 16.4711881,11.8576 C17.7856956,12.2101971 18.5419941,13.0617792 18.7185911,14.4088836 C18.8838449,15.6702568 18.2545911,16.9731822 17.0532777,17.5104956 C16.2742926,17.8589135 15.3915463,18.1024956 14.5433075,18.1433314 C12.6191284,18.2358687 10.6874269,18.174615 8.75871048,18.1737792 C8.6834866,18.1737792 8.60826272,18.1530031 8.50390451,18.1376001 L8.50390451,14.6870926 L10.9995463,14.6870926 L10.9995463,16.2273911 C12.3405612,16.1649434 13.6475463,16.1930031 14.9255165,16.0133016 C15.7728001,15.8941374 16.1341135,15.1324657 16.0278448,14.2285851 C15.9434269,13.5103762 15.450412,13.0479284 14.5640836,13.0350329 C11.7415165,12.9938389 8.91811347,12.9982568 6.09518809,12.9853612 C5.84205376,12.9841672 5.58891943,12.9851224 5.30545674,12.9851224 Z" id="Fill-95" fill="#FFFFFF" fill-rule="nonzero"></path>
                        </g>
                    </g>
                </g>
            </g>
        </g>
    </g>
</svg>