<?xml version="1.0" encoding="UTF-8"?>
<svg width="24px" height="24px" viewBox="0 0 24 24" version="1.1" xmlns="http://www.w3.org/2000/svg" xmlns:xlink="http://www.w3.org/1999/xlink">
    <!-- Generator: Sketch 52.5 (67469) - http://www.bohemiancoding.com/sketch -->
    <title>Crypto/coins/BLOCK</title>
    <desc>Created with Sketch.</desc>
    <g id="Crypto/coins/BLOCK" stroke="none" stroke-width="1" fill="none" fill-rule="evenodd">
        <g id="Group" transform="translate(-0.000000, 1.552239)">
            <g id="BLOCK">
                <g id="Page-1">
                    <g id="Artboard">
                        <g id="BLOCK">
                            <polygon id="Fill-448" fill="#8F8886" points="4.66595823 10.4517015 7.51610749 15.390209 5.2486448 19.3447165 0.114316418 10.4517015 5.30834629 1.4558806 7.57580899 5.41050749"></polygon>
                            <path d="M15.7787702,16.7991881 L15.7489195,16.851606 L12.3757851,16.851606 L13.2569792,15.316203 L14.0928001,13.8582926 L16.1071284,10.3466508 L14.0939941,6.83727764 L13.2581732,5.37936719 L12.4975762,4.05291942 L15.7489195,4.05291942 L17.7393672,7.50008361 L19.4432478,10.4517254 L17.8002628,13.2982926 L15.7787702,16.7991881 Z M20.008024,3.54545673 L18.0247404,0.111426866 L6.20862092,0.111426866 L8.46891944,4.05291942 L11.2438448,8.8911284 L12.0796657,10.3489194 L11.2438448,11.8057553 L8.3554866,16.8433672 L6.08921794,20.793218 L18.0247404,20.793218 L18.0474269,20.753815 L20.0677255,17.2541135 L23.9948897,10.4517254 L20.008024,3.54545673 Z" id="Fill-449" fill="#101142" fill-rule="nonzero"></path>
                        </g>
                    </g>
                </g>
            </g>
        </g>
    </g>
</svg>