<?xml version="1.0" encoding="UTF-8"?>
<svg width="24px" height="24px" viewBox="0 0 24 24" version="1.1" xmlns="http://www.w3.org/2000/svg" xmlns:xlink="http://www.w3.org/1999/xlink">
    <!-- Generator: Sketch 52.5 (67469) - http://www.bohemiancoding.com/sketch -->
    <title>Crypto/coins/BNB</title>
    <desc>Created with Sketch.</desc>
    <g id="Crypto/coins/BNB" stroke="none" stroke-width="1" fill="none" fill-rule="evenodd">
        <g id="Group" transform="translate(-0.000000, -0.000000)">
            <g id="BNB">
                <g id="Page-1">
                    <g id="Artboard">
                        <g id="BNB">
                            <path d="M23.9949016,12.0584001 C23.9949016,18.6529075 18.6491105,23.9986986 12.054603,23.9986986 C5.46009555,23.9986986 0.114304478,18.6529075 0.114304478,12.0584001 C0.114304478,5.46389256 5.46009555,0.118101493 12.054603,0.118101493 C18.6491105,0.118101493 23.9949016,5.46389256 23.9949016,12.0584001" id="Fill-158" fill="#212121"></path>
                            <polygon id="Fill-160" fill="#F4BB0B" points="12.054603 14.4015642 9.71131944 12.0584001 12.054603 9.71511646 14.3978866 12.0584001"></polygon>
                            <polygon id="Fill-162" fill="#F4BB0B" points="17.3796896 12.0584001 17.3697792 12.0681911 19.5431523 14.2414448 21.7261971 12.0584001 19.5281075 9.86019109 17.3547344 12.0334448"></polygon>
                            <polygon id="Fill-164" fill="#F4BB0B" points="8.28821496 10.4996299 12.0545433 6.73330152 15.8762747 10.5550329 18.0495284 8.38177914 12.0545433 2.38679404 6.11496122 8.32637615"></polygon>
                            <polygon id="Fill-166" fill="#F4BB0B" points="15.8913553 13.5467344 12.0545792 17.3835105 8.25183287 13.5806448 6.07857913 15.7538986 12.0545792 21.730018 18.064609 15.7199881"></polygon>
                            <polygon id="Fill-168" fill="#F4BB0B" points="6.72950451 12.0584001 6.80974331 11.9781612 4.63648957 9.8047881 2.38299702 12.0584001 4.60007166 14.2754747 6.7733254 12.1022209"></polygon>
                        </g>
                    </g>
                </g>
            </g>
        </g>
    </g>
</svg>