<?xml version="1.0" encoding="UTF-8"?>
<svg width="24px" height="24px" viewBox="0 0 24 24" version="1.1" xmlns="http://www.w3.org/2000/svg" xmlns:xlink="http://www.w3.org/1999/xlink">
    <!-- Generator: Sketch 52.5 (67469) - http://www.bohemiancoding.com/sketch -->
    <title>Crypto/coins/BNT</title>
    <desc>Created with Sketch.</desc>
    <g id="Crypto/coins/BNT" stroke="none" stroke-width="1" fill="none" fill-rule="evenodd">
        <g id="Group" transform="translate(-0.000000, -0.000000)">
            <g id="BNT">
                <g id="Page-1">
                    <g id="Artboard">
                        <g id="BNT">
                            <path d="M23.9537314,11.9526329 C23.9537314,18.5471404 18.6079404,23.8929314 12.0134329,23.8929314 C5.4189254,23.8929314 0.0731343287,18.5471404 0.0731343287,11.9526329 C0.0731343287,5.3581254 5.4189254,0.0123343284 12.0134329,0.0123343284 C18.6079404,0.0123343284 23.9537314,5.3581254 23.9537314,11.9526329" id="Fill-475" fill="#0B0E2C"></path>
                            <polygon id="Fill-476" fill="#FFFFFF" points="11.556406 4.48365375 8.04165973 6.5531463 11.556406 8.64974332 15.1944956 6.56663883"></polygon>
                            <polygon id="Fill-477" fill="#FFFFFF" points="7.01478212 7.90973138 7.01478212 12.1026866 10.6520359 14.1375523 10.6520359 9.94459706"></polygon>
                            <polygon id="Fill-478" fill="#FFFFFF" points="15.8103165 7.90973138 15.8103165 12.1026866 12.1730627 14.1375523 12.1730627 9.94459706"></polygon>
                            <polygon id="Fill-479" fill="#FFFFFF" points="17.0032359 12.9248836 17.0032359 17.1179583 12.1730269 19.899212 12.1730269 15.7061374"></polygon>
                            <polygon id="Fill-480" fill="#FFFFFF" points="7.01478212 13.6712717 7.01478212 17.8643463 10.6520359 19.899212 10.6520359 15.7061374"></polygon>
                        </g>
                    </g>
                </g>
            </g>
        </g>
    </g>
</svg>