<?xml version="1.0" encoding="UTF-8"?>
<svg width="24px" height="24px" viewBox="0 0 24 24" version="1.1" xmlns="http://www.w3.org/2000/svg" xmlns:xlink="http://www.w3.org/1999/xlink">
    <!-- Generator: Sketch 52.5 (67469) - http://www.bohemiancoding.com/sketch -->
    <title>Crypto/coins/BTC</title>
    <desc>Created with Sketch.</desc>
    <g id="Crypto/coins/BTC" stroke="none" stroke-width="1" fill="none" fill-rule="evenodd">
        <g id="Group" transform="translate(-0.000000, -0.000000)">
            <g id="BTC">
                <g id="Page-1">
                    <g id="Artboard">
                        <g id="BTC">
                            <path d="M23.8980658,12.0592717 C23.8980658,18.6537792 18.5522747,23.9995702 11.9577672,23.9995702 C5.36325972,23.9995702 0.0174686568,18.6537792 0.0174686568,12.0592717 C0.0174686568,5.4647642 5.36325972,0.118973135 11.9577672,0.118973135 C18.5522747,0.118973135 23.8980658,5.4647642 23.8980658,12.0592717" id="Fill-504" fill="#F7931A"></path>
                            <path d="M14.8568359,15.5488956 C14.7568956,15.8847762 14.5320598,16.1615523 14.2237613,16.3282389 C13.9154627,16.4951642 13.5608359,16.5319404 13.2249553,16.4318807 L9.8624478,15.4304478 L10.6115821,12.9154627 L13.9738508,13.917015 L13.9739702,13.917015 C14.6672239,14.1234627 15.063403,14.8555224 14.8568359,15.5488956 M15.9909254,10.3948657 C16.157612,10.7031642 16.1943881,11.0577911 16.0944478,11.3937911 C15.8878807,12.0869254 15.1554627,12.4828657 14.4625672,12.2767762 L14.4624478,12.2767762 L11.1000597,11.2753433 L11.8489553,8.76035825 L15.2114627,9.76179109 C15.5473433,9.86185079 15.8241195,10.0865672 15.9909254,10.3948657 M17.4961195,9.58053735 C17.1117613,8.87020899 16.4737911,8.35200003 15.6999404,8.12155227 L15.2550448,7.98913436 L15.8778508,5.89791047 L14.2798807,5.42197017 L13.6570747,7.51319406 L12.2927762,7.1068657 L12.9157015,5.01564181 L12.5328956,4.90161196 L10.9820896,4.43976121 L10.3817314,6.45552241 L8.49182093,5.89265674 L7.95844779,7.68370152 L9.84835825,8.2466866 L7.9067463,14.7658508 L6.01683585,14.2029851 L5.48346271,15.9941493 L7.37325376,16.5568956 L6.86662689,18.2582687 L7.24931346,18.3722986 L8.80011944,18.8341493 L9.32931347,17.0573135 L10.6968359,17.4645971 L10.1676418,19.2415523 L11.7591642,19.7155822 L12.2883583,17.9386269 L12.7363583,18.0720001 C13.0219702,18.157015 13.3136717,18.1991643 13.6035821,18.1991643 C14.0991045,18.1991643 14.5899702,18.0760598 15.0380896,17.8335523 C15.748418,17.4491941 16.2665075,16.8113434 16.4970747,16.0372538 C16.7394628,15.2230448 16.619821,14.3866269 16.2342687,13.6981493 C16.934209,13.3328956 17.4919404,12.6968359 17.7345672,11.8822687 C17.9651344,11.1081792 17.8803583,10.2907463 17.4961195,9.58053735" id="Fill-505" fill="#FFFFFF" fill-rule="nonzero"></path>
                        </g>
                    </g>
                </g>
            </g>
        </g>
    </g>
</svg>