<?xml version="1.0" encoding="UTF-8"?>
<svg width="24px" height="24px" viewBox="0 0 24 24" version="1.1" xmlns="http://www.w3.org/2000/svg" xmlns:xlink="http://www.w3.org/1999/xlink">
    <!-- Generator: Sketch 52.5 (67469) - http://www.bohemiancoding.com/sketch -->
    <title>Crypto/coins/BTCD</title>
    <desc>Created with Sketch.</desc>
    <g id="Crypto/coins/BTCD" stroke="none" stroke-width="1" fill="none" fill-rule="evenodd">
        <g id="Group" transform="translate(-0.000000, -0.000000)">
            <g id="BTCD">
                <g id="Page-1">
                    <g id="Artboard">
                        <g id="BTCD">
                            <path d="M23.9004538,11.9408598 C23.9004538,18.5353672 18.5546628,23.8811583 11.9601553,23.8811583 C5.36564778,23.8811583 0.0198567165,18.5353672 0.0198567165,11.9408598 C0.0198567165,5.34635226 5.36564778,0.000561194032 11.9601553,0.000561194032 C18.5546628,0.000561194032 23.9004538,5.34635226 23.9004538,11.9408598" id="Fill-310" fill="#333333"></path>
                            <path d="M19.3774807,11.9302448 C19.3774807,15.2347225 16.9551523,17.9729911 13.789421,18.4666031 C13.7778389,17.0372299 13.4412418,15.6853493 12.8504359,14.4804538 C14.2185553,14.4338866 15.3133613,13.3098269 15.3133613,11.9302448 C15.3133613,10.5594986 14.232406,9.44093138 12.8763463,9.38122989 C13.4584359,8.17454332 13.7859583,6.82254331 13.7896598,5.39388659 C16.9553911,5.88773734 19.3774807,8.62636422 19.3774807,11.9302448" id="Fill-312" fill="#FFFFFF"></path>
                            <path d="M12.4725135,5.36833435 C12.4725135,7.62134929 11.5330508,9.65478213 10.0241553,11.098006 C9.69412541,11.4140657 9.33699108,11.7017075 8.95609556,11.9572299 C8.14749854,12.4997971 7.23370749,12.8975284 6.25149853,13.1131702 C5.70117017,13.2341254 5.12922987,13.2977672 4.54272241,13.2977672 L4.54272241,9.26302093 C6.69376719,9.26302093 8.43740899,7.51937914 8.43740899,5.36833435 L12.4725135,5.36833435 Z" id="Fill-314" fill="#FF6600"></path>
                            <path d="M12.4722747,18.5135046 L8.47287168,18.5135046 C8.45543884,16.3576837 6.70248361,14.6154747 4.54272241,14.6154747 C5.25531942,14.6154747 5.94917017,14.5348777 6.61531943,14.3821613 C7.86761794,14.0955941 9.02308063,13.5545792 10.0241553,12.8161911 C11.5257672,14.2527284 12.4634389,16.2735045 12.4722747,18.5135046" id="Fill-316" fill="#FF6600"></path>
                        </g>
                    </g>
                </g>
            </g>
        </g>
    </g>
</svg>