<?xml version="1.0" encoding="UTF-8"?>
<svg width="24px" height="24px" viewBox="0 0 24 24" version="1.1" xmlns="http://www.w3.org/2000/svg" xmlns:xlink="http://www.w3.org/1999/xlink">
    <!-- Generator: Sketch 52.5 (67469) - http://www.bohemiancoding.com/sketch -->
    <title>Crypto/coins/BTG</title>
    <desc>Created with Sketch.</desc>
    <g id="Crypto/coins/BTG" stroke="none" stroke-width="1" fill="none" fill-rule="evenodd">
        <g id="Group" transform="translate(-0.000000, -0.000000)">
            <g id="BTG">
                <g id="Page-1">
                    <g id="Artboard">
                        <g id="BTG">
                            <path d="M23.9980419,11.9680239 C23.9980419,18.5625314 18.6522508,23.9083225 12.0577433,23.9083225 C5.46323584,23.9083225 0.117444777,18.5625314 0.117444777,11.9680239 C0.117444777,5.37351644 5.46323584,0.0277253732 12.0577433,0.0277253732 C18.6522508,0.0277253732 23.9980419,5.37351644 23.9980419,11.9680239" id="Fill-570" fill="#00176D"></path>
                            <path d="M23.4739702,11.9680239 C23.4739702,18.2730986 18.3626866,23.3842628 12.0577314,23.3842628 C5.75265674,23.3842628 0.64149254,18.2730986 0.64149254,11.9680239 C0.64149254,5.66306868 5.75265674,0.551785077 12.0577314,0.551785077 C18.3626866,0.551785077 23.4739702,5.66306868 23.4739702,11.9680239" id="Fill-571" fill="#FFFFFF"></path>
                            <path d="M22.848215,11.9680239 C22.848215,17.9274269 18.0171702,22.7584717 12.0577672,22.7584717 C6.0983642,22.7584717 1.26731941,17.9274269 1.26731941,11.9680239 C1.26731941,6.00862092 6.0983642,1.17757612 12.0577672,1.17757612 C18.0171702,1.17757612 22.848215,6.00862092 22.848215,11.9680239" id="Fill-572" fill="#ECA900"></path>
                            <path d="M19.4666269,11.9680239 C19.4666269,16.0598448 16.1494926,19.3768598 12.0577911,19.3768598 C7.96597018,19.3768598 4.64883584,16.0598448 4.64883584,11.9680239 C4.64883584,7.87620302 7.96597018,4.55918808 12.0577911,4.55918808 C16.1494926,4.55918808 19.4666269,7.87620302 19.4666269,11.9680239" id="Fill-573" fill="#FFFFFF"></path>
                            <path d="M18.8494329,11.9680239 C18.8494329,15.7190687 15.8087165,18.7597852 12.0577911,18.7597852 C8.3067463,18.7597852 5.26602987,15.7190687 5.26602987,11.9680239 C5.26602987,8.21709854 8.3067463,5.17638211 12.0577911,5.17638211 C15.8087165,5.17638211 18.8494329,8.21709854 18.8494329,11.9680239" id="Fill-574" fill="#00176D"></path>
                            <path d="M11.3331105,15.0829971 L11.3581851,12.6782209 L14.5725135,12.7116538 C15.2304239,12.7176239 15.7617672,13.2561314 15.7617672,13.9128478 L15.7617672,13.9259821 C15.7593792,14.2471762 15.6304239,14.5468777 15.4011702,14.7713553 C15.1719165,14.9970269 14.8686329,15.118818 14.5474389,15.1152359 L11.3331105,15.0829971 Z M14.6131105,8.73911645 C14.9343045,8.74269854 15.2352001,8.87045974 15.4596777,9.09971347 C15.6841553,9.3289672 15.8059463,9.63225079 15.8023642,9.95344482 C15.7963941,10.6161314 15.2507225,11.1498627 14.5892299,11.1426986 L14.5880359,11.1426986 L11.3737075,11.1104597 L11.3987821,8.70568362 L14.6131105,8.73911645 Z M14.2154986,6.0453851 C13.7319165,5.86986271 13.2220657,5.75165376 12.6919165,5.69792241 C12.4829612,5.6776239 12.271618,5.66687764 12.0578866,5.66687764 C11.832215,5.66687764 11.6077374,5.67881793 11.3880359,5.7015045 C10.7349015,5.77075823 10.112812,5.93911644 9.53490153,6.19225077 C8.91878213,6.46210152 8.35520003,6.82628063 7.86087167,7.26807167 L7.71639406,7.40299705 C6.50803585,8.54926571 5.75579704,10.1707583 5.75579704,11.9677732 C5.75579704,13.7170269 6.46743883,15.2991165 7.61848361,16.440609 C7.61967764,16.4418031 7.6220657,16.4441911 7.62445376,16.4453851 C8.14027466,16.957624 8.7456478,17.3803105 9.41430452,17.6895643 C9.98743885,17.9558329 10.6071403,18.1373254 11.2590806,18.2197135 C11.5205732,18.2531463 11.7868418,18.2698628 12.0578866,18.2698628 C12.2286329,18.2698628 12.3981851,18.2626986 12.5653493,18.2495643 C13.0954986,18.2077732 13.6053493,18.1003105 14.0901254,17.9355344 C16.5725135,17.0901613 18.3587822,14.7379224 18.3587822,11.9677732 C18.3587822,9.24538511 16.633409,6.92657913 14.2154986,6.0453851 Z" id="Fill-575" fill="#FFFFFF" fill-rule="nonzero"></path>
                            <path d="M14.5892299,11.1426986 L14.5880359,11.1426986 L11.3737075,11.1104597 L11.3987821,8.70568362 L14.6131105,8.73911645 C14.9343045,8.74269854 15.2352001,8.87045974 15.4596777,9.09971347 C15.6841553,9.3289672 15.8059463,9.63225079 15.8023642,9.95344482 C15.7963941,10.6161314 15.2507225,11.1498627 14.5892299,11.1426986 Z M15.7617672,13.9259821 C15.7593792,14.2471762 15.6304239,14.5468777 15.4011702,14.7713553 C15.1719165,14.9970269 14.8686329,15.118818 14.5474389,15.1152359 L11.3331105,15.0829971 L11.3581851,12.6782209 L14.5725135,12.7116538 C15.2304239,12.7176239 15.7617672,13.2561314 15.7617672,13.9128478 L15.7617672,13.9259821 Z M17.3713195,9.96896721 C17.3784837,9.22986273 17.0978866,8.53135526 16.5796777,8.00240003 C16.0614687,7.47344481 15.3689314,7.4173254 14.6286329,7.41016122 L14.2035583,7.40538511 L14.2154986,6.0453851 C13.7319165,5.86986271 13.2220657,5.75165376 12.6919165,5.69792241 L12.6763941,7.38986272 L11.3725135,7.37672839 L11.3880359,5.7015045 C10.7349015,5.77075823 10.112812,5.93911644 9.53490153,6.19225077 L9.52415526,7.28598212 L7.86087167,7.26807167 L7.71639406,7.40299705 L7.70087167,8.74031048 L9.50743885,8.75941496 L9.44296123,14.9910568 L7.63639406,14.9719523 L7.61848361,16.440609 L7.61848361,16.4453851 L7.62445376,16.4453851 L9.42505079,16.4644896 L9.41430452,17.6895643 C9.98743885,17.9558329 10.6071403,18.1373254 11.2590806,18.2197135 L11.274603,16.4107583 L12.5820657,16.4238926 L12.5653493,18.2495643 C13.0954986,18.2077732 13.6053493,18.1003105 14.0901254,17.9355344 L14.1032598,16.439415 L14.5319165,16.4441911 C14.8053493,16.4477732 15.072812,16.4107583 15.3271404,16.3379225 C15.7641553,16.2125493 16.1653493,16.2185195 16.4984837,15.8913553 C17.0274389,15.3743404 17.3223643,14.681803 17.3295284,13.9415045 C17.3378866,13.1629971 17.0214687,12.4561314 16.5080359,11.9474747 C17.032215,11.4495642 17.3629613,10.7486687 17.3713195,9.96896721 Z" id="Fill-576" fill="#001D6D" fill-rule="nonzero"></path>
                            <path d="M15.7617433,13.912812 L15.7617433,13.9259463 C15.7593553,14.2471404 15.6304001,14.5468419 15.4011463,14.7713195 C15.1718926,14.9969911 14.868609,15.1187822 14.547415,15.1152001 L11.3330866,15.0829613 L11.3581612,12.6781851 L14.5724896,12.711618 C15.2304001,12.7175881 15.7617433,13.2560956 15.7617433,13.912812" id="Fill-577" fill="#FFFFFF"></path>
                            <path d="M15.8023881,9.95345676 C15.796418,10.6161433 15.2507463,11.1498747 14.5892538,11.1427105 L14.5880598,11.1427105 L11.3737314,11.1104717 L11.398806,8.70569556 L14.6131344,8.73912839 C14.9343284,8.74271048 15.2352239,8.87047168 15.4597016,9.09972541 C15.6841792,9.32897914 15.8059702,9.63226273 15.8023881,9.95345676" id="Fill-578" fill="#FFFFFF"></path>
                        </g>
                    </g>
                </g>
            </g>
        </g>
    </g>
</svg>