<?xml version="1.0" encoding="UTF-8"?>
<svg width="24px" height="24px" viewBox="0 0 24 24" version="1.1" xmlns="http://www.w3.org/2000/svg" xmlns:xlink="http://www.w3.org/1999/xlink">
    <!-- Generator: Sketch 52.5 (67469) - http://www.bohemiancoding.com/sketch -->
    <title>Crypto/coins/BTM</title>
    <desc>Created with Sketch.</desc>
    <g id="Crypto/coins/BTM" stroke="none" stroke-width="1" fill="none" fill-rule="evenodd">
        <g id="Group" transform="translate(-0.000000, 0.059701)">
            <g id="BTM">
                <g id="Page-1">
                    <g id="Artboard">
                        <g id="BTM">
                            <polygon id="Fill-450" fill="#333333" points="17.1137792 7.90937317 14.8053613 10.3051941 9.3602269 0.112716418"></polygon>
                            <polygon id="Fill-451" fill="#020100" points="14.805421 10.3052538 8.28936123 3.79313434 4.85210748 4.68626868 9.36028661 0.11277612"></polygon>
                            <polygon id="Fill-452" fill="#333333" points="9.36028661 0.112740299 4.85210748 4.68635226 4.11180897 7.32133734 2.06476419 2.09447165"></polygon>
                            <polygon id="Fill-453" fill="#555555" points="4.11179703 7.32133734 0.19155821 9.41208362 2.06475225 2.09447165"></polygon>
                            <polygon id="Fill-454" fill="#020100" points="4.11179703 7.32133734 1.15000597 10.1960836 0.19155821 9.41208362"></polygon>
                            <polygon id="Fill-455" fill="#333333" points="16.1448598 17.0349613 13.7489195 14.7265433 23.9415165 9.28140899"></polygon>
                            <polygon id="Fill-456" fill="#020100" points="13.7489195 14.7265433 20.2610389 8.21060302 19.3679046 4.77322987 23.9415165 9.28140899"></polygon>
                            <polygon id="Fill-457" fill="#333333" points="23.9414926 9.28145676 19.3678807 4.77315823 16.7328956 4.03297912 21.9597613 1.98581493"></polygon>
                            <polygon id="Fill-458" fill="#555555" points="16.7328956 4.03297912 14.6421493 0.112740299 21.9597613 1.98581493"></polygon>
                            <polygon id="Fill-459" fill="#020100" points="16.7328956 4.03297912 13.8580299 1.07118806 14.6421493 0.112740299"></polygon>
                            <polygon id="Fill-460" fill="#333333" points="6.88856122 16.0770508 9.19697914 13.6812299 14.6421135 23.8737076"></polygon>
                            <polygon id="Fill-461" fill="#020100" points="9.19691944 13.6811821 15.7129792 20.1933016 19.1503523 19.3001672 14.6421732 23.8736598"></polygon>
                            <polygon id="Fill-462" fill="#333333" points="14.6421135 23.8736956 19.1502926 19.3000837 19.8905911 16.6650986 21.9376359 21.8920837"></polygon>
                            <polygon id="Fill-463" fill="#555555" points="19.8905911 16.6650866 23.8108299 14.5743404 21.9376359 21.8920717"></polygon>
                            <polygon id="Fill-464" fill="#020100" points="19.8905911 16.6650866 22.8522628 13.7903404 23.8108299 14.5743404"></polygon>
                            <polygon id="Fill-465" fill="#333333" points="7.85754033 6.95147466 10.2533612 9.25989258 0.0608835823 14.7050269"></polygon>
                            <polygon id="Fill-466" fill="#020100" points="10.253409 9.25989258 3.74128957 15.7758329 4.6344239 19.2132061 0.0609313435 14.7050269"></polygon>
                            <polygon id="Fill-467" fill="#333333" points="0.0608955226 14.7049672 4.63450748 19.2132658 7.26949257 19.9535643 2.04250747 22.000609"></polygon>
                            <polygon id="Fill-468" fill="#555555" points="7.26950451 19.9535762 9.36025079 23.8736956 2.04251941 22.000621"></polygon>
                            <polygon id="Fill-469" fill="#020100" points="7.26950451 19.9535762 10.1443702 22.9152479 9.36025079 23.8736956"></polygon>
                        </g>
                    </g>
                </g>
            </g>
        </g>
    </g>
</svg>