<?xml version="1.0" encoding="UTF-8"?>
<svg width="24px" height="24px" viewBox="0 0 24 24" version="1.1" xmlns="http://www.w3.org/2000/svg" xmlns:xlink="http://www.w3.org/1999/xlink">
    <!-- Generator: Sketch 52.5 (67469) - http://www.bohemiancoding.com/sketch -->
    <title>Crypto/coins/BTS</title>
    <desc>Created with Sketch.</desc>
    <g id="Crypto/coins/BTS" stroke="none" stroke-width="1" fill="none" fill-rule="evenodd">
        <g id="Group" transform="translate(1.558442, -0.000000)">
            <g id="BTS">
                <g id="Page-1">
                    <g id="Artboard">
                        <g id="BTS">
                            <path d="M10.3960312,23.9262754 C4.66709612,23.9262754 0.00642077925,19.2656001 0.00642077925,13.536665 C0.00642077925,7.8077299 4.66709612,3.14705456 10.3960312,3.14705456 C16.1248624,3.14705456 20.7856416,7.8077299 20.7856416,13.536665 C20.7856416,19.2656001 16.1248624,23.9262754 10.3960312,23.9262754" id="Fill-45" fill="#74C4EE"></path>
                            <path d="M10.3960312,3.78336625 C5.01805716,3.78336625 0.642680522,8.15874289 0.642680522,13.536613 C0.642680522,18.9145871 5.01805716,23.2899637 10.3960312,23.2899637 C15.7740053,23.2899637 20.149278,18.9145871 20.149278,13.536613 C20.149278,8.15874289 15.7740053,3.78336625 10.3960312,3.78336625" id="Fill-47" fill="#FFFFFF"></path>
                            <path d="M9.47805718,15.8287689 C9.69447277,15.973704 9.94268056,16.0789507 10.2066806,16.1305871 L10.2066806,20.8657559 C8.64616107,20.7764053 7.2266286,20.1530287 6.13073249,19.1761975 L9.47805718,15.8287689 Z" id="Fill-49" fill="#0D568D"></path>
                            <path d="M11.7295273,15.8287689 L15.076852,19.1761975 C13.9809559,20.1530287 12.5614234,20.7764053 11.0009039,20.8657559 L11.0009039,16.1305871 C11.2649039,16.0789507 11.5131117,15.973704 11.7295273,15.8287689" id="Fill-51" fill="#1B7EAD"></path>
                            <path d="M12.5931637,14.5382858 L17.3283325,14.5382858 C17.2389819,16.0988053 16.6156053,17.5163637 15.6387741,18.6122598 L12.2913455,15.2649351 C12.4362806,15.0485195 12.5415273,14.8023897 12.5931637,14.5382858" id="Fill-53" fill="#1B7EAD"></path>
                            <path d="M8.61442082,14.5382858 C8.66605718,14.8023897 8.77130393,15.0485195 8.916239,15.2649351 L5.56881041,18.6122598 C4.59197924,17.5163637 3.96860261,16.0988053 3.87925196,14.5382858 L8.61442082,14.5382858 Z" id="Fill-55" fill="#0D568D"></path>
                            <path d="M15.0768832,9.10621302 L11.7295585,12.4536416 C11.5131429,12.3067325 11.2649351,12.2034598 11.0009351,12.1518234 L11.0009351,7.41468055 C12.5614546,7.5040312 13.9809871,8.12740783 15.0768832,9.10621302" id="Fill-57" fill="#74C4EE"></path>
                            <path d="M17.3283533,13.7440936 L12.5931845,13.7440936 C12.5415481,13.4799897 12.4363014,13.2338598 12.2913663,13.0154702 L15.6387949,9.6680416 C16.615626,10.7640416 17.2390027,12.1816001 17.3283533,13.7440936" id="Fill-59" fill="#4CA1D6"></path>
                            <path d="M9.87609355,11.9290078 L9.87609355,11.9357611 L9.87162602,11.9311897 C9.87391173,11.9290078 9.87609355,11.9290078 9.87609355,11.9290078" id="Fill-61" fill="#103D54"></path>
                            <path d="M8.91621822,13.0154598 C8.77128315,13.2338494 8.6660364,13.4800832 8.61440004,13.7440832 L3.87923118,13.7440832 L3.87923118,7.96060263 L8.91621822,13.0154598 Z" id="Fill-63" fill="#024E7B"></path>
                            <path d="M10.2067013,7.41464938 L10.2067013,12.1517923 C10.0915845,12.1736104 9.9784416,12.2073767 9.8691429,12.249039 C9.8691429,12.249039 9.86716887,12.249039 9.86519485,12.2511169 C9.73023381,12.3026494 9.60119485,12.3701819 9.48202601,12.4515325 L3.8792208,6.8488312 L3.8792208,0.0865454549 L10.2067013,7.41464938 Z" id="Fill-65" fill="#024E7B"></path>
                            <path d="M9.87609355,11.9290078 L9.87609355,11.9357611 L9.87162602,11.9311897 C9.87391173,11.9290078 9.87609355,11.9290078 9.87609355,11.9290078" id="Fill-67" fill="#525252"></path>
                        </g>
                    </g>
                </g>
            </g>
        </g>
    </g>
</svg>