<?xml version="1.0" encoding="UTF-8"?>
<svg width="24px" height="24px" viewBox="0 0 24 24" version="1.1" xmlns="http://www.w3.org/2000/svg" xmlns:xlink="http://www.w3.org/1999/xlink">
    <!-- Generator: Sketch 52.5 (67469) - http://www.bohemiancoding.com/sketch -->
    <title>Crypto/coins/CNX</title>
    <desc>Created with Sketch.</desc>
    <defs>
        <linearGradient x1="18.7776335%" y1="100%" x2="63.9838921%" y2="83.7766829%" id="linearGradient-1">
            <stop stop-color="#2E6198" offset="0%"></stop>
            <stop stop-color="#1D94CA" offset="100%"></stop>
        </linearGradient>
        <linearGradient x1="72.1445775%" y1="23.7286859%" x2="37.4517923%" y2="60.9497882%" id="linearGradient-2">
            <stop stop-color="#2E6198" offset="0%"></stop>
            <stop stop-color="#1D94CA" offset="100%"></stop>
        </linearGradient>
        <linearGradient x1="27.1444482%" y1="20.220747%" x2="67.4156323%" y2="67.3862478%" id="linearGradient-3">
            <stop stop-color="#2E6198" offset="0%"></stop>
            <stop stop-color="#1D94CA" offset="100%"></stop>
        </linearGradient>
        <linearGradient x1="72.4010022%" y1="75.8633364%" x2="50%" y2="35.9163391%" id="linearGradient-4">
            <stop stop-color="#2E6198" offset="0%"></stop>
            <stop stop-color="#1D94CA" offset="100%"></stop>
        </linearGradient>
    </defs>
    <g id="Crypto/coins/CNX" stroke="none" stroke-width="1" fill="none" fill-rule="evenodd">
        <g id="Group" transform="translate(-0.000000, -0.000000)">
            <g id="CNX">
                <g id="Page-1">
                    <g id="Artboard">
                        <g id="CNX">
                            <path d="M22.4364777,11.9266389 C22.4364777,17.6584598 17.7899105,22.305027 12.0580896,22.305027 C6.32614928,22.305027 1.6795821,17.6584598 1.6795821,11.9266389 C1.6795821,6.19469853 6.32614928,1.54813135 12.0580896,1.54813135 C17.7899105,1.54813135 22.4364777,6.19469853 22.4364777,11.9266389" id="Fill-391" fill="#2E6198"></path>
                            <path d="M17.9651702,11.9266389 C17.9651702,15.1889672 15.3205135,17.8337434 12.0580657,17.8337434 C8.79561795,17.8337434 6.15096122,15.1889672 6.15096122,11.9266389 C6.15096122,8.66419108 8.79561795,6.01941495 12.0580657,6.01941495 C15.3205135,6.01941495 17.9651702,8.66419108 17.9651702,11.9266389" id="Fill-393" fill="#FFFFFF"></path>
                            <path d="M11.016,1.5998806 C11.016,1.5998806 7.69516421,1.73420896 5.04131345,4.27988061 L7.96394033,7.66865675 C7.96394033,7.66865675 9.14017914,6.33146271 11.4046568,6.05182092 L11.5456717,7.66865675 C11.5456717,7.66865675 13.4973135,4.38173136 16.1677613,4.84405972 C16.1677613,4.84405972 15.140418,1.76262687 10.8779702,0.016597015 L11.016,1.5998806 Z" id="Fill-396" fill="url(#linearGradient-1)"></path>
                            <path d="M12.6801195,17.8618508 L12.5392239,16.2451344 C12.5392239,16.2451344 10.5877015,19.531821 7.91713436,19.0697314 C7.91713436,19.0697314 8.94423884,22.1509255 13.2066866,23.8971941 L13.0686568,22.3136717 C13.0686568,22.3136717 16.389612,22.1793434 19.0435822,19.6336717 L16.1207165,16.2451344 C16.1207165,16.2451344 14.9447165,17.5820896 12.6801195,17.8618508" id="Fill-398" fill="url(#linearGradient-2)"></path>
                            <path d="M16.3305075,7.87844779 C16.3305075,7.87844779 17.667821,9.0544478 17.9473434,11.3189254 L16.3305075,11.4601792 C16.3305075,11.4601792 19.6175523,13.4115821 19.155224,16.0821493 C19.155224,16.0821493 22.2365374,15.0549254 23.9826867,10.7924777 L22.3994031,10.9306269 C22.3994031,10.9306269 22.2650747,7.60967167 19.7194031,4.95558211 L16.3305075,7.87844779 Z" id="Fill-400" fill="url(#linearGradient-3)"></path>
                            <path d="M7.75414929,12.453612 L6.13755226,12.5946269 C6.41683375,14.8590875 7.75412915,16.0353257 7.75414929,16.0353434 L7.75414929,12.453612 Z" id="Clip-403"></path>
                            <path d="M0.102089553,13.1213135 L1.68561195,12.9831642 C1.68561195,12.9831642 1.8198209,16.3041195 4.36561196,18.9579702 L7.75414929,16.0353434 C7.75414929,16.0353434 6.41683585,14.8591045 6.13755226,12.5946269 L7.75414929,12.453612 C7.75414929,12.453612 4.4673433,10.502209 4.92955226,7.83140302 C4.92955226,7.83140302 1.84811941,8.8586269 0.102089553,13.1213135" id="Fill-402" fill="url(#linearGradient-4)"></path>
                        </g>
                    </g>
                </g>
            </g>
        </g>
    </g>
</svg>