<?xml version="1.0" encoding="UTF-8"?>
<svg width="24px" height="24px" viewBox="0 0 24 24" version="1.1" xmlns="http://www.w3.org/2000/svg" xmlns:xlink="http://www.w3.org/1999/xlink">
    <!-- Generator: Sketch 52.5 (67469) - http://www.bohemiancoding.com/sketch -->
    <title>Crypto/coins/CVC</title>
    <desc>Created with Sketch.</desc>
    <g id="Crypto/coins/CVC" stroke="none" stroke-width="1" fill="none" fill-rule="evenodd">
        <g id="Group" transform="translate(-0.000000, -0.000000)">
            <g id="CVC">
                <g id="Page-1">
                    <g id="Artboard">
                        <g id="CVC">
                            <path d="M12.0581015,21.1434031 C6.99577316,21.1434031 2.89272837,17.0394031 2.89272837,11.9780299 C2.89272837,6.91570152 6.99577316,2.8117015 12.0581015,2.8117015 C16.2037732,2.8117015 19.7066986,5.56405972 20.8380419,9.3424478 L23.7063404,9.3424478 C22.5063404,4.01611942 17.746221,0.0377313434 12.0581015,0.0377313434 C5.46335525,0.0377313434 0.117802986,5.3832836 0.117802986,11.9780299 C0.117802986,18.571821 5.46335525,23.9172538 12.0581015,23.9172538 C17.7293851,23.9172538 22.4784001,19.9626269 23.6961911,14.659821 L20.8245493,14.659821 C19.6775643,18.4133732 16.186818,21.1434031 12.0581015,21.1434031" id="Fill-420" fill="#2FA73F"></path>
                            <path d="M13.1826269,12.7948777 L13.1826269,16.3832956 L10.8985672,16.3832956 L10.8985672,12.7779224 C10.0031642,12.3477135 9.3864478,11.4309374 9.3864478,10.3714747 C9.3864478,8.89529556 10.5817911,7.69875824 12.0580896,7.69875824 C13.5331941,7.69875824 14.7297314,8.89529556 14.7297314,10.3714747 C14.7297314,11.4444299 14.0959404,12.3712359 13.1826269,12.7948777 M20.8380299,9.34245974 C19.7066866,5.56407166 16.2037613,2.81171344 12.0580896,2.81171344 C6.99576122,2.81171344 2.89271643,6.91571346 2.89271643,11.9780418 C2.89271643,17.039415 6.99576122,21.143415 12.0580896,21.143415 C16.186806,21.143415 19.6775523,18.4133852 20.8245374,14.6598329 C21.0841195,13.8115941 21.2233434,12.9105792 21.2233434,11.9780418 C21.2233434,11.0612657 21.0885374,10.1770866 20.8380299,9.34245974" id="Fill-421" fill="#FFFFFF" fill-rule="nonzero"></path>
                            <path d="M14.7297433,10.3714866 C14.7297433,11.4444418 14.0959523,12.3712478 13.1826389,12.7948896 L13.1826389,16.3833075 L10.8985791,16.3833075 L10.8985791,12.7779344 C10.0031762,12.3477254 9.38645974,11.4309493 9.38645974,10.3714866 C9.38645974,8.8953075 10.581803,7.69877018 12.0581015,7.69877018 C13.533206,7.69877018 14.7297433,8.8953075 14.7297433,10.3714866" id="Fill-422" fill="#2FA73F"></path>
                            <path d="M23.9984001,11.9780538 C23.9984001,12.9004418 23.8939225,13.7981135 23.6961911,14.6598448 L20.8245493,14.6598448 C21.0841314,13.8114866 21.2233553,12.9105911 21.2233553,11.9780538 C21.2233553,11.0612777 21.0885493,10.1770985 20.8380419,9.34247168 L23.7063404,9.34247168 C23.8971464,10.1895165 23.9984001,11.0725015 23.9984001,11.9780538" id="Fill-423" fill="#FFFFFF"></path>
                        </g>
                    </g>
                </g>
            </g>
        </g>
    </g>
</svg>