<?xml version="1.0" encoding="UTF-8"?>
<svg width="24px" height="24px" viewBox="0 0 24 24" version="1.1" xmlns="http://www.w3.org/2000/svg" xmlns:xlink="http://www.w3.org/1999/xlink">
    <!-- Generator: Sketch 52.5 (67469) - http://www.bohemiancoding.com/sketch -->
    <title>Crypto/coins/DASH</title>
    <desc>Created with Sketch.</desc>
    <g id="Crypto/coins/DASH" stroke="none" stroke-width="1" fill="none" fill-rule="evenodd">
        <g id="Group" transform="translate(-0.000000, -0.000000)">
            <g id="DASH">
                <g id="Page-1">
                    <g id="Artboard">
                        <g id="DASH">
                            <path d="M23.8980658,11.9680239 C23.8980658,18.5625314 18.5522747,23.9083225 11.9577672,23.9083225 C5.36325972,23.9083225 0.0174686568,18.5625314 0.0174686568,11.9680239 C0.0174686568,5.37351644 5.36325972,0.0277253732 11.9577672,0.0277253732 C18.5522747,0.0277253732 23.8980658,5.37351644 23.8980658,11.9680239" id="Fill-501" fill="#0986D3"></path>
                            <path d="M19.7856478,10.3355105 L18.0890508,15.2483463 C17.7333493,16.2802269 16.7610508,16.9739583 15.6695881,16.9739583 L5.28069256,16.9739583 L6.08069256,14.3984359 L15.6583642,14.3984359 L17.345409,9.51461497 L7.59699108,9.51461497 L8.39699108,6.93909257 L17.3663045,6.93909257 C18.1920956,6.93909257 18.9712001,7.34148063 19.4508419,8.01431645 C19.9304837,8.68715228 20.0560956,9.55473437 19.7856478,10.3355105" id="Fill-502" fill="#FFFFFF"></path>
                            <polygon id="Fill-503" fill="#FFFFFF" points="11.6888717 10.6687045 11.6888717 10.8313314 10.9403344 13.2442269 3.98964778 13.2442269 4.78964778 10.6687045"></polygon>
                        </g>
                    </g>
                </g>
            </g>
        </g>
    </g>
</svg>