<?xml version="1.0" encoding="UTF-8"?>
<svg width="24px" height="24px" viewBox="0 0 24 24" version="1.1" xmlns="http://www.w3.org/2000/svg" xmlns:xlink="http://www.w3.org/1999/xlink">
    <!-- Generator: Sketch 52.5 (67469) - http://www.bohemiancoding.com/sketch -->
    <title>Crypto/coins/DCR</title>
    <desc>Created with Sketch.</desc>
    <g id="Crypto/coins/DCR" stroke="none" stroke-width="1" fill="none" fill-rule="evenodd">
        <g id="Group" transform="translate(-0.000000, -0.000000)">
            <g id="DCR">
                <g id="Page-1">
                    <g id="Artboard">
                        <g id="DCR">
                            <path d="M23.8876777,12.0221374 C23.8876777,18.6165255 18.5418866,23.9624359 11.9473792,23.9624359 C5.35287166,23.9624359 0.00708059704,18.6165255 0.00708059704,12.0221374 C0.00708059704,5.42762987 5.35287166,0.0818388063 11.9473792,0.0818388063 C18.5418866,0.0818388063 23.8876777,5.42762987 23.8876777,12.0221374" id="Fill-97" fill="#F4F4F4"></path>
                            <path d="M11.6106866,17.0105911 L12.6294329,17.8985911 L8.84973138,17.8985911 C6.2349254,17.8985911 4.115403,15.7790687 4.115403,13.1642627 C4.115403,12.365815 4.31289554,11.6135762 4.66226868,10.9536359 C4.98155226,10.3495762 5.42823883,9.823009 5.96626868,9.40927765 C5.99731346,9.38527765 6.02871644,9.36163586 6.06047764,9.33847168 C6.37856719,9.10611347 6.72662689,8.91256123 7.09773137,8.76462093 L6.71397018,8.43005377 L6.68483585,8.40474033 L4.09307464,6.14551644 L7.51253734,6.14551644 L10.1042985,8.40474033 L10.4047165,8.66671048 C10.4012538,8.67375526 10.3974329,8.68080004 10.3938508,8.68760601 C10.4136717,8.69429257 10.4331344,8.70133735 10.4525971,8.70850153 L12.6553433,10.6285015 L8.84973138,10.6285015 C8.47564183,10.6285015 8.12029854,10.7095762 7.80029854,10.8551284 C7.12734331,11.1613971 6.61188062,11.7533971 6.40841794,12.4760239 C6.3469254,12.6948896 6.31397018,12.9256956 6.31397018,13.1642627 C6.31397018,13.269815 6.32053734,13.3739344 6.33295525,13.4762627 C6.4867463,14.7296359 7.5549254,15.7002628 8.84973138,15.7002628 L10.107403,15.7002628 L11.6106866,17.0105911 Z" id="Fill-99" fill="#226DFF"></path>
                            <path d="M20.9957135,17.8986508 L17.5763702,17.8986508 L15.0543404,15.7002031 L14.9410269,15.6014568 L13.4471762,14.2992478 L12.5030568,13.4763224 L14.5723105,13.4763224 C14.9567881,13.4763224 15.3215642,13.3907105 15.648012,13.2371583 C16.3269374,12.9187105 16.8415642,12.3083224 17.0301016,11.5674269 C17.0809672,11.3668299 17.1080717,11.1568 17.1080717,10.9405612 C17.1080717,10.8348896 17.1015045,10.7307702 17.0890866,10.6284418 C16.9352956,9.3751881 15.8671165,8.40468063 14.5723105,8.40468063 L13.4015642,8.40468063 L11.8292657,7.03417316 L10.809803,6.14557615 L14.5912956,6.14557615 C17.2058628,6.14557615 19.3255046,8.26521794 19.3255046,10.8796657 C19.3255046,11.6785911 19.1276538,12.4311881 18.7780419,13.0912478 C18.454818,13.7022329 18.0019225,14.2336956 17.4558926,14.6493374 C17.4224598,14.6748896 17.3885493,14.6999642 17.3542807,14.7245613 L17.4558926,14.8129195 L20.9957135,17.8986508 Z" id="Fill-101" fill="#1BD9A2"></path>
                        </g>
                    </g>
                </g>
            </g>
        </g>
    </g>
</svg>