<?xml version="1.0" encoding="UTF-8"?>
<svg width="24px" height="24px" viewBox="0 0 24 24" version="1.1" xmlns="http://www.w3.org/2000/svg" xmlns:xlink="http://www.w3.org/1999/xlink">
    <!-- Generator: Sketch 52.5 (67469) - http://www.bohemiancoding.com/sketch -->
    <title>Crypto/coins/DGB</title>
    <desc>Created with Sketch.</desc>
    <g id="Crypto/coins/DGB" stroke="none" stroke-width="1" fill="none" fill-rule="evenodd">
        <g id="Group" transform="translate(-0.000000, -0.000000)">
            <g id="DGB">
                <g id="Page-1">
                    <g id="Artboard">
                        <g id="DGB">
                            <path d="M23.8815046,11.9834269 C23.8815046,18.5779344 18.5357135,23.9237255 11.941206,23.9237255 C5.34669853,23.9237255 0.00090746269,18.5779344 0.00090746269,11.9834269 C0.00090746269,5.38891943 5.34669853,0.0431283584 11.941206,0.0431283584 C18.5357135,0.0431283584 23.8815046,5.38891943 23.8815046,11.9834269" id="Fill-416" fill="#003268"></path>
                            <path d="M22.895021,12.0616598 C22.895021,18.0681075 18.0258866,22.9372419 12.0194389,22.9372419 C6.01299107,22.9372419 1.14385672,18.0681075 1.14385672,12.0616598 C1.14385672,6.05521197 6.01299107,1.18607762 12.0194389,1.18607762 C18.0258866,1.18607762 22.895021,6.05521197 22.895021,12.0616598" id="Fill-417" fill="#FFFFFF"></path>
                            <path d="M22.1030449,12.0616598 C22.1030449,17.6307344 17.588418,22.1453613 12.0194627,22.1453613 C6.45038809,22.1453613 1.9357612,17.6307344 1.9357612,12.0616598 C1.9357612,6.4925851 6.45038809,1.97807762 12.0194627,1.97807762 C17.588418,1.97807762 22.1030449,6.4925851 22.1030449,12.0616598" id="Fill-418" fill="#0063CF"></path>
                            <path d="M17.1506269,14.045803 C17.1506269,14.045803 15.9457314,15.8398329 12.8703881,16.5658031 L12.3112239,19.8793553 L11.2862687,19.7064598 L11.7827463,16.7619822 C11.4222687,16.809624 11.0417314,16.8423404 10.6393433,16.8560717 L10.1899105,19.5215046 L9.16495526,19.3484896 L9.58608959,16.8529672 C8.46035824,16.8084299 7.19026869,16.6284896 5.7629254,16.261206 L9.44005974,9.13559407 L10.8480597,9.37177317 L11.873015,9.54431049 L12.3029851,9.61631049 L11.6516418,10.8576239 L10.0977314,13.8183404 L10.0977314,13.8189374 L9.18931347,15.5504001 C9.18931347,15.5504001 9.4225075,15.5778628 9.80185079,15.5722508 C10.0877015,15.5691463 10.4568956,15.5464598 10.8719403,15.4788777 C11.2379105,15.4192956 11.6391045,15.3253254 12.0504478,15.1778627 C12.4321792,15.0412657 12.8214329,14.859415 13.1988657,14.6175045 C13.9937314,14.1090866 14.7340299,13.3361911 15.2285971,12.165206 C15.2285971,12.165206 16.4516419,10.1761911 14.1208956,9.15434034 C13.8413732,9.0327881 13.5109851,8.92377317 13.1205374,8.83457914 C12.8904478,8.78132541 12.6389851,8.73487765 12.3656717,8.69666869 L12.0259702,8.63780302 L11.002209,8.46048959 L6.09701495,7.61045973 L7.55946272,5.91780301 L11.3175523,6.58992242 L11.8315821,3.54323584 L12.8565374,3.71625076 L12.3405971,6.77225077 L13.4357613,6.96854928 L13.9528956,3.90120599 L14.9778508,4.07422091 L14.458806,7.15087764 L15.6254926,7.35959406 C15.6254926,7.35959406 21.2045971,8.8847284 17.1506269,14.045803" id="Fill-419" fill="#FFFFFF"></path>
                        </g>
                    </g>
                </g>
            </g>
        </g>
    </g>
</svg>