<?xml version="1.0" encoding="UTF-8"?>
<svg width="24px" height="24px" viewBox="0 0 24 24" version="1.1" xmlns="http://www.w3.org/2000/svg" xmlns:xlink="http://www.w3.org/1999/xlink">
    <!-- Generator: Sketch 52.5 (67469) - http://www.bohemiancoding.com/sketch -->
    <title>Crypto/coins/DGD</title>
    <desc>Created with Sketch.</desc>
    <g id="Crypto/coins/DGD" stroke="none" stroke-width="1" fill="none" fill-rule="evenodd">
        <g id="Group" transform="translate(-0.000000, -0.000000)">
            <g id="DGD">
                <g id="Page-1">
                    <g id="Artboard">
                        <g id="DGD">
                            <path d="M23.9537314,11.9803941 C23.9537314,18.5749016 18.6079404,23.9206926 12.0134329,23.9206926 C5.4189254,23.9206926 0.0731343287,18.5749016 0.0731343287,11.9803941 C0.0731343287,5.38588659 5.4189254,0.0400955226 12.0134329,0.0400955226 C18.6079404,0.0400955226 23.9537314,5.38588659 23.9537314,11.9803941" id="Fill-208" fill="#000000"></path>
                            <path d="M3.64071643,10.4148538 L3.64071643,8.63109257 C3.64071643,8.49437615 3.7515224,8.38345078 3.88823882,8.38345078 L9.17982093,8.38345078 C9.31653735,8.38345078 9.42746273,8.49437615 9.42746273,8.63109257 L9.42746273,10.4148538 C9.42746273,10.5516896 9.31653735,10.6624956 9.17982093,10.6624956 L3.88823882,10.6624956 C3.7515224,10.6624956 3.64071643,10.5516896 3.64071643,10.4148538" id="Fill-210" fill="#EFCA0C"></path>
                            <path d="M5.46988659,14.1467821 L5.46988659,13.1953792 C5.46988659,13.0944836 5.55167764,13.012812 5.65245375,13.012812 L9.70702094,13.012812 C9.80779706,13.012812 9.8895881,13.0944836 9.8895881,13.1953792 L9.8895881,14.1467821 C9.8895881,14.2476777 9.80779706,14.3292299 9.70702094,14.3292299 L5.65245375,14.3292299 C5.55167764,14.3292299 5.46988659,14.2476777 5.46988659,14.1467821 M9.8895881,8.54797616 L9.8895881,11.0191403 C9.8895881,11.1098866 9.81579706,11.1836777 9.72505079,11.1836777 L5.46988659,11.1836777 L3.80517017,11.1836777 C3.71430449,11.1836777 3.64075225,11.2572299 3.64075225,11.3480956 L3.64075225,13.012812 L3.64075225,14.3292299 L3.64075225,15.9940657 C3.64075225,16.084812 3.71430449,16.1586031 3.80517017,16.1586031 L5.46988659,16.1586031 L9.8895881,16.1586031 L11.4156777,16.1586031 L11.5543045,16.1586031 C11.6450508,16.1586031 11.7187224,16.084812 11.7187224,15.9940657 L11.7187224,8.54797616 C11.7187224,8.45711048 11.6450508,8.38343884 11.5543045,8.38343884 L10.054006,8.38343884 C9.96314034,8.38343884 9.8895881,8.45711048 9.8895881,8.54797616" id="Fill-212" fill="#FDFDFD" fill-rule="nonzero"></path>
                            <path d="M14.1376239,14.1541254 L14.1376239,10.3877971 C14.1376239,10.2910806 14.2160717,10.2126329 14.3127881,10.2126329 L20.2112956,10.2126329 C20.308012,10.2126329 20.3864598,10.1343045 20.3864598,10.0374687 L20.3864598,8.55866272 C20.3864598,8.4618269 20.308012,8.38349854 20.2112956,8.38349854 L14.1376239,8.38349854 L12.4835344,8.38349854 C12.386818,8.38349854 12.3084896,8.4618269 12.3084896,8.55866272 L12.3084896,10.2126329 L12.3084896,14.3292896 L12.3084896,15.9832598 C12.3084896,16.0800956 12.386818,16.1585434 12.4835344,16.1585434 L14.1376239,16.1585434 L18.5573255,16.1585434 L20.083415,16.1585434 L20.2112956,16.1585434 C20.308012,16.1585434 20.3864598,16.0800956 20.3864598,15.9832598 L20.3864598,13.0127523 L20.3864598,11.3587821 C20.3864598,11.2619463 20.308012,11.183618 20.2112956,11.183618 L18.5573255,11.183618 L15.6106986,11.183618 C15.5138628,11.183618 15.4355344,11.2619463 15.4355344,11.3587821 L15.4355344,12.8377075 C15.4355344,12.9344239 15.5138628,13.0127523 15.6106986,13.0127523 L18.3820419,13.0127523 C18.4787583,13.0127523 18.5573255,13.0913195 18.5573255,13.1879165 L18.5573255,14.1541254 C18.5573255,14.2509613 18.4787583,14.3292896 18.3820419,14.3292896 L14.3127881,14.3292896 C14.2160717,14.3292896 14.1376239,14.2509613 14.1376239,14.1541254" id="Fill-214" fill="#FDFDFD"></path>
                        </g>
                    </g>
                </g>
            </g>
        </g>
    </g>
</svg>