<?xml version="1.0" encoding="UTF-8"?>
<svg width="24px" height="24px" viewBox="0 0 24 24" version="1.1" xmlns="http://www.w3.org/2000/svg" xmlns:xlink="http://www.w3.org/1999/xlink">
    <!-- Generator: Sketch 52.5 (67469) - http://www.bohemiancoding.com/sketch -->
    <title>Crypto/coins/DOGE</title>
    <desc>Created with Sketch.</desc>
    <g id="Crypto/coins/DOGE" stroke="none" stroke-width="1" fill="none" fill-rule="evenodd">
        <g id="Group" transform="translate(-0.000000, -0.000000)">
            <g id="DOGE">
                <g id="Page-1">
                    <g id="Artboard">
                        <g id="DOGE">
                            <path d="M23.9923941,12.0578747 C23.9923941,18.6522628 18.6466031,23.9981732 12.0520956,23.9981732 C5.45770749,23.9981732 0.111797015,18.6522628 0.111797015,12.0578747 C0.111797015,5.46336719 5.45770749,0.11757612 12.0520956,0.11757612 C18.6466031,0.11757612 23.9923941,5.46336719 23.9923941,12.0578747" id="Fill-146" fill="#C3A723"></path>
                            <path d="M13.2837851,16.1272478 L10.6448597,16.1272478 L10.6448597,12.7245015 L13.2616956,12.7245015 L13.2616956,11.3513672 L10.6448597,11.3513672 L10.6448597,8.00844182 L13.1247404,8.00844182 C13.1247404,8.00844182 16.1770389,8.00844182 16.1770389,11.7859941 C16.1770389,16.2399642 13.2837851,16.1272478 13.2837851,16.1272478 M12.8736359,5.6200239 L8.21691944,5.6200239 L8.21691944,11.3513672 L6.66468062,11.3513672 L6.66468062,12.7245015 L8.21691944,12.7245015 L8.21691944,18.5155463 L13.1721433,18.5155463 C13.1721433,18.5155463 18.6049792,18.6946508 18.6049792,11.6200239 C18.6049792,5.6200239 12.8736359,5.6200239 12.8736359,5.6200239" id="Fill-148" fill="#FFFFFF" fill-rule="nonzero"></path>
                        </g>
                    </g>
                </g>
            </g>
        </g>
    </g>
</svg>