<?xml version="1.0" encoding="UTF-8"?>
<svg width="24px" height="24px" viewBox="0 0 24 24" version="1.1" xmlns="http://www.w3.org/2000/svg" xmlns:xlink="http://www.w3.org/1999/xlink">
    <!-- Generator: Sketch 52.5 (67469) - http://www.bohemiancoding.com/sketch -->
    <title>Crypto/coins/EDG</title>
    <desc>Created with Sketch.</desc>
    <g id="Crypto/coins/EDG" stroke="none" stroke-width="1" fill="none" fill-rule="evenodd">
        <g id="Group" transform="translate(1.074627, -0.000000)">
            <g id="EDG">
                <g id="Page-1">
                    <g id="Artboard">
                        <g id="EDG">
                            <path d="M0.0638089555,7.98377317 L0.0638089555,16.0026389 C0.0638089555,17.4132657 0.816405974,18.7167881 2.03801792,19.4219822 L8.98249556,23.431415 C10.2041075,24.1367285 11.7091821,24.1367285 12.9307941,23.431415 L19.8753911,19.4219822 C21.0970031,18.7167881 21.8494807,17.4132657 21.8494807,16.0026389 L21.8494807,7.98377317 C21.8494807,6.5732657 21.0970031,5.26986271 19.8753911,4.56442987 L12.9307941,0.554997017 C11.7091821,-0.150197016 10.2041075,-0.150197016 8.98249556,0.554997017 L2.03801792,4.56442987 C0.816405974,5.26986271 0.0638089555,6.5732657 0.0638089555,7.98377317" id="Fill-470" fill="#2C1446"></path>
                            <path d="M0.69948657,8.35072242 L0.69948657,15.6357374 C0.69948657,17.0462448 1.45208359,18.3496478 2.67369553,19.0549613 L8.98259108,22.6973493 C10.204203,23.4027822 11.7092777,23.4027822 12.9308896,22.6973493 L19.2396658,19.0549613 C20.4612777,18.3496478 21.2138747,17.0462448 21.2138747,15.6357374 L21.2138747,8.35072242 C21.2138747,6.94021495 20.4612777,5.63681196 19.2396658,4.93137913 L12.9308896,1.28899105 C11.7092777,0.583677614 10.204203,0.583677614 8.98259108,1.28899105 L2.67369553,4.93137913 C1.45208359,5.63681196 0.69948657,6.94021495 0.69948657,8.35072242" id="Fill-471" fill="#FFFFFF"></path>
                            <path d="M1.34955224,8.72607765 L1.34955224,15.260406 C1.34955224,16.6709135 2.10214926,17.9743165 3.32376121,18.6796299 L8.9825075,21.9468538 C10.2041194,22.6520479 11.7091941,22.6520479 12.930806,21.9468538 L18.5896717,18.6796299 C19.8112837,17.9743165 20.5637613,16.6709135 20.5637613,15.260406 L20.5637613,8.72607765 C20.5637613,7.31557018 19.8112837,6.01216719 18.5896717,5.30673435 L12.930806,2.03962986 C11.7091941,1.33443583 10.2041194,1.33443583 8.9825075,2.03962986 L3.32376121,5.30673435 C2.10214926,6.01216719 1.34955224,7.31557018 1.34955224,8.72607765" id="Fill-472" fill="#29164D"></path>
                            <path d="M13.0699941,7.51619108 C12.6611583,7.06019107 12.0480239,6.63571346 11.6549493,6.06974331 C11.315009,5.58019107 11.0348896,5.27941495 10.9652777,5.20681793 L10.9566806,5.19798211 L10.9480836,5.20681793 C10.8784717,5.27941495 10.5983523,5.58019107 10.258412,6.06974331 C9.86533735,6.63571346 9.25220302,7.06019107 8.8433672,7.51619108 C8.43465078,7.97207168 7.7114269,9.08837019 8.49757615,9.90604183 C9.28360601,10.7234747 10.5413971,10.1259821 10.5413971,10.1259821 C10.5413971,10.1259821 10.3999045,10.9436538 9.89674034,11.5253851 L9.89674034,11.7140418 L10.9480836,12.7867583 L10.9566806,12.7954747 L10.9652777,12.7867583 L12.0166209,11.7140418 L12.0166209,11.5253851 C11.5134568,10.9436538 11.3719642,10.1259821 11.3719642,10.1259821 C11.3719642,10.1259821 12.6297553,10.7234747 13.4157851,9.90604183 C14.2019344,9.08837019 13.4787105,7.97207168 13.0699941,7.51619108" id="Fill-473" fill="#FFFFFF"></path>
                            <path d="M13.559618,16.1434031 C13.1621254,16.1434031 12.8017672,15.9830448 12.5401553,15.723821 L11.5012299,14.6943284 L12.5401553,13.6655523 C12.8017672,13.4057314 13.1621254,13.2459702 13.559618,13.2459702 C14.360215,13.2459702 15.0085732,13.8944478 15.0085732,14.6943284 C15.0085732,15.4949254 14.360215,16.1434031 13.559618,16.1434031 M13.559618,12.2102687 C12.8779463,12.2102687 12.2602747,12.485015 11.8112,12.9296717 L10.7660657,13.9654926 L9.72021497,12.9296717 C9.27173735,12.485015 8.6535881,12.2102687 7.97179705,12.2102687 C6.60021495,12.2102687 5.48761793,13.3227463 5.48761793,14.6943284 C5.48761793,16.0666269 6.60021495,17.1785075 7.97179705,17.1785075 C8.6535881,17.1785075 9.27173735,16.9036419 9.72021497,16.4591045 L10.0912,16.091821 L10.0521553,16.0527762 L9.35603586,15.3629851 L8.99197616,15.723821 C8.7296478,15.9830448 8.37000601,16.1434031 7.97179705,16.1434031 C7.17191645,16.1434031 6.52343883,15.4949254 6.52343883,14.6943284 C6.52343883,13.8944478 7.17191645,13.2459702 7.97179705,13.2459702 C8.37000601,13.2459702 8.7296478,13.4057314 8.99197616,13.6655523 L10.0301851,14.6943284 L10.4251702,15.085612 L10.7660657,15.4232836 L11.8112,16.4591045 C12.2602747,16.9036419 12.8779463,17.1785075 13.559618,17.1785075 C14.9319165,17.1785075 16.0437971,16.0666269 16.0437971,14.6943284 C16.0437971,13.3227463 14.9319165,12.2102687 13.559618,12.2102687" id="Fill-474" fill="#FFFFFF" fill-rule="nonzero"></path>
                        </g>
                    </g>
                </g>
            </g>
        </g>
    </g>
</svg>