<?xml version="1.0" encoding="UTF-8"?>
<svg width="24px" height="24px" viewBox="0 0 24 24" version="1.1" xmlns="http://www.w3.org/2000/svg" xmlns:xlink="http://www.w3.org/1999/xlink">
    <!-- Generator: Sketch 52.5 (67469) - http://www.bohemiancoding.com/sketch -->
    <title>Crypto/coins/EMC2</title>
    <desc>Created with Sketch.</desc>
    <g id="Crypto/coins/EMC2" stroke="none" stroke-width="1" fill="none" fill-rule="evenodd">
        <g id="Group" transform="translate(-0.000000, -0.000000)">
            <g id="EMC2">
                <g id="Page-1">
                    <g id="Artboard">
                        <g id="EMC2">
                            <path d="M23.9949016,12.0490747 C23.9949016,18.6435822 18.6491105,23.9893732 12.054603,23.9893732 C5.46009555,23.9893732 0.114304478,18.6435822 0.114304478,12.0490747 C0.114304478,5.45456719 5.46009555,0.10877612 12.054603,0.10877612 C18.6491105,0.10877612 23.9949016,5.45456719 23.9949016,12.0490747" id="Fill-318" fill="#00CDFF"></path>
                            <path d="M23.2275822,12.0490747 C23.2275822,18.2197016 18.2251941,23.2219702 12.0545672,23.2219702 C5.88394032,23.2219702 0.881671645,18.2197016 0.881671645,12.0490747 C0.881671645,5.87832838 5.88394032,0.876059705 12.0545672,0.876059705 C18.2251941,0.876059705 23.2275822,5.87832838 23.2275822,12.0490747" id="Fill-320" fill="#FFFFFF"></path>
                            <polygon id="Fill-322" fill="#0074AE" points="11.7191284 9.5031284 7.94885973 9.5031284 9.57835228 6.4677851 13.348621 6.4677851"></polygon>
                            <polyline id="Fill-324" fill="#00A1D2" points="12.8373732 6.46779704 16.6075225 6.46779704 14.9781493 9.50314034 11.2078806 9.50314034"></polyline>
                            <polyline id="Fill-326" fill="#00CDFF" points="16.3838926 6.46779704 20.1541613 6.46779704 18.5246687 9.50314034 14.7544001 9.50314034"></polyline>
                            <polygon id="Fill-328" fill="#0074AE" points="9.70618512 13.6684777 5.93603585 13.6684777 7.56552839 10.6331344 11.3356777 10.6331344"></polygon>
                            <polyline id="Fill-330" fill="#00A1D2" points="10.8244777 10.6331463 14.5946269 10.6331463 12.9651344 13.6684896 9.19498511 13.6684896"></polyline>
                            <polyline id="Fill-332" fill="#00CDFF" points="14.371009 10.6331463 18.1411583 10.6331463 16.5116657 13.6684896 12.7415165 13.6684896"></polyline>
                            <polygon id="Fill-334" fill="#0074AE" points="7.72525376 17.6303404 3.95510449 17.6303404 5.58459704 14.5949971 9.35474631 14.5949971"></polygon>
                            <polyline id="Fill-336" fill="#00A1D2" points="8.84354631 14.595009 12.6136956 14.595009 10.984203 17.6303523 7.21405376 17.6303523"></polyline>
                            <polyline id="Fill-338" fill="#00CDFF" points="12.3900777 14.595009 16.1602269 14.595009 14.5307344 17.6303523 10.7605851 17.6303523"></polyline>
                        </g>
                    </g>
                </g>
            </g>
        </g>
    </g>
</svg>