<?xml version="1.0" encoding="UTF-8"?>
<svg width="24px" height="24px" viewBox="0 0 24 24" version="1.1" xmlns="http://www.w3.org/2000/svg" xmlns:xlink="http://www.w3.org/1999/xlink">
    <!-- Generator: Sketch 52.5 (67469) - http://www.bohemiancoding.com/sketch -->
    <title>Crypto/coins/EOS</title>
    <desc>Created with Sketch.</desc>
    <g id="Crypto/coins/EOS" stroke="none" stroke-width="1" fill="none" fill-rule="evenodd">
        <g id="Group" transform="translate(-0.000000, -0.000000)">
            <g id="EOS">
                <g id="Page-1">
                    <g id="Artboard">
                        <g id="EOS">
                            <path d="M23.9763583,12.0595105 C23.9763583,18.654018 18.6305672,23.9998091 12.0360598,23.9998091 C5.44155226,23.9998091 0.0957611944,18.654018 0.0957611944,12.0595105 C0.0957611944,5.46500301 5.44155226,0.119211941 12.0360598,0.119211941 C18.6305672,0.119211941 23.9763583,5.46500301 23.9763583,12.0595105 Z" id="Fill-626" fill="#000000"></path>
                            <path d="M7.46177914,9.09640601 L8.39574929,11.9765254 L5.78619704,16.5647045 L7.46177914,9.09640601 Z M15.6763463,11.9765254 L16.6104359,9.09640601 L18.2858986,16.5647045 L15.6763463,11.9765254 Z M15.4604657,12.6423165 L18.5680478,18.1061971 L12.4960478,21.7833314 L15.4604657,12.6423165 Z M11.5761672,21.7833314 L5.50404778,18.1061971 L8.61162989,12.6423165 L11.5761672,21.7833314 Z M12.0361075,6.62142092 L15.1144359,12.0339583 L12.0361075,21.5262568 L8.95765974,12.0339583 L12.0361075,6.62142092 Z M11.7777195,6.03037614 L8.74177914,11.3681672 L7.70273436,8.16398809 L11.7777195,2.55085374 L11.7777195,6.03037614 Z M12.2944956,2.55085374 L16.3694807,8.16398809 L15.3303165,11.3681672 L12.2944956,6.03037614 L12.2944956,2.55085374 Z M19.1691225,18.1403463 L16.9079881,8.06201794 C16.9002269,8.02762988 16.8856598,7.99527168 16.8650031,7.96685376 L12.2453015,1.60327165 C12.1965851,1.53628657 12.1188538,1.49664478 12.0361075,1.49664478 C11.9533612,1.49664478 11.8755105,1.53628657 11.8269135,1.60327165 L7.20721197,7.96685376 C7.18655525,7.99527168 7.17186869,8.02762988 7.16410749,8.06201794 L4.90297315,18.1403463 C4.87873435,18.2487643 4.92637614,18.3605254 5.02130151,18.4180777 L11.9021374,22.5851225 C11.9052418,22.5869135 11.9084657,22.588227 11.9115702,22.5898986 C11.9159881,22.5922867 11.920406,22.5946747 11.9250627,22.596824 C11.9322269,22.6002867 11.9393911,22.6032717 11.9469135,22.606018 C11.9514508,22.6076896 11.9558687,22.6093613 11.9605254,22.6107941 C11.9687642,22.6133016 11.9768836,22.6150926 11.9852418,22.6167643 C11.9894209,22.6176001 11.9936,22.6187941 11.9977792,22.6193911 C12.0104359,22.6213016 12.0233314,22.6223762 12.0361075,22.6223762 C12.0488836,22.6223762 12.0616598,22.6213016 12.0743165,22.6193911 C12.078615,22.6187941 12.0826747,22.6176001 12.0868538,22.6167643 C12.095212,22.6150926 12.1034508,22.6133016 12.1115702,22.6107941 C12.1162269,22.6093613 12.1207642,22.6076896 12.1254209,22.606018 C12.1327045,22.6032717 12.1399881,22.6002867 12.1471523,22.596824 C12.1516896,22.5946747 12.1561075,22.5922867 12.1606448,22.5898986 C12.1636299,22.588227 12.1668538,22.5869135 12.1699583,22.5851225 L19.0509135,18.4180777 C19.1458389,18.3605254 19.1934807,18.2487643 19.1691225,18.1403463 Z" id="Fill-628" fill="#FFFFFF" fill-rule="nonzero"></path>
                        </g>
                    </g>
                </g>
            </g>
        </g>
    </g>
</svg>