<?xml version="1.0" encoding="UTF-8"?>
<svg width="24px" height="24px" viewBox="0 0 24 24" version="1.1" xmlns="http://www.w3.org/2000/svg" xmlns:xlink="http://www.w3.org/1999/xlink">
    <!-- Generator: Sketch 52.5 (67469) - http://www.bohemiancoding.com/sketch -->
    <title>Crypto/coins/ETC</title>
    <desc>Created with Sketch.</desc>
    <g id="Crypto/coins/ETC" stroke="none" stroke-width="1" fill="none" fill-rule="evenodd">
        <g id="Group" transform="translate(-0.000000, -0.000000)">
            <g id="ETC">
                <g id="Page-1">
                    <g id="Artboard">
                        <g id="ETC">
                            <polygon id="Fill-612" fill="#FFFFFF" points="6.67091346 13.9216239 11.7923463 16.4860419 11.7923463 20.6093852"></polygon>
                            <polygon id="Fill-613" fill="#FFFFFF" points="17.2447284 13.9216239 12.1051463 20.6093852 12.1051463 16.4860419"></polygon>
                            <path d="M11.9742568,0.0280835822 C5.37974928,0.0280835822 0.0339582091,5.37387465 0.0339582091,11.9683821 C0.0339582091,18.5628896 5.37974928,23.9086807 11.9742568,23.9086807 C18.5686449,23.9086807 23.9145553,18.5628896 23.9145553,11.9683821 C23.9145553,5.37387465 18.5686449,0.0280835822 11.9742568,0.0280835822" id="Fill-614" fill="#659172"></path>
                            <path d="M11.9742568,22.9711762 C5.89760002,22.9711762 0.971510452,18.0450866 0.971510452,11.9684299 C0.971510452,5.89165376 5.89760002,0.965683586 11.9742568,0.965683586 C18.0509135,0.965683586 22.9770031,5.89165376 22.9770031,11.9684299 C22.9770031,18.0450866 18.0509135,22.9711762 11.9742568,22.9711762" id="Fill-615" fill="#FFFFFF"></path>
                            <polygon id="Fill-616" fill="#659172" points="17.5911523 10.8311403 11.9413612 1.89275225 6.1284657 10.8311403 11.9413612 8.42158809"></polygon>
                            <polygon id="Fill-617" fill="#659172" points="6.35730152 13.2930627 12.0070926 22.0441076 17.8199881 13.2930627 12.0070926 16.7723463"></polygon>
                            <polygon id="Fill-618" fill="#659172" points="17.8199881 12.1441075 11.9413015 9.69491347 6.128406 12.1441075 11.9413015 15.6255404"></polygon>
                        </g>
                    </g>
                </g>
            </g>
        </g>
    </g>
</svg>