<?xml version="1.0" encoding="UTF-8"?>
<svg width="24px" height="24px" viewBox="0 0 24 24" version="1.1" xmlns="http://www.w3.org/2000/svg" xmlns:xlink="http://www.w3.org/1999/xlink">
    <!-- Generator: Sketch 52.5 (67469) - http://www.bohemiancoding.com/sketch -->
    <title>Crypto/coins/ETHOS</title>
    <desc>Created with Sketch.</desc>
    <g id="Crypto/coins/ETHOS" stroke="none" stroke-width="1" fill="none" fill-rule="evenodd">
        <g id="Group" transform="translate(-0.000000, 0.059701)">
            <g id="ETHOS">
                <g id="Page-1">
                    <g id="Artboard">
                        <g id="ETHOS">
                            <path d="M12.0548896,2.30956419 C11.2582329,3.17881792 10.677218,4.26490748 10.413218,5.49845972 C10.3647403,5.72448958 10.3290388,5.95040002 10.303606,6.1775045 C9.89214332,4.36520599 8.09357615,3.21237016 6.26981495,3.60078807 C5.3797851,3.79099703 4.61775524,4.31672838 4.12306867,5.07995226 C3.62850151,5.84317614 3.4602627,6.75398212 3.65047166,7.64401197 C3.91674031,8.89129556 4.83566569,9.83087765 5.97465077,10.1871762 L5.9758448,10.1871762 L5.97691943,10.1871762 C6.51650152,10.3543403 7.10336719,10.3900418 7.69357615,10.2644299 C8.6274269,10.0637135 9.54623288,10.6598926 9.74575526,11.5936239 C9.94623288,12.5274747 9.35029258,13.4464001 8.41644183,13.6468777 C8.39912839,13.6503404 8.38074033,13.6551165 8.3634269,13.6572657 C8.36223287,13.6584598 8.36103884,13.6584598 8.35996421,13.6584598 C7.89763585,13.7530269 7.43530749,13.7991165 6.98002391,13.7991165 C6.65477018,13.7991165 6.33321794,13.7760717 6.01727764,13.7299821 C4.63960599,13.5339224 3.36223285,12.9206687 2.35112837,11.9984 C1.32975523,11.066818 0.577994032,9.81941497 0.267904479,8.36675824 C-0.11478209,6.57404182 0.223008956,4.73869853 1.22014329,3.19959404 C2.21739702,1.66048956 3.75423285,0.601026868 5.5480239,0.218220896 C8.01644182,-0.308585076 10.4639642,0.567594032 12.0548896,2.30956419" id="Fill-818" fill="#00FFB8"></path>
                            <path d="M23.8407523,8.36681795 C23.5433195,9.760609 22.8377673,11.000012 21.8162747,11.9510568 C20.8132896,11.0149374 19.5416478,10.3878329 18.1663643,10.1755344 C19.2892299,9.81362392 20.1953792,8.87869854 20.4593792,7.64395227 C20.8512598,5.80729555 19.6765732,3.99272837 17.8388419,3.60084778 C16.0161553,3.21231046 14.2165135,4.36514629 13.8061254,6.17625077 C13.8026627,6.19129555 13.7992001,6.20514629 13.7957374,6.22007167 C13.7080956,6.6293851 13.6954389,7.04323585 13.7588418,7.45135525 C13.8544836,8.07392242 13.6055284,8.67117616 13.1535881,9.04693735 C13.1144239,9.07810153 13.0740657,9.10926571 13.0325135,9.13804183 C12.9772299,9.17613138 12.9195583,9.21183287 12.859618,9.24299705 C12.7558568,9.29828064 12.6463642,9.34329556 12.5310209,9.37553437 C12.5114389,9.38126571 12.4906627,9.38711646 12.4710806,9.3928478 C12.4503045,9.39750452 12.4284538,9.40204183 12.4076777,9.40669855 C12.3765135,9.41362392 12.3454687,9.41935526 12.3132299,9.42401198 C12.2888717,9.42747467 12.2647523,9.43093735 12.2405135,9.43320601 C12.222006,9.43547467 12.203618,9.4366687 12.1851105,9.43893735 C12.1632598,9.44001198 12.1424836,9.44120601 12.1206329,9.44240004 C12.075618,9.4446687 12.0319165,9.4446687 11.9879762,9.44240004 C11.9477374,9.44120601 11.9084538,9.43786273 11.8680956,9.43320601 C11.8450508,9.43093735 11.820812,9.42747467 11.7966926,9.42401198 L11.7943045,9.42401198 C11.7677971,9.42042989 11.7424836,9.41589258 11.7170508,9.41004183 C11.7159762,9.41004183 11.7147821,9.41004183 11.7125135,9.40908661 C11.7009314,9.40669855 11.6882747,9.40431049 11.6766926,9.4008478 C11.6491105,9.39511646 11.621409,9.38831049 11.5949015,9.38019108 C10.956215,9.20956422 10.4477971,8.67463884 10.3405732,7.97828063 C10.2483941,7.37983287 10.2357374,6.7770866 10.3036777,6.1774448 C10.3289911,5.95045973 10.364812,5.72442987 10.4131702,5.49851943 C10.6771702,4.26484778 11.2583045,3.17887763 12.0548418,2.30962389 C13.6458866,0.568728361 16.093409,-0.308525374 18.5617075,0.218280598 C22.2636777,1.00920597 24.6316777,4.66484778 23.8407523,8.36681795" id="Fill-819" fill="#00D0AB"></path>
                            <path d="M11.6767403,9.40085974 C11.6640836,9.39859108 11.6514269,9.39632243 11.6387702,9.39285974 C11.6237254,9.38927765 11.6098747,9.38474034 11.5948299,9.38020302 C11.6214568,9.38832243 11.6491583,9.3951284 11.6767403,9.40085974" id="Fill-820" fill="#00D0AB"></path>
                            <path d="M11.7124896,9.4090269 C11.6871762,9.40437019 11.6629374,9.39983287 11.6386986,9.3927881 C11.6237732,9.38932541 11.6099224,9.3847881 11.5948777,9.38025079 C11.6213851,9.38825079 11.6490866,9.39517616 11.6767881,9.4009075 C11.6882508,9.40437019 11.7009075,9.40663885 11.7124896,9.4090269" id="Fill-821" fill="#00D0AB"></path>
                            <path d="M13.8833672,18.000215 L13.8833672,18.001409 C13.8637851,18.1339463 13.8395463,18.265409 13.8107702,18.3967523 C13.5409195,19.6626628 12.9356657,20.7716777 12.1091583,21.6525135 C10.8305911,23.0139464 9.02163586,23.8291105 7.09865078,23.8291105 C6.62485973,23.8291105 6.14414331,23.7795583 5.66342689,23.6768717 C3.86951643,23.2929911 2.33268061,22.2347225 1.33554627,20.695618 C0.338292539,19.1565135 0.000382089554,17.3211702 0.383188061,15.5284538 C0.674889555,14.1611702 1.35966568,12.9425433 2.35118807,11.9983045 C3.36229255,12.9206926 4.63954629,13.5339463 6.01733734,13.7298866 C5.74868062,13.8197971 5.48933734,13.9455284 5.24491942,14.1033792 C4.48050151,14.5980657 3.9559642,15.3611702 3.76575524,16.2501254 C3.57554628,17.1401553 3.74390449,18.0509613 4.23847166,18.8152598 C4.73303883,19.5784837 5.49506868,20.104215 6.38509853,20.294424 C8.10975526,20.6621852 9.81375526,19.6498866 10.3417553,18.0035583 L10.3417553,18.0024837 C10.3762627,17.8952598 10.4051583,17.7857672 10.4293971,17.674006 C10.5158448,17.2658866 10.5285015,16.8507225 10.4661732,16.4437971 C10.3197851,15.4996777 10.9677851,14.6164538 11.9107105,14.4712598 C11.9787702,14.4608717 12.0456359,14.4539463 12.1125015,14.4515583 C12.977218,14.4182448 13.7484418,15.040812 13.8845613,15.9169911 C13.9905911,16.6086926 13.9905911,17.3083941 13.8833672,18.000215" id="Fill-822" fill="#00D0AB"></path>
                            <path d="M22.8884419,20.6956419 C21.8923822,22.2347464 20.3556658,23.293015 18.5617553,23.6768956 C18.0798449,23.7795822 17.5944717,23.8303285 17.1137553,23.8303285 C15.8029493,23.8303285 14.5197254,23.4532538 13.3945911,22.7246568 C12.917218,22.4168359 12.4872478,22.0560001 12.1090986,21.6525374 C12.9357254,20.7717016 13.5409792,19.6626866 13.8107105,18.3967762 C13.8394866,18.2653135 13.8637254,18.1339702 13.8834269,18.0014329 C14.4079642,19.6487165 16.1142329,20.662209 17.8388896,20.2944478 C19.676621,19.9012538 20.8513075,18.0877613 20.4593075,16.2501493 C20.2690986,15.3611941 19.7433672,14.5980896 18.9802628,14.103403 C18.7266508,13.939821 18.4568001,13.8106269 18.1766807,13.7207165 C17.6140538,13.5362389 17.0099941,13.5040001 16.4151284,13.630806 C15.4812777,13.829015 14.5624717,13.2354627 14.3629493,12.3002986 C14.3444419,12.2139702 14.3329792,12.127403 14.3272478,12.0421493 C14.3260538,12.0132538 14.3248598,11.9844777 14.3248598,11.9567762 L14.3248598,11.9371941 C14.3248598,11.908418 14.3260538,11.8807165 14.3272478,11.8519403 C14.3653374,11.0887165 14.9094568,10.415403 15.6933374,10.2482388 C16.5303523,10.069612 17.3661732,10.0522985 18.1662926,10.1756418 C19.5416956,10.3878209 20.8133374,11.0149254 21.8163225,11.9510448 C22.8077255,12.8768956 23.5363225,14.103403 23.8408001,15.5284777 C24.2245613,17.3210747 23.8856956,19.156418 22.8884419,20.6956419" id="Fill-823" fill="#00FFB8"></path>
                        </g>
                    </g>
                </g>
            </g>
        </g>
    </g>
</svg>