<?xml version="1.0" encoding="UTF-8"?>
<svg width="24px" height="24px" viewBox="0 0 24 24" version="1.1" xmlns="http://www.w3.org/2000/svg" xmlns:xlink="http://www.w3.org/1999/xlink">
    <!-- Generator: Sketch 52.5 (67469) - http://www.bohemiancoding.com/sketch -->
    <title>Crypto/coins/ETP</title>
    <desc>Created with Sketch.</desc>
    <g id="Crypto/coins/ETP" stroke="none" stroke-width="1" fill="none" fill-rule="evenodd">
        <g id="Group" transform="translate(-0.000000, 0.298507)">
            <g id="ETP">
                <g id="Page-1">
                    <g id="Artboard">
                        <g id="ETP">
                            <path d="M0.760119406,10.5413732 C0.760119406,10.7631045 0.759641794,10.9849553 0.760119406,11.206806 C0.763940302,12.767403 0.764179108,14.3280001 0.775044779,15.8884777 C0.776955227,16.1739702 0.677134331,16.3074628 0.380537315,16.3011344 C0.0754626869,16.294806 0.0472835823,16.110209 0.0477611942,15.870806 C0.0517014928,13.8320001 0.0561194032,11.7929553 0.0458507465,9.75414929 C0.0442985076,9.45253735 0.154029851,9.37791049 0.439164181,9.35223884 C0.890985078,9.31164183 1.136,9.47295526 1.34041792,9.88668661 C1.87916419,10.9767165 2.4717612,12.0404777 3.05014927,13.110806 C3.09110449,13.1866269 3.18519404,13.2423881 3.26710449,13.2811941 C3.28465673,13.2895523 3.36883583,13.1903284 3.40131345,13.1293135 C3.89026867,12.2115821 4.37564181,11.2919403 4.86232838,10.373015 C4.94459704,10.2174329 5.0513433,10.0710448 5.10865674,9.90698512 C5.26734331,9.45349258 5.57253734,9.2983881 6.04011943,9.35713437 C6.25516421,9.38423885 6.36394033,9.43976123 6.36358212,9.66841795 C6.36071644,11.7703881 6.36095525,13.8722389 6.36250749,15.9739702 C6.3627463,16.2144478 6.2589851,16.2987463 6.01468659,16.2982687 C5.75928361,16.2976717 5.64811943,16.2213732 5.65050749,15.9546269 C5.66543286,14.2938508 5.67247764,12.6329553 5.6791642,10.9719403 C5.67988062,10.8175523 5.66041793,10.6632836 5.6432239,10.4009553 C5.51773137,10.5450747 5.45349256,10.596418 5.41814928,10.6629254 C4.80035823,11.8261493 4.18865673,12.9924777 3.56955225,14.1551045 C3.35964181,14.5492538 3.10101494,14.5577314 2.89062688,14.1657314 C2.28549255,13.0386866 1.69647762,11.902806 1.09456717,10.7740896 C1.03641791,10.6651941 0.931940302,10.5811344 0.848955227,10.4854926 C0.819343287,10.5041194 0.789731347,10.5227463 0.760119406,10.5413732" id="Fill-853" fill="#00689F"></path>
                            <path d="M5.57320599,6.923606 C4.34144479,6.98880003 3.35756419,5.86748659 3.37881792,4.68981494 C3.39851942,3.59978509 4.30872838,2.51775523 5.59242987,2.54521792 C6.84389257,2.57208359 7.80747466,3.51811345 7.78884779,4.74891942 C7.76938511,6.02688958 6.741206,6.99071048 5.57320599,6.923606" id="Fill-855" fill="#00659B"></path>
                            <path d="M12.3680956,0.117755224 C13.5468418,0.122053732 14.4749613,1.07465075 14.4668419,2.27178508 C14.4589613,3.43572539 13.5132896,4.36312838 12.3369314,4.36038211 C11.1849314,4.35787465 10.2225433,3.39285972 10.2233791,2.24097911 C10.224215,1.07011344 11.1905433,0.113456717 12.3680956,0.117755224" id="Fill-857" fill="#0099CC"></path>
                            <path d="M20.5631165,4.76210151 C20.5825792,5.97893734 19.5972658,6.82753436 18.487415,6.84866869 C17.3177434,6.87087764 16.3577434,5.8812657 16.3631165,4.7094448 C16.3682508,3.58478807 17.3083105,2.63613135 18.4201911,2.63362389 C19.6704598,2.63063882 20.5597732,3.51410151 20.5631165,4.76210151" id="Fill-859" fill="#0097FB"></path>
                            <path d="M21.8680359,6.93456719 C22.984812,6.93982092 23.9677374,7.90077615 23.9251105,9.0065672 C23.8812897,10.1382687 23.1095882,11.0687762 21.8266031,11.0601792 C20.6759165,11.0522986 19.7592598,10.1285971 19.792812,8.98173138 C19.8272001,7.80561197 20.6975284,6.95952242 21.8680359,6.93456719" id="Fill-861" fill="#00CAFF"></path>
                            <path d="M21.8664598,13.0452299 C23.0453255,13.0356777 23.9010867,13.9358568 23.8778031,15.072812 C23.8546389,16.1997374 23.0398329,17.0839165 21.8302807,17.0744837 C20.7428777,17.066006 19.8477135,16.2139463 19.8426986,15.0925135 C19.8374449,13.8878568 20.7213852,13.007618 21.8664598,13.0452299" id="Fill-863" fill="#FFCB00"></path>
                            <path d="M17.9826031,10.1018985 C17.4034986,10.0134209 16.8549613,9.88160004 16.3028419,9.86440601 C15.9977672,9.85485377 15.6476777,9.97640601 15.3859463,10.1447642 C14.7257672,10.5694806 14.7229016,11.4275105 15.3843941,11.8741971 C15.9012896,12.2233314 16.4751404,12.4873314 17.0167523,12.8008836 C17.499021,13.0800478 17.9293493,13.4067344 18.171021,13.9446448 C18.5446329,14.7760478 18.084812,15.8769433 17.2307225,16.1865553 C16.275618,16.5328239 15.3301851,16.4633314 14.3833195,16.1731822 C14.1492896,16.101421 13.9799762,15.5510926 14.142603,15.3694807 C14.1849911,15.3223165 14.339021,15.3150329 14.4003941,15.3541971 C15.0032598,15.7396299 15.6677374,15.7987344 16.3560956,15.7532419 C16.8787225,15.7188538 17.3365135,15.4184359 17.4499463,15.0313314 C17.6193792,14.4527045 17.4749016,13.9865553 16.9519165,13.6617792 C16.3040359,13.2593911 15.6120956,12.9273314 14.9695881,12.5174209 C13.7932299,11.7670926 13.9608717,10.3041672 14.7811702,9.73939109 C15.7157374,9.09557019 16.7627822,9.05879407 17.812215,9.40900302 C18.1872598,9.53413735 17.9614687,9.88948064 17.9826031,10.1018985" id="Fill-865" fill="#00689F"></path>
                            <path d="M7.55081794,9.46791646 C8.10054929,9.24260302 8.30950451,9.30540899 8.48287765,9.78767765 C8.90699705,10.9674986 9.31153437,12.1543642 9.7208478,13.3394389 C9.92156422,13.9205732 10.1133254,14.5049314 10.3145194,15.0858269 C10.3410269,15.1623642 10.400012,15.2279165 10.5050866,15.3968717 C10.6404896,15.023618 10.7468777,14.7339463 10.8508777,14.4432001 C11.3619224,13.0158568 11.8729672,11.5885135 12.3822209,10.1605732 C12.4453851,9.98325974 12.4724896,9.78755825 12.5646687,9.62839407 C12.6305792,9.51448362 12.7662209,9.40260302 12.8911165,9.37143885 C13.0230568,9.33860302 13.1791165,9.40260302 13.3246687,9.42421496 C13.303415,9.56594631 13.3050866,9.71591646 13.2573254,9.84809556 C12.8315344,11.0261254 12.3965493,12.200812 11.9650269,13.376812 C11.6499224,14.2355583 11.3406687,15.0965732 11.0179224,15.9524538 C10.9416239,16.1546031 10.8291463,16.3364538 10.5487881,16.2966926 C10.2869374,16.2595583 10.0333254,16.3320359 9.90150452,15.9482747 C9.3326687,14.2908419 8.72013138,12.6483344 8.121206,11.0012896 C7.93457914,10.4880956 7.74066869,9.9776478 7.55081794,9.46791646" id="Fill-867" fill="#00689F"></path>
                            <path d="M19.1917852,17.7727165 C20.2028896,17.7321195 20.9252777,18.5223284 20.9357852,19.4520001 C20.9472478,20.4671643 20.216024,21.2088956 19.225218,21.2105673 C18.1968001,21.2123583 17.4879046,20.4732538 17.4594866,19.4634628 C17.4376359,18.6801792 18.2022926,17.6737314 19.1917852,17.7727165" id="Fill-869" fill="#FF9700"></path>
                            <path d="M12.4752598,21.6675464 C12.4749015,20.6934568 13.1760359,20.0215762 14.1818866,20.0318449 C15.0623642,20.0409195 15.7878568,20.7596061 15.7812896,21.6349493 C15.7737672,22.6498747 15.0690508,23.3019344 14.1763941,23.3267702 C13.2117374,23.3535165 12.4479165,22.6406807 12.4752598,21.6675464" id="Fill-871" fill="#FD6800"></path>
                            <path d="M9.4543284,23.2040359 C8.73994033,23.2913195 7.90459705,22.4674389 7.90794033,21.6874986 C7.91152242,20.8637374 8.63020899,20.1205732 9.45277616,20.1126926 C10.302209,20.1045732 11.0022687,20.8240956 10.9961792,21.6821255 C10.9900896,22.5149613 10.2914627,23.2045135 9.4543284,23.2040359" id="Fill-873" fill="#FF0000"></path>
                            <path d="M4.27381494,19.5011463 C4.23644181,18.6457434 4.88575524,18.1652657 5.61554629,18.1664598 C6.42127764,18.168012 6.91680003,18.8120717 6.93769555,19.5207284 C6.95811346,20.2200717 6.28241197,20.8426389 5.56121793,20.8259225 C4.81172539,20.8083702 4.26927763,20.2501613 4.27381494,19.5011463" id="Fill-875" fill="#F02000"></path>
                        </g>
                    </g>
                </g>
            </g>
        </g>
    </g>
</svg>