<?xml version="1.0" encoding="UTF-8"?>
<svg width="24px" height="24px" viewBox="0 0 24 24" version="1.1" xmlns="http://www.w3.org/2000/svg" xmlns:xlink="http://www.w3.org/1999/xlink">
    <!-- Generator: Sketch 52.5 (67469) - http://www.bohemiancoding.com/sketch -->
    <title>Crypto/coins/FCT</title>
    <desc>Created with Sketch.</desc>
    <g id="Crypto/coins/FCT" stroke="none" stroke-width="1" fill="none" fill-rule="evenodd">
        <g id="Group" transform="translate(-0.000000, -0.000000)">
            <g id="FCT">
                <g id="Page-1">
                    <g id="Artboard">
                        <g id="FCT">
                            <path d="M20.4626628,3.7554627 C21.0821255,4.03188061 21.5267822,4.86674629 21.4667225,5.4872836 C21.3885135,6.29337316 20.9819464,6.942806 20.5193792,7.56334332 C19.2608717,9.25134332 17.6293493,10.535403 15.9233195,11.7290747 C14.2000956,12.9349254 12.3683344,13.9615523 10.4498866,14.8176717 C9.3897075,15.2906269 8.29060302,15.6866866 7.1861254,16.0469254 C6.31066271,16.3326568 5.40881196,16.558209 4.50266271,16.723224 C3.69358808,16.8706866 2.85991643,16.9370747 2.04033434,16.7536717 C1.55651344,16.6454926 1.07448359,16.4857314 0.784811944,16.0433434 C0.638782092,15.820418 0.554961196,15.5531941 0.465408957,15.2981493 C0.403080599,15.1209553 0.378961196,14.9303881 0.324274628,14.6857314 C0.614185077,14.9549851 0.800453735,15.2082389 1.05060299,15.3401792 C1.37215523,15.5098508 1.74314031,15.6710448 2.09597613,15.6783284 C2.88749852,15.6944478 3.70027464,15.7069851 4.46946868,15.5497314 C5.62325972,15.3141493 6.7740657,15.0048956 7.87830451,14.5974926 C10.9566329,13.461612 13.8151404,11.8995821 16.432812,9.91641795 C17.6121553,9.02280601 18.7172299,8.04155227 19.6356777,6.86913436 C20.0586031,6.32931346 20.4385434,5.75188062 20.6010508,5.08776122 C20.6816478,4.75797017 20.5629613,4.37862688 20.529409,4.02208957 C20.5223643,3.94698509 20.4929911,3.87379106 20.4626628,3.7554627" id="Fill-222" fill="#3C7CA8"></path>
                            <path d="M18.5176956,2.14316419 C19.326412,2.42829852 20.0633672,3.19474628 19.8208598,4.07737315 C19.4984717,5.2511045 18.7611583,6.1350448 17.9502926,6.96991048 C16.3696359,8.59761198 14.5221135,9.87964183 12.5766806,11.0298508 C11.2055762,11.8403583 9.78193437,12.5486568 8.30718809,13.143403 C7.45477018,13.4872836 6.56163585,13.7299105 5.68903883,14.0245971 C4.75447166,14.3400598 3.78682987,14.4876419 2.80999404,14.5565374 C2.16748658,14.6017911 1.52820299,14.5407762 0.921994034,14.2687762 C0.343486569,14.0091941 0.066829851,13.5634627 0.0344716419,12.949015 C0.0226507464,12.7259702 0.0325611942,12.5019702 0.0704119406,12.263403 C0.274829852,12.7580896 0.630053734,13.0835821 1.10539702,13.2567165 C1.81118807,13.5137911 2.54014329,13.630806 3.29345673,13.5077015 C3.70324778,13.4405971 4.11769554,13.3961792 4.52271047,13.307821 C5.00115823,13.2033433 5.48175525,13.0912239 5.94300898,12.9301493 C6.62491943,12.6918209 7.29441197,12.4163583 7.96259108,12.1405374 C9.6952478,11.4250747 11.3188896,10.5042388 12.8853374,9.48143288 C14.4427105,8.46447765 15.925815,7.3509254 17.2189493,6.00513435 C17.8439046,5.35462689 18.4430687,4.67797017 18.7615165,3.81110449 C18.9567404,3.2792836 19.0227702,2.75367165 18.5810986,2.29289553 C18.5544717,2.26495523 18.532621,2.23211941 18.5106508,2.20011941 C18.5065911,2.19414926 18.5125613,2.18125374 18.5176956,2.14316419" id="Fill-224" fill="#D87E3A"></path>
                            <path d="M1.30186269,17.2393672 C1.38031045,17.2763822 1.43845971,17.2892777 1.47678807,17.324024 C1.87440001,17.6833075 2.35559404,17.7855165 2.87201195,17.8755463 C3.54890748,17.9936359 4.20705673,17.8767404 4.86771345,17.8335165 C5.37111644,17.8004419 5.86902689,17.6436657 6.36275824,17.5165016 C6.94902689,17.365815 7.53625078,17.2116657 8.10854929,17.0162031 C8.90210153,16.7451583 9.69529556,16.4653971 10.4650866,16.1345314 C12.3035344,15.3448001 14.0824001,14.4307702 15.7368478,13.303606 C16.8520717,12.5439642 17.9122508,11.7026508 18.9885493,10.8867702 C19.3282508,10.629218 19.5704001,10.5797851 19.7701613,10.7887403 C20.022818,11.0529792 20.0342807,11.4637254 19.7466389,11.7229493 C19.2839523,12.1399045 18.8061016,12.5427702 18.3111762,12.9208001 C16.1897434,14.5410986 13.8930269,15.871009 11.465803,16.9733374 C10.0727284,17.6060538 8.64347466,18.1605613 7.15487764,18.5180538 C6.23189256,18.7396657 5.28347465,18.8755463 4.33875823,18.9797852 C3.66520599,19.0541732 2.99069852,18.942412 2.35487762,18.6717255 C1.79941493,18.4354269 1.53935523,17.9485016 1.30472836,17.4408001 C1.28299702,17.3938747 1.30186269,17.3280837 1.30186269,17.2393672" id="Fill-226" fill="#EAB600"></path>
                            <path d="M1.08906269,7.31994033 C1.09574926,7.41940302 1.12858508,7.52567167 1.10470448,7.61713436 C0.986376124,8.07134332 1.20034627,8.50429854 1.64464478,8.63588063 C2.28488359,8.82513437 2.93527165,8.82597019 3.58446569,8.68304481 C4.13121196,8.5626866 4.68703286,8.46620899 5.21742092,8.29307466 C6.01742092,8.03217914 6.81909257,7.7585075 7.58386869,7.4106866 C9.18052541,6.68471645 10.6888239,5.7991045 12.0669732,4.70585077 C12.995212,3.96961196 13.8756896,3.18871643 14.4637493,2.13188061 C14.6618389,1.77546269 14.7208239,1.40149254 14.6508538,1.01510448 C14.6257792,0.877313436 14.4968239,0.74907463 14.3923463,0.638029853 C14.3096001,0.550149256 14.1917493,0.495223883 14.0155105,0.375223882 C14.1693016,0.341671643 14.2557493,0.293074628 14.3201075,0.313611942 C14.6738986,0.426686569 15.0435702,0.516835823 15.3672717,0.690567167 C15.8017792,0.923522392 15.9363463,1.46895523 15.7825553,1.94346269 C15.4319881,3.02513434 14.6693613,3.80400002 13.8707941,4.5470448 C12.4558687,5.86370152 10.8558687,6.92531346 9.13395825,7.79014929 C8.09933138,8.30955227 7.03270451,8.77283586 5.95413734,9.19408959 C5.33085375,9.43755228 4.6607642,9.57295526 4.00189852,9.70979109 C3.45192837,9.82394034 2.88834628,9.91994034 2.32954031,9.92770153 C1.94757016,9.93295527 1.54613732,9.81617915 1.18434627,9.67480601 C0.70028657,9.48567168 0.461838808,8.95886571 0.593062689,8.38429854 C0.677838809,8.01331347 0.859092541,7.66429854 0.997002989,7.30525376 L1.08906269,7.31994033 Z" id="Fill-228" fill="#3C7CA8"></path>
                            <path d="M16.4462807,0.937134332 C16.8157135,1.13450747 17.2302807,1.27791045 17.5440717,1.54155225 C18.0517732,1.96805971 18.0646687,2.4597612 17.8121314,3.11922389 C17.3851463,4.23468658 16.5861016,5.08519405 15.7298628,5.87814928 C14.0653851,7.41940302 12.1935045,8.6705075 10.1795344,9.70310452 C9.18968362,10.2105672 8.17010153,10.6633433 7.14801197,11.1038209 C6.57571346,11.3503881 5.97177316,11.5238806 5.37917614,11.7219702 C5.31171345,11.7445374 5.21487763,11.7343881 5.15051942,11.7017911 C4.90860898,11.5795224 4.83422092,11.3648359 4.84353435,11.1039403 C4.85272838,10.844 4.97642987,10.6455523 5.21141495,10.576418 C6.82311645,10.1021493 8.35386272,9.43755228 9.83302691,8.64746272 C11.725803,7.63611943 13.5050269,6.46191047 15.0595344,4.9712836 C15.7330866,4.32543285 16.3439523,3.63086569 16.7254448,2.75814927 C17.0386389,2.04149255 17.0043702,1.75313434 16.4637135,1.17653732 C16.4250269,1.13534329 16.4065195,1.07528359 16.378818,1.02405971 C16.4012657,0.99504478 16.4238329,0.966149258 16.4462807,0.937134332" id="Fill-230" fill="#EAB600"></path>
                            <path d="M6.4045851,22.5472001 C6.50560003,22.5414688 6.59109256,22.5199762 6.66954033,22.5349016 C7.016406,22.6010508 7.35957018,22.6871404 7.70739108,22.7460061 C7.86237615,22.7722747 8.02751048,22.7683344 8.18452541,22.7488717 C8.75395825,22.6785434 9.32828661,22.6266031 9.88840601,22.5088717 C10.432406,22.3944837 10.966615,22.223618 11.4954508,22.0485732 C12.2082866,21.8128717 12.9372418,21.6033195 13.6138986,21.2859464 C14.870615,20.696215 16.1223165,20.0852299 17.325421,19.3950807 C19.1858389,18.3277374 20.9149135,17.0720956 22.3636299,15.4683941 C22.8838688,14.8927523 23.3145553,14.255021 23.6129434,13.5349015 C23.6784956,13.3766926 23.7221971,13.209409 23.8110329,13.0578866 C23.8978389,14.2090508 23.4339583,15.1500657 22.719809,15.9920956 C21.3405852,17.6182448 19.6565255,18.8817672 17.8319284,19.9452896 C16.5625553,20.6852299 15.2381374,21.3408717 13.8990329,21.9474389 C13.0454209,22.3340658 12.1220777,22.5690508 11.2258389,22.8590807 C10.3546747,23.1412299 9.45258511,23.2746031 8.54189854,23.2957374 C7.78679406,23.3132896 7.10213734,23.022424 6.45043585,22.6611105 C6.43157018,22.6506031 6.42918212,22.6108419 6.4045851,22.5472001" id="Fill-232" fill="#3C7CA8"></path>
                            <path d="M23.2848359,8.16579108 C23.4369553,8.74835825 23.7158807,9.29928362 23.5193434,9.94967168 C23.119224,11.2733732 22.2254926,12.2494926 21.2749255,13.178209 C19.3883583,15.0215523 17.2060299,16.4577314 14.9003583,17.7158807 C14.7126568,17.8184478 14.5117016,17.913015 14.3053732,17.9608956 C14.050806,18.0198807 13.8055523,17.9337911 13.7211344,17.6697911 C13.6351642,17.4012538 13.7251941,17.1606568 13.9943284,17.015224 C14.2865075,16.8572538 14.5791642,16.6998807 14.8672836,16.5347463 C17.2407762,15.1747463 19.5000001,13.659403 21.3897911,11.6552239 C22.0345673,10.971403 22.6328956,10.2438806 22.9597016,9.34358213 C23.0586867,9.07074631 23.0940299,8.7743881 23.1513434,8.48722392 C23.1717613,8.38549257 23.1705673,8.27946272 23.1792837,8.17534332 C23.2145076,8.17223884 23.2497314,8.16901496 23.2848359,8.16579108" id="Fill-234" fill="#3C7CA8"></path>
                            <path d="M9.75084183,2.11996419 C9.80875228,2.00294926 9.85949855,1.90575523 9.90522989,1.80641195 C10.0038568,1.5926806 10.1347224,1.38575523 10.1879762,1.16139702 C10.2505433,0.897635825 10.1084538,0.769994033 9.82475228,0.732620899 C8.94212541,0.616083585 8.13030451,0.883546272 7.36672242,1.24509851 C6.57973734,1.61763583 5.82403585,2.06253135 5.08958808,2.5283224 C4.54152838,2.87602389 4.03967763,3.29477016 3.75024479,3.90336718 C3.55418509,4.31578509 3.69973733,4.57082987 4.17078211,4.60497912 C5.0303642,4.66742689 5.80875226,4.37835226 6.57639406,4.06444181 C6.97722988,3.90050151 7.35681197,3.68688957 7.74391645,3.49190449 C7.98618511,3.37011345 8.13352839,3.45106867 8.35024481,3.74480002 C8.53615526,3.99685972 8.32409556,4.08772539 8.18511048,4.15339703 C7.43920003,4.50611345 6.6858866,4.84474032 5.92755823,5.1717851 C5.27752838,5.4520239 4.58487166,5.58587465 3.88051345,5.6280239 C3.64934927,5.64175525 3.39573733,5.57130749 3.17890151,5.47948659 C2.8067224,5.32175525 2.70702091,4.90193435 2.90331942,4.48521793 C3.19227464,3.87160599 3.68230449,3.42074031 4.19251345,2.9923224 C5.2623642,2.09345673 6.43561794,1.36080001 7.77997615,0.910292541 C8.21925974,0.763188063 8.64373735,0.551486569 9.09412541,0.463486569 C9.62642392,0.359605972 10.1932299,0.262650747 10.7203941,0.334889554 C11.4216478,0.430889554 11.5885732,0.908501496 11.2114986,1.64020299 C11.1393792,1.78014329 11.0357374,1.90659105 10.9348418,2.03005374 C10.715618,2.29835225 10.4817075,2.35268061 10.1503642,2.23196419 C10.0470806,2.19447165 9.93806571,2.17190449 9.75084183,2.11996419" id="Fill-236" fill="#3C7CA8"></path>
                            <path d="M23.3154508,15.7246807 C23.2682867,15.8997254 23.2385553,16.0814568 23.1713314,16.2483822 C22.7184359,17.3732777 21.9257195,18.240621 21.0309135,19.0245016 C19.2102568,20.6196061 17.1455404,21.817218 14.9097195,22.7231285 C14.1651224,23.0248598 13.4088239,23.3136956 12.6347344,23.5221732 C11.971212,23.7009195 11.2772418,23.8155464 10.5915105,23.8477852 C10.0434508,23.8735762 9.48751049,23.7330389 8.93491347,23.6662926 C8.93443586,23.6288001 8.93383884,23.5915464 8.93336123,23.5540538 C8.9881672,23.5323225 9.04201795,23.4951882 9.09789855,23.4917255 C9.25694332,23.4819344 9.41718213,23.4784717 9.57634631,23.4856359 C10.4064359,23.5234867 11.202615,23.3577553 12.0017792,23.1467702 C14.3888836,22.5166807 16.562615,21.4253374 18.6321075,20.1130986 C19.9191523,19.2968598 21.1313314,18.3722031 22.1512717,17.2314269 C22.5416001,16.7947702 22.8336598,16.2702329 23.1710926,15.7861732 C23.1918688,15.7563225 23.217421,15.729815 23.2407046,15.7017553 C23.2656598,15.7093971 23.290615,15.7171583 23.3154508,15.7246807" id="Fill-238" fill="#EAB600"></path>
                            <path d="M11.2688,0.0853373138 C11.8074269,0.123904478 12.3756657,0.0677850749 12.8775165,0.224322389 C13.5708896,0.440800002 13.7769792,0.953994034 13.3728001,1.75471046 C12.9190687,2.65381494 12.1827105,3.30874031 11.4325015,3.94348658 C11.0489792,4.2679045 10.633815,4.55793435 10.2136359,4.83411345 C10.0857553,4.91829256 9.8592478,4.97536718 9.73888959,4.91781495 C9.57459108,4.83900898 9.4271284,4.65512838 9.35787467,4.48211345 C9.32945676,4.41118808 9.50688959,4.23100897 9.61984482,4.13465076 C10.2759642,3.57536718 10.9677851,3.05465076 11.5907105,2.46109852 C11.8954269,2.17082986 12.1136956,1.76963583 12.3053374,1.38587463 C12.5406806,0.91423284 12.3809195,0.419068658 11.8260538,0.361038807 C11.6360836,0.341098509 11.4544717,0.243307464 11.2689194,0.181217911 L11.2688,0.0853373138 Z" id="Fill-240" fill="#D87E3A"></path>
                            <path d="M4.35782688,21.1973852 C4.73191644,21.2899225 5.08331942,21.3665792 5.42863286,21.464609 C5.97967764,21.6211464 6.5263045,21.5869971 7.08057316,21.4809673 C7.4578866,21.4088479 7.84522988,21.3886687 8.22325974,21.318818 C8.60797616,21.2477732 8.99257317,21.1634747 9.36714034,21.0507583 C9.93633437,20.8795344 10.4975284,20.6812061 11.0606329,20.4895643 C11.3468418,20.3922508 11.6319762,20.2904001 11.913409,20.1799523 C12.1838568,20.0739225 12.5326329,20.1643105 12.6785433,20.4047881 C12.8219463,20.6414449 12.6644538,20.8049075 12.4866627,20.8915941 C12.1690508,21.0466986 11.8342448,21.1721911 11.4969314,21.279415 C10.7469612,21.518221 9.99806571,21.7664598 9.23567765,21.958221 C8.22958809,22.2113553 7.19890152,22.3159523 6.16331943,22.2223404 C5.50087166,22.1625195 4.96594629,21.7879523 4.46528957,21.375415 C4.41573733,21.3345792 4.39424479,21.2595941 4.35782688,21.1973852" id="Fill-242" fill="#D87E3A"></path>
                            <path d="M23.7689195,10.6486448 C23.8098747,10.8055403 23.869218,10.9601672 23.8888001,11.1196896 C24.0005613,12.0275105 23.6662329,12.8020777 23.1524419,13.5200478 C22.1625911,14.9034508 20.8798449,15.9823762 19.5354866,16.9967045 C19.3747702,17.1178986 19.2034269,17.1903762 19.0331583,17.0024359 C18.8833075,16.836824 18.8774568,16.4722866 19.0668299,16.294018 C19.3385911,16.0384956 19.6404419,15.814615 19.9311881,15.5792717 C21.1659344,14.5799881 22.350412,13.5318687 23.1857553,12.1544359 C23.4308896,11.7502568 23.6591882,11.335212 23.6419941,10.8359881 C23.6399643,10.7760478 23.6781732,10.7147941 23.6977553,10.6541374 C23.7215165,10.6522269 23.7451583,10.6505553 23.7689195,10.6486448" id="Fill-244" fill="#D87E3A"></path>
                            <path d="M2.51326568,4.8728836 C2.39457911,5.18452539 2.26478807,5.47610749 2.17308658,5.77915226 C2.07613135,6.09998809 2.2620418,6.38751047 2.57678807,6.49939107 C3.24938509,6.73891346 3.91195226,6.57891346 4.57201196,6.45377913 C4.87995226,6.39551047 5.17308659,6.25724182 5.4813851,6.20351047 C5.57237017,6.18762988 5.75863883,6.31754032 5.78693734,6.41401794 C5.90872838,6.82954033 5.68866868,7.1805851 5.24448957,7.3084657 C4.41714629,7.54679406 3.57750449,7.72649555 2.71028061,7.66930152 C2.47219106,7.65354033 2.2220418,7.59049555 2.00819105,7.48613734 C1.53451941,7.25521197 1.32878807,6.77198809 1.56448956,6.26524182 C1.78944478,5.78130152 2.1341612,5.35300301 2.42872837,4.90189853 C2.43971344,4.88518211 2.47613135,4.8849433 2.51326568,4.8728836" id="Fill-246" fill="#D87E3A"></path>
                            <path d="M2.57920001,19.3205255 C2.81155822,19.4435105 3.0305433,19.5898986 3.2707821,19.6784956 C3.53334927,19.7754508 3.81322987,19.8613016 4.08964778,19.8765852 C4.63615524,19.9069135 5.18552838,19.8882867 5.73358808,19.8826747 C5.84033435,19.8814807 5.95305077,19.8644061 6.05227465,19.8266747 C6.54576719,19.6393314 6.93143883,19.8944956 7.18266272,20.2861374 C7.28678212,20.4482867 7.15758809,20.6641673 6.92678212,20.679809 C6.1740657,20.7309135 5.4183642,20.8138986 4.66720002,20.7879881 C3.76117016,20.7567046 3.10946867,20.2285852 2.60893135,19.5023762 C2.5867224,19.4702568 2.5707224,19.4325255 2.5587821,19.3952717 C2.55400598,19.3802269 2.56785673,19.359212 2.57920001,19.3205255" id="Fill-248" fill="#3C7CA8"></path>
                            <path d="M11.7360956,23.91323 C11.9868418,23.8512598 12.234603,23.7714986 12.4886926,23.7303046 C14.9765732,23.3257673 17.1302448,22.1564538 19.2015284,20.8011105 C19.5310807,20.5854687 19.8337672,20.3291105 20.1550807,20.1004538 C20.232812,20.0451702 20.3353792,20.0248717 20.4687523,19.9714986 C20.4448717,20.3226628 20.2599165,20.5102449 20.0539464,20.6458867 C19.1131702,21.2657076 18.1914986,21.925409 17.2021254,22.4574688 C16.3257075,22.9288717 15.3838568,23.292812 14.4434389,23.627021 C13.5792001,23.9342449 12.6703045,24.0672598 11.7360956,23.91323" id="Fill-250" fill="#3C7CA8"></path>
                            <path d="M0.368680599,9.60807168 C0.382889554,9.74299706 0.412620897,9.87840004 0.408083584,10.0127284 C0.39793433,10.3195941 0.534411943,10.5361911 0.777994033,10.7069374 C1.15053135,10.9679523 1.24641195,11.4746986 0.978949258,11.8473553 C0.941337317,11.8997732 0.761397018,11.9125493 0.692262689,11.8701612 C0.140262687,11.5321314 -0.0578268659,10.9105194 0.138710448,10.1980418 C0.193516419,9.99947467 0.247008956,9.80042989 0.301098509,9.60162392 C0.323665673,9.60377317 0.346232837,9.60592243 0.368680599,9.60807168" id="Fill-252" fill="#EAB600"></path>
                            <path d="M22.6907941,7.37777914 C22.1817792,6.94565973 22.0870926,6.39616719 22.0435105,5.81479405 C22.399809,5.97730152 22.8014807,6.89097316 22.6907941,7.37777914" id="Fill-254" fill="#EAB600"></path>
                        </g>
                    </g>
                </g>
            </g>
        </g>
    </g>
</svg>