<?xml version="1.0" encoding="UTF-8"?>
<svg width="24px" height="24px" viewBox="0 0 24 24" version="1.1" xmlns="http://www.w3.org/2000/svg" xmlns:xlink="http://www.w3.org/1999/xlink">
    <!-- Generator: Sketch 52.5 (67469) - http://www.bohemiancoding.com/sketch -->
    <title>Crypto/coins/FUN</title>
    <desc>Created with Sketch.</desc>
    <g id="Crypto/coins/FUN" stroke="none" stroke-width="1" fill="none" fill-rule="evenodd">
        <g id="Group" transform="translate(-0.000000, -0.000000)">
            <g id="FUN">
                <g id="Page-1">
                    <g id="Artboard">
                        <g id="FUN">
                            <path d="M12.0505195,0.0693611943 C11.6259224,0.0693611943 11.2066986,0.0916895526 10.7948777,0.135152239 L15.5243105,6.01407764 L15.5116538,6.0247045 L13.8155344,7.3885254 L10.9955941,9.65765974 L14.166818,13.5995105 L18.6606687,9.98458512 C18.8569672,10.6256597 18.9620419,11.3049433 18.9620419,12.0096598 C18.9620419,15.8008239 15.9085493,18.8798687 12.1258627,18.9202269 L15.7111762,23.376824 C20.5148777,21.8325852 23.990818,17.3270329 23.990818,12.0096598 C23.990818,10.1013612 23.5429374,8.29813735 22.7458031,6.69754033 C21.9837732,5.16392838 20.9012658,3.81813733 19.5850866,2.74721195 C17.5302807,1.07234627 14.9077135,0.0693611943 12.0505195,0.0693611943 M12.9909374,1.17168956 C15.1536836,1.36034627 17.2280717,2.19533135 18.9152359,3.57037613 C20.1141613,4.54589853 21.1101016,5.79067465 21.7957135,7.17073436 C22.5480717,8.68118213 22.9294449,10.3093612 22.9294449,12.0096598 C22.9294449,14.3587941 22.1928479,16.5949732 20.799415,18.476406 C19.5768478,20.1272717 17.9503404,21.3776598 16.0649672,22.1234508 L14.1241911,19.7109135 C15.4734448,19.3499583 16.7089075,18.6362866 17.7167881,17.6182568 C19.2043105,16.1156896 20.023415,14.1239284 20.023415,12.0096598 C20.023415,11.2134806 19.9064001,10.4275702 19.6754747,9.67377914 L19.4149374,8.82315228 C19.3198926,8.51282392 18.9415046,8.39652541 18.688609,8.59986869 L17.9953553,9.15760004 L14.328609,12.1073314 L12.4877732,9.81921198 L14.4807284,8.21562988 L16.1767284,6.85180898 L16.1842508,6.84571943 L16.1916538,6.83951048 L16.2043105,6.82888361 L16.6587583,6.44989853 C16.8508777,6.28954032 16.8790568,6.00488361 16.7222807,5.80989853 L16.3512956,5.3487642 L12.9909374,1.17168956" id="Fill-440" fill="#E62584" fill-rule="nonzero"></path>
                            <path d="M12.1258508,18.9202269 L15.7111642,23.376824 C14.9406568,23.6262568 14.1361195,23.7981971 13.3050747,23.8841673 L13.3040001,23.8841673 L8.62125377,18.0616001 L8.65731347,18.0318687 L10.3289553,16.6871523 L13.1531941,14.4157493 L9.98185079,10.4738986 L5.46376122,14.109003 C5.25146271,13.4478687 5.13791047,12.7420777 5.13791047,12.0096598 C5.13791047,8.21742093 8.19140302,5.13945077 11.973015,5.09801793 L8.38877615,0.642495525 C9.15940302,0.393062688 9.96394034,0.221241792 10.7949851,0.135152239 L15.5242986,6.01407764 L15.5116419,6.0247045 L13.8155224,7.3885254 L10.9955821,9.65765974 L14.166806,13.5995105 L18.6606568,9.98458512 C18.8570747,10.6256597 18.9620299,11.3049433 18.9620299,12.0096598 C18.9620299,15.8008239 15.9085374,18.8798687 12.1258508,18.9202269" id="Fill-441" fill="#FFFFFF"></path>
                            <path d="M13.3039642,23.8841911 C12.8921433,23.9276538 12.4739941,23.9499822 12.0504717,23.9499822 C9.21990452,23.9499822 6.6195463,22.965027 4.57321793,21.3189374 C3.25082986,20.2552956 2.15972538,18.9159523 1.38814329,17.3875941 C0.569755226,15.7711165 0.110173135,13.943415 0.110173135,12.0096836 C0.110173135,6.69231048 3.58611345,2.18675822 8.38874033,0.642519406 L11.9730986,5.09804181 C8.1913672,5.13947465 5.13787465,8.21744481 5.13787465,12.0096836 C5.13787465,12.7421015 5.25142689,13.4478926 5.4637254,14.1090269 L9.98193437,10.473803 L13.1532777,14.4157732 L10.3289194,16.6871762 L8.65727765,18.0317732 L8.62121795,18.0615046 L13.3039642,23.8841911 Z" id="Fill-442" fill="#E62584"></path>
                        </g>
                    </g>
                </g>
            </g>
        </g>
    </g>
</svg>