<?xml version="1.0" encoding="UTF-8"?>
<svg width="24px" height="24px" viewBox="0 0 24 24" version="1.1" xmlns="http://www.w3.org/2000/svg" xmlns:xlink="http://www.w3.org/1999/xlink">
    <!-- Generator: Sketch 52.5 (67469) - http://www.bohemiancoding.com/sketch -->
    <title>Crypto/coins/GAME</title>
    <desc>Created with Sketch.</desc>
    <g id="Crypto/coins/GAME" stroke="none" stroke-width="1" fill="none" fill-rule="evenodd">
        <g id="Group" transform="translate(-0.000000, -0.000000)">
            <g id="GAME">
                <g id="Page-1">
                    <g id="Artboard">
                        <g id="GAME">
                            <path d="M23.9537314,11.9842389 C23.9537314,18.5787463 18.6079404,23.9245374 12.0134329,23.9245374 C5.4189254,23.9245374 0.0731343287,18.5787463 0.0731343287,11.9842389 C0.0731343287,5.38973137 5.4189254,0.0439402987 12.0134329,0.0439402987 C18.6079404,0.0439402987 23.9537314,5.38973137 23.9537314,11.9842389 Z" id="Fill-405" fill="#F4F4F4"></path>
                            <polygon id="Fill-407" fill="#2C475C" points="9.94005974 11.2810747 18.3773135 11.2810747 18.3773135 9.44776123 9.94005974 9.44776123"></polygon>
                            <path d="M18.3773016,12.6725493 L18.3773016,17.5209075 C17.6841672,18.053206 16.9633314,18.4491463 16.2983762,18.7413255 C16.2983762,18.7413255 15.1839881,19.1746389 14.578018,19.3367881 C14.5642866,19.3407284 14.5501971,19.3441911 14.5364657,19.3476538 C14.5131822,19.3533852 14.4898986,19.3593553 14.4673314,19.3650866 C14.3086448,19.4037732 14.1681075,19.434818 14.0491821,19.4584598 C14.0238687,19.4637135 13.9991523,19.4682508 13.9758687,19.4729075 C13.9603463,19.476012 13.9451821,19.4788777 13.9303762,19.4812658 C13.9279881,19.4819822 13.9254807,19.4823404 13.9229732,19.4826986 C13.9155702,19.4841314 13.9081672,19.4856837 13.9012418,19.4866389 C13.8933613,19.4884299 13.8856001,19.4898628 13.8781971,19.4909374 C13.8676896,19.4929672 13.8577792,19.4947583 13.8478687,19.4960717 C13.8147941,19.5018031 13.7813613,19.5070568 13.747809,19.5126687 C13.740406,19.5137434 13.7337195,19.514818 13.7270329,19.5158926 C13.6981374,19.5201911 13.6692418,19.5243702 13.6399881,19.5285493 C13.6371224,19.5289075 13.634615,19.5292658 13.6322269,19.529624 C13.6304359,19.5301016 13.6286448,19.5304598 13.627212,19.5304598 C13.6223165,19.5310568 13.619809,19.531415 13.619809,19.531415 C13.2556299,19.5821613 12.8834508,19.6086687 12.5048239,19.6086687 C8.19115227,19.6086687 4.69443584,16.1950568 4.69443584,11.9839523 C4.69443584,7.77332541 8.19115227,4.35971345 12.5048239,4.35971345 C14.6718687,4.35971345 16.6325851,5.2214448 18.0472717,6.61284779 L16.6749732,8.00532541 C15.6398687,7.00592242 14.2163463,6.38896719 12.6458389,6.38896719 C9.4799881,6.38896719 6.91401794,8.89404183 6.91401794,11.9839523 C6.91401794,15.0743404 9.4799881,17.579415 12.6458389,17.579415 C14.0337792,17.579415 15.3067344,17.0979822 16.2983762,16.2961911 L16.2983762,14.5057433 L9.9400478,14.5057433 L9.9400478,12.6725493 L18.3773016,12.6725493 Z" id="Fill-409" fill="#2C475C"></path>
                        </g>
                    </g>
                </g>
            </g>
        </g>
    </g>
</svg>