<?xml version="1.0" encoding="UTF-8"?>
<svg width="24px" height="24px" viewBox="0 0 24 24" version="1.1" xmlns="http://www.w3.org/2000/svg" xmlns:xlink="http://www.w3.org/1999/xlink">
    <!-- Generator: Sketch 52.5 (67469) - http://www.bohemiancoding.com/sketch -->
    <title>Crypto/coins/GAS</title>
    <desc>Created with Sketch.</desc>
    <g id="Crypto/coins/GAS" stroke="none" stroke-width="1" fill="none" fill-rule="evenodd">
        <g id="Group" transform="translate(1.671642, -0.000000)" fill="#7ABE25" fill-rule="nonzero">
            <g id="GAS">
                <g id="Page-1">
                    <g id="Artboard">
                        <g id="GAS">
                            <path d="M11.0029851,0.0673432839 L0.824597018,3.75701494 C0.658507465,3.81707464 0.544835823,3.9712239 0.536358211,4.14758211 C0.527761196,4.32405972 0.626029853,4.48859703 0.785313436,4.56441793 L9.55701497,8.74411944 C9.61635825,8.77229854 9.68095526,8.7866269 9.74543288,8.7866269 C9.79546273,8.7866269 9.84561198,8.77802989 9.89349258,8.76095526 L20.1460299,5.0831045 C20.3128359,5.02340301 20.4271046,4.86913435 20.4357016,4.69217912 C20.444418,4.5153433 20.3457911,4.35068659 20.1856717,4.27474629 L11.3399403,0.0833432839 C11.2807165,0.0552835823 11.2167165,0.041074627 11.1523583,0.041074627 C11.1019702,0.041074627 11.0514627,0.049791045 11.0029851,0.0673432839 Z M2.10805971,4.22400002 L11.1299105,0.95343284 L18.8567165,4.61480599 L9.76931347,7.87438809 L2.10805971,4.22400002 Z" id="Fill-341"></path>
                            <path d="M0.29874627,5.16382092 C0.171462687,5.24417913 0.0940895526,5.38411943 0.0940895526,5.53468659 L0.0940895526,19.2405971 C0.0940895526,19.4101493 0.191880598,19.5646568 0.345432837,19.637015 L9.34555228,23.8798807 C9.40501496,23.9077016 9.46865676,23.9215523 9.53229855,23.9215523 C9.61408959,23.9215523 9.69564183,23.8988658 9.76692541,23.8534926 C9.89361198,23.7731344 9.97062691,23.6335523 9.97062691,23.4834628 L9.97062691,9.85468661 C9.97062691,9.686209 9.87379109,9.53253735 9.72179109,9.45982093 L0.721910451,5.13982092 C0.661731346,5.11080599 0.596895525,5.09647763 0.532179107,5.09647763 C0.450865674,5.09647763 0.369910449,5.1190448 0.29874627,5.16382092 Z M0.970507467,18.9627463 L0.970507467,6.2310448 L9.09420899,10.1303881 L9.09420899,22.7923583 L0.970507467,18.9627463 Z" id="Fill-343"></path>
                            <path d="M19.9805374,5.79020898 L10.8261493,9.03020899 C10.6511045,9.09217914 10.5340896,9.25767168 10.5340896,9.44334332 L10.5340896,15.5891344 C10.5340896,15.7586866 10.632,15.9129553 10.7854329,15.9853135 L19.9397016,20.3053135 C19.9991643,20.333612 20.0630449,20.3474628 20.1266867,20.3474628 C20.2084777,20.3474628 20.2900299,20.3245374 20.3613135,20.2794031 C20.4880001,20.1988061 20.565015,20.059224 20.565015,19.9091344 L20.565015,6.20334331 C20.565015,6.06089555 20.4958807,5.92764182 20.3797016,5.84537316 C20.3047165,5.79247764 20.2160001,5.76525376 20.1265672,5.76525376 C20.0774926,5.76525376 20.0280598,5.77349256 19.9805374,5.79020898 Z M11.4105075,15.3112836 L11.4105075,9.75307467 L19.6885971,6.82328361 L19.6885971,19.2179105 L11.4105075,15.3112836 Z" id="Fill-345"></path>
                        </g>
                    </g>
                </g>
            </g>
        </g>
    </g>
</svg>