<?xml version="1.0" encoding="UTF-8"?>
<svg width="24px" height="24px" viewBox="0 0 24 24" version="1.1" xmlns="http://www.w3.org/2000/svg" xmlns:xlink="http://www.w3.org/1999/xlink">
    <!-- Generator: Sketch 52.5 (67469) - http://www.bohemiancoding.com/sketch -->
    <title>Crypto/coins/GBYTE</title>
    <desc>Created with Sketch.</desc>
    <g id="Crypto/coins/GBYTE" stroke="none" stroke-width="1" fill="none" fill-rule="evenodd">
        <g id="Group" transform="translate(-0.000000, -0.000000)">
            <g id="GBYTE">
                <g id="Page-1">
                    <g id="Artboard">
                        <g id="GBYTE">
                            <path d="M23.9619583,11.9581135 C23.9619583,18.552621 18.6161672,23.898412 12.0216598,23.898412 C5.42715226,23.898412 0.0813611944,18.552621 0.0813611944,11.9581135 C0.0813611944,5.36360599 5.42715226,0.0178149254 12.0216598,0.0178149254 C18.6161672,0.0178149254 23.9619583,5.36360599 23.9619583,11.9581135" id="Fill-355" fill="#FFFFFF"></path>
                            <path d="M12.0216598,0.0178149254 C5.42715226,0.0178149254 0.0813611944,5.36360599 0.0813611944,11.9581135 C0.0813611944,18.552621 5.42715226,23.898412 12.0216598,23.898412 C18.6161672,23.898412 23.9619583,18.552621 23.9619583,11.9581135 C23.9619583,5.36360599 18.6161672,0.0178149254 12.0216598,0.0178149254 M12.0216598,0.97303881 C18.0788538,0.97303881 23.0067344,5.90091943 23.0067344,11.9581135 C23.0067344,18.0153075 18.0788538,22.9431882 12.0216598,22.9431882 C5.9644657,22.9431882 1.03658508,18.0153075 1.03658508,11.9581135 C1.03658508,5.90091943 5.9644657,0.97303881 12.0216598,0.97303881" id="Fill-357" fill="#333333" fill-rule="nonzero"></path>
                        </g>
                    </g>
                </g>
            </g>
        </g>
    </g>
</svg>