<?xml version="1.0" encoding="UTF-8"?>
<svg width="24px" height="24px" viewBox="0 0 24 24" version="1.1" xmlns="http://www.w3.org/2000/svg" xmlns:xlink="http://www.w3.org/1999/xlink">
    <!-- Generator: Sketch 52.5 (67469) - http://www.bohemiancoding.com/sketch -->
    <title>Crypto/coins/GNO</title>
    <desc>Created with Sketch.</desc>
    <g id="Crypto/coins/GNO" stroke="none" stroke-width="1" fill="none" fill-rule="evenodd">
        <g id="Group" transform="translate(0.417910, -0.000000)" fill="#00A6C4">
            <g id="GNO">
                <g id="Page-1">
                    <g id="Artboard">
                        <g id="GNO">
                            <path d="M1.92161195,6.04207764 C1.95743284,6.07515226 1.98680598,6.10022689 2.01402986,6.12757017 C2.30477613,6.41855525 2.59301494,6.71216719 2.8874627,6.99945078 C2.95349255,7.06380898 2.95385076,7.10798809 2.90656718,7.18201794 C2.28961195,8.14583884 2.06525374,9.20183884 2.27110449,10.3211224 C2.54704479,11.8224956 3.39301494,12.9164657 4.7751045,13.575809 C5.59146271,13.9650627 6.45737316,14.065003 7.34752242,13.9287642 C7.94573138,13.8371821 8.50597018,13.6290627 9.01725377,13.3016598 C9.10202989,13.2473314 9.14847765,13.2535404 9.21761198,13.3237493 C9.96889556,14.0863762 10.7248359,14.8443463 11.4752836,15.6076896 C11.5581493,15.6921075 11.601015,15.7016598 11.690209,15.6117493 C12.5481195,14.7460777 13.4129553,13.8870926 14.2708657,13.0214209 C14.3651941,12.9261374 14.4242986,12.9097792 14.5480001,12.9841672 C15.298209,13.4356299 16.1156419,13.6166448 16.9895523,13.575809 C18.7243583,13.4947344 20.3087165,12.2824359 20.8462687,10.6181971 C21.2533135,9.35765974 21.1022687,8.16171944 20.4389852,7.02416719 C20.3956419,6.94989854 20.3917016,6.90392839 20.458209,6.83980898 C20.7000001,6.60697316 20.9349852,6.36733137 21.1729553,6.13055525 C21.1951643,6.1085851 21.2198807,6.08924182 21.2438807,6.06822689 C23.7858508,9.80422691 24.1442986,15.8142568 20.0545075,20.2394508 C15.8186866,24.8227344 8.82835825,25.1795106 4.16101494,21.245421 C-0.578805973,17.2500777 -1.14238806,10.6906747 1.92161195,6.04207764" id="Fill-377"></path>
                            <path d="M19.5366449,4.55991644 C14.9878687,-0.0911880601 7.59192839,0.303200001 3.64565972,4.37424479 C3.66858509,4.40015524 3.69091345,4.42761793 3.71574927,4.45245375 C6.32279406,7.06511048 8.93031646,9.67728959 11.535809,12.291618 C11.6091224,12.3651702 11.6506747,12.356215 11.7176598,12.2882747 C12.0541374,11.9469015 12.3940777,11.6089911 12.7341374,11.2712 C14.9327045,9.08660302 17.1315105,6.9021254 19.3315105,4.71896121 C19.3904956,4.66033435 19.4635702,4.61591644 19.5366449,4.55991644 M11.6209433,13.9411702 C8.44076421,10.7496478 5.26906271,7.56672242 2.0893612,4.37567763 C2.11228658,4.34511047 2.13067464,4.31597614 2.15348061,4.29078211 C3.30046569,3.01806568 4.63168957,1.98976717 6.18560003,1.25806568 C7.03371943,0.85866269 7.91515227,0.557647764 8.8321672,0.360155225 C9.88816721,0.132811941 10.9557493,0.04039403 12.0341971,0.0888716422 C13.6068538,0.159319404 15.1116896,0.519438808 16.5498986,1.16122986 C18.279212,1.93281195 19.7391523,3.06093136 20.9781971,4.48540897 C21.0498389,4.56779703 21.0086449,4.60469256 20.9534807,4.65949853 C19.4122269,6.19179704 17.8716896,7.72469257 16.3313911,9.25794631 C14.7944359,10.7878568 13.2578389,12.3182448 11.7207642,13.8482747 C11.6929433,13.8759762 11.6630926,13.902006 11.6209433,13.9411702" id="Fill-378" fill-rule="nonzero"></path>
                            <path d="M7.52288958,11.7041553 C6.87727764,12.2950806 5.44217316,12.4317971 4.492203,11.4826627 C3.53900897,10.5305433 3.66951643,9.12218511 4.29542688,8.39000601 C5.37280002,9.49627467 6.44862092,10.6009911 7.52288958,11.7041553" id="Fill-379"></path>
                            <path d="M15.8711762,11.475606 C16.952012,10.3919045 18.0279523,9.31321795 19.1036538,8.23453138 C19.5583404,8.74354631 19.7694449,10.043009 18.9821016,11.0008597 C18.1065195,12.0659344 16.6619822,12.0598448 15.8711762,11.475606" id="Fill-380"></path>
                        </g>
                    </g>
                </g>
            </g>
        </g>
    </g>
</svg>