<?xml version="1.0" encoding="UTF-8"?>
<svg width="24px" height="24px" viewBox="0 0 24 24" version="1.1" xmlns="http://www.w3.org/2000/svg" xmlns:xlink="http://www.w3.org/1999/xlink">
    <!-- Generator: Sketch 52.5 (67469) - http://www.bohemiancoding.com/sketch -->
    <title>Crypto/coins/GNT</title>
    <desc>Created with Sketch.</desc>
    <g id="Crypto/coins/GNT" stroke="none" stroke-width="1" fill="none" fill-rule="evenodd">
        <g id="Group" transform="translate(-0.000000, -0.000000)">
            <g id="GNT">
                <g id="Page-1">
                    <g id="Artboard">
                        <g id="GNT">
                            <path d="M23.8890747,11.9721075 C23.8890747,18.566615 18.5431643,23.9124061 11.9487762,23.9124061 C5.35426868,23.9124061 0.00847761198,18.566615 0.00847761198,11.9721075 C0.00847761198,5.37760002 5.35426868,0.0318089554 11.9487762,0.0318089554 C18.5431643,0.0318089554 23.8890747,5.37760002 23.8890747,11.9721075" id="Fill-130" fill="#002E64"></path>
                            <path d="M9.19417317,17.1950568 C9.19859108,18.7285493 10.4395463,19.9673553 11.9662329,19.962221 C13.4950687,19.9572061 14.729815,18.7224598 14.7279045,17.2007881 C14.7259941,15.6615642 13.4843224,14.4201314 11.9566806,14.4263404 C10.3747105,14.4327881 9.18999407,15.7185195 9.19417317,17.1950568 M9.19417317,7.95063884 C9.19751646,9.4809075 10.4325015,10.7131463 11.9585911,10.7189971 C13.5335165,10.7250866 14.7318448,9.42371347 14.7287404,7.95959406 C14.7253971,6.41631047 13.499009,5.18717614 11.9628896,5.18371345 C10.4064717,5.18013136 9.19214332,6.4495045 9.19417317,7.95063884 M11.6405015,13.8085493 L11.6405015,11.3238926 C10.7370986,11.2271762 9.98521795,10.8369672 9.3914269,10.1533851 C8.98975526,9.69105676 8.73471048,9.1529075 8.62641198,8.54920601 C8.37208362,7.13177316 9.01375526,5.79696719 10.0886209,5.12126569 C11.4692777,4.25344479 12.8230687,4.37583285 14.1391284,5.32771346 C14.7849792,4.67935524 15.4391881,4.02275823 16.1048598,3.35445972 C16.2445613,3.50848957 16.3797254,3.6576239 16.520621,3.81308658 C15.8790687,4.45189256 15.2221135,5.10598211 14.5700538,5.75517614 C14.672621,5.90574331 14.7755463,6.04269853 14.8637851,6.18860898 C15.2199642,6.7773851 15.3815165,7.41857914 15.3492777,8.1051463 C15.283009,9.51601198 14.3436657,10.7451463 12.9960836,11.1777433 C12.7854568,11.2453254 12.5615762,11.2727881 12.3428299,11.3129075 C12.2935165,11.3219821 12.2790687,11.3360717 12.2790687,11.3850269 C12.2805015,12.1739224 12.2802627,12.9629374 12.2794269,13.7519523 C12.2794269,13.7941016 12.284203,13.8175045 12.3362627,13.8232359 C13.0874269,13.9049075 13.736621,14.2095045 14.2859941,14.7265195 C14.7685016,15.1804896 15.0924419,15.7289075 15.2520836,16.3724896 C15.6278448,17.8864001 14.9385314,19.4495046 13.569218,20.1858628 C13.0124418,20.4853255 12.4150687,20.6157135 11.7850986,20.5855046 C10.2967403,20.5141016 9.01626272,19.4536837 8.66832242,18.010818 C8.30378511,16.4991762 8.98963586,14.9459822 10.3548896,14.1997135 C10.739009,13.9896836 11.1503523,13.8620418 11.587606,13.821803 C11.5983523,13.8207284 11.609218,13.8197732 11.6197254,13.8176239 C11.6259344,13.8164299 11.6315463,13.812609 11.6405015,13.8085493" id="Fill-132" fill="#FFFFFF" fill-rule="nonzero"></path>
                        </g>
                    </g>
                </g>
            </g>
        </g>
    </g>
</svg>