<?xml version="1.0" encoding="UTF-8"?>
<svg width="24px" height="24px" viewBox="0 0 24 24" version="1.1" xmlns="http://www.w3.org/2000/svg" xmlns:xlink="http://www.w3.org/1999/xlink">
    <!-- Generator: Sketch 52.5 (67469) - http://www.bohemiancoding.com/sketch -->
    <title>Crypto/coins/GRS</title>
    <desc>Created with Sketch.</desc>
    <g id="Crypto/coins/GRS" stroke="none" stroke-width="1" fill="none" fill-rule="evenodd">
        <g id="Group" transform="translate(-0.000000, -0.000000)">
            <g id="GRS">
                <g id="Page-1">
                    <g id="Artboard">
                        <g id="GRS">
                            <path d="M23.9335643,12.0278448 C23.9335643,18.6223523 18.5877732,23.9681434 11.9932657,23.9681434 C5.39875823,23.9681434 0.0529671644,18.6223523 0.0529671644,12.0278448 C0.0529671644,5.43333734 5.39875823,0.087546269 11.9932657,0.087546269 C18.5877732,0.087546269 23.9335643,5.43333734 23.9335643,12.0278448" id="Fill-1015" fill="#5791A3"></path>
                            <path d="M23.2235583,12.0280836 C23.2235583,15.9433075 21.2187822,19.3917852 18.1799762,21.400024 C17.5578866,21.8131583 16.891618,22.1643225 16.1895284,22.4459941 C14.894006,22.9702926 13.4766926,23.2580538 11.9937075,23.2580538 C10.3984836,23.2580538 8.88087168,22.9249195 7.50654331,22.3253971 C7.03848361,22.121218 6.5859463,21.8861135 6.15370749,21.6222329 C2.92146867,19.6508896 0.762782093,16.0913672 0.762782093,12.0280836 C0.762782093,5.82521793 5.79072241,0.797038809 11.9937075,0.797038809 C18.195618,0.797038809 23.2235583,5.82521793 23.2235583,12.0280836" id="Fill-1017" fill="#337D97"></path>
                            <path d="M8.11196421,11.3558568 C8.11196421,9.77854332 8.37333735,8.59884183 8.8952478,7.81567764 C9.41703885,7.03227466 10.200203,6.64075227 11.2437851,6.64075227 C12.0725612,6.64075227 12.8163224,6.95955824 13.4743523,7.59466272 C14.1322627,8.2298866 14.461815,9.38702093 14.461815,11.0669015 C14.461815,12.7350807 14.1513672,13.9063045 13.5340538,14.5822448 C12.9154269,15.2567523 12.1740538,15.5946628 11.3119642,15.5946628 C10.381815,15.5946628 9.6152478,15.2543642 9.01465078,14.5737672 C8.41285974,13.8919762 8.11196421,12.8198568 8.11196421,11.3558568 M18.0188299,21.1780658 C17.4170389,20.405409 16.6110687,19.8919762 15.6019941,19.6376478 C14.5919642,19.3822449 13.1507702,19.2091105 11.2785314,19.1183643 C9.56509855,19.0274986 8.44151645,18.8913792 7.90778511,18.7098866 C7.36318809,18.5391404 7.09106869,18.244215 7.09106869,17.8239165 C7.09106869,16.9283941 8.29345675,16.4400359 10.6994269,16.3600359 C13.0146508,16.2812299 14.6600239,15.7140657 15.6355463,14.6585433 C16.6110687,13.6137672 17.0994269,12.4113792 17.0994269,11.0501851 C17.0994269,10.005409 16.8045016,9.01794631 16.2145314,8.08779705 C16.2078448,8.07920003 16.2017553,8.07239406 16.1949493,8.06403585 L17.1789493,8.06403585 C17.1789493,8.06403585 17.7512478,6.64087167 17.612024,6.64087167 C17.4728001,6.64087167 17.5501732,6.57902092 17.2948896,6.83430451 C17.0397254,7.08958809 16.6916657,7.02761794 16.6916657,7.02761794 L15.0729195,7.02761794 C15.0405613,7.00349854 15.0071284,6.98093137 14.974412,6.95764779 C15.1998448,6.72911048 15.9562628,5.95382689 16.7149493,5.07860301 C17.6197851,4.0344239 17.7125613,2.10857314 15.879606,2.0389612 C14.0465314,1.96934926 14.1393075,3.68636419 14.1393075,3.68636419 L14.2398448,3.67096121 C14.2398448,3.67096121 14.3559045,2.64218509 15.5315463,2.65770747 C16.7070687,2.67311046 16.4905911,4.16588658 16.4905911,4.16588658 C16.3993672,4.97114032 15.3828896,6.09149853 14.6920239,6.76899107 C13.7215165,6.16337913 12.5619941,5.85854331 11.2104717,5.85854331 C9.67853138,5.85854331 8.35315824,6.3540657 7.2355463,7.34761794 C6.11793435,8.34093138 5.55912838,9.5457075 5.55912838,10.9643344 C5.55912838,11.9744836 5.83124779,12.8877971 6.3758448,13.7045135 C6.92032242,14.5225433 7.73214332,15.2485135 8.81047168,15.883618 C6.73405376,16.2692896 5.69524778,17.205409 5.69524778,18.6919762 C5.69524778,19.4645135 6.05823286,20.0938867 6.78420301,20.5822449 C6.8557254,20.6312001 6.93465078,20.6776478 7.02300898,20.723021 C6.79375525,20.8328717 6.59674033,20.9880956 6.43077018,21.1898867 C6.32091943,21.323618 6.22885973,21.467021 6.15375525,21.6221255 C6.58599406,21.8860061 7.03853137,22.1212299 7.50659108,22.325409 C7.60927764,21.9015284 7.80271048,21.4895881 8.08688959,21.0907822 C8.93226272,21.2926926 10.0808,21.4228419 11.5340538,21.483618 C13.6558448,21.5743643 15.1303523,21.8466031 15.9591284,22.3003344 C16.0402031,22.3457076 16.1167404,22.3946628 16.1894568,22.4460061 C16.8915463,22.1643344 17.557815,21.8131702 18.1799046,21.4000359 C18.1297553,21.324812 18.0761434,21.2507822 18.0188299,21.1780658" id="Fill-1019" fill="#FFFFFF" fill-rule="nonzero"></path>
                        </g>
                    </g>
                </g>
            </g>
        </g>
    </g>
</svg>