<?xml version="1.0" encoding="UTF-8"?>
<svg width="24px" height="24px" viewBox="0 0 24 24" version="1.1" xmlns="http://www.w3.org/2000/svg" xmlns:xlink="http://www.w3.org/1999/xlink">
    <!-- Generator: Sketch 52.5 (67469) - http://www.bohemiancoding.com/sketch -->
    <title>Crypto/coins/GXS</title>
    <desc>Created with Sketch.</desc>
    <g id="Crypto/coins/GXS" stroke="none" stroke-width="1" fill="none" fill-rule="evenodd">
        <g id="Group" transform="translate(-0.000000, -0.000000)" fill="#2067B0">
            <g id="GXS">
                <g id="Page-1">
                    <g id="Artboard">
                        <g id="GXS">
                            <path d="M12.0012538,15.6597254 L10.1465672,17.5134568 L7.15647764,20.5035464 C6.13379107,21.5262329 4.47062688,21.5262329 3.44794031,20.5035464 C2.42620897,19.481815 2.42620897,17.8176956 3.44794031,16.7959642 L5.53343286,14.7104717 L3.67874628,12.8566209 L1.59408956,14.9411583 C0.57152239,15.9638448 0.0610746271,17.3072478 0.0610746271,18.6496956 C0.0610746271,19.9922628 0.57152239,21.3356658 1.59408956,22.3583523 C2.61677613,23.3799643 3.9592239,23.8912479 5.30262689,23.8912479 C6.64519406,23.8912479 7.98859705,23.3799643 9.0103284,22.3583523 L13.8551045,17.5134568 L16.6598807,14.7078448 L14.8060299,12.8539941 L12.0012538,15.6597254 Z M22.4074628,1.54402389 C20.3631643,-0.500394032 17.0364777,-0.500394032 14.9913433,1.54402389 L12.0012538,4.53494927 L10.1465672,6.38880003 L6.4388657,10.0973374 L4.58417912,11.9510687 L4.56149256,11.9738747 L6.41617913,13.8277254 L6.4388657,13.8050389 L8.29271645,11.9510687 L12.0012538,8.24265078 L13.8551045,6.38880003 L16.8450747,3.39787464 C17.8677613,2.37614329 19.5310449,2.37614329 20.553612,3.39787464 C21.0492538,3.89339703 21.3219702,4.55166569 21.3219702,5.25256122 C21.3219702,5.95262092 21.0492538,6.61077018 20.553612,7.10641197 L17.5635225,10.0973374 L15.7089553,11.9510687 L15.6887762,11.9712478 L17.5426269,13.8250986 L17.5626866,13.8050389 L19.4173732,11.9510687 L22.4074628,8.96026272 C24.4527165,6.9158448 24.4527165,3.5883224 22.4074628,1.54402389 Z" id="Fill-824" fill-rule="nonzero"></path>
                            <path d="M22.4074986,14.941206 L14.7623642,7.29607167 L12.9085135,9.14992243 L15.7088717,11.9511165 L17.5627225,13.8049672 L20.5536478,16.7958926 C21.5763344,17.8177434 21.5763344,19.4817434 20.5536478,20.5035941 C19.5310807,21.5261613 17.8677971,21.5261613 16.8451105,20.5035941 L13.8551404,17.5135046 L12.0012896,15.6597732 L6.43890152,10.0973851 L3.44797613,7.10645973 C2.95328956,6.61069854 2.68057315,5.95266868 2.68057315,5.25248957 C2.68057315,4.55159405 2.95328956,3.89344479 3.44797613,3.397803 C3.95925972,2.88651942 4.6305433,2.63123583 5.30266271,2.63123583 C5.97394629,2.63123583 6.64511048,2.88747464 7.15639406,3.397803 L10.1464836,6.38884779 L12.0012896,8.24257914 L12.0257672,8.26705675 L13.879618,6.413206 L9.01024481,1.54407165 C6.9659463,-0.500346271 3.6385433,-0.500346271 1.59412538,1.54407165 C-0.450292539,3.58837016 -0.450292539,6.91577316 1.59412538,8.96019108 L4.58421494,11.9511165 L6.43890152,13.8049672 L10.1464836,17.5135046 L12.0012896,19.3672359 L14.9913792,22.3582807 C16.0139463,23.380012 17.3565135,23.8912956 18.6997971,23.8912956 C19.3710807,23.8912956 20.0423643,23.7637732 20.6742449,23.5076538 C21.305409,23.2523702 21.896215,22.8695643 22.4074986,22.3582807 C24.4527523,20.313027 24.4527523,16.9864598 22.4074986,14.941206" id="Fill-825"></path>
                        </g>
                    </g>
                </g>
            </g>
        </g>
    </g>
</svg>