<?xml version="1.0" encoding="UTF-8"?>
<svg width="24px" height="24px" viewBox="0 0 24 24" version="1.1" xmlns="http://www.w3.org/2000/svg" xmlns:xlink="http://www.w3.org/1999/xlink">
    <!-- Generator: Sketch 52.5 (67469) - http://www.bohemiancoding.com/sketch -->
    <title>Crypto/coins/HSR</title>
    <desc>Created with Sketch.</desc>
    <g id="Crypto/coins/HSR" stroke="none" stroke-width="1" fill="none" fill-rule="evenodd">
        <g id="Group" transform="translate(-0.000000, -0.000000)">
            <g id="HSR">
                <g id="Page-1">
                    <g id="Artboard">
                        <g id="HSR">
                            <path d="M23.8876777,12.0274986 C23.8876777,18.622006 18.5418866,23.9677971 11.9473792,23.9677971 C5.35287166,23.9677971 0.00708059704,18.622006 0.00708059704,12.0274986 C0.00708059704,5.43299107 5.35287166,0.0872000004 11.9473792,0.0872000004 C18.5418866,0.0872000004 23.8876777,5.43299107 23.8876777,12.0274986" id="Fill-15" fill="#573F8F"></path>
                            <path d="M12.2448359,13.0094209 C11.7717612,13.0094209 11.2984478,13.0155105 10.8254926,13.0065553 C10.6290747,13.0028538 10.5477612,13.0692418 10.5514627,13.2727045 C10.5607762,13.765003 10.5599403,14.2575404 10.5522986,14.7498389 C10.5491941,14.9491225 10.6265672,15.0212419 10.8252538,15.0199284 C11.7520598,15.0136001 12.6789851,15.0137195 13.6059105,15.0199284 C13.8124777,15.0212419 13.9027463,14.9547344 13.8978508,14.7363463 C13.8869851,14.2538389 13.8866269,13.7707344 13.8980896,13.2882269 C13.9033433,13.0681672 13.8122389,13.0024956 13.6061493,13.0066747 C13.1525374,13.0156299 12.6985672,13.0094209 12.2448359,13.0094209 M7.15910451,19.2915702 C7.08507466,18.9984359 7.11301496,18.8322269 7.44388063,18.7810031 C7.8225075,18.7223762 8.07134332,18.3788538 8.10573138,17.9661971 C8.12185078,17.7740777 8.12352242,17.5805254 8.12352242,17.3875702 C8.12471645,14.8389135 8.12411944,12.2902568 8.12447765,9.74148064 C8.12447765,9.36583884 8.12543287,9.36524183 8.5103881,9.36500302 C9.08961198,9.36452541 9.66919407,9.37539108 10.2479403,9.3601075 C10.4955821,9.35342093 10.5662687,9.44655526 10.5573135,9.67951049 C10.5433433,10.0458388 10.5605374,10.4132418 10.5519403,10.7799284 C10.547403,10.9806448 10.6042389,11.0786747 10.8283583,11.0766448 C11.7550448,11.0679284 12.6818508,11.0694806 13.6086568,11.075212 C13.8174926,11.0765254 13.9023881,11.0022568 13.8977314,10.787212 C13.8872239,10.3048239 13.8879404,9.82183885 13.8974926,9.33933138 C13.9015523,9.13670452 13.8214329,9.06840601 13.625015,9.06876422 C11.4818508,9.07246571 9.3385672,9.06745078 7.19540302,9.08070452 C7.07397018,9.08142093 6.90477615,9.19127168 6.84017913,9.29957019 C6.34107465,10.1365851 5.85677614,10.9827941 5.38441793,11.8353314 C5.32841793,11.9365851 5.3231642,12.1209433 5.37832838,12.2202866 C5.86561196,13.0975404 6.3668657,13.9671523 6.87982092,14.8298389 C6.9349851,14.9224956 7.08364182,14.9814807 7.20029854,15.0098986 C7.32805973,15.0410627 7.47588063,14.9935404 7.60161197,15.0286448 C7.6826866,15.051212 7.79588063,15.1585553 7.79826869,15.2311523 C7.81558212,15.7326448 7.80400003,16.2349732 7.80937317,16.736824 C7.81116421,16.906018 7.72949257,16.9509135 7.57761197,16.9501971 C6.87277615,16.9467344 6.16794032,16.954615 5.46346271,16.9412419 C5.37176122,16.9394508 5.24423883,16.8600478 5.19707465,16.7793314 C4.3151642,15.2717493 3.43910449,13.7607045 2.57665673,12.2418986 C2.5157612,12.1346747 2.51707464,11.9322866 2.57820897,11.8245851 C3.44113434,10.306018 4.31623882,8.79449556 5.20149256,7.28882391 C5.25402987,7.19951048 5.41641793,7.13025675 5.52913435,7.12810749 C6.27217913,7.11389854 7.01605973,7.10721197 7.7588657,7.12691346 C8.05976123,7.13491346 8.15731347,7.03043585 8.12686571,6.74386868 C8.09140302,6.40930152 8.11361197,6.06362988 8.03623884,5.7406448 C7.99337317,5.56130152 7.78429854,5.42721196 7.67695526,5.25574928 C7.59313436,5.12154032 7.5506269,4.96142092 7.47241794,4.77037614 C7.64459705,4.75640599 7.72889555,4.74362987 7.81319406,4.74351047 C8.81725377,4.74219703 9.82131347,4.73861495 10.8252538,4.749003 C10.924,4.74995823 11.083403,4.81873435 11.1069254,4.89109256 C11.1499105,5.02315226 11.1644777,5.18219704 10.9727165,5.28261495 C10.8482986,5.34780898 10.7007165,5.48894331 10.6817314,5.61383883 C10.6145075,6.05873435 10.5913433,6.51091346 10.5712836,6.96118212 C10.569015,7.01085376 10.6930747,7.11139107 10.7594627,7.11198809 C11.7343881,7.12177913 12.7095523,7.12321197 13.6843583,7.10960003 C13.754806,7.10864481 13.8801792,6.97897316 13.882806,6.90565973 C13.8949851,6.56930152 13.887821,6.23031644 13.8579702,5.89503286 C13.833015,5.61539107 13.7002389,5.40022689 13.4424478,5.23867465 C13.3401195,5.17455525 13.3346269,4.95604778 13.2712239,4.76607763 C13.4426866,4.75485375 13.5361792,4.74351047 13.6299105,4.74339106 C14.6145075,4.74219703 15.5993433,4.73885375 16.5839404,4.74828659 C16.6869851,4.74924181 16.8565374,4.80727166 16.8779105,4.87557017 C16.9223284,5.01730151 16.9359404,5.17383883 16.7384478,5.29133137 C16.5905075,5.37933137 16.4651344,5.56607764 16.4105672,5.73491346 C16.3410747,5.94971943 16.3336717,6.19091346 16.3331941,6.4206448 C16.328418,9.16249556 16.3337911,11.9042269 16.3241195,14.6459583 C16.3231642,14.9350329 16.4029254,15.0317493 16.6995225,15.0267344 C17.4814926,15.0132419 17.4909254,15.0310329 17.8602389,14.3308538 C18.0077016,14.051212 18.1046568,13.7450627 18.2246568,13.4509732 C18.2005374,13.4325851 18.1762986,13.4143165 18.1521792,13.3959284 C18.2252538,13.3868538 18.2984478,13.370018 18.3717613,13.3698986 C19.2695523,13.3684657 20.1674628,13.3651224 21.0651344,13.3765851 C21.1617314,13.3777792 21.3231643,13.4521672 21.3396419,13.5203463 C21.3737911,13.6616001 21.4017314,13.819212 21.1869255,13.9257195 C20.983224,14.0268538 20.7822687,14.2001075 20.6627464,14.3928239 C20.225612,15.0978986 19.8087762,15.8165851 19.4141493,16.5462568 C19.2522389,16.8457195 19.0660896,16.9605851 18.7162389,16.9583165 C16.1291344,16.9420777 13.5417911,16.9493613 10.9544478,16.9497195 C10.5555224,16.9497195 10.5487165,16.9509135 10.5561194,17.345421 C10.5608956,17.6050031 10.5672239,17.867809 10.6110448,18.1227344 C10.6745672,18.492406 10.9137314,18.7283463 11.2811344,18.7937792 C11.4921195,18.8312717 11.553015,18.9265553 11.5390448,19.124406 C11.5226866,19.3572419 11.354209,19.3080478 11.2197612,19.3084061 C9.95504482,19.3112717 8.69032839,19.3104359 7.42573137,19.3093613 C7.34059705,19.3092419 7.25534331,19.2982568 7.15910451,19.2915702" id="Fill-17" fill="#FFFFFF" fill-rule="nonzero"></path>
                            <path d="M19.7281672,10.6983284 C19.2842269,10.6983284 18.8401672,10.691403 18.3964657,10.7014329 C18.198615,10.7058508 18.1337792,10.6398209 18.1273314,10.4367165 C18.110615,9.91504482 17.7399881,9.55014929 17.4904359,9.13594034 C17.4496001,9.06811944 17.2603463,9.07552243 17.1391523,9.07289556 C16.5610031,9.06059705 16.6407642,9.13164183 16.6353911,8.55611944 C16.6316896,8.16053735 16.6423165,7.76459705 16.6316896,7.36925376 C16.6265553,7.17713436 16.7024956,7.11671645 16.8862568,7.11850749 C17.5713911,7.12471645 18.2567643,7.1269851 18.9417792,7.11719406 C19.141421,7.11432839 19.2330031,7.218806 19.3196896,7.370806 C19.7502568,8.12459705 20.1716299,8.88447765 20.629421,9.62167168 C20.7641075,9.8385075 20.9858389,10.0234627 21.2074508,10.1573135 C21.3956299,10.2711045 21.3704359,10.4151045 21.3392717,10.5488359 C21.3238687,10.6145075 21.1777195,10.6888956 21.0886449,10.6916418 C20.6355105,10.7060896 20.1816598,10.6983284 19.7281672,10.6983284" id="Fill-19" fill="#FFFFFF"></path>
                            <path d="M15.1147105,19.3099105 C14.4587105,19.3096717 13.8024717,19.3155225 13.1468299,19.3019105 C13.0687404,19.3002389 12.9461135,19.2050747 12.926412,19.1312837 C12.8916657,19.001015 12.8810389,18.8554628 13.095009,18.8053135 C13.6564418,18.673612 13.8782926,18.3800001 13.8940538,17.8023284 C13.9090986,17.2551045 13.9090986,17.2551045 14.4522627,17.2551045 C14.9539941,17.2551045 15.4563225,17.2702687 15.9570986,17.2491344 C16.2400836,17.2371941 16.3711881,17.3057314 16.3354866,17.6134329 C16.3169792,17.7729553 16.340621,17.9419105 16.3715463,18.1015523 C16.4450986,18.4799404 16.6762628,18.729015 17.0568001,18.7938508 C17.271606,18.8303881 17.3217553,18.9288956 17.3111284,19.1243583 C17.2981135,19.3618508 17.1290389,19.3075225 16.996024,19.3083583 C16.3689195,19.312418 15.741815,19.3101493 15.1147105,19.3099105" id="Fill-21" fill="#FFFFFF"></path>
                        </g>
                    </g>
                </g>
            </g>
        </g>
    </g>
</svg>