<?xml version="1.0" encoding="UTF-8"?>
<svg width="24px" height="24px" viewBox="0 0 24 24" version="1.1" xmlns="http://www.w3.org/2000/svg" xmlns:xlink="http://www.w3.org/1999/xlink">
    <!-- Generator: Sketch 52.5 (67469) - http://www.bohemiancoding.com/sketch -->
    <title>Crypto/coins/ICN</title>
    <desc>Created with Sketch.</desc>
    <g id="Crypto/coins/ICN" stroke="none" stroke-width="1" fill="none" fill-rule="evenodd">
        <g id="Group" transform="translate(-0.000000, -0.000000)">
            <g id="ICN">
                <g id="Page-1">
                    <g id="Artboard">
                        <g id="ICN">
                            <path d="M23.9949016,12.0376478 C23.9949016,18.6321553 18.6491105,23.9779464 12.054603,23.9779464 C5.46009555,23.9779464 0.114304478,18.6321553 0.114304478,12.0376478 C0.114304478,5.44314032 5.46009555,0.0973492541 12.054603,0.0973492541 C18.6491105,0.0973492541 23.9949016,5.44314032 23.9949016,12.0376478" id="Fill-365" fill="#4B6C8D"></path>
                            <polygon id="Fill-367" fill="#FFFFFF" points="4.17397017 17.5399404 6.80083585 17.5399404 6.80083585 13.4385672 4.17397017 13.4385672"></polygon>
                            <polygon id="Fill-369" fill="#FFFFFF" points="8.55211944 17.5399404 11.1789851 17.5399404 11.1789851 8.46531347 8.55211944 8.46531347"></polygon>
                            <polygon id="Fill-370" fill="#FFFFFF" points="12.9302687 17.5399404 15.5571344 17.5399404 15.5571344 10.9727762 12.9302687 10.9727762"></polygon>
                            <polygon id="Fill-371" fill="#FFFFFF" points="17.3082986 17.5399404 19.9351643 17.5399404 19.9351643 6.53528361 17.3082986 6.53528361"></polygon>
                        </g>
                    </g>
                </g>
            </g>
        </g>
    </g>
</svg>