<?xml version="1.0" encoding="UTF-8"?>
<svg width="24px" height="24px" viewBox="0 0 24 24" version="1.1" xmlns="http://www.w3.org/2000/svg" xmlns:xlink="http://www.w3.org/1999/xlink">
    <!-- Generator: Sketch 52.5 (67469) - http://www.bohemiancoding.com/sketch -->
    <title>Crypto/coins/IOT</title>
    <desc>Created with Sketch.</desc>
    <g id="Crypto/coins/IOT" stroke="none" stroke-width="1" fill="none" fill-rule="evenodd">
        <g id="Group" transform="translate(-0.000000, 0.477612)" fill="#000000">
            <g id="IOT">
                <g id="Page-1">
                    <g id="Artboard">
                        <g id="IOT">
                            <path d="M14.752012,5.88202988 C15.0020419,5.88202988 15.2046687,5.67940301 15.2046687,5.42937316 C15.2046687,5.17946271 15.0020419,4.97683584 14.752012,4.97683584 C14.5021016,4.97683584 14.2994747,5.17946271 14.2994747,5.42937316 C14.2994747,5.67940301 14.5021016,5.88202988 14.752012,5.88202988" id="Fill-516"></path>
                            <path d="M13.728812,5.09488957 C14.0440359,5.09488957 14.2994389,4.83936718 14.2994389,4.52426271 C14.2994389,4.20915823 14.0440359,3.95351643 13.728812,3.95351643 C13.4135881,3.95351643 13.1581851,4.20915823 13.1581851,4.52426271 C13.1581851,4.83936718 13.4135881,5.09488957 13.728812,5.09488957" id="Fill-517"></path>
                            <path d="M14.1507941,6.57413734 C13.8525254,6.57413734 13.6107344,6.81592839 13.6107344,7.11419704 C13.6107344,7.4124657 13.8525254,7.65437615 14.1507941,7.65437615 C14.4490627,7.65437615 14.6908538,7.4124657 14.6908538,7.11419704 C14.6908538,6.81592839 14.4490627,6.57413734 14.1507941,6.57413734" id="Fill-518"></path>
                            <path d="M12.3021493,4.36512241 C12.6488956,4.36512241 12.9300896,4.08404778 12.9300896,3.73718211 C12.9300896,3.39031643 12.6488956,3.1091224 12.3021493,3.1091224 C11.9552836,3.1091224 11.6740896,3.39031643 11.6740896,3.73718211 C11.6740896,4.08404778 11.9552836,4.36512241 12.3021493,4.36512241" id="Fill-519"></path>
                            <path d="M12.085612,6.33463883 C12.085612,6.68150451 12.366806,6.96269854 12.7136717,6.96269854 C13.0605374,6.96269854 13.3417314,6.68150451 13.3417314,6.33463883 C13.3417314,5.98777316 13.0605374,5.70657913 12.7136717,5.70657913 C12.366806,5.70657913 12.085612,5.98777316 12.085612,6.33463883" id="Fill-520"></path>
                            <path d="M13.8810986,9.81597616 C14.2279642,9.81597616 14.5091583,9.53478213 14.5091583,9.18791646 C14.5091583,8.84105078 14.2279642,8.55997616 13.8810986,8.55997616 C13.5343523,8.55997616 13.2531583,8.84105078 13.2531583,9.18791646 C13.2531583,9.53478213 13.5343523,9.81597616 13.8810986,9.81597616" id="Fill-521"></path>
                            <path d="M10.4720478,3.95357614 C10.8741971,3.95357614 11.2001672,3.62760599 11.2001672,3.22545673 C11.2001672,2.82342688 10.8741971,2.49745673 10.4720478,2.49745673 C10.070018,2.49745673 9.7439284,2.82342688 9.7439284,3.22545673 C9.7439284,3.62760599 10.070018,3.95357614 10.4720478,3.95357614" id="Fill-522"></path>
                            <path d="M12.7546986,8.6763463 C12.7546986,8.27419705 12.4288478,7.9482269 12.0265792,7.9482269 C11.6244299,7.9482269 11.2985792,8.27419705 11.2985792,8.6763463 C11.2985792,9.07849556 11.6244299,9.40446571 12.0265792,9.40446571 C12.4288478,9.40446571 12.7546986,9.07849556 12.7546986,8.6763463" id="Fill-523"></path>
                            <path d="M10.147415,5.80501495 C10.147415,6.2071642 10.4732657,6.53313436 10.8755344,6.53313436 C11.2775642,6.53313436 11.6035344,6.2071642 11.6035344,5.80501495 C11.6035344,5.40286569 11.2775642,5.07689554 10.8755344,5.07689554 C10.4732657,5.07689554 10.147415,5.40286569 10.147415,5.80501495" id="Fill-524"></path>
                            <path d="M8.22881197,3.95357614 C8.69508063,3.95357614 9.07322989,3.57542688 9.07322989,3.10915822 C9.07322989,2.64277016 8.69508063,2.2646209 8.22881197,2.2646209 C7.76242391,2.2646209 7.38427466,2.64277016 7.38427466,3.10915822 C7.38427466,3.57542688 7.76242391,3.95357614 8.22881197,3.95357614" id="Fill-525"></path>
                            <path d="M7.77789854,5.67709853 C7.77789854,6.14348659 8.15592839,6.52151645 8.62231645,6.52151645 C9.08870452,6.52151645 9.46685377,6.14348659 9.46685377,5.67709853 C9.46685377,5.21071047 9.08870452,4.83268062 8.62231645,4.83268062 C8.15592839,4.83268062 7.77789854,5.21071047 7.77789854,5.67709853" id="Fill-526"></path>
                            <path d="M9.80914631,7.71546272 C9.34275825,7.71546272 8.9647284,8.09361197 8.9647284,8.56000004 C8.9647284,9.0263881 9.34275825,9.40441795 9.80914631,9.40441795 C10.2755344,9.40441795 10.6535642,9.0263881 10.6535642,8.56000004 C10.6535642,8.09361197 10.2755344,7.71546272 9.80914631,7.71546272" id="Fill-527"></path>
                            <path d="M5.61161793,4.52422688 C6.14952838,4.52422688 6.58558809,4.08816718 6.58558809,3.55013733 C6.58558809,3.01222688 6.14952838,2.57616717 5.61161793,2.57616717 C5.07358808,2.57616717 4.63752838,3.01222688 4.63752838,3.55013733 C4.63752838,4.08816718 5.07358808,4.52422688 5.61161793,4.52422688" id="Fill-528"></path>
                            <path d="M5.05074629,6.14019107 C5.05074629,6.67810152 5.48680599,7.11428063 6.02471644,7.11428063 C6.5627463,7.11428063 6.998806,6.67810152 6.998806,6.14019107 C6.998806,5.60228062 6.5627463,5.16610151 6.02471644,5.16610151 C5.48680599,5.16610151 5.05074629,5.60228062 5.05074629,6.14019107" id="Fill-529"></path>
                            <path d="M6.22157615,9.03285974 C6.22157615,9.57077019 6.65763585,10.0069493 7.1956657,10.0069493 C7.73357615,10.0069493 8.16963585,9.57077019 8.16963585,9.03285974 C8.16963585,8.49494929 7.73357615,8.05877018 7.1956657,8.05877018 C6.65763585,8.05877018 6.22157615,8.49494929 6.22157615,9.03285974" id="Fill-530"></path>
                            <path d="M3.16164777,8.53041198 C3.8024836,8.53041198 4.32200599,8.01088959 4.32200599,7.37005376 C4.32200599,6.72921794 3.8024836,6.20969555 3.16164777,6.20969555 C2.52081195,6.20969555 2.00128956,6.72921794 2.00128956,7.37005376 C2.00128956,8.01088959 2.52081195,8.53041198 3.16164777,8.53041198" id="Fill-531"></path>
                            <path d="M4.32197017,9.06236422 C3.68113434,9.06236422 3.16161195,9.58188661 3.16161195,10.2227224 C3.16161195,10.8635583 3.68113434,11.3832 4.32197017,11.3832 C4.96280599,11.3832 5.48244778,10.8635583 5.48244778,10.2227224 C5.48244778,9.58188661 4.96280599,9.06236422 4.32197017,9.06236422" id="Fill-532"></path>
                            <path d="M1.38995821,11.0425433 C0.63628657,11.0425433 0.0254208956,11.653409 0.0254208956,12.4069612 C0.0254208956,13.1606329 0.63628657,13.7714986 1.38995821,13.7714986 C2.14362986,13.7714986 2.75449553,13.1606329 2.75449553,12.4069612 C2.75449553,11.653409 2.14362986,11.0425433 1.38995821,11.0425433" id="Fill-533"></path>
                            <path d="M6.63762391,12.445815 C6.51392242,12.2286209 6.2373851,12.1528001 6.02031047,12.2766209 C5.80311644,12.4003224 5.72729555,12.6766209 5.85099704,12.893815 C5.97469853,13.111009 6.25111644,13.1868299 6.46831047,13.063009 C6.68550451,12.9393075 6.7613254,12.663009 6.63762391,12.445815" id="Fill-534"></path>
                            <path d="M5.68181495,13.5111165 C5.4079045,13.6671762 5.31238211,14.0155941 5.46844181,14.2895045 C5.62450152,14.5632956 5.97291943,14.658818 6.24671047,14.5028777 C6.52050152,14.346818 6.61614331,13.9984001 6.46020301,13.7244896 C6.30414331,13.4506986 5.95560599,13.3550568 5.68181495,13.5111165" id="Fill-535"></path>
                            <path d="M8.27312242,12.8276418 C8.5323463,12.6799404 8.62285377,12.3501493 8.47515227,12.0910448 C8.32745078,11.8318209 7.99765973,11.7414329 7.73843585,11.889015 C7.47945078,12.0365971 7.38894331,12.3665075 7.5365254,12.6257314 C7.68410749,12.8848359 8.01401794,12.9752239 8.27312242,12.8276418" id="Fill-536"></path>
                            <path d="M6.29725376,16.1818866 C6.59862689,16.0103045 6.70382092,15.6267822 6.53211943,15.325409 C6.36041794,15.0240359 5.97689555,14.9188419 5.67564181,15.0905433 C5.37426868,15.2622448 5.26919405,15.6456478 5.44077614,15.947021 C5.61247764,16.2485135 5.99600002,16.3535881 6.29725376,16.1818866" id="Fill-537"></path>
                            <path d="M7.49407764,14.3037971 C7.66565973,14.6051702 8.04918212,14.7103642 8.35067466,14.5386627 C8.65192839,14.3669613 8.75712242,13.9834389 8.58554033,13.6820657 C8.41371944,13.380812 8.03031645,13.275618 7.72894332,13.4473195 C7.42745078,13.6189015 7.32249555,14.0024239 7.49407764,14.3037971" id="Fill-538"></path>
                            <path d="M9.6303881,11.0205612 C9.32901496,11.1921433 9.22382093,11.5756657 9.39552243,11.8770389 C9.56722392,12.178412 9.95074631,12.283606 10.252,12.1119045 C10.5533732,11.940203 10.6585672,11.5568 10.4868657,11.2554269 C10.3151642,10.9540538 9.93164183,10.8488597 9.6303881,11.0205612" id="Fill-539"></path>
                            <path d="M7.08037018,17.1192598 C6.8813254,16.7698866 6.43666868,16.6479762 6.08741495,16.847021 C5.73792241,17.0460657 5.61601196,17.4906031 5.81505674,17.8399762 C6.01410152,18.1893493 6.45875824,18.3112598 6.80813137,18.112215 C7.15750451,17.9131702 7.27941496,17.4686329 7.08037018,17.1192598" id="Fill-540"></path>
                            <path d="M10.7749851,14.0635344 C11.1243583,13.8644896 11.2461493,13.4198329 11.0472239,13.0704598 C10.8481791,12.7210866 10.4036418,12.5991762 10.0541493,12.7982209 C9.70477616,12.9972657 9.58298511,13.441803 9.78191049,13.7912956 C9.98095527,14.1406687 10.4254926,14.2625792 10.7749851,14.0635344" id="Fill-541"></path>
                            <path d="M8.84983884,16.4849911 C9.19921198,16.2859463 9.32112243,15.8412896 9.12207765,15.4919165 C8.92303287,15.1425433 8.47849556,15.0206329 8.12900302,15.2196777 C7.77962988,15.4187225 7.65783884,15.8632598 7.85688361,16.2127523 C8.05580899,16.5621254 8.5003463,16.6840359 8.84983884,16.4849911" id="Fill-542"></path>
                            <path d="M8.19067466,19.0684896 C7.95986869,18.6632359 7.4441672,18.5218628 7.03891346,18.7526687 C6.63377913,18.9835941 6.49228659,19.4991762 6.72321197,19.9044299 C6.95401794,20.3096837 7.46971943,20.4510568 7.87485376,20.2202508 C8.2802269,19.9893255 8.42160004,19.4737434 8.19067466,19.0684896" id="Fill-543"></path>
                            <path d="M9.91152243,18.6072001 C10.3167762,18.3762747 10.4581493,17.8606926 10.2273433,17.4554389 C9.99641795,17.0501851 9.48083586,16.908812 9.07558213,17.139618 C8.67020899,17.3705434 8.52895526,17.8861254 8.75976123,18.2913792 C8.9905672,18.6966329 9.50614929,18.838006 9.91152243,18.6072001" id="Fill-544"></path>
                            <path d="M11.8289672,16.1490031 C12.2343403,15.9181971 12.3755941,15.4024956 12.1447881,14.9972419 C11.9139821,14.5919881 11.3982806,14.450615 10.9930269,14.681421 C10.5876538,14.9123463 10.4464,15.4279284 10.677206,15.8331822 C10.908012,16.2385553 11.4237135,16.3799284 11.8289672,16.1490031" id="Fill-545"></path>
                            <path d="M8.65348063,20.6958687 C8.18601794,20.9621374 8.02303287,21.5568837 8.28918212,22.0243464 C8.55557018,22.491809 9.15031646,22.6549135 9.61777914,22.3886449 C10.0851224,22.1223762 10.2482269,21.5275105 9.98195825,21.0601673 C9.71568959,20.5927046 9.12094332,20.4296001 8.65348063,20.6958687" id="Fill-546"></path>
                            <path d="M10.6994269,19.0548419 C10.2319642,19.3211105 10.0689791,19.9158568 10.3351284,20.3833195 C10.6015165,20.8507822 11.1962627,21.0138867 11.663606,20.747618 C12.1310687,20.4813493 12.2941732,19.8864837 12.0279045,19.4191404 C11.7616359,18.9516777 11.1668896,18.7885732 10.6994269,19.0548419" id="Fill-547"></path>
                            <path d="M13.5976239,18.2984837 C14.0650866,18.032215 14.2280717,17.4374687 13.9619224,16.970006 C13.6955344,16.5025434 13.1007881,16.3394389 12.6334448,16.6057075 C12.1659821,16.8719762 12.0028777,17.4668419 12.2691463,17.9341851 C12.535415,18.4016478 13.1301612,18.5647523 13.5976239,18.2984837" id="Fill-548"></path>
                            <path d="M13.0930747,20.7720717 C12.5361792,21.0892061 12.3419105,21.7978628 12.6590448,22.3546389 C12.9762986,22.9115344 13.6848359,23.1058031 14.2417314,22.7885493 C14.7985075,22.471415 14.9927762,21.7627583 14.6756419,21.2059822 C14.3585075,20.6490867 13.6498508,20.454818 13.0930747,20.7720717" id="Fill-549"></path>
                            <path d="M14.9974687,18.3518329 C14.4405732,18.6689672 14.2463045,19.3775046 14.5634389,19.9344001 C14.8806926,20.4912956 15.5892299,20.6855643 16.1461254,20.3683105 C16.7029016,20.0511762 16.8971702,19.3425195 16.5800359,18.7857434 C16.2629016,18.2288478 15.5542448,18.0345792 14.9974687,18.3518329" id="Fill-550"></path>
                            <path d="M18.2456001,19.641015 C17.5907941,20.0140299 17.3623762,20.847224 17.7353911,21.5020299 C18.108406,22.1568359 18.9414807,22.3852538 19.5964061,22.0122389 C20.2510926,21.639224 20.4796299,20.8060299 20.106615,20.151224 C19.7336001,19.4965374 18.9002866,19.2680001 18.2456001,19.641015" id="Fill-551"></path>
                            <path d="M16.9811344,16.081015 C16.7642986,15.9567165 16.4876419,16.0317016 16.3633434,16.2486568 C16.2390448,16.4654926 16.3141493,16.7420299 16.5309851,16.8663284 C16.7479404,16.9906269 17.0244777,16.9156419 17.1487762,16.6986866 C17.2730747,16.4818508 17.1979702,16.2053135 16.9811344,16.081015" id="Fill-552"></path>
                            <path d="M17.7664717,16.5311762 C18.0399046,16.6878329 18.3886807,16.5932657 18.5453374,16.3198329 C18.7021135,16.0464001 18.6075463,15.6977433 18.3341135,15.5409672 C18.0606807,15.3841911 17.7119046,15.4788777 17.5551284,15.7523105 C17.3984717,16.0257434 17.4930389,16.3744001 17.7664717,16.5311762" id="Fill-553"></path>
                            <path d="M15.8619702,14.6456717 C15.6031045,14.4973732 15.2730747,14.586806 15.1247762,14.8456717 C14.9764777,15.104418 15.0660299,15.4344478 15.3247762,15.5828657 C15.5835225,15.7311642 15.9136717,15.641612 16.0619702,15.3827463 C16.2102687,15.1240001 16.1207165,14.7939702 15.8619702,14.6456717" id="Fill-554"></path>
                            <path d="M19.1302807,15.7345314 C19.4312956,15.9070687 19.8149374,15.8029493 19.9874747,15.5020538 C20.1598926,15.2010389 20.0558926,14.8172777 19.7548777,14.6448598 C19.4539822,14.4724419 19.070221,14.5764419 18.8978031,14.8774568 C18.7252657,15.1783523 18.8293852,15.5621135 19.1302807,15.7345314" id="Fill-555"></path>
                            <path d="M17.2966687,13.710221 C16.9956538,13.537803 16.612012,13.6419224 16.4394747,13.942818 C16.2670568,14.2437135 16.3711762,14.6274747 16.6721911,14.7998926 C16.9729672,14.9724299 17.3567284,14.8683105 17.5292657,14.567415 C17.7018031,14.2665195 17.5976837,13.8826389 17.2966687,13.710221" id="Fill-556"></path>
                            <path d="M13.6160478,14.3939224 C13.9169433,14.5663404 14.3007045,14.462221 14.4732419,14.1613254 C14.6456598,13.8604299 14.5415404,13.4766687 14.2405254,13.3042508 C13.9397493,13.1317135 13.5558687,13.2358329 13.3834508,13.5367284 C13.2109135,13.8376239 13.3150329,14.2215045 13.6160478,14.3939224" id="Fill-557"></path>
                            <path d="M21.158615,13.2246807 C20.8097195,13.0248001 20.3649434,13.1453971 20.1649434,13.4942926 C19.9649434,13.8431881 20.0856598,14.2880836 20.4345553,14.4880836 C20.7833314,14.6879642 21.228227,14.5673672 21.428227,14.2184717 C21.628227,13.8695762 21.5075105,13.4246807 21.158615,13.2246807" id="Fill-558"></path>
                            <path d="M14.6626866,12.1325015 C14.4626866,12.4812777 14.5835224,12.9262926 14.932418,13.1261732 C15.2811941,13.3261732 15.7260896,13.2054568 15.9260896,12.8565612 C16.1260896,12.5077851 16.0053732,12.0628896 15.6564777,11.8628896 C15.3075822,11.6628896 14.8626866,11.783606 14.6626866,12.1325015" id="Fill-559"></path>
                            <path d="M17.9959523,13.5553075 C18.3448478,13.7553075 18.789624,13.6345911 18.989624,13.2856956 C19.189624,12.9368001 19.0689075,12.4919045 18.720012,12.2919045 C18.3712359,12.0920239 17.926221,12.2127403 17.726221,12.5615165 C17.5263404,12.910412 17.6470568,13.3553075 17.9959523,13.5553075" id="Fill-560"></path>
                            <path d="M22.4329792,11.2353433 C22.0283225,11.0034627 21.5123822,11.143403 21.2805016,11.5480597 C21.0485016,11.9527165 21.1884419,12.4687762 21.5930986,12.7006568 C21.9977553,12.9325374 22.513815,12.7925971 22.7456956,12.3879404 C22.9776956,11.9832836 22.8376359,11.4672239 22.4329792,11.2353433" id="Fill-561"></path>
                            <path d="M19.1694568,11.7650747 C19.5741135,11.9969553 20.0901732,11.857015 20.3220538,11.4523583 C20.5540538,11.0477015 20.4139941,10.5316418 20.0093374,10.2997612 C19.6048001,10.0678806 19.088621,10.2078209 18.8567404,10.6124777 C18.6247404,11.0171344 18.7648001,11.5331941 19.1694568,11.7650747" id="Fill-562"></path>
                            <path d="M16.0781493,11.361218 C16.482806,11.5930986 16.9987463,11.4531583 17.2306269,11.0485015 C17.4626269,10.6438448 17.3226866,10.1277851 16.9180299,9.89590452 C16.5133732,9.66402392 15.9973135,9.80396422 15.7654329,10.2086209 C15.5334329,10.6132777 15.6734926,11.1293374 16.0781493,11.361218" id="Fill-563"></path>
                            <path d="M23.4161911,8.6329075 C22.9495643,8.36544481 22.354221,8.52687765 22.0867583,8.99362392 C21.8192956,9.46037019 21.9808479,10.0555941 22.4474747,10.3230568 C22.914221,10.5906389 23.5094449,10.4290866 23.7769076,9.96234034 C24.0444897,9.49571347 23.8829374,8.90037019 23.4161911,8.6329075" id="Fill-564"></path>
                            <path d="M19.9949016,9.39369556 C20.4616478,9.66115825 21.0569911,9.49972541 21.3244538,9.03297914 C21.5919165,8.56623287 21.4303643,7.97100899 20.963618,7.7034269 C20.4969911,7.43596421 19.9017672,7.59751645 19.6341852,8.06414332 C19.3667225,8.53088959 19.5282747,9.12611347 19.9949016,9.39369556" id="Fill-565"></path>
                            <path d="M18.2325374,8.61029257 C18.5000001,8.1435463 18.3385672,7.54832242 17.871821,7.28085973 C17.4050747,7.01327764 16.8098508,7.17482988 16.5423881,7.64157615 C16.274806,8.10832242 16.4362389,8.7035463 16.9029851,8.97100899 C17.3697314,9.23859108 17.9650747,9.07703884 18.2325374,8.61029257" id="Fill-566"></path>
                            <path d="M20.259009,6.45962988 C20.8150687,6.77831645 21.5242031,6.58595824 21.8428896,6.02989853 C22.1615762,5.47395823 21.9690986,4.7649433 21.4130389,4.44625673 C20.8570986,4.12745076 20.1479643,4.31992838 19.8292777,4.87586868 C19.5105911,5.43192838 19.7030687,6.14094331 20.259009,6.45962988" id="Fill-567"></path>
                            <path d="M18.3611583,4.03437614 C17.8050986,3.71568957 17.0959643,3.90804778 16.7772777,4.46410748 C16.4585911,5.02004778 16.6510687,5.72906271 17.207009,6.04774928 C17.7630687,6.36655525 18.4722031,6.17407764 18.7908896,5.61813734 C19.1095762,5.06207763 18.9170986,4.3530627 18.3611583,4.03437614" id="Fill-568"></path>
                            <path d="M16.6685254,2.59488956 C17.3223762,2.96969553 18.1561672,2.74342688 18.5308538,2.08957613 C18.9055404,1.43572538 18.6793911,0.602053734 18.0255404,0.227247762 C17.371809,-0.147438807 16.5378986,0.0787104481 16.1633314,0.732561197 C15.7885254,1.38629254 16.0146747,2.22020299 16.6685254,2.59488956" id="Fill-569"></path>
                        </g>
                    </g>
                </g>
            </g>
        </g>
    </g>
</svg>