<?xml version="1.0" encoding="UTF-8"?>
<svg width="24px" height="24px" viewBox="0 0 24 24" version="1.1" xmlns="http://www.w3.org/2000/svg" xmlns:xlink="http://www.w3.org/1999/xlink">
    <!-- Generator: Sketch 52.5 (67469) - http://www.bohemiancoding.com/sketch -->
    <title>Crypto/coins/KMD</title>
    <desc>Created with Sketch.</desc>
    <g id="Crypto/coins/KMD" stroke="none" stroke-width="1" fill="none" fill-rule="evenodd">
        <g id="Group" transform="translate(-0.000000, -0.000000)">
            <g id="KMD">
                <g id="Page-1">
                    <g id="Artboard">
                        <g id="KMD">
                            <path d="M20.3930986,3.57892539 L17.328621,6.642806 C17.2455165,6.55958212 17.1453374,6.49200003 17.034412,6.44626868 L12.2968598,4.48388062 C12.074412,4.39217912 11.8247403,4.39217912 11.6022926,4.48388062 L6.86474033,6.44626868 C6.75381495,6.49200003 6.65387465,6.55958212 6.57053137,6.642806 L3.50605375,3.57892539 C3.63751643,3.44805972 3.79357614,3.34262688 3.96850151,3.27026867 L11.4046806,0.190029852 C11.7536956,0.045313433 12.1455762,0.045313433 12.4947105,0.190029852 L19.9306508,3.27026867 C20.1055762,3.34262688 20.2616359,3.44805972 20.3930986,3.57892539" id="Fill-118" fill="#FCB000"></path>
                            <path d="M23.7813971,12.5674389 L20.7017553,20.0029016 C20.6295165,20.1777075 20.5239643,20.3338867 20.3930986,20.4653493 C20.2616359,20.596215 20.1055762,20.7016478 19.9306508,20.7740061 L12.4947105,23.8542449 C12.1455762,23.9988419 11.7536956,23.9988419 11.4046806,23.8542449 L3.96850151,20.7740061 C3.79369554,20.7016478 3.63751643,20.596215 3.50605375,20.4653493 C3.37530748,20.3338867 3.26975524,20.1777075 3.19739703,20.0029016 L0.117755224,12.5674389 C-0.0268417912,12.2184239 -0.0268417912,11.8258269 0.117755224,11.476812 L3.19739703,4.04134927 C3.26975524,3.86702091 3.37530748,3.71036419 3.50605375,3.57890151 L6.57053137,6.64278212 C6.65387465,6.55967764 6.75393436,6.49209555 6.86474033,6.4462448 L11.6022926,4.48385674 C11.8247403,4.39215524 12.074412,4.39215524 12.2968598,4.48385674 L17.034412,6.4462448 C17.1453374,6.49209555 17.2455165,6.55967764 17.328621,6.64278212 L20.3930986,3.57890151 C20.5239643,3.71036419 20.6295165,3.86702091 20.7017553,4.04134927 L23.7813971,11.476812 C23.9261135,11.8258269 23.9261135,12.2184239 23.7813971,12.5674389" id="Fill-120" fill="#3D6E6E"></path>
                            <path d="M19.4875583,12.3696717 L17.5251702,17.1066269 C17.4794389,17.2175523 17.4124538,17.317612 17.3286329,17.4008359 C17.2455284,17.4846568 17.1453493,17.5515225 17.034424,17.5979702 L12.2968717,19.5603583 C12.0744239,19.6520598 11.8247523,19.6520598 11.6023045,19.5603583 L6.86475227,17.5979702 C6.75382689,17.5515225 6.65388659,17.4846568 6.57054331,17.4008359 C6.48684182,17.317612 6.41997615,17.2175523 6.3741254,17.1066269 L4.41161793,12.3696717 C4.31943882,12.1472239 4.31943882,11.8970747 4.41161793,11.6745075 L6.3741254,6.93755227 C6.41997615,6.82602988 6.48684182,6.72656719 6.57054331,6.6428657 C6.65388659,6.55964182 6.75382689,6.49205973 6.86475227,6.44620898 L11.6023045,4.48382091 C11.8247523,4.39211942 12.0744239,4.39211942 12.2968717,4.48382091 L17.034424,6.44620898 C17.1453493,6.49205973 17.2455284,6.55964182 17.3286329,6.6428657 C17.4124538,6.72656719 17.4794389,6.82602988 17.5251702,6.93755227 L19.4875583,11.6745075 C19.5797374,11.8970747 19.5797374,12.1472239 19.4875583,12.3696717" id="Fill-122" fill="#FFFFFF"></path>
                            <path d="M15.510412,8.11722988 L12.1929195,6.74302092 C12.0370986,6.67854331 11.8620538,6.67854331 11.7064717,6.74302092 L8.38874033,8.11722988 C8.23303884,8.1817075 8.10933735,8.30552839 8.04485974,8.46122989 L6.67065077,11.7788418 C6.60605376,11.9345433 6.60605376,12.1095881 6.67065077,12.2652896 L8.04485974,15.5829016 C8.10933735,15.7386031 8.23303884,15.8624239 8.38874033,15.9269016 L11.7064717,17.3011105 C11.8620538,17.3655881 12.0370986,17.3655881 12.1929195,17.3011105 L15.510412,15.9269016 C15.6662329,15.8624239 15.7899344,15.7386031 15.854412,15.5829016 L17.228621,12.2652896 C17.293218,12.1095881 17.293218,11.9345433 17.228621,11.7788418 L15.854412,8.46122989 C15.7899344,8.30552839 15.6662329,8.1817075 15.510412,8.11722988" id="Fill-124" fill="#3F7070"></path>
                        </g>
                    </g>
                </g>
            </g>
        </g>
    </g>
</svg>