<?xml version="1.0" encoding="UTF-8"?>
<svg width="24px" height="24px" viewBox="0 0 24 24" version="1.1" xmlns="http://www.w3.org/2000/svg" xmlns:xlink="http://www.w3.org/1999/xlink">
    <!-- Generator: Sketch 52.5 (67469) - http://www.bohemiancoding.com/sketch -->
    <title>Crypto/coins/KNC</title>
    <desc>Created with Sketch.</desc>
    <defs>
        <linearGradient x1="50%" y1="0%" x2="50%" y2="100%" id="linearGradient-1">
            <stop stop-color="#6EBF9E" offset="0%"></stop>
            <stop stop-color="#3998AC" offset="100%"></stop>
        </linearGradient>
    </defs>
    <g id="Crypto/coins/KNC" stroke="none" stroke-width="1" fill="none" fill-rule="evenodd">
        <g id="Group" transform="translate(-0.000000, -0.000000)">
            <g id="KNC">
                <g id="Page-1">
                    <g id="Artboard">
                        <g id="KNC">
                            <path d="M23.9537314,11.9703642 C23.9537314,18.5648717 18.6079404,23.9106628 12.0134329,23.9106628 C5.4189254,23.9106628 0.0731343287,18.5648717 0.0731343287,11.9703642 C0.0731343287,5.37585674 5.4189254,0.0300656718 12.0134329,0.0300656718 C18.6079404,0.0300656718 23.9537314,5.37585674 23.9537314,11.9703642" id="Fill-281" fill="#EBF6F0"></path>
                            <polygon id="Fill-284" fill="url(#linearGradient-1)" points="6.78316421 7.08549257 7.68573138 16.5430448 11.2322389 21.6692538 11.0816717 10.2372538 11.0808359 10.196418 10.9763583 2.28322389"></polygon>
                            <polygon id="Fill-286" fill="#EBF6F0" points="17.2653613 7.08544481 17.2653613 7.08616122 11.1072717 10.2240717 11.081003 10.1963702 10.976406 2.28317613"></polygon>
                            <polygon id="Fill-288" fill="#BBDBD6" points="17.2653613 7.08614928 17.0006448 16.5700896 11.1072717 10.2240597"></polygon>
                            <polygon id="Fill-290" fill="#0A8C90" points="17.0006687 16.5700538 17.0006687 16.5708896 16.9969672 16.7134568 11.244012 21.6861135 11.2323105 21.6692777 11.0817433 10.2372777 11.1072956 10.2241433"></polygon>
                            <polygon id="Fill-292" fill="#4AA7AC" points="11.1073075 10.2240956 11.0817553 10.2372299 11.0809194 10.1963941"></polygon>
                            <path d="M7.82762988,16.4827225 L11.2715702,21.4605135 L16.8524657,16.6366329 L16.8543762,16.5587822 L17.1170628,7.14779704 L10.9964657,2.47412538 L6.93485376,7.1258269 L7.82762988,16.4827225 Z M11.2168836,21.8945434 L11.1122866,21.7444538 L7.54368958,16.5864837 L7.54010749,16.5485135 L6.63168958,7.02815525 L10.9563463,2.07543881 L17.4116299,7.00463287 L17.4116299,7.07711048 L17.1415404,16.7734687 L11.2168836,21.8945434 Z" id="Fill-294" fill="#FFFFFF" fill-rule="nonzero"></path>
                            <path d="M11.3417911,2.28321195 C11.3417911,2.47843583 11.1835821,2.63664479 10.9883583,2.63664479 C10.7931344,2.63664479 10.6349254,2.47843583 10.6349254,2.28321195 C10.6349254,2.08786867 10.7931344,1.92965971 10.9883583,1.92965971 C11.1835821,1.92965971 11.3417911,2.08786867 11.3417911,2.28321195" id="Fill-296" fill="#2A2A2A"></path>
                            <path d="M7.13691943,7.09734928 C7.13691943,7.29269257 6.97871048,7.45090152 6.7834866,7.45090152 C6.58826271,7.45090152 6.43005376,7.29269257 6.43005376,7.09734928 C6.43005376,6.9021254 6.58826271,6.74391645 6.7834866,6.74391645 C6.97871048,6.74391645 7.13691943,6.9021254 7.13691943,7.09734928" id="Fill-298" fill="#2A2A2A"></path>
                            <path d="M8.05104481,16.543009 C8.05104481,16.7382329 7.89283585,16.8965613 7.69761197,16.8965613 C7.50238809,16.8965613 7.34417914,16.7382329 7.34417914,16.543009 C7.34417914,16.3477851 7.50238809,16.1895762 7.69761197,16.1895762 C7.89283585,16.1895762 8.05104481,16.3477851 8.05104481,16.543009" id="Fill-300" fill="#2A2A2A"></path>
                            <path d="M11.6586747,21.657624 C11.6586747,21.8528479 11.5004657,22.0110568 11.3052418,22.0110568 C11.110018,22.0110568 10.951809,21.8528479 10.951809,21.657624 C10.951809,21.4624001 11.110018,21.3040717 11.3052418,21.3040717 C11.5004657,21.3040717 11.6586747,21.4624001 11.6586747,21.657624" id="Fill-302" fill="#2A2A2A"></path>
                            <path d="M17.3139344,16.6239284 C17.3139344,16.8191523 17.155606,16.9774807 16.9605016,16.9774807 C16.7652777,16.9774807 16.6070687,16.8191523 16.6070687,16.6239284 C16.6070687,16.4287045 16.7652777,16.2704956 16.9605016,16.2704956 C17.155606,16.2704956 17.3139344,16.4287045 17.3139344,16.6239284" id="Fill-304" fill="#2A2A2A"></path>
                            <path d="M17.5968717,7.09734928 C17.5968717,7.29269257 17.4386628,7.45090152 17.2434389,7.45090152 C17.048215,7.45090152 16.890006,7.29269257 16.890006,7.09734928 C16.890006,6.9021254 17.048215,6.74391645 17.2434389,6.74391645 C17.4386628,6.74391645 17.5968717,6.9021254 17.5968717,7.09734928" id="Fill-306" fill="#2A2A2A"></path>
                            <path d="M11.4606209,10.2243224 C11.4606209,10.4195463 11.302412,10.5778747 11.1071881,10.5778747 C10.9119642,10.5778747 10.7537553,10.4195463 10.7537553,10.2243224 C10.7537553,10.0290985 10.9119642,9.87088959 11.1071881,9.87088959 C11.302412,9.87088959 11.4606209,10.0290985 11.4606209,10.2243224" id="Fill-308" fill="#2A2A2A"></path>
                        </g>
                    </g>
                </g>
            </g>
        </g>
    </g>
</svg>