<?xml version="1.0" encoding="UTF-8"?>
<svg width="24px" height="24px" viewBox="0 0 24 24" version="1.1" xmlns="http://www.w3.org/2000/svg" xmlns:xlink="http://www.w3.org/1999/xlink">
    <!-- Generator: Sketch 52.5 (67469) - http://www.bohemiancoding.com/sketch -->
    <title>Crypto/coins/LSK</title>
    <desc>Created with Sketch.</desc>
    <g id="Crypto/coins/LSK" stroke="none" stroke-width="1" fill="none" fill-rule="evenodd">
        <g id="Group" transform="translate(-0.000000, -0.000000)">
            <g id="LSK">
                <g id="Page-1">
                    <g id="Artboard">
                        <g id="LSK">
                            <path d="M11.9827702,0.119211941 C5.38826271,0.119211941 0.042471642,5.46500301 0.042471642,12.0595105 C0.042471642,18.654018 5.38826271,23.9998091 11.9827702,23.9998091 C18.5772777,23.9998091 23.9230688,18.654018 23.9230688,12.0595105 C23.9230688,5.46500301 18.5772777,0.119211941 11.9827702,0.119211941" id="Fill-656" fill="#136798"></path>
                            <path d="M11.9827702,23.0445852 C5.9157851,23.0445852 0.997695527,18.1263762 0.997695527,12.0595105 C0.997695527,5.9926448 5.9157851,1.07443583 11.9827702,1.07443583 C18.0496359,1.07443583 22.9678449,5.9926448 22.9678449,12.0595105 C22.9678449,18.1263762 18.0496359,23.0445852 11.9827702,23.0445852" id="Fill-658" fill="#FFFFFF"></path>
                            <polygon id="Fill-660" fill="#136798" points="11.9129314 1.99018508 11.6149015 1.99018508 11.3168717 2.1469612 4.98003584 8.06051347 10.4541851 9.91137915 12.6030806 8.37418511 12.7599762 7.48009555 11.8972896 5.29979704"></polygon>
                            <polygon id="Fill-662" fill="#136798" points="12.7826747 2.89130747 12.7826747 5.76175525 13.6454807 7.95769556 13.4728239 9.0871284 11.2140777 10.687009 11.418018 13.3692777 13.0807045 17.5729792 14.0532418 15.8946508 13.755212 15.3770389 14.6807045 13.1182926 14.6807045 11.9575762 16.4060777 9.62038213 15.3236896 8.71065078 15.4963463 7.34599406 14.0376001 5.93429256 12.8767642 2.98539703"></polygon>
                            <polygon id="Fill-664" fill="#136798" points="4.83877017 8.93024481 10.3600836 10.7184239 10.5482627 13.3222448 9.13656123 16.0515583 6.28187465 17.322006 5.99948659 16.5221254 6.14062092 15.5808717"></polygon>
                            <polygon id="Fill-666" fill="#136798" points="6.4700657 18.1447404 9.43460302 16.8271284 10.7364538 14.3331583 12.3834986 18.4741732 11.3796777 21.2661732 11.2698269 21.2661732 10.6581254 21.5642031 10.3286926 20.8582926 9.57585676 20.4975762 9.2934687 20.5602628 9.13657317 20.8582926 8.77108063 20.7798449 8.16415526 21.1092777 7.866006 20.5916658 6.53275227 19.9642031"></polygon>
                            <polygon id="Fill-668" fill="#136798" points="14.0759404 3.19797016 14.8759404 5.29982092 16.3818508 6.75856719 16.2091941 7.99773138 17.1974926 8.89182093 18.9385075 8.31140302 17.7463881 7.27617913 17.1974926 6.11546271"></polygon>
                            <polygon id="Fill-670" fill="#136798" points="17.2757971 9.76157616 19.1267822 9.11847168 18.7189016 12.9770986 18.7346628 15.3769792 18.5463643 15.5809195 18.2483344 15.8945911 14.8602747 15.6437254 14.6719762 15.3299344 15.5504239 13.2438448 15.5661851 12.145815"></polygon>
                            <polygon id="Fill-672" fill="#136798" points="14.4139702 16.544812 17.5824478 16.7487523 17.2687762 20.0426031 16.3120001 20.1994986 16.2177911 20.5132896 15.2139702 20.5132896 14.7904478 21.1876777 13.5983284 21.3445732 13.2374926 21.7524538 12.6257911 21.4857076 12.3075821 22.1289314 12.1238209 21.6740061 13.2374926 18.5525732"></polygon>
                        </g>
                    </g>
                </g>
            </g>
        </g>
    </g>
</svg>