<?xml version="1.0" encoding="UTF-8"?>
<svg width="24px" height="24px" viewBox="0 0 24 24" version="1.1" xmlns="http://www.w3.org/2000/svg" xmlns:xlink="http://www.w3.org/1999/xlink">
    <!-- Generator: Sketch 52.5 (67469) - http://www.bohemiancoding.com/sketch -->
    <title>Crypto/coins/LTC</title>
    <desc>Created with Sketch.</desc>
    <g id="Crypto/coins/LTC" stroke="none" stroke-width="1" fill="none" fill-rule="evenodd">
        <g id="Group" transform="translate(-0.000000, -0.000000)">
            <g id="LTC">
                <g id="Page-1">
                    <g id="Artboard">
                        <g id="LTC">
                            <path d="M11.9480239,0.0928000004 C5.35351644,0.0928000004 0.00772537317,5.43859107 0.00772537317,12.0330986 C0.00772537317,18.627606 5.35351644,23.9733971 11.9480239,23.9733971 C18.5425314,23.9733971 23.8883225,18.627606 23.8883225,12.0330986 C23.8883225,5.43859107 18.5425314,0.0928000004 11.9480239,0.0928000004" id="Fill-491" fill="#3D3E3C"></path>
                            <path d="M11.9480239,1.08784478 C17.9832478,1.08784478 22.8933374,5.99793435 22.8933374,12.0331583 C22.8933374,18.0682628 17.9832478,22.9783523 11.9480239,22.9783523 C5.91280002,22.9783523 1.00271045,18.0682628 1.00271045,12.0331583 C1.00271045,5.99793435 5.91280002,1.08784478 11.9480239,1.08784478" id="Fill-492" fill="#FFFFFF"></path>
                            <path d="M19.4725732,7.59629854 C19.2079762,7.14817913 18.8975284,6.72000003 18.5458866,6.3151045 L6.2300657,18.6309255 C6.63496122,18.9824478 7.06314033,19.293015 7.51125973,19.557612 L19.4725732,7.59629854 Z" id="Fill-493" fill="#B6B7BA"></path>
                            <path d="M17.5329195,5.32093137 C17.1196657,4.97621495 16.681815,4.67639405 16.2260538,4.42003584 L4.33494927,16.311021 C4.59130748,16.7669016 4.89112838,17.2046329 5.2359642,17.6178866 L17.5329195,5.32093137 Z" id="Fill-494" fill="#B6B7BA"></path>
                            <path d="M14.8458866,3.7928836 C14.2637971,3.58870449 13.6642747,3.44983882 13.0581851,3.37270449 L3.28767763,13.1433314 C3.36493136,13.7491821 3.50355822,14.3488239 3.70785673,14.9309135 L14.8458866,3.7928836 Z" id="Fill-495" fill="#B6B7BA"></path>
                            <path d="M11.0800836,3.34366569 C9.14253138,3.5360239 7.25703884,4.37363584 5.77285973,5.85781495 C4.28868061,7.34199406 3.45094927,9.22760601 3.25859106,11.1651583 L11.0800836,3.34366569 Z" id="Fill-496" fill="#B6B7BA"></path>
                            <path d="M20.5787344,10.7052657 C20.4877493,10.1108777 20.3343165,9.52460899 20.1204658,8.95565377 L8.87055526,20.2054449 C9.43951049,20.4192956 10.0257791,20.5728478 10.6201672,20.6637135 L20.5787344,10.7052657 Z" id="Fill-497" fill="#B6B7BA"></path>
                            <path d="M20.658209,12.6329075 L12.5478806,20.7432359 C14.578806,20.6042508 16.570806,19.7609075 18.1232837,18.2083105 C19.6758807,16.6557135 20.519224,14.6639523 20.658209,12.6329075" id="Fill-498" fill="#B6B7BA"></path>
                            <polygon id="Fill-499" fill="#F8F9F7" points="10.9799165 15.0860896 11.4913195 11.4101493 14.7193792 9.08680601 14.7193792 6.85791048 11.8360359 8.93253735 12.4272001 4.6833433 8.89931944 4.6833433 8.14242391 11.5900896 5.89609555 13.2063284 5.89609555 15.437015 7.87711048 14.0113433 7.45203585 17.8902687 10.9799165 17.8902687 18.9949613 17.8902687 18.9949613 15.0860896"></polygon>
                            <path d="M7.751606,17.6217672 L18.7265314,17.6217672 L18.7265314,15.3545433 L10.6713672,15.3545433 L11.2412777,11.2593792 L14.4510687,8.94928959 L14.4510687,7.3818866 L11.4836657,9.51681198 L12.1187702,4.95179704 L9.14014332,4.95179704 L8.39638212,11.7381851 L6.16462092,13.3440359 L6.16462092,14.9129911 L8.20975526,13.4411105 L7.751606,17.6217672 Z M19.2633672,18.1587225 L7.15256122,18.1587225 L7.54468063,14.5815284 L5.6276657,15.9609911 L5.6276657,13.068812 L7.88856123,11.4420657 L8.65871048,4.41484181 L12.7357254,4.41484181 L12.1881433,8.34833436 L14.9879045,6.3341254 L14.9879045,9.22427467 L11.741218,11.5608717 L11.2884418,14.8177075 L19.2633672,14.8177075 L19.2633672,18.1587225 Z" id="Fill-500" fill="#3D3E3C" fill-rule="nonzero"></path>
                        </g>
                    </g>
                </g>
            </g>
        </g>
    </g>
</svg>