<?xml version="1.0" encoding="UTF-8"?>
<svg width="24px" height="24px" viewBox="0 0 24 24" version="1.1" xmlns="http://www.w3.org/2000/svg" xmlns:xlink="http://www.w3.org/1999/xlink">
    <!-- Generator: Sketch 52.5 (67469) - http://www.bohemiancoding.com/sketch -->
    <title>Crypto/coins/MAID</title>
    <desc>Created with Sketch.</desc>
    <g id="Crypto/coins/MAID" stroke="none" stroke-width="1" fill="none" fill-rule="evenodd">
        <g id="Group" transform="translate(-0.000000, -0.000000)">
            <g id="MAID">
                <g id="Page-1">
                    <g id="Artboard">
                        <g id="MAID">
                            <path d="M23.9619583,11.9569553 C23.9619583,18.5514628 18.6161672,23.8972538 12.0216598,23.8972538 C5.42715226,23.8972538 0.0813611944,18.5514628 0.0813611944,11.9569553 C0.0813611944,5.36244778 5.42715226,0.0166567165 12.0216598,0.0166567165 C18.6161672,0.0166567165 23.9619583,5.36244778 23.9619583,11.9569553" id="Fill-150" fill="#E1F0FF"></path>
                            <path d="M8.93706272,10.4245971 L18.1111523,5.0912239 L18.1111523,16.0177911 C18.1111523,17.5037613 17.3070926,18.8733135 16.009421,19.5973732 L15.3648836,19.9568956 L15.3648836,9.19080601 L11.0167045,11.6783284 L8.93706272,10.4245971 Z" id="Fill-152" fill="#25558B"></path>
                            <path d="M14.5092419,13.6285971 L8.93706272,10.4246568 L18.1112717,5.0912836 L17.2262568,4.63647763 C15.9910329,4.00173136 14.5184359,4.0355224 13.3136598,4.72638808 L4.0009433,10.0664478 L14.4296001,16.1360598 L14.5092419,13.6285971 Z" id="Fill-154" fill="#5191D9"></path>
                            <path d="M4.00090748,10.0663881 L4.00090748,11.2502687 C4.00090748,12.7315821 4.80019106,14.0977911 6.09153435,14.8235224 L15.3847881,20.0469255 L15.3847881,9.19080601 L13.0896239,10.492418 L13.0896239,15.3362389 L4.00090748,10.0663881 Z" id="Fill-156" fill="#97BDE8"></path>
                        </g>
                    </g>
                </g>
            </g>
        </g>
    </g>
</svg>