<?xml version="1.0" encoding="UTF-8"?>
<svg width="24px" height="24px" viewBox="0 0 24 24" version="1.1" xmlns="http://www.w3.org/2000/svg" xmlns:xlink="http://www.w3.org/1999/xlink">
    <!-- Generator: Sketch 52.5 (67469) - http://www.bohemiancoding.com/sketch -->
    <title>Crypto/coins/MCO</title>
    <desc>Created with Sketch.</desc>
    <g id="Crypto/coins/MCO" stroke="none" stroke-width="1" fill="none" fill-rule="evenodd">
        <g id="Group" transform="translate(1.611940, -0.000000)">
            <g id="MCO">
                <g id="Page-1">
                    <g id="Artboard">
                        <g id="MCO">
                            <polygon id="Fill-428" fill="#001F45" points="0.0235820897 6.038806 0.0235820897 17.9791046 10.3642388 23.9492538 20.7047762 17.9791046 20.7047762 6.038806 10.3642388 0.0686567167"></polygon>
                            <polygon id="Fill-429" fill="#FFFFFF" points="0.910077616 6.55059107 0.910077616 17.4673672 10.3641672 22.9256359 19.8182568 17.4673672 19.8182568 6.55059107 10.3641672 1.09220299"></polygon>
                            <polygon id="Fill-430" fill="#001F45" points="1.80653135 7.06819107 1.80653135 16.9497434 10.3641433 21.8905195 18.9218747 16.9497434 18.9218747 7.06819107 10.3641433 2.12741493"></polygon>
                            <polygon id="Fill-431" fill="#FFFFFF" points="13.4089672 6.39701495 6.961206 6.39701495 6.24478809 9.65074631 14.2447881 9.65074631"></polygon>
                            <polygon id="Fill-432" fill="#FFFFFF" points="8.21493735 11.9791045 6.24478809 10.7850747 4.12538509 12.4268657 7.05075824 17.6208956 8.1850866 17.6208956 9.67762392 16.3671642 9.67762392 15.6507463 8.21493735 14.3074627"></polygon>
                            <polygon id="Fill-433" fill="#FFFFFF" points="14.4835941 10.7850747 12.5134448 11.9791045 12.5134448 14.3074627 11.0507583 15.6507463 11.0507583 16.3671642 12.5432956 17.6208956 13.6776239 17.6208956 16.6029971 12.4268657"></polygon>
                            <polygon id="Fill-434" fill="#FFFFFF" points="8.19505675 10.1780299 8.91147466 12.0287762 8.67266869 14.1183284 11.9562508 14.1183284 11.7174448 12.0287762 12.4338627 10.1780299"></polygon>
                        </g>
                    </g>
                </g>
            </g>
        </g>
    </g>
</svg>