<?xml version="1.0" encoding="UTF-8"?>
<svg width="24px" height="24px" viewBox="0 0 24 24" version="1.1" xmlns="http://www.w3.org/2000/svg" xmlns:xlink="http://www.w3.org/1999/xlink">
    <!-- Generator: Sketch 52.5 (67469) - http://www.bohemiancoding.com/sketch -->
    <title>Crypto/coins/MNX</title>
    <desc>Created with Sketch.</desc>
    <g id="Crypto/coins/MNX" stroke="none" stroke-width="1" fill="none" fill-rule="evenodd">
        <g id="Group" transform="translate(-0.000000, -0.000000)">
            <g id="MNX">
                <g id="Page-1">
                    <g id="Artboard">
                        <g id="MNX">
                            <path d="M2.34833434,12.0278448 C2.34833434,16.9794866 6.05579704,21.0653374 10.8474389,21.6600837 L10.8474389,23.9072479 C4.81997614,23.3030688 0.114304478,18.2151881 0.114304478,12.0278448 C0.114304478,5.84038211 4.81997614,0.752501496 10.8474389,0.148441792 L10.8474389,2.39560598 C6.05579704,2.99023285 2.34833434,7.07608361 2.34833434,12.0278448" id="Fill-424" fill="#00AEEF"></path>
                            <path d="M23.9136837,10.6344239 L21.6593553,10.6344239 C21.0289076,6.24027465 17.4527881,2.79669255 12.9966687,2.3669612 L12.9966687,0.124453732 C18.688609,0.568632838 23.2605494,5.00457316 23.9136837,10.6344239" id="Fill-425" fill="#00AEEF"></path>
                            <path d="M23.9709971,12.7836777 C23.6008479,18.7132299 18.9011463,23.4702449 12.9966687,23.931021 L12.9966687,21.6887523 C17.6665195,21.2386031 21.3692061,17.4784837 21.7298031,12.7836777 L23.9709971,12.7836777 Z" id="Fill-426" fill="#00AEEF"></path>
                            <path d="M23.9949016,12.0278448 C23.9949016,12.2821732 23.9865434,12.5341135 23.971021,12.7836657 L21.729827,12.7836657 C21.3692299,17.4784717 17.6665434,21.2385911 12.9966926,21.6887404 L12.9966926,23.9310091 C12.6862448,23.9560837 12.372215,23.9681434 12.054603,23.9681434 C11.6474389,23.9681434 11.2450508,23.9478449 10.8474389,23.9072479 L10.8474389,21.6600837 C6.05579704,21.0653374 2.34833434,16.9794866 2.34833434,12.0278448 C2.34833434,7.07608361 6.05579704,2.99023285 10.8474389,2.39560598 L10.8474389,0.148441792 C11.2450508,0.107844777 11.6474389,0.087546269 12.054603,0.087546269 C12.372215,0.087546269 12.6862448,0.0994865676 12.9966926,0.124561195 L12.9966926,2.36694926 C17.452812,2.79668061 21.0289314,6.24026271 21.6593792,10.634412 L23.9137076,10.634412 C23.9674389,11.0917254 23.9949016,11.556203 23.9949016,12.0278448" id="Fill-427" fill="#FFFFFF"></path>
                        </g>
                    </g>
                </g>
            </g>
        </g>
    </g>
</svg>