<?xml version="1.0" encoding="UTF-8"?>
<svg width="24px" height="24px" viewBox="0 0 24 24" version="1.1" xmlns="http://www.w3.org/2000/svg" xmlns:xlink="http://www.w3.org/1999/xlink">
    <!-- Generator: Sketch 52.5 (67469) - http://www.bohemiancoding.com/sketch -->
    <title>Crypto/coins/MONA</title>
    <desc>Created with Sketch.</desc>
    <g id="Crypto/coins/MONA" stroke="none" stroke-width="1" fill="none" fill-rule="evenodd">
        <g id="Group" transform="translate(-0.000000, -0.000000)">
            <g id="MONA">
                <g id="Page-1">
                    <g id="Artboard">
                        <g id="MONA">
                            <path d="M23.9837016,12.0549015 C23.9837016,18.649409 18.6379105,23.9952001 12.043403,23.9952001 C5.44889555,23.9952001 0.103104478,18.649409 0.103104478,12.0549015 C0.103104478,5.46039405 5.44889555,0.114602986 12.043403,0.114602986 C18.6379105,0.114602986 23.9837016,5.46039405 23.9837016,12.0549015" id="Fill-41" fill="#B3A88C"></path>
                            <polygon id="Fill-43" fill="#FFFFFF" points="19.4082628 17.8706031 17.3809195 6.24015525 17.3810389 6.23955823 17.3809195 6.23955823 17.3808001 6.23920003 15.0330986 6.23920003 15.0330986 6.23955823 15.032621 6.23955823 12.4722627 13.7835583 9.91071049 6.23955823 9.76694929 6.23955823 9.78091944 6.15943883 7.40109854 6.15943883 6.03882988 13.9749613 3.72336718 13.9749613 3.72336718 15.1919165 5.82677017 15.1919165 5.73244181 15.7326926 3.72336718 15.7326926 3.72336718 16.9496478 5.52026271 16.9496478 5.34593435 17.9502449 7.72563585 17.9502449 7.90008362 16.9496478 9.32121795 16.9496478 9.32121795 15.7326926 8.11226272 15.7326926 8.20659108 15.1919165 9.32121795 15.1919165 9.32121795 13.9749613 8.41865078 13.9749613 9.0194866 10.5280359 11.2986508 17.2406329 11.5116657 17.8702449 13.4328598 17.8702449 13.6458747 17.2427822 15.8297553 10.8094687 17.0606807 17.8706031"></polygon>
                        </g>
                    </g>
                </g>
            </g>
        </g>
    </g>
</svg>