<?xml version="1.0" encoding="UTF-8"?>
<svg width="24px" height="24px" viewBox="0 0 24 24" version="1.1" xmlns="http://www.w3.org/2000/svg" xmlns:xlink="http://www.w3.org/1999/xlink">
    <!-- Generator: Sketch 52.5 (67469) - http://www.bohemiancoding.com/sketch -->
    <title>Crypto/coins/MTL</title>
    <desc>Created with Sketch.</desc>
    <g id="Crypto/coins/MTL" stroke="none" stroke-width="1" fill="none" fill-rule="evenodd">
        <g id="Group" transform="translate(-0.000000, -0.000000)">
            <g id="MTL">
                <g id="Page-1">
                    <g id="Artboard">
                        <g id="MTL">
                            <path d="M23.9984001,11.967212 C23.9984001,18.5617195 18.652609,23.9075105 12.0581015,23.9075105 C5.46359405,23.9075105 0.117802986,18.5617195 0.117802986,11.967212 C0.117802986,5.3727045 5.46359405,0.0269134329 12.0581015,0.0269134329 C18.652609,0.0269134329 23.9984001,5.3727045 23.9984001,11.967212" id="Fill-443" fill="#F4F4F4"></path>
                            <polygon id="Fill-444" fill="#211F20" points="6.39128361 18.1670449 7.8105075 18.1670449 7.8105075 5.76740301 6.39128361 5.76740301"></polygon>
                            <polygon id="Fill-445" fill="#211F20" points="16.3055523 18.1670449 17.7247762 18.1670449 17.7247762 5.76740301 16.3055523 5.76740301"></polygon>
                            <polygon id="Fill-446" fill="#211F20" points="9.68525377 15.3220299 11.1044777 15.3220299 11.1044777 7.97528362 9.68525377 7.97528362"></polygon>
                            <polygon id="Fill-447" fill="#211F20" points="12.9651344 13.2271045 14.3843583 13.2271045 14.3843583 9.6143284 12.9651344 9.6143284"></polygon>
                        </g>
                    </g>
                </g>
            </g>
        </g>
    </g>
</svg>