<?xml version="1.0" encoding="UTF-8"?>
<svg width="24px" height="24px" viewBox="0 0 24 24" version="1.1" xmlns="http://www.w3.org/2000/svg" xmlns:xlink="http://www.w3.org/1999/xlink">
    <!-- Generator: Sketch 52.5 (67469) - http://www.bohemiancoding.com/sketch -->
    <title>Crypto/coins/NAV</title>
    <desc>Created with Sketch.</desc>
    <g id="Crypto/coins/NAV" stroke="none" stroke-width="1" fill="none" fill-rule="evenodd">
        <g id="Group" transform="translate(-0.000000, -0.000000)">
            <g id="NAV">
                <g id="Page-1">
                    <g id="Artboard">
                        <g id="NAV">
                            <path d="M23.9715822,11.9724657 C23.9715822,18.5669732 18.6257911,23.9127643 12.0312836,23.9127643 C5.43677614,23.9127643 0.090985075,18.5669732 0.090985075,11.9724657 C0.090985075,5.37795823 5.43677614,0.0321671643 12.0312836,0.0321671643 C18.6257911,0.0321671643 23.9715822,5.37795823 23.9715822,11.9724657" id="Fill-927" fill="#B6ECFF"></path>
                            <polygon id="Fill-929" fill="#A03EC3" points="9.49233437 11.0511762 7.22833436 16.3765493 3.56803584 16.3765493 3.72409554 16.0093851 8.88899108 9.95983288"></polygon>
                            <polygon id="Fill-931" fill="#A03EC3" points="7.42318809 7.30875227 7.46318809 7.38099108 7.41423287 7.3298866"></polygon>
                            <polygon id="Fill-933" fill="#3B9FE6" points="16.8277493 7.32204182 16.4570031 11.8179224 14.6725254 13.800012 14.1471523 12.849803"></polygon>
                            <polygon id="Fill-935" fill="#20ADEC" points="20.4689553 7.36133734 16.0971344 16.3765016 16.0831642 16.3511881 16.4568956 11.8179344"></polygon>
                            <polygon id="Fill-937" fill="#A03EC3" points="16.0831045 16.3511881 16.0970747 16.3765016 16.0809553 16.3765016"></polygon>
                            <polygon id="Fill-939" fill="#3AB6ED" points="20.4944956 7.30875227 20.4689434 7.36128958 16.4570031 11.818006 16.8277493 7.322006 16.8278687 7.32164779 16.8341971 7.30875227"></polygon>
                            <polygon id="Fill-941" fill="#7C58B8" points="11.0834627 7.30875227 11.0150448 7.46970749 9.38029855 9.38433437 7.46316421 7.38099108 7.42316421 7.30875227"></polygon>
                            <polygon id="Fill-943" fill="#A03EC3" points="11.1105075 7.35783884 11.0149851 7.46971943 11.083403 7.30876421"></polygon>
                            <polygon id="Fill-945" fill="#5E88DE" points="14.1471284 12.8497911 13.6592478 13.8558807 11.7606209 11.8718806 11.1194269 7.37373137"></polygon>
                            <polygon id="Fill-947" fill="#7876D7" points="12.3908299 16.2933613 9.49232243 11.051212 9.94844183 9.97825676 11.7606209 11.8718687"></polygon>
                            <polygon id="Fill-949" fill="#0447C1" points="16.0713911 16.3765016 12.4368836 16.3765016 12.5344359 16.1751881 12.5344359 16.1750687 14.1554508 14.3744717"></polygon>
                            <polygon id="Fill-951" fill="#A03EC3" points="12.4049911 16.319009 12.5344239 16.1752478 12.4368717 16.3764419"></polygon>
                            <polygon id="Fill-953" fill="#3C67CA" points="14.6724896 13.8000001 14.1554747 14.3745672 13.6592359 13.8558807 14.1471165 12.8497911"></polygon>
                            <polygon id="Fill-955" fill="#A03EC3" points="16.0970986 16.3765016 16.0809792 16.3765016 16.0831284 16.3511881"></polygon>
                            <polygon id="Fill-957" fill="#B64AC6" points="8.8889672 9.9598687 3.72419106 16.009421 7.41422093 7.32989854 7.46317615 7.38100302"></polygon>
                            <polygon id="Fill-959" fill="#572FAA" points="9.94848959 9.97829258 9.49237019 11.0511284 8.8889075 9.95990452 9.38037019 9.38426273"></polygon>
                            <polygon id="Fill-961" fill="#7241AE" points="9.38033437 9.38431049 8.88899108 9.95983288 7.46320003 7.3810866"></polygon>
                            <polygon id="Fill-963" fill="#6249B6" points="11.015009 7.46965973 9.94850153 9.97831646 9.38038213 9.38428661"></polygon>
                            <polygon id="Fill-965" fill="#8E7FDA" points="11.7605851 11.8718329 9.94852541 9.97834034 11.0150329 7.46968361 11.1105553 7.35780302 11.1192717 7.37344481 11.1193911 7.37368361"></polygon>
                            <polygon id="Fill-967" fill="#2890E2" points="16.4569434 11.8179583 16.0830926 16.351212 14.6724657 13.8000478"></polygon>
                            <polygon id="Fill-969" fill="#5375D8" points="13.6592001 13.8558568 12.5345433 16.1751404 12.5345433 16.1752598 12.4049911 16.319021 12.3907821 16.2933493 11.7605732 11.8718568"></polygon>
                            <polygon id="Fill-971" fill="#2B4FC0" points="14.1554627 14.3745195 12.5344478 16.1751165 13.6592239 13.8558329"></polygon>
                            <polygon id="Fill-973" fill="#205DC9" points="16.0831045 16.3511881 16.0809553 16.3765016 16.0714031 16.3765016 14.1554627 14.3744717 14.6724777 13.8000239"></polygon>
                        </g>
                    </g>
                </g>
            </g>
        </g>
    </g>
</svg>