<?xml version="1.0" encoding="UTF-8"?>
<svg width="24px" height="24px" viewBox="0 0 24 24" version="1.1" xmlns="http://www.w3.org/2000/svg" xmlns:xlink="http://www.w3.org/1999/xlink">
    <!-- Generator: Sketch 52.5 (67469) - http://www.bohemiancoding.com/sketch -->
    <title>Crypto/coins/NXS</title>
    <desc>Created with Sketch.</desc>
    <defs>
        <linearGradient x1="27.1846175%" y1="31.5783556%" x2="-5.37574878%" y2="118.654013%" id="linearGradient-1">
            <stop stop-color="#1D93C9" offset="0%"></stop>
            <stop stop-color="#316296" offset="100%"></stop>
        </linearGradient>
        <linearGradient x1="34.928814%" y1="78.1416047%" x2="82.8743622%" y2="40.8670266%" id="linearGradient-2">
            <stop stop-color="#1D93C9" offset="0%"></stop>
            <stop stop-color="#316296" offset="100%"></stop>
        </linearGradient>
        <linearGradient x1="0%" y1="66.686366%" x2="87.4147845%" y2="50%" id="linearGradient-3">
            <stop stop-color="#1D93C9" offset="0%"></stop>
            <stop stop-color="#316296" offset="100%"></stop>
        </linearGradient>
    </defs>
    <g id="Crypto/coins/NXS" stroke="none" stroke-width="1" fill="none" fill-rule="evenodd">
        <g id="Group" transform="translate(-0.000000, -0.000000)">
            <g id="NXS">
                <g id="Page-1">
                    <g id="Artboard">
                        <g id="NXS">
                            <path d="M0.0158805971,11.950806 C0.0158805971,14.1299105 0.599641794,16.1726568 1.61946269,17.9313434 C2.31773135,16.2374926 3.23462688,14.7529553 4.28597017,13.4567165 C4.14913435,13.2642389 4.06865673,13.0285374 4.06865673,12.7745672 C4.06865673,12.1223881 4.59761196,11.5939105 5.24943286,11.5939105 C5.46638808,11.5939105 5.66985077,11.6522986 5.84465674,11.7547463 C9.09719407,8.59785078 13.0911045,6.85122391 15.9406568,6.06041794 C18.406806,5.37588062 20.7670449,5.80143286 22.5400598,6.41850749 C20.5450747,2.60931344 16.5541493,0.0107462687 11.956418,0.0107462687 C5.36179107,0.0107462687 0.0158805971,5.35665674 0.0158805971,11.950806" id="Fill-827" fill="url(#linearGradient-1)"></path>
                            <path d="M16.2146866,19.1998807 C13.6156418,20.8533732 10.9444777,22.2224479 7.93659705,23.1977314 C9.19247765,23.6468061 10.5460299,23.8913434 11.956418,23.8913434 C18.5506866,23.8913434 23.8964777,18.5454329 23.8964777,11.950806 C23.8964777,11.2171941 23.8303285,10.4986269 23.7034031,9.80167168 C22.635821,12.2411941 20.2717613,16.6187463 16.2146866,19.1998807" id="Fill-829" fill="url(#linearGradient-2)"></path>
                            <path d="M6.7346866,11.6864478 C6.56119406,11.8175523 6.38877615,11.9554627 6.21862689,12.1000598 C6.35188062,12.2911045 6.43008958,12.5238209 6.43008958,12.7745672 C6.43008958,13.4266269 5.90149256,13.9551045 5.24943286,13.9551045 C5.00382092,13.9551045 4.77588062,13.8801195 4.58698509,13.7518807 C2.89743285,15.7669254 1.83092538,18.1370747 2.5115224,19.2567165 C2.57074628,19.3337314 2.631403,19.4100299 2.69301494,19.4854926 L2.69385076,19.4863284 C4.07510449,20.8327165 7.49647764,21.0645971 12.0173135,18.0792837 C16.5379105,15.0939702 18.8078807,11.2414329 17.0005971,9.12728362 C16.4592239,8.49397018 15.6643583,8.23092541 14.7322986,8.23104481 C12.3080598,8.23116421 8.95701496,10.0111045 6.7346866,11.6864478" id="Fill-831" fill="url(#linearGradient-3)"></path>
                        </g>
                    </g>
                </g>
            </g>
        </g>
    </g>
</svg>