<?xml version="1.0" encoding="UTF-8"?>
<svg width="24px" height="24px" viewBox="0 0 24 24" version="1.1" xmlns="http://www.w3.org/2000/svg" xmlns:xlink="http://www.w3.org/1999/xlink">
    <!-- Generator: Sketch 52.5 (67469) - http://www.bohemiancoding.com/sketch -->
    <title>Crypto/coins/NXT</title>
    <desc>Created with Sketch.</desc>
    <g id="Crypto/coins/NXT" stroke="none" stroke-width="1" fill="none" fill-rule="evenodd">
        <g id="Group" transform="translate(-0.000000, -0.000000)">
            <g id="NXT">
                <g id="Page-1">
                    <g id="Artboard">
                        <g id="NXT">
                            <path d="M23.9837016,12.0039403 C23.9837016,18.5984478 18.6379105,23.9442389 12.043403,23.9442389 C5.44889555,23.9442389 0.103104478,18.5984478 0.103104478,12.0039403 C0.103104478,5.40943286 5.44889555,0.0636417913 12.043403,0.0636417913 C18.6379105,0.0636417913 23.9837016,5.40943286 23.9837016,12.0039403" id="Fill-69" fill="#008EBD"></path>
                            <path d="M16.9110568,12.6162866 L15.1717135,12.6162866 L11.5447284,10.2070926 C11.5204896,10.1909732 11.4946986,10.1796299 11.4692657,10.167212 C11.4659224,10.1654209 11.4625792,10.1636299 11.4593553,10.1619583 C11.4461015,10.1557493 11.4334448,10.1483463 11.4200717,10.1430926 C11.3388777,10.1067941 11.2490866,10.0862568 11.1545194,10.0862568 L10.1320717,10.0862568 C9.77159407,10.0862568 9.47941496,10.3784359 9.47941496,10.7389135 C9.47941496,11.0992717 9.77159407,11.3915702 10.1320717,11.3915702 L10.9687284,11.3915702 L14.6093254,13.8098389 C14.7315941,13.8910329 14.8709374,13.9233911 15.0070568,13.9156299 C15.0346389,13.919212 15.062818,13.9217195 15.0914747,13.9217195 L16.9110568,13.9217195 C17.2716538,13.9217195 17.5638329,13.629421 17.5638329,13.2689433 C17.5638329,12.9084657 17.2716538,12.6162866 16.9110568,12.6162866" id="Fill-71" fill="#FFFFFF"></path>
                            <path d="M11.3596418,12.6162866 L10.2895523,12.6162866 L6.73349257,10.2541374 C6.61791048,10.150018 6.46543286,10.0862568 6.29755227,10.0862568 L5.2751045,10.0862568 C4.91462689,10.0862568 4.62244778,10.3784359 4.62244778,10.7389135 C4.62244778,11.0992717 4.91462689,11.3915702 5.2751045,11.3915702 L6.08668659,11.3915702 L9.64322392,13.7539583 C9.75880601,13.8578389 9.91116422,13.9217195 10.078806,13.9217195 L11.3596418,13.9217195 C11.7201195,13.9217195 12.0122986,13.629421 12.0122986,13.2689433 C12.0122986,12.9084657 11.7201195,12.6162866 11.3596418,12.6162866" id="Fill-73" fill="#FFFFFF"></path>
                            <path d="M19.3855284,10.4277971 C19.2749613,10.2243344 19.0595583,10.0861851 18.8115583,10.0861851 L15.1101851,10.0861851 C14.7498269,10.0861851 14.4576478,10.3783642 14.4576478,10.7388418 C14.4576478,11.0993194 14.7498269,11.3914986 15.1101851,11.3914986 L18.159021,11.3914986 L18.159021,11.9375284 C18.159021,12.298006 18.4512001,12.5901851 18.8115583,12.5901851 C19.1721553,12.5901851 19.4643344,12.298006 19.4643344,11.9375284 L19.4643344,10.7388418 C19.4643344,10.6262448 19.4357971,10.520215 19.3855284,10.4277971" id="Fill-75" fill="#FFFFFF"></path>
                            <path d="M6.39497316,12.6162866 L5.27509256,12.6162866 C4.91473435,12.6162866 4.62243584,12.9084657 4.62243584,13.2689433 C4.62243584,13.629421 4.91473435,13.9217195 5.27509256,13.9217195 L6.39497316,13.9217195 C6.75545077,13.9217195 7.04762988,13.629421 7.04762988,13.2689433 C7.04762988,12.9084657 6.75545077,12.6162866 6.39497316,12.6162866" id="Fill-77" fill="#FFFFFF"></path>
                        </g>
                    </g>
                </g>
            </g>
        </g>
    </g>
</svg>