<?xml version="1.0" encoding="UTF-8"?>
<svg width="24px" height="24px" viewBox="0 0 24 24" version="1.1" xmlns="http://www.w3.org/2000/svg" xmlns:xlink="http://www.w3.org/1999/xlink">
    <!-- Generator: Sketch 52.5 (67469) - http://www.bohemiancoding.com/sketch -->
    <title>Crypto/coins/OMG</title>
    <desc>Created with Sketch.</desc>
    <g id="Crypto/coins/OMG" stroke="none" stroke-width="1" fill="none" fill-rule="evenodd">
        <g id="Group" transform="translate(-0.000000, -0.000000)">
            <g id="OMG">
                <g id="Page-1">
                    <g id="Artboard">
                        <g id="OMG">
                            <path d="M23.8883225,11.9773612 C23.8883225,18.5718687 18.5425314,23.9176598 11.9480239,23.9176598 C5.35363584,23.9176598 0.00772537317,18.5718687 0.00772537317,11.9773612 C0.00772537317,5.38285375 5.35363584,0.0370626867 11.9480239,0.0370626867 C18.5425314,0.0370626867 23.8883225,5.38285375 23.8883225,11.9773612" id="Fill-678" fill="#0666FF"></path>
                            <path d="M9.82530153,11.580609 C8.62589854,11.580609 7.65013735,10.6048478 7.65013735,9.40544482 C7.65013735,8.20604183 8.62589854,7.23028063 9.82530153,7.23028063 C11.0247045,7.23028063 12.0004657,8.20604183 12.0004657,9.40544482 C12.0004657,10.6048478 11.0247045,11.580609 9.82530153,11.580609 M11.8089433,7.23028063 L12.387212,7.23028063 L12.387212,6.45678809 L9.82530153,6.45678809 C8.19951048,6.45678809 6.87676421,7.77953436 6.87676421,9.40544482 C6.87676421,11.0313553 8.19951048,12.3541015 9.82530153,12.3541015 C11.4510926,12.3541015 12.7738389,11.0313553 12.7738389,9.40544482 C12.7738389,8.54383287 12.4001075,7.76986272 11.8089433,7.23028063" id="Fill-680" fill="#FFFFFF" fill-rule="nonzero"></path>
                            <path d="M16.0608478,11.580609 C14.8614448,11.580609 13.8856836,10.6048478 13.8856836,9.40544482 C13.8856836,8.20604183 14.8614448,7.23028063 16.0608478,7.23028063 C17.2602508,7.23028063 18.236012,8.20604183 18.236012,9.40544482 C18.236012,10.6048478 17.2602508,11.580609 16.0608478,11.580609 M16.0608478,6.45678809 C14.4349374,6.45678809 13.1123105,7.77953436 13.1123105,9.40544482 C13.1123105,11.0313553 14.4349374,12.3541015 16.0608478,12.3541015 C17.6867583,12.3541015 19.0093852,11.0313553 19.0093852,9.40544482 C19.0093852,7.77953436 17.6867583,6.45678809 16.0608478,6.45678809" id="Fill-682" fill="#FFFFFF" fill-rule="nonzero"></path>
                            <path d="M9.82530153,17.7194866 C8.62589854,17.7194866 7.65013735,16.7437254 7.65013735,15.5443225 C7.65013735,14.3449195 8.62589854,13.3691583 9.82530153,13.3691583 C11.0247045,13.3691583 12.0004657,14.3449195 12.0004657,15.5443225 C12.0004657,16.7437254 11.0247045,17.7194866 9.82530153,17.7194866 M9.82530153,12.5956657 C8.19951048,12.5956657 6.87676421,13.918412 6.87676421,15.5443225 C6.87676421,17.1702329 8.19951048,18.4929792 9.82530153,18.4929792 C11.4510926,18.4929792 12.7738389,17.1702329 12.7738389,15.5443225 C12.7738389,13.918412 11.4510926,12.5956657 9.82530153,12.5956657" id="Fill-684" fill="#FFFFFF" fill-rule="nonzero"></path>
                        </g>
                    </g>
                </g>
            </g>
        </g>
    </g>
</svg>