<?xml version="1.0" encoding="UTF-8"?>
<svg width="24px" height="24px" viewBox="0 0 24 24" version="1.1" xmlns="http://www.w3.org/2000/svg" xmlns:xlink="http://www.w3.org/1999/xlink">
    <!-- Generator: Sketch 52.5 (67469) - http://www.bohemiancoding.com/sketch -->
    <title>Crypto/coins/PAY</title>
    <desc>Created with Sketch.</desc>
    <g id="Crypto/coins/PAY" stroke="none" stroke-width="1" fill="none" fill-rule="evenodd">
        <g id="Group" transform="translate(-0.000000, -0.000000)">
            <g id="PAY">
                <g id="Page-1">
                    <g id="Artboard">
                        <g id="PAY">
                            <path d="M23.9437732,11.948609 C23.9437732,18.5431165 18.5979822,23.8889076 12.0034747,23.8889076 C5.40908659,23.8889076 0.0631761197,18.5431165 0.0631761197,11.948609 C0.0631761197,5.35410151 5.40908659,0.0083104478 12.0034747,0.0083104478 C18.5979822,0.0083104478 23.9437732,5.35410151 23.9437732,11.948609" id="Fill-9" fill="#D8D8D8"></path>
                            <path d="M5.24361793,12.0762389 L7.93328959,14.7661493 L10.6229612,12.0762389 L7.93328959,9.3865672 L5.24361793,12.0762389 Z M7.93328959,17.5807165 L2.42905076,12.0762389 L7.93328959,6.57200003 L13.4375284,12.0762389 L7.93328959,17.5807165 Z" id="Fill-11" fill="#093047" fill-rule="nonzero"></path>
                            <path d="M13.3840717,12.0762389 L16.0737434,14.7661493 L18.763415,12.0762389 L16.0737434,9.3865672 L13.3840717,12.0762389 Z M16.0737434,17.5807165 L10.5695045,12.0762389 L16.0737434,6.57200003 L21.5779822,12.0762389 L16.0737434,17.5807165 Z" id="Fill-13" fill="#103D54" fill-rule="nonzero"></path>
                        </g>
                    </g>
                </g>
            </g>
        </g>
    </g>
</svg>