<?xml version="1.0" encoding="UTF-8"?>
<svg width="24px" height="24px" viewBox="0 0 24 24" version="1.1" xmlns="http://www.w3.org/2000/svg" xmlns:xlink="http://www.w3.org/1999/xlink">
    <!-- Generator: Sketch 52.5 (67469) - http://www.bohemiancoding.com/sketch -->
    <title>Crypto/coins/PIVX</title>
    <desc>Created with Sketch.</desc>
    <g id="Crypto/coins/PIVX" stroke="none" stroke-width="1" fill="none" fill-rule="evenodd">
        <g id="Group" transform="translate(2.149254, -0.000000)">
            <g id="PIVX">
                <g id="Page-1">
                    <g id="Artboard">
                        <g id="PIVX">
                            <path d="M0.838531347,2.87608359 C1.20629254,2.8163821 1.56223284,2.75906867 1.91793434,2.70175524 C2.56641195,2.59787464 3.21584479,2.49399404 3.864203,2.39011344 C4.47912838,2.29100896 5.09417316,2.19190449 5.70897913,2.09399404 C6.36091943,1.98891941 7.01285973,1.88384478 7.66480003,1.77877016 C8.27017317,1.68085971 8.8791284,1.59727762 9.48091944,1.48026269 C9.59793437,1.45757613 9.71256123,1.45041195 9.82611347,1.45399404 L9.82611347,0.0999641795 L9.78074034,0.0999641795 C9.76390452,0.107128359 9.74838213,0.119068657 9.73166571,0.122650747 C9.3113672,0.211008956 8.89106869,0.300561195 8.47077018,0.387725375 C7.15017316,0.662352242 5.82838211,0.935785079 4.50778509,1.21160598 C3.0643224,1.5125015 1.62074031,1.81578508 0.175844777,2.11429255 C0.0803223884,2.13459105 0.0493970151,2.1644418 0.0493970151,2.26474031 C0.0516656719,6.73638212 0.050471642,11.2080239 0.0552477614,15.6796657 C0.0552477614,15.9053374 0.0898746272,16.1345911 0.137635821,16.3554866 C0.257038807,16.9214568 0.523307465,17.4241434 0.851665675,17.8945911 C1.38312836,18.6575762 2.04939702,19.2916061 2.76688956,19.8766807 C3.61465076,20.568024 4.52927763,21.1650389 5.46671047,21.728621 C6.78838212,22.5262329 8.14850153,23.2545911 9.54671049,23.9125016 C9.64581497,23.9590688 9.73656123,23.9817553 9.82611347,23.9806061 L9.82611347,22.768621 C9.79984482,22.768621 9.77226273,22.7626508 9.74360601,22.7507105 C7.82014332,21.9662329 5.97285973,21.0348896 4.24509853,19.8778747 C3.49524778,19.3775762 2.78360598,18.8295165 2.15196419,18.1835463 C1.7125612,17.7345911 1.32223284,17.251009 1.06539702,16.6719045 C0.915068661,16.3328001 0.837337317,15.9793672 0.837337317,15.6056359 C0.83984478,11.409815 0.838531347,7.21399406 0.838531347,3.01817315 L0.838531347,2.87608359 Z" id="Fill-134" fill="#372E44"></path>
                            <path d="M19.5908658,2.15133135 L19.5908658,2.26357016 C19.5908658,6.75431645 19.5908658,11.2450627 19.5895523,15.735809 C19.5895523,16.3101374 19.4081792,16.8367045 19.1442986,17.3370031 C18.762209,18.0629732 18.2332538,18.6755105 17.6469851,19.2390926 C16.6092538,20.2373016 15.4343284,21.0516299 14.2068657,21.7943165 C12.8851941,22.5943165 11.5120597,23.2964061 10.0958209,23.9161076 C10.000418,23.9578986 9.9144478,23.9793911 9.82608959,23.9805852 L9.82608959,22.7686449 C9.86071646,22.7686449 9.89534332,22.7602867 9.93223885,22.7447643 C11.1335523,22.2599882 12.2989254,21.7047643 13.4332538,21.0802867 C14.6666866,20.4008837 15.857015,19.6570031 16.9245971,18.7304359 C17.4571344,18.2683463 17.9490747,17.7668538 18.3275822,17.1662568 C18.618806,16.7041672 18.8207165,16.2122269 18.8207165,15.654615 C18.8194031,11.4337195 18.8194031,7.21162988 18.8194031,2.99073434 L18.8194031,2.87610747 C18.7692538,2.86655524 18.7298508,2.85819703 18.6892538,2.85222688 C18.2367165,2.77939106 17.7854926,2.70655524 17.3329553,2.63371941 C16.762209,2.54177912 16.1913434,2.44983882 15.6207165,2.35789852 C15.0474627,2.26595822 14.4732538,2.17521195 13.898806,2.08207762 C13.2910448,1.98416717 12.6832836,1.88625672 12.0744478,1.78834628 C11.5358209,1.7011821 10.9962389,1.61401792 10.4565374,1.5292418 C10.2462687,1.49580896 10.0386269,1.45760001 9.82608959,1.45401792 L9.82608959,0.0999880601 L9.85701497,0.0999880601 C10.0242985,0.139391045 10.1913433,0.18357015 10.3597015,0.218197016 C11.840418,0.528644778 13.3197015,0.837898511 14.800418,1.14595821 C16.0623881,1.40864478 17.3234031,1.67013732 18.5841792,1.93162986 C18.8934329,1.99610747 19.2028061,2.06058508 19.5120598,2.1250627 C19.535821,2.12983881 19.5585075,2.14058508 19.5908658,2.15133135" id="Fill-136" fill="#5C4C7C"></path>
                            <path d="M16.5937792,17.8289195 C16.5316896,17.8874269 16.4696001,17.9447404 16.4063165,18.0008598 C15.4510926,18.8581732 14.3740777,19.5399643 13.2588538,20.1644419 C12.1758687,20.769815 11.0582568,21.3047404 9.90601795,21.7656359 C9.86183885,21.7835464 9.79855526,21.7871284 9.75557019,21.769218 C7.89527167,21.011009 6.1125851,20.1095165 4.46004778,18.9608598 C3.92392837,18.5871284 3.4128836,18.1823523 2.94721195,17.7226508 C2.48870449,17.2677254 2.07676419,16.7757851 1.82601792,16.170412 C1.70661493,15.8838448 1.64810747,15.5853374 1.64810747,15.2736956 C1.65061493,13.3847404 1.6493015,11.4957851 1.6493015,9.60682989 C1.6493015,7.68921794 1.65061493,5.77160599 1.64691344,3.85518808 C1.64691344,3.7560836 1.66960001,3.72265076 1.77228657,3.70712837 C2.07198807,3.66294927 2.37168956,3.6163821 2.67258509,3.56862091 C3.61598807,10.889218 9.32930153,16.7148896 16.5937792,17.8289195" id="Fill-138" fill="#372E44"></path>
                            <path d="M18.0003822,3.99490151 C18.0015762,7.7417672 17.9991881,11.4874389 18.0027702,15.2343045 C18.0027702,15.6796777 17.8881434,16.0880359 17.6791881,16.4772896 C17.3985911,16.9954986 17.0165016,17.4301254 16.593815,17.8289314 C9.32933735,16.7149016 3.61590449,10.8892299 2.67262091,3.56863285 C2.99978509,3.51728957 3.32682986,3.46475225 3.65518807,3.41340897 C4.22844181,3.32146867 4.80277017,3.22833434 5.3759045,3.13639404 C5.95023286,3.04445374 6.52456122,2.95370747 7.09888958,2.86176718 C7.63488958,2.77699106 8.17112839,2.68982688 8.7072478,2.60385673 C9.07250153,2.54534926 9.43560601,2.4749015 9.80336721,2.43430449 C9.9430687,2.41758807 10.0899344,2.46654329 10.233218,2.48922986 C10.8576956,2.58833434 11.4808597,2.68743882 12.1054568,2.78773733 C12.7203821,2.8868418 13.3341135,2.98714031 13.9490389,3.08505076 C14.5627702,3.18296121 15.1775762,3.27967763 15.792621,3.37758807 C16.4445613,3.48146867 17.0953075,3.58773733 17.7472478,3.69281196 C17.8272478,3.70594628 17.9394866,3.69997613 17.9776956,3.74773733 C18.0206807,3.80385673 18.0003822,3.91131942 18.0003822,3.99490151" id="Fill-140" fill="#5C4C7C"></path>
                            <path d="M6.691606,6.36186271 L6.691606,6.06801197 C6.691606,5.82395226 6.69614331,5.57977316 6.68933734,5.33595226 C6.68671048,5.24007166 6.71297913,5.21260898 6.81041197,5.21284778 C8.00527765,5.21619107 9.20002392,5.21392241 10.3948896,5.21571345 C10.793815,5.21631047 11.1942926,5.20472838 11.5915463,5.23326569 C12.929815,5.3295045 14.0147105,5.87051943 14.6993672,7.07290749 C14.9725613,7.55254929 15.1079642,8.07672839 15.1522627,8.62598213 C15.2123225,9.37010153 15.1287404,10.0933254 14.8147105,10.7758329 C14.3238448,11.8431762 13.4813374,12.4849672 12.3530986,12.7691463 C11.9733971,12.8647881 11.5859344,12.8964299 11.196203,12.8973851 C10.226412,12.8998926 9.25662093,12.8982209 8.28682989,12.8982209 L8.1513075,12.8982209 L8.1513075,17.8395941 L6.90868063,17.8395941 L6.90868063,17.7199523 C6.90868063,15.9673553 6.90880003,14.2147583 6.90856122,12.4621612 C6.90856122,12.2720717 6.91118809,12.0817433 6.90294928,11.8918926 C6.89865078,11.7964896 6.92527764,11.7693851 7.02330749,11.7696239 C8.38294929,11.7729672 9.74259109,11.7715344 11.1021135,11.772012 C11.5166806,11.7722508 11.9214568,11.7152956 12.3097553,11.5648478 C13.0145911,11.2916538 13.4925613,10.7952956 13.7271881,10.0787583 C13.9413971,9.4246687 13.9527404,8.75744481 13.7588299,8.09774332 C13.4943523,7.1973254 12.8770389,6.65487764 11.9743523,6.44210152 C11.7030687,6.37810152 11.4180538,6.35111644 11.1386508,6.34598212 C10.4734568,6.33356421 9.80778512,6.34275824 9.14211347,6.34598212 C8.36599406,6.34968361 7.58987466,6.35648958 6.81363585,6.36186271 C6.77674033,6.36198212 6.739606,6.36186271 6.691606,6.36186271" id="Fill-142" fill="#FFFFFF"></path>
                            <path d="M10.6413493,9.57419705 L10.5196777,9.57419705 C9.01484183,9.57360004 7.5097672,9.57300302 6.00493137,9.57228661 C5.87585674,9.57228661 5.87573734,9.5720478 5.87573734,9.44428661 L5.87573734,8.68380899 L5.87573734,8.57431645 C5.91979704,8.57168959 5.95394629,8.5679881 5.98821495,8.5679881 C7.50570749,8.56571944 9.02331944,8.56440601 10.5409314,8.56046571 C10.622006,8.5602269 10.6529314,8.58076421 10.6513791,8.66625675 C10.6468418,8.93539108 10.6498269,9.20476422 10.6493493,9.47413735 C10.6492299,9.50219705 10.6449314,9.53025676 10.6413493,9.57419705" id="Fill-144" fill="#FFFFFF"></path>
                        </g>
                    </g>
                </g>
            </g>
        </g>
    </g>
</svg>