<?xml version="1.0" encoding="UTF-8"?>
<svg width="24px" height="24px" viewBox="0 0 24 24" version="1.1" xmlns="http://www.w3.org/2000/svg" xmlns:xlink="http://www.w3.org/1999/xlink">
    <!-- Generator: Sketch 52.5 (67469) - http://www.bohemiancoding.com/sketch -->
    <title>Crypto/coins/POT</title>
    <desc>Created with Sketch.</desc>
    <g id="Crypto/coins/POT" stroke="none" stroke-width="1" fill="none" fill-rule="evenodd">
        <g id="Group" transform="translate(-0.000000, -0.000000)">
            <g id="POT">
                <g id="Page-1">
                    <g id="Artboard">
                        <g id="POT">
                            <path d="M23.9335643,11.9956657 C23.9335643,18.5901732 18.5877732,23.9359643 11.9932657,23.9359643 C5.39875823,23.9359643 0.0529671644,18.5901732 0.0529671644,11.9956657 C0.0529671644,5.40115823 5.39875823,0.0553671644 11.9932657,0.0553671644 C18.5877732,0.0553671644 23.9335643,5.40115823 23.9335643,11.9956657" id="Fill-490" fill="#095C2D"></path>
                            <path d="M9.86417915,11.4642986 L12.338806,11.4642986 C12.7051344,11.4642986 13.0762389,11.434806 13.4523583,11.3759403 C13.8280001,11.3169553 14.1777314,11.2088956 14.5014329,11.0518806 C14.8248956,10.8946269 15.1112239,10.6689553 15.3605374,10.3742687 C15.6094926,10.0797015 15.7973135,9.69665676 15.9237613,9.22549258 C16.0499702,8.75408959 16.0672836,8.37116421 15.9761792,8.07659705 C15.8848359,7.78191048 15.7194628,7.55623884 15.4801792,7.39898511 C15.2405374,7.24197018 14.9488359,7.13379107 14.6047165,7.0749254 C14.2602389,7.01605973 13.9048956,6.98656719 13.5384478,6.98656719 L11.0639403,6.98656719 L9.86417915,11.4642986 Z M9.62071646,5.33701495 L14.5106269,5.33701495 C15.4008956,5.33701495 16.1014329,5.45820898 16.6129553,5.70035823 C17.1240001,5.94274629 17.4966568,6.25008958 17.7305672,6.62334331 C17.9643583,6.99647764 18.0843583,7.41570152 18.090806,7.88005973 C18.097015,8.34513436 18.0425672,8.79337317 17.9267463,9.22549258 C17.8110449,9.65749258 17.6252538,10.1060896 17.3699702,10.5706866 C17.1144478,11.0355224 16.7698508,11.4543881 16.3360598,11.8275224 C15.9021493,12.2007762 15.3645971,12.5084777 14.7237613,12.7505075 C14.0825672,12.9931344 13.3171941,13.1138508 12.4269254,13.1138508 L9.4222687,13.1138508 L7.78035824,19.2411344 L5.8951045,19.2411344 L9.62071646,5.33701495 Z" id="Fill-911" fill="#FEFEFE" fill-rule="nonzero"></path>
                            <polygon id="Fill-913" fill="#FEFEFE" points="13.2309015 9.73738512 7.13287167 9.73738512 7.53585675 8.2331463 13.634006 8.2331463"></polygon>
                        </g>
                    </g>
                </g>
            </g>
        </g>
    </g>
</svg>