<?xml version="1.0" encoding="UTF-8"?>
<svg width="24px" height="24px" viewBox="0 0 24 24" version="1.1" xmlns="http://www.w3.org/2000/svg" xmlns:xlink="http://www.w3.org/1999/xlink">
    <!-- Generator: Sketch 52.5 (67469) - http://www.bohemiancoding.com/sketch -->
    <title>Crypto/coins/POWER</title>
    <desc>Created with Sketch.</desc>
    <g id="Crypto/coins/POWER" stroke="none" stroke-width="1" fill="none" fill-rule="evenodd">
        <g id="Group" transform="translate(-0.000000, -0.000000)" fill="#00C0AC">
            <g id="POWER">
                <g id="Page-1">
                    <g id="Artboard">
                        <g id="POWER">
                            <path d="M0.592144393,12.0315396 L11.9682615,23.4076567 L23.3444957,12.0315396 L11.9682615,0.655305369 L0.592144393,12.0315396 Z M11.9682615,23.973003 C11.9084371,23.973003 11.8483786,23.9501738 11.80272,23.9043981 L0.0954029272,12.197081 C0.0039687805,12.1056469 0.0039687805,11.9573152 0.0954029272,11.8659981 L11.80272,0.158680976 C11.8941542,0.0672468295 12.0424859,0.0672468295 12.133803,0.158680976 L23.8411201,11.8659981 C23.9326713,11.9573152 23.9326713,12.1056469 23.8411201,12.197081 L12.133803,23.9043981 C12.0881444,23.9501738 12.028203,23.973003 11.9682615,23.973003 Z" id="Fill-176" fill-rule="nonzero"></path>
                            <path d="M1.33414244,11.7973932 L8.31123516,11.7973932 L10.8122693,7.45456393 L1.33414244,11.7973932 Z M8.44657174,12.2656859 L0.260932684,12.2656859 C0.150883903,12.2656859 0.0557034149,12.189003 0.0321717075,12.0814127 C0.00875707321,11.9739396 0.0634302442,11.8644761 0.163410732,11.8187005 L11.2832547,6.72367613 C11.3757425,6.68141271 11.485323,6.70353954 11.5539279,6.77893466 C11.6225327,6.85409564 11.6345913,6.96519808 11.5836644,7.05347125 L8.64945955,12.1483786 C8.60766443,12.220964 8.53039613,12.2656859 8.44657174,12.2656859 Z" id="Fill-178" fill-rule="nonzero"></path>
                            <path d="M15.5945445,12.2656859 L13.0935103,16.6083981 L22.5716372,12.2656859 L15.5945445,12.2656859 Z M12.525003,17.3605932 C12.4606127,17.3605932 12.3972761,17.3340176 12.3518518,17.2841445 C12.2832469,17.2088664 12.2711883,17.097764 12.3221152,17.0096079 L15.2563201,11.9147005 C15.2981152,11.8421152 15.3753835,11.7973932 15.4592079,11.7973932 L23.6447299,11.7973932 C23.7548957,11.7973932 23.8500762,11.8739591 23.8734908,11.9815493 C23.8970225,12.0891396 23.8423494,12.198603 23.7422518,12.2443786 L12.6225249,17.3392859 C12.5912664,17.3536859 12.5580176,17.3605932 12.525003,17.3605932 Z" id="Fill-180" fill-rule="nonzero"></path>
                            <path d="M2.10402733,6.36469466 L6.30145173,21.8957386 L21.8326128,17.6984313 L17.6351884,2.16715318 L2.10402733,6.36469466 Z M6.13637856,22.4170655 C6.0332371,22.4170655 5.93864198,22.3483435 5.91054441,22.2440313 L1.59089562,6.26085076 C1.55717854,6.13605076 1.63093464,6.00738734 1.75573464,5.97367027 L17.7390323,1.65402147 C17.7989737,1.6377483 17.8627786,1.64606049 17.9167493,1.67696781 C17.970603,1.7079922 18.0099396,1.7590361 18.0260957,1.81897757 L22.3457445,17.8021581 C22.3795786,17.9270752 22.3057055,18.0555045 22.1809055,18.0892215 L6.19760783,22.4089874 C6.1772371,22.4144898 6.15663222,22.4170655 6.13637856,22.4170655 Z" id="Fill-182" fill-rule="nonzero"></path>
                            <path d="M4.53244099,7.99410735 C4.49287026,7.99410735 4.45283124,7.98403906 4.41607026,7.96284881 L1.70032391,6.40273173 C1.58816781,6.33834149 1.54941659,6.19527807 1.61380684,6.08312198 C1.67831415,5.97096588 1.82137757,5.93244881 1.93353367,5.9966049 L4.64928002,7.55683906 C4.76143612,7.6212293 4.80018734,7.76440979 4.73568002,7.87644881 C4.69236295,7.95196101 4.6135727,7.99410735 4.53244099,7.99410735" id="Fill-184"></path>
                            <path d="M22.0927259,18.0820684 C22.0531552,18.0820684 22.0131162,18.0720001 21.9763552,18.0509269 L19.2829698,16.5036879 C19.1708137,16.4391806 19.1320625,16.2960001 19.1964528,16.183961 C19.2609601,16.0718049 19.4039064,16.0331708 19.5161796,16.097561 L22.209565,17.6449171 C22.3217211,17.7091903 22.3603552,17.8523708 22.295965,17.9645269 C22.2526479,18.039922 22.1738577,18.0820684 22.0927259,18.0820684" id="Fill-186"></path>
                            <path d="M19.369405,7.98016394 C19.2885074,7.98016394 19.2097172,7.93813467 19.1664001,7.86297369 C19.1017757,7.75093467 19.1401757,7.60775418 19.2522147,7.54312979 L21.9650342,5.97786149 C22.0769562,5.9132371 22.2202538,5.9516371 22.2848781,6.06367612 C22.3495025,6.17571515 22.3109855,6.31889564 22.1990635,6.38352003 L19.486244,7.94867125 C19.4493659,7.96997857 19.4090928,7.98016394 19.369405,7.98016394" id="Fill-188"></path>
                            <path d="M1.82809757,18.101163 C1.74720001,18.101163 1.66840976,18.0591337 1.62509269,17.9839728 C1.5604683,17.8719337 1.5988683,17.7287532 1.71090732,17.6641289 L4.40136587,16.1117386 C4.5134049,16.0469971 4.65658539,16.0853971 4.72120978,16.1974362 C4.78583417,16.3094752 4.74743417,16.4526557 4.63539514,16.5173971 L1.94493659,18.0696703 C1.90805854,18.0909776 1.86778537,18.101163 1.82809757,18.101163" id="Fill-190"></path>
                            <path d="M11.9733893,3.69807221 L11.972921,3.69807221 C11.8435552,3.69783806 11.7390088,3.59282343 11.739243,3.46345758 L11.7460332,0.331399026 C11.7462674,0.202384391 11.8510479,0.0978380492 11.9801796,0.0978380492 L11.9806479,0.0978380492 C12.1100137,0.0980721955 12.2145601,0.20308683 12.2143259,0.332452684 L12.2075357,3.46451123 C12.2073015,3.59352587 12.102521,3.69807221 11.9733893,3.69807221" id="Fill-192"></path>
                            <path d="M11.929721,23.9497874 L11.9292527,23.9497874 C11.7998869,23.9495533 11.6953405,23.8445386 11.6955747,23.7151728 L11.7022479,20.6088703 C11.7025991,20.4796215 11.8073796,20.3751923 11.9363942,20.3751923 L11.9369796,20.3751923 C12.0662283,20.3755435 12.1708918,20.4805581 12.1705405,20.609924 L12.1638674,23.7162264 C12.1636332,23.8452411 12.0588527,23.9497874 11.929721,23.9497874" id="Fill-194"></path>
                            <path d="M2.12837855,17.7405659 L17.6774518,21.8713757 L21.8082616,6.32241954 L6.25918832,2.19160977 L2.12837855,17.7405659 Z M17.8438128,22.3920001 C17.8237932,22.3920001 17.8036567,22.3894245 17.7835201,22.3841562 L1.78184196,18.1331123 C1.72178342,18.1171903 1.67062245,18.0779708 1.63948098,18.0243513 C1.60833952,17.9706147 1.5996761,17.9066928 1.61571513,17.8466342 L5.86675905,1.84507318 C5.90000783,1.71992196 6.02820295,1.64604879 6.15312003,1.67894635 L22.1547981,5.9298732 C22.2148567,5.94591222 22.2660177,5.98501466 22.2971591,6.03875124 C22.3284177,6.09248783 22.336964,6.15640978 22.321042,6.21635125 L18.0698811,22.2179123 C18.0420176,22.3228098 17.9473054,22.3920001 17.8438128,22.3920001 Z" id="Fill-196" fill-rule="nonzero"></path>
                            <path d="M6.83412296,2.71587513 L10.3355474,8.75076296 L15.3468645,8.73460687 L6.83412296,2.71587513 Z M10.2009132,9.21952394 C10.11744,9.21952394 10.0402888,9.17515321 9.99837663,9.10291906 L5.8905132,2.02268489 C5.83525466,1.9275044 5.85375222,1.80656781 5.935001,1.7324605 C6.01636685,1.65811903 6.13824003,1.65050928 6.22826929,1.71396293 L16.2155474,8.77523126 C16.2986693,8.83411906 16.3342596,8.93983613 16.3035864,9.03700687 C16.2729132,9.13406053 16.182884,9.20032394 16.0810303,9.20067516 L10.2017327,9.21952394 L10.2009132,9.21952394 Z" id="Fill-198" fill-rule="nonzero"></path>
                            <path d="M8.57420491,15.3015806 L17.0869464,21.3204294 L13.585522,15.2855415 L8.57420491,15.3015806 Z M17.8280196,22.3653074 C17.7809562,22.3653074 17.7336586,22.3511416 17.6929171,22.3223416 L7.70563906,15.2609562 C7.62240003,15.2021854 7.58680979,15.0963513 7.61748296,14.9992976 C7.64815613,14.9021269 7.7381854,14.8359805 7.84003906,14.8357464 L13.7194537,14.8167805 L13.7201562,14.8167805 C13.8036293,14.8167805 13.8807805,14.8611513 13.9226927,14.9333854 L18.0305562,22.0136196 C18.0858147,22.1089172 18.0673171,22.2297367 17.9860684,22.3039611 C17.9415806,22.3445855 17.8849171,22.3653074 17.8280196,22.3653074 Z" id="Fill-200" fill-rule="nonzero"></path>
                            <path d="M2.14844489,6.28809368 L6.22481564,21.8514498 L21.7881718,17.774962 L17.711801,2.21160586 L2.14844489,6.28809368 Z M6.05775222,22.3713718 C6.01654246,22.3713718 5.97568393,22.360484 5.93950832,22.3392938 C5.88588881,22.3080352 5.84690344,22.2566401 5.83121563,22.1965816 L1.63613269,6.18015222 C1.6033522,6.05511807 1.67816196,5.9271571 1.80331318,5.89437661 L17.8196254,1.69929367 C17.9445425,1.66674732 18.0727376,1.74132293 18.1054011,1.86635708 L22.300484,17.8827864 C22.3332645,18.0078206 22.2584547,18.1357815 22.1334206,18.168562 L6.11699124,22.363645 C6.09744003,22.3687962 6.07753759,22.3713718 6.05775222,22.3713718 Z" id="Fill-202" fill-rule="nonzero"></path>
                            <path d="M14.0167962,8.9928937 L16.5027279,13.3442693 L17.5392937,2.97041562 L14.0167962,8.9928937 Z M16.6627669,14.3307279 C16.5799962,14.3307279 16.5017913,14.2867084 16.4595279,14.2127181 L13.543001,9.1076254 C13.5015571,9.03492296 13.5020254,8.94571321 13.5441718,8.87336199 L17.6768547,1.80752781 C17.7324645,1.7124644 17.846962,1.66914732 17.9513913,1.70309854 C18.0560547,1.73704976 18.1229035,1.83948879 18.1118986,1.94906928 L16.8958596,14.1198791 C16.8856742,14.2211474 16.8112157,14.3043864 16.7115864,14.3255766 C16.6953132,14.3290888 16.678923,14.3307279 16.6627669,14.3307279 Z" id="Fill-204" fill-rule="nonzero"></path>
                            <path d="M7.4495532,10.6920469 L6.41298734,21.0659006 L9.93548492,15.0434225 L7.4495532,10.6920469 Z M6.07335807,22.3446908 C6.049241,22.3446908 6.02477271,22.3409445 6.00088978,22.3332177 C5.89622637,22.2992664 5.82937759,22.1968274 5.84026539,22.0872469 L7.05642149,9.91643711 C7.06660686,9.81516882 7.1410654,9.7319298 7.24069466,9.71073955 C7.34032393,9.68919809 7.44217759,9.73509077 7.4927532,9.82359809 L10.40928,14.9286908 C10.4507239,15.0013932 10.4502557,15.090603 10.4081093,15.1629542 L6.27542637,22.2287884 C6.23246051,22.3020762 6.15472393,22.3446908 6.07335807,22.3446908 Z" id="Fill-206" fill-rule="nonzero"></path>
                        </g>
                    </g>
                </g>
            </g>
        </g>
    </g>
</svg>