<?xml version="1.0" encoding="UTF-8"?>
<svg width="24px" height="24px" viewBox="0 0 24 24" version="1.1" xmlns="http://www.w3.org/2000/svg" xmlns:xlink="http://www.w3.org/1999/xlink">
    <!-- Generator: Sketch 52.5 (67469) - http://www.bohemiancoding.com/sketch -->
    <title>Crypto/coins/PPC</title>
    <desc>Created with Sketch.</desc>
    <g id="Crypto/coins/PPC" stroke="none" stroke-width="1" fill="none" fill-rule="evenodd">
        <g id="Group" transform="translate(-0.000000, -0.000000)">
            <g id="PPC">
                <g id="Page-1">
                    <g id="Artboard">
                        <g id="PPC">
                            <path d="M23.9761195,11.9717612 C23.9761195,18.5662687 18.6303284,23.9120598 12.0358209,23.9120598 C5.44143286,23.9120598 0.0955223885,18.5662687 0.0955223885,11.9717612 C0.0955223885,5.37725375 5.44143286,0.0314626867 12.0358209,0.0314626867 C18.6303284,0.0314626867 23.9761195,5.37725375 23.9761195,11.9717612" id="Fill-923" fill="#35B14F"></path>
                            <path d="M6.87917216,5.7341254 L6.87917615,12.7240956 C6.87917615,12.7240956 6.84347466,19.2684538 13.5304001,18.9116777 C13.5304001,18.9116777 17.4533851,13.1699463 9.14377317,7.78475227 C9.14377317,7.78475227 17.1859225,10.2023045 15.7416239,18.9257672 C15.7416239,18.9257672 20.4490867,15.755618 17.1146389,10.0315583 C17.1146389,10.0315583 14.8321314,5.9303045 6.87917216,5.7341254" id="Fill-925" fill="#FFFFFF"></path>
                        </g>
                    </g>
                </g>
            </g>
        </g>
    </g>
</svg>