<?xml version="1.0" encoding="UTF-8"?>
<svg width="24px" height="24px" viewBox="0 0 24 24" version="1.1" xmlns="http://www.w3.org/2000/svg" xmlns:xlink="http://www.w3.org/1999/xlink">
    <!-- Generator: Sketch 52.5 (67469) - http://www.bohemiancoding.com/sketch -->
    <title>Crypto/coins/PPT</title>
    <desc>Created with Sketch.</desc>
    <g id="Crypto/coins/PPT" stroke="none" stroke-width="1" fill="none" fill-rule="evenodd">
        <g id="Group" transform="translate(-0.000000, -0.000000)">
            <g id="PPT">
                <g id="Page-1">
                    <g id="Artboard">
                        <g id="PPT">
                            <path d="M23.9233673,12.0502329 C23.9233673,18.0096359 19.5579941,22.9493374 13.8505314,23.8448598 C13.2427702,23.9403822 12.6182926,23.9905314 11.9830687,23.9905314 C11.4791881,23.9905314 10.9836657,23.9594867 10.4965015,23.8985911 C4.6039642,23.1678449 0.0427701494,18.1409792 0.0427701494,12.0502329 C0.0427701494,5.45560599 5.38844181,0.109934329 11.9830687,0.109934329 C18.5776956,0.109934329 23.9233673,5.45560599 23.9233673,12.0502329" id="Fill-33" fill="#4076BF"></path>
                            <path d="M14.3472239,18.6997852 C13.8087165,18.7773971 13.7370747,18.7308299 13.7251344,18.1863523 C13.6737911,15.8663523 13.6224478,13.5463523 13.5734926,11.2263523 C13.5699105,11.0985911 13.5806568,10.9720239 13.5842389,10.8526209 C14.3352836,10.7224717 14.5705075,10.9015762 14.5872239,11.6012777 C14.6361792,13.7517254 14.6827463,15.9021732 14.7281195,18.052621 C14.7340896,18.3391881 14.7627463,18.6400837 14.3472239,18.6997852 M17.8827463,11.0568 C17.8517016,10.1254568 17.3633434,9.62277019 16.4427463,9.49262094 C15.8648359,9.41023288 15.2761792,9.36127765 14.6934926,9.36247168 C13.2988657,9.36844183 11.9042389,9.41262093 10.509612,9.44247168 C10.3973732,9.44485974 10.2863284,9.46396422 10.1812538,9.47471049 C10.2875224,14.2985911 10.3925971,19.0962031 10.4964777,23.8985911 C10.9836418,23.9594867 11.4791642,23.9905314 11.9830448,23.9905314 C12.6182687,23.9905314 13.2427463,23.9403822 13.8505075,23.8448598 C13.8266269,22.7809792 13.8027463,21.7159046 13.7728956,20.6508299 C13.7633433,20.3224717 13.868418,20.2400837 14.1860299,20.2197852 C15.0409553,20.1660538 15.9042389,20.1218747 16.7448359,19.9690389 C17.6331941,19.8066508 18.0534926,19.2800837 18.0439404,18.3678449 C18.0164777,15.9308299 17.9615523,13.493815 17.8827463,11.0568" id="Fill-35" fill="#FFFFFF" fill-rule="nonzero"></path>
                            <path d="M9.61780303,9.43123586 L9.61780303,20.3253255 C8.99893735,20.3253255 8.40263884,20.3441911 7.80848958,20.3173255 C7.50628063,20.3037135 7.42019108,20.0641911 7.42186272,19.7828777 C7.42699705,18.923415 7.42377317,18.0638329 7.42377317,17.2042508 C7.42377317,14.8341016 7.42353436,12.4637135 7.42437018,10.0934448 C7.42448958,9.55959407 7.55093734,9.43445974 8.09398212,9.43171347 C8.59774332,9.42920601 9.10138511,9.43123586 9.61780303,9.43123586" id="Fill-37" fill="#FFFFFF"></path>
                            <path d="M11.8068777,3.88150449 C13.1968478,3.89344479 14.3267583,5.0337433 14.3049075,6.40257913 C14.2823404,7.81034033 13.1455045,8.92580302 11.7444299,8.91481795 C10.3499224,8.90395228 9.21583287,7.75266869 9.22729556,6.35971346 C9.23875825,4.96222092 10.3764299,3.86932539 11.8068777,3.88150449" id="Fill-39" fill="#FFFFFF"></path>
                        </g>
                    </g>
                </g>
            </g>
        </g>
    </g>
</svg>