<?xml version="1.0" encoding="UTF-8"?>
<svg width="24px" height="24px" viewBox="0 0 24 24" version="1.1" xmlns="http://www.w3.org/2000/svg" xmlns:xlink="http://www.w3.org/1999/xlink">
    <!-- Generator: Sketch 52.5 (67469) - http://www.bohemiancoding.com/sketch -->
    <title>Crypto/coins/PURA</title>
    <desc>Created with Sketch.</desc>
    <g id="Crypto/coins/PURA" stroke="none" stroke-width="1" fill="none" fill-rule="evenodd">
        <g id="Group" transform="translate(-0.000000, -0.000000)">
            <g id="PURA">
                <g id="Page-1">
                    <g id="Artboard">
                        <g id="PURA">
                            <path d="M23.9939702,11.9983523 C23.9939702,18.5928598 18.6481792,23.9386508 12.0536717,23.9386508 C5.4591642,23.9386508 0.113373135,18.5928598 0.113373135,11.9983523 C0.113373135,5.4038448 5.4591642,0.0580537316 12.0536717,0.0580537316 C18.6481792,0.0580537316 23.9939702,5.4038448 23.9939702,11.9983523" id="Fill-833" fill="#F4F4F4"></path>
                            <path d="M11.6835702,11.0616597 C11.6835702,11.0894806 11.6839284,11.1171821 11.6848836,11.1448836 L11.6848836,10.9785553 C11.6839284,11.0061374 11.6835702,11.0338389 11.6835702,11.0616597" id="Fill-835" fill="#020204"></path>
                            <path d="M18.2732896,8.37252541 C17.4186031,7.13515227 15.9903045,6.32428659 14.3726329,6.32428659 L8.31663287,6.32428659 C8.31663287,7.45539108 9.2336478,8.37252541 10.3648717,8.37252541 L14.3517374,8.37252541 C15.8361553,8.37252541 17.0670807,9.58709258 17.0618269,11.0715105 C17.0565732,12.5521075 15.8545433,13.7507941 14.3726329,13.7507941 L10.5942448,13.7507941 L10.4720956,13.7507941 L9.84988661,13.7507941 C9.00308063,13.7507941 8.31663287,14.4372419 8.31663287,15.2840478 L8.31663287,19.9445852 L8.54612541,19.9445852 C9.67722989,19.9445852 10.5942448,19.0275702 10.5942448,17.8964657 L10.5942448,15.7989135 L14.3726329,15.7989135 C15.9903045,15.7989135 17.4187225,14.9881672 18.2732896,13.7507941 C18.8010508,12.9868538 19.1100658,12.060406 19.1100658,11.0616 C19.1100658,10.0630329 18.8009314,9.13634631 18.2732896,8.37252541" id="Fill-837" fill="#020204"></path>
                            <path d="M11.6849075,12.2005374 L7.18962391,12.2005374 C5.93171346,12.2005374 4.91201196,11.1808359 4.91201196,9.92292541 L9.7129672,9.92292541 C10.8020418,9.92292541 11.6849075,10.8056717 11.6849075,11.8947463 L11.6849075,12.2005374 Z" id="Fill-839" fill="#020204"></path>
                        </g>
                    </g>
                </g>
            </g>
        </g>
    </g>
</svg>