<?xml version="1.0" encoding="UTF-8"?>
<svg width="24px" height="24px" viewBox="0 0 24 24" version="1.1" xmlns="http://www.w3.org/2000/svg" xmlns:xlink="http://www.w3.org/1999/xlink">
    <!-- Generator: Sketch 52.5 (67469) - http://www.bohemiancoding.com/sketch -->
    <title>Crypto/coins/QASH</title>
    <desc>Created with Sketch.</desc>
    <g id="Crypto/coins/QASH" stroke="none" stroke-width="1" fill="none" fill-rule="evenodd">
        <g id="Group" transform="translate(-0.000000, -0.000000)">
            <g id="QASH">
                <g id="Page-1">
                    <g id="Artboard">
                        <g id="QASH">
                            <path d="M23.8973613,11.9556657 C23.8973613,18.5501732 18.5515702,23.8959643 11.9570627,23.8959643 C5.36267465,23.8959643 0.0167641792,18.5501732 0.0167641792,11.9556657 C0.0167641792,5.36115823 5.36267465,0.0153671642 11.9570627,0.0153671642 C18.5515702,0.0153671642 23.8973613,5.36115823 23.8973613,11.9556657" id="Fill-774" fill="#0740EC"></path>
                            <path d="M22.5289434,11.9556657 C22.5289434,17.7943523 17.795809,22.5276061 11.957003,22.5276061 C6.11843585,22.5276061 1.3851821,17.7943523 1.3851821,11.9556657 C1.3851821,6.11697913 6.11843585,1.38372538 11.957003,1.38372538 C17.795809,1.38372538 22.5289434,6.11697913 22.5289434,11.9556657" id="Fill-775" fill="#FAFDFC"></path>
                            <path d="M21.0549493,11.9556657 C21.0549493,16.9802628 16.9816359,21.0534568 11.9570389,21.0534568 C6.93244182,21.0534568 2.85924777,16.9802628 2.85924777,11.9556657 C2.85924777,6.93106869 6.93244182,2.85787464 11.9570389,2.85787464 C16.9816359,2.85787464 21.0549493,6.93106869 21.0549493,11.9556657" id="Fill-776" fill="#0740EC"></path>
                            <path d="M10.9897672,8.50132541 C10.3098866,8.50132541 9.75669258,9.05440004 9.75669258,9.73440004 L9.75669258,14.1770269 C9.75669258,14.8569075 10.3098866,15.4099822 10.9897672,15.4099822 L12.9244538,15.4099822 C13.6043344,15.4099822 14.157409,14.8569075 14.157409,14.1770269 L14.157409,9.73440004 C14.157409,9.05440004 13.6043344,8.50132541 12.9244538,8.50132541 L10.9897672,8.50132541 Z M12.9244538,16.604012 L10.9897672,16.604012 C9.65149855,16.604012 8.56266272,15.5152956 8.56266272,14.1770269 L8.56266272,9.73440004 C8.56266272,8.39613138 9.65149855,7.30729555 10.9897672,7.30729555 L12.9244538,7.30729555 C14.2627224,7.30729555 15.3514389,8.39613138 15.3514389,9.73440004 L15.3514389,14.1770269 C15.3514389,15.5152956 14.2627224,16.604012 12.9244538,16.604012 Z" id="Fill-777" fill="#FFFFFF" fill-rule="nonzero"></path>
                            <path d="M15.2333613,17.7254329 C15.0651225,17.7254329 14.8978389,17.6547463 14.7797493,17.5169553 L12.8838687,15.3052538 C12.6693015,15.0549851 12.6983165,14.6780299 12.9487045,14.4634627 C13.1989732,14.2487762 13.575809,14.2777911 13.7904956,14.5281792 L15.6863762,16.7398807 C15.9009433,16.9901493 15.8719284,17.3671045 15.6215404,17.5816717 C15.5090628,17.6781493 15.3707941,17.7254329 15.2333613,17.7254329" id="Fill-778" fill="#FFFFFF"></path>
                            <polygon id="Fill-779" fill="#0740EC" points="11.837612 2.64811941 12.076418 2.64811941 12.076418 1.69289553 11.837612 1.69289553"></polygon>
                            <polygon id="Fill-780" fill="#0740EC" points="11.837612 22.2899105 12.076418 22.2899105 12.076418 21.3346867 11.837612 21.3346867"></polygon>
                            <polygon id="Fill-781" fill="#0740EC" points="10.4522269 2.76927762 10.217003 2.81071046 10.0511523 1.87005374 10.2863762 1.8286209"></polygon>
                            <polygon id="Fill-782" fill="#0740EC" points="13.8629613 22.1126807 13.6278568 22.1541135 13.462006 21.2134568 13.6971105 21.172024"></polygon>
                            <polygon id="Fill-783" fill="#0740EC" points="8.87369556 3.17068658 8.64933735 3.25235822 8.32253138 2.35480598 8.54700899 2.27301493"></polygon>
                            <polygon id="Fill-784" fill="#0740EC" points="15.5915702 21.6279523 15.367212 21.709624 15.0405254 20.8120717 15.2648836 20.7302807"></polygon>
                            <polygon id="Fill-785" fill="#0740EC" points="7.38884779 3.84011942 7.18204182 3.9595224 6.70442988 3.13229852 6.91123585 3.01289553"></polygon>
                            <polygon id="Fill-786" fill="#0740EC" points="17.2097434 20.8504359 17.0029374 20.9698389 16.5253254 20.142615 16.7321314 20.023212"></polygon>
                            <polygon id="Fill-787" fill="#0740EC" points="6.04282988 4.75720599 5.8599045 4.91075823 5.24581495 4.17893733 5.42874032 4.02550449"></polygon>
                            <polygon id="Fill-788" fill="#0740EC" points="18.6682986 19.8037374 18.4853732 19.9572896 17.8714031 19.2254687 18.0543284 19.0720359"></polygon>
                            <polygon id="Fill-789" fill="#0740EC" points="4.87648957 5.89416122 4.72293733 6.07708659 3.99123584 5.46311644 4.14478808 5.28007166"></polygon>
                            <polygon id="Fill-790" fill="#0740EC" points="19.9229493 18.5196299 19.7693971 18.7025553 19.0376956 18.0885851 19.1912478 17.9056598"></polygon>
                            <polygon id="Fill-791" fill="#0740EC" points="3.92528957 7.21627466 3.80588658 7.42308063 2.9786627 6.94546869 3.09806568 6.73866271"></polygon>
                            <polygon id="Fill-792" fill="#0740EC" points="20.9355464 17.0371702 20.8161434 17.2439762 19.9889195 16.7663642 20.1083225 16.5595583"></polygon>
                            <polygon id="Fill-793" fill="#0740EC" points="3.21807763 8.68357019 3.13640598 8.9079284 2.23885374 8.58124183 2.32040598 8.35688362"></polygon>
                            <polygon id="Fill-794" fill="#0740EC" points="21.6753434 15.4014448 21.5936717 15.6258031 20.6960001 15.2991165 20.7776717 15.0747583"></polygon>
                            <polygon id="Fill-795" fill="#0740EC" points="2.7765015 10.2513194 2.73494927 10.4865433 1.79429254 10.3206926 1.83584478 10.0854687"></polygon>
                            <polygon id="Fill-796" fill="#0740EC" points="22.1198449 13.6620538 22.078412 13.8972777 21.1376359 13.7314269 21.1791881 13.496203"></polygon>
                            <polygon id="Fill-797" fill="#0740EC" points="1.65850747 12.110806 2.61373135 12.110806 2.61373135 11.872 1.65850747 11.872"></polygon>
                            <polygon id="Fill-798" fill="#0740EC" points="21.3002986 12.110806 22.2555225 12.110806 22.2555225 11.872 21.3002986 11.872"></polygon>
                            <polygon id="Fill-799" fill="#0740EC" points="2.73498509 13.4961911 2.77653733 13.731415 1.8357612 13.8972657 1.79432837 13.6620418"></polygon>
                            <polygon id="Fill-800" fill="#0740EC" points="22.0783882 10.0854448 22.119821 10.3206687 21.1791643 10.4865194 21.1377314 10.2512956"></polygon>
                            <polygon id="Fill-801" fill="#0740EC" points="3.13640598 15.0747225 3.21807763 15.2990807 2.32052538 15.6258866 2.23885374 15.401409"></polygon>
                            <polygon id="Fill-802" fill="#0740EC" points="21.5936598 8.3568478 21.6753314 8.58120601 20.7777792 8.90801198 20.6959881 8.68353436"></polygon>
                            <polygon id="Fill-803" fill="#0740EC" points="3.80588658 16.5595583 3.92528957 16.7663642 3.09806568 17.2439762 2.9786627 17.0371702"></polygon>
                            <polygon id="Fill-804" fill="#0740EC" points="20.8161434 6.73866271 20.9355464 6.94546869 20.1083225 7.42308063 19.9889195 7.21627466"></polygon>
                            <polygon id="Fill-805" fill="#0740EC" points="4.72298509 17.9056478 4.87653733 18.0885732 4.14471644 18.7025434 3.9912836 18.519618"></polygon>
                            <polygon id="Fill-806" fill="#0740EC" points="19.7694449 5.28011942 19.9229971 5.4630448 19.1911762 6.07701495 19.0377434 5.89420898"></polygon>
                            <polygon id="Fill-807" fill="#0740EC" points="5.85986868 19.0719881 6.04279406 19.2255404 5.4288239 19.9572419 5.24577913 19.8036896"></polygon>
                            <polygon id="Fill-808" fill="#0740EC" points="18.4853374 4.02545673 18.6682628 4.17900897 18.0542926 4.91071047 17.8713672 4.75715823"></polygon>
                            <polygon id="Fill-809" fill="#0740EC" points="7.18205376 20.0231881 7.38885973 20.1425911 6.91124779 20.969815 6.70444182 20.850412"></polygon>
                            <polygon id="Fill-810" fill="#0740EC" points="17.0029493 3.01285971 17.2097553 3.1322627 16.7321434 3.95948658 16.5253374 3.8400836"></polygon>
                            <polygon id="Fill-811" fill="#0740EC" points="8.64928959 20.7303284 8.8736478 20.8120001 8.54696123 21.7096717 8.32260302 21.6280001"></polygon>
                            <polygon id="Fill-812" fill="#0740EC" points="15.3671642 2.2730627 15.5915225 2.35473434 15.2649553 3.25240598 15.0404777 3.17073434"></polygon>
                            <polygon id="Fill-813" fill="#0740EC" points="10.2170388 21.1719762 10.4522627 21.213409 10.286412 22.1541852 10.0511881 22.1126329"></polygon>
                            <polygon id="Fill-814" fill="#0740EC" points="13.6278329 1.82857314 13.8629374 1.87000598 13.6970866 2.8107821 13.4619821 2.76922986"></polygon>
                        </g>
                    </g>
                </g>
            </g>
        </g>
    </g>
</svg>