<?xml version="1.0" encoding="UTF-8"?>
<svg width="24px" height="24px" viewBox="0 0 24 24" version="1.1" xmlns="http://www.w3.org/2000/svg" xmlns:xlink="http://www.w3.org/1999/xlink">
    <!-- Generator: Sketch 52.5 (67469) - http://www.bohemiancoding.com/sketch -->
    <title>Crypto/coins/QTUM</title>
    <desc>Created with Sketch.</desc>
    <g id="Crypto/coins/QTUM" stroke="none" stroke-width="1" fill="none" fill-rule="evenodd">
        <g id="Group" transform="translate(-0.000000, 1.897674)" fill="#2EA6DF">
            <g id="QTUM">
                <g id="Page-1">
                    <g id="Artboard">
                        <g id="QTUM">
                            <path d="M7.64386608,19.4301545 L13.6342661,19.4301545 L18.4803684,15.909187 L20.331494,10.2119219 L18.4803684,4.51465676 L13.6342661,0.993689306 L7.64386608,0.993689306 L2.7976521,4.51465676 L0.946526516,10.2119219 L2.7976521,15.909187 L7.64386608,19.4301545 Z M13.7409824,19.7588987 L7.53703817,19.7588987 L7.49383817,19.7276429 L2.51791257,16.1122382 L0.600703258,10.2119219 L2.51791257,4.3116056 L7.53703817,0.664945119 L13.7409824,0.664945119 L18.760108,4.3116056 L20.6773173,10.2119219 L18.760108,16.1122382 L13.7409824,19.7588987 Z" id="Fill-706" fill-rule="nonzero"></path>
                            <path d="M8.22321492,0.829395352 C8.22321492,1.22589768 7.90183817,1.54727443 7.50522422,1.54727443 C7.10883352,1.54727443 6.78734514,1.22589768 6.78734514,0.829395352 C6.78734514,0.432893025 7.10883352,0.111404652 7.50522422,0.111404652 C7.90183817,0.111404652 8.22321492,0.432893025 8.22321492,0.829395352" id="Fill-708"></path>
                            <path d="M14.3890159,0.829395352 C14.3890159,1.22589768 14.0675275,1.54727443 13.6710252,1.54727443 C13.2746345,1.54727443 12.9531461,1.22589768 12.9531461,0.829395352 C12.9531461,0.432893025 13.2746345,0.111404652 13.6710252,0.111404652 C14.0675275,0.111404652 14.3890159,0.432893025 14.3890159,0.829395352" id="Fill-710"></path>
                            <path d="M8.27406143,19.4865712 C8.27406143,19.8830736 7.95268468,20.2044503 7.55607073,20.2044503 C7.15968003,20.2044503 6.83819166,19.8830736 6.83819166,19.4865712 C6.83819166,19.0900689 7.15968003,18.7685805 7.55607073,18.7685805 C7.95268468,18.7685805 8.27406143,19.0900689 8.27406143,19.4865712" id="Fill-712"></path>
                            <path d="M3.34139164,16.0183145 C3.34139164,16.4148168 3.0200149,16.7361936 2.62351257,16.7361936 C2.22701024,16.7361936 1.90552187,16.4148168 1.90552187,16.0183145 C1.90552187,15.6218122 2.22701024,15.3003238 2.62351257,15.3003238 C3.0200149,15.3003238 3.34139164,15.6218122 3.34139164,16.0183145" id="Fill-714"></path>
                            <path d="M1.49158326,10.2119219 C1.49158326,10.6084242 1.17009489,10.929801 0.773592561,10.929801 C0.377201862,10.929801 0.0557134886,10.6084242 0.0557134886,10.2119219 C0.0557134886,9.81541958 0.377201862,9.4939312 0.773592561,9.4939312 C1.17009489,9.4939312 1.49158326,9.81541958 1.49158326,10.2119219" id="Fill-716"></path>
                            <path d="M3.34139164,4.43147165 C3.34139164,4.82797397 3.0200149,5.14946235 2.62351257,5.14946235 C2.22701024,5.14946235 1.90552187,4.82797397 1.90552187,4.43147165 C1.90552187,4.03496932 2.22701024,3.71359257 2.62351257,3.71359257 C3.0200149,3.71359257 3.34139164,4.03496932 3.34139164,4.43147165" id="Fill-718"></path>
                            <path d="M19.7848745,10.1989396 C19.7848745,10.5954419 20.1062512,10.9168187 20.5027536,10.9168187 C20.8992559,10.9168187 21.2207443,10.5954419 21.2207443,10.1989396 C21.2207443,9.80243725 20.8992559,9.48094888 20.5027536,9.48094888 C20.1062512,9.48094888 19.7848745,9.80243725 19.7848745,10.1989396" id="Fill-720"></path>
                            <path d="M17.9349991,4.41848932 C17.9349991,4.81499165 18.2563759,5.13636839 18.6529898,5.13636839 C19.0493805,5.13636839 19.3708689,4.81499165 19.3708689,4.41848932 C19.3708689,4.02198699 19.0493805,3.70061025 18.6529898,3.70061025 C18.2563759,3.70061025 17.9349991,4.02198699 17.9349991,4.41848932" id="Fill-722"></path>
                            <path d="M14.4398177,19.4865712 C14.4398177,19.8830736 14.118441,20.2044503 13.7219387,20.2044503 C13.3254363,20.2044503 13.003948,19.8830736 13.003948,19.4865712 C13.003948,19.0900689 13.3254363,18.7685805 13.7219387,18.7685805 C14.118441,18.7685805 14.4398177,19.0900689 14.4398177,19.4865712" id="Fill-724"></path>
                            <path d="M6.83919631,14.4399294 L6.89043352,14.4570084 L10.8977638,15.8021247 L15.4261731,14.4382549 L18.4885731,15.7392782 L18.4885731,4.66701769 L15.4261731,5.96792933 L10.8977638,4.60417118 L6.83919631,5.96636654 L6.78762421,5.94995723 L2.78788466,4.65752932 L2.78788466,15.7487666 L6.83919631,14.4399294 Z M18.8173173,16.2362456 L15.4070847,14.7875387 L10.8924056,16.1473898 L6.83718701,14.7859759 L2.45914048,16.200748 L2.45914048,4.20554792 L6.83718701,5.62032002 L10.8924056,4.25890606 L10.9424149,4.27419909 L15.4070847,5.61875723 L18.8173173,4.17005025 L18.8173173,16.2362456 Z" id="Fill-726" fill-rule="nonzero"></path>
                            <polygon id="Fill-728" points="0.773681864 10.376361 0.773458608 10.0476168 20.5026866 10.0345563 20.5029099 10.3633005"></polygon>
                            <path d="M11.0850977,4.454467 L13.4397768,9.75634609 L15.2395536,5.78551816 L13.6164838,1.16959256 L11.0850977,4.454467 Z M7.00688375,5.77268095 L8.59211166,9.76706237 L10.7035535,4.46786234 L7.62217678,1.19359256 L7.00688375,5.77268095 Z M2.85086513,10.2117879 L6.78016747,14.3144484 L8.41495817,10.2117879 L6.78005584,6.09260654 L2.85086513,10.2117879 Z M8.76881864,10.2117879 L10.9018047,15.5486066 L13.2584931,10.1584298 L10.9032559,4.85509956 L8.76881864,10.2117879 Z M7.00733026,14.6328112 L7.66961864,19.1287368 L10.7033303,15.9378531 L8.59200004,10.6555089 L7.00733026,14.6328112 Z M11.0856559,15.9492391 L13.6640373,19.1524019 L15.2400001,14.6203089 L13.4393303,10.5656484 L11.0856559,15.9492391 Z M7.4426791,19.8443833 L6.68316282,14.6888484 L2.39609303,10.2122345 L6.68238142,5.71854142 L7.38831631,0.465108839 L10.8826047,4.17841118 L13.7256559,0.488997211 L15.5936373,5.80114607 L13.6183815,10.1586531 L15.5933024,14.605574 L13.779907,19.8207182 L10.8848373,16.2242903 L7.4426791,19.8443833 Z" id="Fill-730" fill-rule="nonzero"></path>
                            <polygon id="Fill-732" points="15.5490643 14.710281 15.2841712 14.5156019 18.4490457 10.2117879 15.283948 5.89056002 15.5492875 5.69621584 18.8568224 10.2122345"></polygon>
                            <path d="M6.06946607,5.79335444 C6.06946607,6.18985677 6.39084282,6.51134514 6.78734514,6.51134514 C7.18384747,6.51134514 7.50522422,6.18985677 7.50522422,5.79335444 C7.50522422,5.39685212 7.18384747,5.07547537 6.78734514,5.07547537 C6.39084282,5.07547537 6.06946607,5.39685212 6.06946607,5.79335444" id="Fill-734"></path>
                            <path d="M10.1771386,4.43147165 C10.1771386,4.82797397 10.4985154,5.14946235 10.8950177,5.14946235 C11.29152,5.14946235 11.6130084,4.82797397 11.6130084,4.43147165 C11.6130084,4.03496932 11.29152,3.71359257 10.8950177,3.71359257 C10.4985154,3.71359257 10.1771386,4.03496932 10.1771386,4.43147165" id="Fill-736"></path>
                            <path d="M15.9242791,5.2857377 C15.6438698,5.00532839 15.189321,5.00532839 14.9090233,5.2857377 C14.628614,5.566147 14.628614,6.02058421 14.9090233,6.30099351 C15.189321,6.58140282 15.6438698,6.58140282 15.9242791,6.30099351 C16.2045768,6.02058421 16.2045768,5.566147 15.9242791,5.2857377" id="Fill-738"></path>
                            <path d="M3.34139164,10.157961 C3.34139164,9.76145865 3.0200149,9.4400819 2.62351257,9.4400819 C2.22701024,9.4400819 1.90552187,9.76145865 1.90552187,10.157961 C1.90552187,10.5544633 2.22701024,10.8759517 2.62351257,10.8759517 C3.0200149,10.8759517 3.34139164,10.5544633 3.34139164,10.157961" id="Fill-740"></path>
                            <path d="M9.17199632,10.157961 C9.17199632,9.76145865 8.85061957,9.4400819 8.45411724,9.4400819 C8.05761492,9.4400819 7.73612654,9.76145865 7.73612654,10.157961 C7.73612654,10.5544633 8.05761492,10.8759517 8.45411724,10.8759517 C8.85061957,10.8759517 9.17199632,10.5544633 9.17199632,10.157961" id="Fill-742"></path>
                            <path d="M14.0532615,10.157961 C14.0532615,9.76145865 13.7318847,9.4400819 13.3352708,9.4400819 C12.9388801,9.4400819 12.6173917,9.76145865 12.6173917,10.157961 C12.6173917,10.5544633 12.9388801,10.8759517 13.3352708,10.8759517 C13.7318847,10.8759517 14.0532615,10.5544633 14.0532615,10.157961" id="Fill-744"></path>
                            <path d="M19.3708466,10.2119219 C19.3708466,9.81541958 19.0494698,9.4939312 18.6529675,9.4939312 C18.2564652,9.4939312 17.9349768,9.81541958 17.9349768,10.2119219 C17.9349768,10.6084242 18.2564652,10.929801 18.6529675,10.929801 C19.0494698,10.929801 19.3708466,10.6084242 19.3708466,10.2119219" id="Fill-746"></path>
                            <path d="M16.1345638,14.6129303 C16.1345638,14.216428 15.8130754,13.8950512 15.4165731,13.8950512 C15.0201824,13.8950512 14.698694,14.216428 14.698694,14.6129303 C14.698694,15.0094326 15.0201824,15.330921 15.4165731,15.330921 C15.8130754,15.330921 16.1345638,15.0094326 16.1345638,14.6129303" id="Fill-748"></path>
                            <path d="M23.9353341,18.2283573 C23.9353341,17.6674271 23.480562,17.212655 22.9196317,17.212655 C22.3585899,17.212655 21.9039294,17.6674271 21.9039294,18.2283573 C21.9039294,18.7892875 22.3585899,19.2440596 22.9196317,19.2440596 C23.480562,19.2440596 23.9353341,18.7892875 23.9353341,18.2283573" id="Fill-750"></path>
                            <path d="M10.6156354,15.3309991 C10.2503889,15.4852689 10.0793749,15.9065526 10.2337563,16.2717991 C10.3880261,16.636934 10.8091982,16.807948 11.1744447,16.6536782 C11.5396912,16.4992968 11.7107052,16.0781247 11.5563238,15.7128782 C11.402054,15.3476317 10.9808819,15.1767294 10.6156354,15.3309991" id="Fill-752"></path>
                            <path d="M6.50796282,13.9516131 C6.1427163,14.1058828 5.97170235,14.5271666 6.12608375,14.8923015 C6.28035351,15.257548 6.70152561,15.4285619 7.06677212,15.2742922 C7.43201864,15.1199108 7.60303259,14.6987387 7.44865119,14.3334922 C7.29438143,13.9682456 6.87320933,13.7973433 6.50796282,13.9516131" id="Fill-754"></path>
                            <polygon id="Fill-756" points="22.8429768 18.3738308 18.5448559 16.1567889 18.6956652 15.864547 22.9936745 18.0815889"></polygon>
                        </g>
                    </g>
                </g>
            </g>
        </g>
    </g>
</svg>