<?xml version="1.0" encoding="UTF-8"?>
<svg width="24px" height="24px" viewBox="0 0 24 24" version="1.1" xmlns="http://www.w3.org/2000/svg" xmlns:xlink="http://www.w3.org/1999/xlink">
    <!-- Generator: Sketch 52.5 (67469) - http://www.bohemiancoding.com/sketch -->
    <title>Crypto/coins/REP</title>
    <desc>Created with Sketch.</desc>
    <g id="Crypto/coins/REP" stroke="none" stroke-width="1" fill="none" fill-rule="evenodd">
        <g id="Group" transform="translate(-0.000000, -0.000000)">
            <g id="REP">
                <g id="Page-1">
                    <g id="Artboard">
                        <g id="REP">
                            <path d="M23.9126329,12.0221374 C23.9126329,18.6165255 18.5668419,23.9624359 11.9723344,23.9624359 C5.37794629,23.9624359 0.032035821,18.6165255 0.032035821,12.0221374 C0.032035821,5.42762987 5.37794629,0.0818388063 11.9723344,0.0818388063 C18.5668419,0.0818388063 23.9126329,5.42762987 23.9126329,12.0221374" id="Fill-89" fill="#602453"></path>
                            <path d="M11.653015,4.75592838 C11.6495523,4.75437614 11.6459702,4.7529433 11.6423881,4.75139106 C9.7383881,8.1721672 7.83438809,11.5929433 5.93038808,15.0137195 C5.95653734,15.010615 5.97408958,15.0010627 5.99176122,14.9913911 C6.19152241,14.8822568 6.38949256,14.7698986 6.59140301,14.6647045 C7.06041794,14.4202866 7.53898511,14.1974807 8.0425075,14.0317493 C8.16991048,13.9897195 8.30089556,13.9745553 8.43343287,13.9823165 C8.72883586,13.9997493 9.00035825,14.100406 9.26292541,14.2298389 C9.66268661,14.4268538 10.0069254,14.6987344 10.3365971,14.996406 C10.6508657,15.2801075 11.023403,15.4648239 11.4401195,15.5523463 C11.5504478,15.5755105 11.6626866,15.5892419 11.7794627,15.6083463 C11.7719403,15.6188538 11.7675224,15.6275702 11.7608359,15.634018 C11.5992836,15.787809 11.4558806,15.9555702 11.3479403,16.1523463 C11.3407762,16.1654807 11.3057911,16.1747941 11.2890747,16.169421 C11.0882389,16.1045851 10.8831045,16.049421 10.6897911,15.9666747 C10.4187463,15.8504956 10.158806,15.7103165 9.93743288,15.5091225 C9.6944478,15.2882269 9.43319407,15.091212 9.14961198,14.925003 C8.96000004,14.8139583 8.76632839,14.7097195 8.55104481,14.6563463 C8.45253735,14.6319881 8.35140302,14.6083463 8.25026869,14.6428538 C8.11773138,14.6879881 7.98507466,14.7336001 7.8546866,14.7848239 C7.31223884,14.9978389 6.79976122,15.2717493 6.29373137,15.5584359 C6.16322391,15.6324657 6.0351045,15.7109135 5.89982092,15.7907941 C7.81492541,16.9313314 9.72346273,18.0680478 11.6435821,19.2114508 L11.6435821,19.1218986 C11.6435821,18.3769434 11.6434627,17.6319881 11.6437015,16.8871523 C11.6437015,16.8464359 11.6435821,16.8056001 11.6481195,16.7653613 C11.6766568,16.515212 11.7945075,16.3064956 11.9558209,16.1204657 C12.2564777,15.7736001 12.6384478,15.5408836 13.0484777,15.347809 C13.6563583,15.0614807 14.0934926,14.6125254 14.342209,13.9848239 C14.3512836,13.962018 14.3619105,13.939809 14.3760001,13.9080478 C14.3921195,13.9367045 14.4014329,13.9543762 14.411821,13.9713314 C14.5041195,14.122018 14.595821,14.2731821 14.6896717,14.4229135 C14.7174926,14.4674508 14.7749254,14.5073314 14.7763583,14.5507941 C14.7777911,14.5973613 14.7299105,14.6458389 14.7025672,14.693003 C14.3937911,15.2249433 13.9609553,15.6242269 13.4150448,15.9049433 C13.2398807,15.9949732 13.0655523,16.0875105 12.8971941,16.1893613 C12.7103284,16.3023165 12.5385075,16.4365254 12.4033433,16.6114508 C12.3417314,16.6913314 12.2938508,16.778018 12.2938508,16.8833314 C12.2939702,17.6404657 12.2939702,18.3977195 12.2940896,19.1548538 L12.2940896,19.2312717 C14.2090747,18.0853613 16.1128359,16.946018 18.0234031,15.8028538 C18.0057314,15.7928239 17.9973732,15.7876896 17.9886568,15.7832717 C17.2156419,15.3978389 16.4429851,15.0119284 15.669612,14.6274508 C15.4878807,14.5370627 15.3352836,14.4110926 15.2054926,14.2571821 C14.8158807,13.7953314 14.6089553,13.2481075 14.4920598,12.6662568 C14.4266269,12.3407642 14.3168956,12.0396299 14.1499702,11.7537792 C13.9537911,11.4178986 13.6871642,11.1486448 13.3732538,10.9301374 C13.0808359,10.7266747 12.7525971,10.5927045 12.3977314,10.5344359 C12.3231045,10.5221374 12.2477612,10.5133015 12.1713433,10.5026747 C12.175403,10.493003 12.1758806,10.4883463 12.1785075,10.4857194 C12.3399403,10.3263165 12.4842986,10.1537791 12.5933135,9.95318213 C12.5997612,9.94148064 12.6277015,9.93252541 12.6426269,9.93562989 C12.7200001,9.95222691 12.7973732,9.97001795 12.8730747,9.99306273 C13.3885374,10.1500777 13.8374926,10.4183762 14.2211344,10.7972418 C14.589612,11.1611821 14.8630448,11.5849433 15.0171941,12.0796299 C15.0626866,12.2256598 15.0699702,12.3831523 15.102209,12.5337195 C15.1853135,12.9217792 15.3178508,13.2915702 15.5266866,13.6312717 C15.6448956,13.8231523 15.7936717,13.9811224 16.0007165,14.0839284 C16.6579105,14.4102568 17.3123583,14.7418389 17.9680001,15.0711523 C17.9920001,15.083212 18.0171941,15.0928836 18.0554031,15.1094807 C16.125612,11.6452418 14.2041792,8.19557018 12.2826269,4.74601793 C12.2783284,4.74697315 12.2740299,4.74792838 12.269612,4.7487642 L12.269612,4.81897315 C12.269612,6.26816719 12.2697314,7.71736123 12.2692538,9.16643586 C12.2692538,9.22745078 12.268418,9.28894332 12.2599403,9.34912243 C12.2218508,9.62231646 12.0804777,9.84357019 11.8974329,10.0401075 C11.6106269,10.3482866 11.2618508,10.5701374 10.8842986,10.7501971 C10.772418,10.8034508 10.6570747,10.8520478 10.5529553,10.9179583 C10.1597612,11.1675105 9.87367168,11.5166448 9.66268661,11.9259583 C9.40573138,12.4242269 9.35080601,12.9550926 9.44143288,13.5038687 C9.45767168,13.6028538 9.48322392,13.700406 9.50483586,13.8001075 C9.49635825,13.7989135 9.49217914,13.7991523 9.48847765,13.7977195 C9.26674631,13.713421 9.04477616,13.6294807 8.82376123,13.5432717 C8.80776123,13.5369433 8.78877616,13.5130627 8.78805974,13.4967045 C8.77946272,13.2858389 8.76143287,13.0743762 8.77026869,12.8639881 C8.78985078,12.3979583 8.94686571,11.9673911 9.16334332,11.5617792 C9.46292541,11.0007045 9.89731347,10.5661971 10.4593433,10.2633911 C10.6489553,10.1611821 10.8429851,10.0668538 11.028418,9.95748064 C11.2310448,9.83795825 11.4120597,9.68954034 11.5487762,9.49407765 C11.6152836,9.39891347 11.6546866,9.29754034 11.6545672,9.17658511 C11.6522986,7.73957018 11.653015,6.30267465 11.653015,4.86565972 C11.653015,4.82912241 11.653015,4.79258509 11.653015,4.75592838 M19.0025075,15.5925851 C18.9986866,15.8482269 18.8909852,16.0467941 18.6703284,16.1789732 C17.6254329,16.8047642 16.5799404,17.4296001 15.5346866,18.0547941 C14.4789254,18.6861971 13.4226866,19.3168837 12.3676418,19.9494807 C12.1088956,20.1045852 11.8561195,20.1044658 11.5968956,19.9493613 C9.49468661,18.6908538 7.39188063,17.4333016 5.28835823,16.1769434 C5.08513435,16.0556299 4.96167166,15.8879881 4.94388062,15.6491822 C4.93361196,15.5131822 4.97074629,15.3886448 5.03689554,15.2701971 C5.36847763,14.6776001 5.69862689,14.0842866 6.02913435,13.491212 L11.1740896,4.25909256 C11.2522986,4.11879405 11.3283583,3.97730151 11.4089553,3.83843584 C11.6107463,3.49049554 12.0279403,3.39425673 12.3460299,3.63091345 C12.4277015,3.69168957 12.4965971,3.7811224 12.5469851,3.87103285 C13.2560001,5.13527166 13.9607165,6.40177913 14.6665075,7.66780899 C16.0800001,10.2034508 17.4934926,12.7390926 18.9075822,15.2742568 C18.963224,15.3739583 18.9998807,15.4774807 19.0025075,15.5925851" id="Fill-91" fill="#FFFFFF" fill-rule="nonzero"></path>
                        </g>
                    </g>
                </g>
            </g>
        </g>
    </g>
</svg>