<?xml version="1.0" encoding="UTF-8"?>
<svg width="24px" height="24px" viewBox="0 0 24 24" version="1.1" xmlns="http://www.w3.org/2000/svg" xmlns:xlink="http://www.w3.org/1999/xlink">
    <!-- Generator: Sketch 52.5 (67469) - http://www.bohemiancoding.com/sketch -->
    <title>Crypto/coins/SAN</title>
    <desc>Created with Sketch.</desc>
    <g id="Crypto/coins/SAN" stroke="none" stroke-width="1" fill="none" fill-rule="evenodd">
        <g id="Group" transform="translate(-0.000000, -0.000000)">
            <g id="SAN">
                <g id="Page-1">
                    <g id="Artboard">
                        <g id="SAN">
                            <path d="M23.9245255,12.0376478 C23.9245255,18.6321553 18.5787344,23.9779464 11.9842269,23.9779464 C5.38983883,23.9779464 0.0439283584,18.6321553 0.0439283584,12.0376478 C0.0439283584,5.44314032 5.38983883,0.0973492541 11.9842269,0.0973492541 C18.5787344,0.0973492541 23.9245255,5.44314032 23.9245255,12.0376478" id="Fill-372" fill="#000000"></path>
                            <path d="M22.7666986,12.0376478 C22.7666986,17.9926329 17.9392359,22.8200956 11.9842508,22.8200956 C6.0292657,22.8200956 1.20180299,17.9926329 1.20180299,12.0376478 C1.20180299,6.08266271 6.0292657,1.2550806 11.9842508,1.2550806 C17.9392359,1.2550806 22.7666986,6.08266271 22.7666986,12.0376478" id="Fill-373" fill="#FFFFFF"></path>
                            <path d="M14.7381374,7.75184481 C14.3307344,7.52378511 13.5485254,7.19781496 12.5218986,7.19781496 C11.0391523,7.19781496 10.419809,8.06145675 10.419809,8.85990451 C10.419809,9.9191284 11.1205851,10.4406806 12.7011224,11.1249792 C14.7055404,12.0049792 15.6669732,13.0968001 15.6669732,14.8078448 C15.6669732,16.8936956 14.1189135,18.4579941 11.3160478,18.4579941 C10.1427941,18.4579941 8.90434631,18.1157852 8.30148063,17.7083822 L8.72512242,16.1277254 C9.39318213,16.5351284 10.4035702,16.8609792 11.4301971,16.8609792 C12.9130627,16.8609792 13.7441075,16.0951284 13.7441075,14.9707105 C13.7441075,13.911606 13.1086448,13.2597851 11.6257792,12.6404418 C9.7679881,11.8909493 8.51330153,10.7665314 8.51330153,9.07184481 C8.51330153,7.10002391 10.0938388,5.61715823 12.5708538,5.61715823 C13.7604657,5.61715823 14.6565851,5.91041196 15.1943762,6.18742689 L14.7381374,7.75184481 Z" id="Fill-374" fill="#000000"></path>
                            <path d="M20.291021,11.8972538 C20.291021,12.7591045 19.5923941,13.4577314 18.7305434,13.4577314 C17.8685732,13.4577314 17.1699463,12.7591045 17.1699463,11.8972538 C17.1699463,11.0352836 17.8685732,10.3366568 18.7305434,10.3366568 C19.5923941,10.3366568 20.291021,11.0352836 20.291021,11.8972538" id="Fill-375" fill="#000000"></path>
                            <path d="M6.79848361,11.8972538 C6.79848361,12.7591045 6.09985674,13.4577314 5.23800599,13.4577314 C4.37603584,13.4577314 3.67740897,12.7591045 3.67740897,11.8972538 C3.67740897,11.0352836 4.37603584,10.3366568 5.23800599,10.3366568 C6.09985674,10.3366568 6.79848361,11.0352836 6.79848361,11.8972538" id="Fill-376" fill="#000000"></path>
                        </g>
                    </g>
                </g>
            </g>
        </g>
    </g>
</svg>