<?xml version="1.0" encoding="UTF-8"?>
<svg width="24px" height="24px" viewBox="0 0 24 24" version="1.1" xmlns="http://www.w3.org/2000/svg" xmlns:xlink="http://www.w3.org/1999/xlink">
    <!-- Generator: Sketch 52.5 (67469) - http://www.bohemiancoding.com/sketch -->
    <title>Crypto/coins/SC</title>
    <desc>Created with Sketch.</desc>
    <g id="Crypto/coins/SC" stroke="none" stroke-width="1" fill="none" fill-rule="evenodd">
        <g id="Group" transform="translate(-0.000000, -0.000000)">
            <g id="SC">
                <g id="Page-1">
                    <g id="Artboard">
                        <g id="SC">
                            <path d="M12.0058627,23.8889076 C5.42198211,23.8889076 0.0655641794,18.5324896 0.0655641794,11.948609 C0.0655641794,9.48568362 0.809325377,7.12090749 2.21660896,5.11004181 L2.89338509,5.58371346 C1.58377314,7.45487764 0.891594034,9.65583288 0.891594034,11.948609 C0.891594034,18.0770866 5.8773851,23.0628777 12.0058627,23.0628777 C18.1343404,23.0628777 23.1201314,18.0770866 23.1201314,11.948609 C23.1201314,5.82013137 18.1343404,0.834340302 12.0058627,0.834340302 C9.89816124,0.834340302 7.84717615,1.42669851 6.07463883,2.54753434 L5.63320599,1.84926568 C7.53804182,0.644967167 9.74162392,0.0083104478 12.0058627,0.0083104478 C18.5897434,0.0083104478 23.9461613,5.36472838 23.9461613,11.948609 C23.9461613,18.5324896 18.5897434,23.8889076 12.0058627,23.8889076" id="Fill-126" fill="#333333"></path>
                            <path d="M14.3385314,14.9635941 L11.9728,14.9635941 C10.3175165,14.9635941 8.91620302,13.6841911 8.83047168,12.0311762 C8.73769556,10.2456239 10.1576359,8.76837019 11.923009,8.76837019 C13.6329792,8.76837019 15.0192478,10.1539224 15.0205613,11.8638926 L15.0205613,14.2815642 C15.0205613,14.6581613 14.7152478,14.9635941 14.3385314,14.9635941 M11.923009,5.91869853 C10.9652777,5.91869853 10.0610388,6.14472838 9.25984481,6.54663883 C8.99250153,6.68084779 8.69638213,6.74962391 8.39715824,6.74568361 C7.81829257,6.73816122 7.15847167,6.64992242 6.80575525,6.33171346 C6.08969555,5.68490749 4.94724778,4.5416239 4.94724778,4.5416239 C4.94724778,4.5416239 4.76933733,4.37087763 4.66844181,3.92837017 C4.6678448,3.8136239 4.66712838,3.70245972 4.66653136,3.58783285 C4.68109853,3.51093733 4.68874032,3.43165375 4.68874032,3.35057912 C4.68874032,2.62950449 4.08706867,2.04813135 3.35775524,2.08144478 C2.71059106,2.11105673 2.17793434,2.64359404 2.1484418,3.29087763 C2.11500896,4.02007166 2.6963821,4.6217433 3.41745673,4.6217433 C3.58091942,4.6217433 3.73793434,4.59045972 3.88169554,4.53422091 L3.88253136,4.53422091 C4.16253136,4.51440002 4.52265077,4.74317614 4.7960836,5.01004181 C5.26641196,5.46986271 5.99835226,6.26031047 6.27847167,6.56478809 C6.37041197,6.66472839 6.44862092,6.77613137 6.50880003,6.89792242 C6.60062092,7.08371346 6.72826271,7.39069854 6.82080003,7.80562391 C6.91894928,8.24622093 6.86056122,8.71069854 6.65112839,9.11057914 C6.21936719,9.93422094 5.97554629,10.872012 5.97554629,11.8660418 C5.97554629,14.990818 8.38677018,17.5530866 11.4496956,17.7944001 C11.6057553,17.806818 11.763606,17.8133851 11.923009,17.8133851 L17.259009,17.8133851 C17.5952478,17.8133851 17.8703523,17.5382807 17.8703523,17.201206 L17.8703523,11.8626986 C17.8686807,8.58007168 15.2071881,5.91869853 11.923009,5.91869853" id="Fill-128" fill="#00DFA8" fill-rule="nonzero"></path>
                        </g>
                    </g>
                </g>
            </g>
        </g>
    </g>
</svg>