<?xml version="1.0" encoding="UTF-8"?>
<svg width="24px" height="24px" viewBox="0 0 24 24" version="1.1" xmlns="http://www.w3.org/2000/svg" xmlns:xlink="http://www.w3.org/1999/xlink">
    <!-- Generator: Sketch 52.5 (67469) - http://www.bohemiancoding.com/sketch -->
    <title>Crypto/coins/SKY</title>
    <desc>Created with Sketch.</desc>
    <g id="Crypto/coins/SKY" stroke="none" stroke-width="1" fill="none" fill-rule="evenodd">
        <g id="Group" transform="translate(-0.000000, -0.000000)">
            <g id="SKY">
                <g id="Page-1">
                    <g id="Artboard">
                        <g id="SKY">
                            <path d="M23.9538508,11.9724657 C23.9538508,18.5669732 18.6080598,23.9127643 12.0135523,23.9127643 C5.4190448,23.9127643 0.0732537316,18.5669732 0.0732537316,11.9724657 C0.0732537316,5.37795823 5.4190448,0.0321671643 12.0135523,0.0321671643 C18.6080598,0.0321671643 23.9538508,5.37795823 23.9538508,11.9724657" id="Fill-975" fill="#F4F4F4"></path>
                            <path d="M11.5601433,3.87207166 L5.36945674,17.3347583 C3.79238211,16.6232359 2.69459106,15.0373254 2.69459106,13.1944598 C2.69459106,10.6871165 4.72718808,8.65463884 7.23453137,8.65463884 C7.33614331,8.65463884 7.43703884,8.65834033 7.53674033,8.6650269 C7.53112839,8.57189257 7.52778511,8.47816123 7.52778511,8.38371347 C7.52778511,6.04795226 9.29208362,4.12437017 11.5601433,3.87207166" id="Fill-977" fill="#0070FF"></path>
                            <path d="M13.8728717,4.21697912 L7.65734929,17.7343523 L7.23454331,17.7343523 C6.69496122,17.7343523 6.17699107,17.6402628 5.69699107,17.4672478 L11.9608717,3.84491942 C11.9966926,3.844203 12.0320359,3.84372539 12.0677374,3.84372539 C12.7092896,3.84372539 13.3195583,3.97697912 13.8728717,4.21697912" id="Fill-979" fill="#0070FF"></path>
                            <path d="M15.6400717,5.58195823 L10.0518926,17.7343165 L8.23637018,17.7343165 L14.3428777,4.45407763 C14.8437732,4.7447045 15.2843702,5.1287045 15.6400717,5.58195823" id="Fill-981" fill="#0070FF"></path>
                            <path d="M16.6761075,8.65646571 L12.5016598,17.7343165 L10.641003,17.7343165 L15.9914508,6.09849555 C16.383212,6.76977913 16.6075702,7.55043585 16.6075702,8.38374929 C16.6075702,8.47592839 16.6045851,8.56786869 16.5990926,8.65897317 C16.6247642,8.65801795 16.6504359,8.65718213 16.6761075,8.65646571" id="Fill-983" fill="#0070FF"></path>
                            <path d="M18.7685732,9.10598213 L14.8009314,17.7344001 L13.1100657,17.7344001 L17.2736478,8.67995227 C17.8047523,8.73571347 18.3082747,8.88305675 18.7685732,9.10598213" id="Fill-985" fill="#0070FF"></path>
                            <path d="M20.546209,10.6399045 L17.2967762,17.7065314 C17.1311643,17.7251583 16.9630448,17.7343523 16.7925374,17.7343523 L15.6289553,17.7343523 L19.4194031,9.4911284 C19.8596419,9.80408362 20.2413732,10.1933374 20.546209,10.6399045" id="Fill-987" fill="#0070FF"></path>
                            <path d="M21.3324658,13.1944717 C21.3324658,15.1366807 20.1134807,16.7937553 18.398615,17.4418747 L21.0627344,11.6491583 C21.2371822,12.1313075 21.3324658,12.6519045 21.3324658,13.1944717" id="Fill-989" fill="#0070FF"></path>
                            <path d="M11.5601433,3.87207166 L5.36945674,17.3347583" id="Fill-991" fill="#0070FF"></path>
                            <path d="M11.9609075,3.84489554 L5.69702689,17.467224" id="Fill-993" fill="#0070FF"></path>
                            <path d="M13.8728717,4.21697912 L7.65734929,17.7343523" id="Fill-995" fill="#0070FF"></path>
                            <path d="M14.3429016,4.45404181 L8.23627466,17.7344001" id="Fill-997" fill="#0070FF"></path>
                            <path d="M15.6401314,5.58195823 L10.0519523,17.7343165" id="Fill-999" fill="#0070FF"></path>
                            <path d="M15.9914031,6.09851943 L10.6409553,17.7343404" id="Fill-1001" fill="#0070FF"></path>
                            <path d="M16.6761075,8.65646571 L12.5016598,17.7343165" id="Fill-1003" fill="#0070FF"></path>
                            <path d="M17.2736956,8.67990451 L13.1099941,17.7343523" id="Fill-1005" fill="#0070FF"></path>
                            <path d="M18.7685732,9.10598213 L14.8009314,17.7344001" id="Fill-1007" fill="#0070FF"></path>
                            <path d="M19.4194031,9.49111646 L15.6289553,17.7343404" id="Fill-1009" fill="#0070FF"></path>
                            <path d="M20.546209,10.6399045 L17.2967762,17.7065314" id="Fill-1011" fill="#0070FF"></path>
                            <path d="M21.0626986,11.6491224 L18.3985792,17.4419583" id="Fill-1013" fill="#0070FF"></path>
                        </g>
                    </g>
                </g>
            </g>
        </g>
    </g>
</svg>