<?xml version="1.0" encoding="UTF-8"?>
<svg width="24px" height="24px" viewBox="0 0 24 24" version="1.1" xmlns="http://www.w3.org/2000/svg" xmlns:xlink="http://www.w3.org/1999/xlink">
    <!-- Generator: Sketch 52.5 (67469) - http://www.bohemiancoding.com/sketch -->
    <title>Crypto/coins/SNGLS</title>
    <desc>Created with Sketch.</desc>
    <g id="Crypto/coins/SNGLS" stroke="none" stroke-width="1" fill="none" fill-rule="evenodd">
        <g id="Group" transform="translate(-0.000000, 0.059701)">
            <g id="SNGLS">
                <g id="Page-1">
                    <g id="Artboard">
                        <g id="SNGLS">
                            <path d="M23.9949016,11.9402866 C23.9949016,18.5347941 18.6489911,23.8805852 12.054603,23.8805852 C5.46009555,23.8805852 0.114304478,18.5347941 0.114304478,11.9402866 C0.114304478,5.34577913 5.46009555,-1.19402985e-05 12.054603,-1.19402985e-05 C18.6489911,-1.19402985e-05 23.9949016,5.34577913 23.9949016,11.9402866" id="Fill-849" fill="#F4F4F4"></path>
                            <path d="M3.50021494,12.067009 C3.50021494,12.067009 6.22654331,9.66987467 10.4333493,9.14366571 L9.87669258,10.0557851 L10.3335284,11.0408597 L11.5811702,9.05077019 C11.7373493,9.04527765 11.8952,9.04217317 12.054603,9.04217317 C12.2439762,9.04217317 12.4310806,9.04647168 12.6157971,9.05447168 L13.774006,11.0408597 L14.2451702,10.0701135 L13.6789613,9.14402392 C17.8839762,9.6710687 20.6088717,12.067009 20.6088717,12.067009 C20.6088717,12.067009 17.574006,14.5424717 13.3883344,15.0064717 L15.2160359,11.7547702 L14.6877971,10.8410986 L12.5384239,15.0710687 C12.3784239,15.0776359 12.2172299,15.0809792 12.054603,15.0809792 C11.8909015,15.0809792 11.7286329,15.0775165 11.5677971,15.0708299 L9.4055284,10.8410986 L8.87728959,11.7404418 L10.7074986,15.0050389 C6.52875227,14.537218 3.50021494,12.067009 3.50021494,12.067009 Z M12.8321553,15.9960836 C17.8481553,15.6485016 21.5688717,12.0688001 21.5688717,12.0688001 C21.5688717,12.0688001 18.1919165,8.56599407 13.0664239,8.14199406 L12.054603,6.48682988 L11.0446926,8.14175526 C5.9181254,8.56515824 2.54021494,12.0688001 2.54021494,12.0688001 C2.54021494,12.0688001 6.25376719,15.6416956 11.2624836,15.9951284 L12.046603,17.393815 L12.8321553,15.9960836 Z" id="Fill-851" fill="#B0191A" fill-rule="nonzero"></path>
                        </g>
                    </g>
                </g>
            </g>
        </g>
    </g>
</svg>