<?xml version="1.0" encoding="UTF-8"?>
<svg width="24px" height="24px" viewBox="0 0 24 24" version="1.1" xmlns="http://www.w3.org/2000/svg" xmlns:xlink="http://www.w3.org/1999/xlink">
    <!-- Generator: Sketch 52.5 (67469) - http://www.bohemiancoding.com/sketch -->
    <title>Crypto/coins/SNT</title>
    <desc>Created with Sketch.</desc>
    <g id="Crypto/coins/SNT" stroke="none" stroke-width="1" fill="none" fill-rule="evenodd">
        <g id="Group" transform="translate(-0.000000, -0.000000)">
            <g id="SNT">
                <g id="Page-1">
                    <g id="Artboard">
                        <g id="SNT">
                            <path d="M23.9245255,12.040203 C23.9245255,18.6347105 18.5787344,23.9805016 11.9842269,23.9805016 C5.38983883,23.9805016 0.0439283584,18.6347105 0.0439283584,12.040203 C0.0439283584,5.44569555 5.38983883,0.099904478 11.9842269,0.099904478 C18.5787344,0.099904478 23.9245255,5.44569555 23.9245255,12.040203" id="Fill-170" fill="#F4F4F4"></path>
                            <path d="M7.63145078,11.2630329 C7.63145078,11.2630329 8.80315228,5.60428659 13.6427941,4.68679405 C18.4824359,3.7690627 19.501421,6.62386868 19.5522866,7.79652541 C19.6032717,8.96894332 18.6862568,11.8748538 14.4579583,11.5179583 C10.1276896,10.7531821 7.63145078,11.2630329 7.63145078,11.2630329" id="Fill-172" fill="#4957B8"></path>
                            <path d="M16.337015,12.8172657 C16.337015,12.8172657 15.1653135,18.476012 10.3256717,19.393624 C5.48591047,20.3112359 4.46704479,17.4564299 4.41617912,16.2838926 C4.36519405,15.1113553 5.28220898,12.2055642 9.5105075,12.5623404 C13.8407762,13.3271165 16.337015,12.8172657 16.337015,12.8172657" id="Fill-174" fill="#4957B8"></path>
                        </g>
                    </g>
                </g>
            </g>
        </g>
    </g>
</svg>