<?xml version="1.0" encoding="UTF-8"?>
<svg width="24px" height="24px" viewBox="0 0 24 24" version="1.1" xmlns="http://www.w3.org/2000/svg" xmlns:xlink="http://www.w3.org/1999/xlink">
    <!-- Generator: Sketch 52.5 (67469) - http://www.bohemiancoding.com/sketch -->
    <title>Crypto/coins/START</title>
    <desc>Created with Sketch.</desc>
    <g id="Crypto/coins/START" stroke="none" stroke-width="1" fill="none" fill-rule="evenodd">
        <g id="Group" transform="translate(-0.000000, -0.000000)">
            <g id="START">
                <g id="Page-1">
                    <g id="Artboard">
                        <g id="START">
                            <path d="M12.0085493,0.109814926 C5.41404181,0.109814926 0.0682507466,5.45560599 0.0682507466,12.0501135 C0.0682507466,18.644621 5.41404181,23.990412 12.0085493,23.990412 C18.6030568,23.990412 23.9488479,18.644621 23.9488479,12.0501135 C23.9488479,5.45560599 18.6030568,0.109814926 12.0085493,0.109814926" id="Fill-698" fill="#0E86CB"></path>
                            <path d="M12.0085493,1.06503881 C18.0657434,1.06503881 22.993624,5.99291943 22.993624,12.0501135 C22.993624,18.1073075 18.0657434,23.0351882 12.0085493,23.0351882 C5.95135525,23.0351882 1.02347463,18.1073075 1.02347463,12.0501135 C1.02347463,5.99291943 5.95135525,1.06503881 12.0085493,1.06503881" id="Fill-700" fill="#FFFFFF"></path>
                            <path d="M12.008609,19.3079284 C11.9262209,19.3079284 11.8437135,19.2865553 11.769803,19.2439284 L3.777803,14.6297195 C3.54938509,14.4978986 3.47117613,14.2058389 3.60311643,13.9773016 C3.73481793,13.7488836 4.02699703,13.6704359 4.25541494,13.802615 L12.008609,18.2787941 L19.5229971,13.940406 L19.5229971,12.9001672 L12.247415,17.1007643 C12.0995941,17.186018 11.9176239,17.186018 11.769803,17.1007643 L3.777803,12.4865553 C3.63010151,12.4013015 3.53899703,12.2435702 3.53899703,12.0729433 L3.53899703,9.8840478 C3.53899703,9.62028661 3.75284778,9.40643586 4.01660897,9.40643586 C4.28037017,9.40643586 4.49422091,9.62028661 4.49422091,9.8840478 L4.49422091,11.7972418 L12.008609,16.1356299 L19.7618031,11.6593314 C19.909624,11.5740777 20.0914747,11.5740777 20.239415,11.6593314 C20.3871165,11.7445851 20.478221,11.9024359 20.478221,12.0729433 L20.478221,14.2161075 C20.478221,14.3867344 20.3871165,14.5444657 20.239415,14.6297195 L12.247415,19.2439284 C12.1735045,19.2865553 12.0909971,19.3079284 12.008609,19.3079284" id="Fill-702" fill="#0E86CB"></path>
                            <path d="M4.97186868,9.88407168 L12.0086448,13.9467583 L19.0453016,9.88419109 L12.0086448,5.8215045 L4.97186868,9.88407168 Z M12.0086448,14.976012 C11.9261374,14.976012 11.8437493,14.9546389 11.7698389,14.9118926 L3.77783882,10.2976836 C3.63013733,10.2124299 3.53903285,10.0546985 3.53903285,9.88407168 C3.53903285,9.71344482 3.63013733,9.55571347 3.77783882,9.47045974 L11.7698389,4.85637017 C11.9176598,4.77099703 12.0995105,4.77099703 12.2474508,4.85637017 L20.2393314,9.47057914 C20.3871523,9.55583288 20.4781374,9.71356422 20.4781374,9.88419109 C20.4781374,10.054818 20.3871523,10.2125493 20.2393314,10.297803 L12.2474508,14.9118926 C12.1734209,14.9546389 12.0910329,14.976012 12.0086448,14.976012 Z" id="Fill-704" fill="#0E86CB" fill-rule="nonzero"></path>
                        </g>
                    </g>
                </g>
            </g>
        </g>
    </g>
</svg>