<?xml version="1.0" encoding="UTF-8"?>
<svg width="24px" height="24px" viewBox="0 0 24 24" version="1.1" xmlns="http://www.w3.org/2000/svg" xmlns:xlink="http://www.w3.org/1999/xlink">
    <!-- Generator: Sketch 52.5 (67469) - http://www.bohemiancoding.com/sketch -->
    <title>Crypto/coins/STEEM</title>
    <desc>Created with Sketch.</desc>
    <g id="Crypto/coins/STEEM" stroke="none" stroke-width="1" fill="none" fill-rule="evenodd">
        <g id="Group" transform="translate(0.059701, -0.000000)">
            <g id="STEEM">
                <g id="Page-1">
                    <g id="Artboard">
                        <g id="STEEM">
                            <path d="M23.8805732,12.0438806 C23.8805732,18.6383881 18.5347822,23.9841792 11.9402747,23.9841792 C5.34588659,23.9841792 -2.38805971e-05,18.6383881 -2.38805971e-05,12.0438806 C-2.38805971e-05,5.44937316 5.34588659,0.10358209 11.9402747,0.10358209 C18.5347822,0.10358209 23.8805732,5.44937316 23.8805732,12.0438806" id="Fill-103" fill="#174F9B"></path>
                            <path d="M22.9009792,12.0438806 C22.9009792,18.0972538 17.9937553,23.0045971 11.9402627,23.0045971 C5.88688958,23.0045971 0.979665676,18.0972538 0.979665676,12.0438806 C0.979665676,5.99038808 5.88688958,1.08316418 11.9402627,1.08316418 C17.9937553,1.08316418 22.9009792,5.99038808 22.9009792,12.0438806" id="Fill-106" fill="#FFFFFF"></path>
                            <path d="M6.99105675,18.0227702 C7.00275824,17.9463523 7.00860898,17.8685016 7.02699704,17.7936359 C7.13959406,17.333815 7.26245973,16.8765016 7.36741496,16.415009 C7.49565376,15.8513075 7.38795227,15.3137553 7.14795227,14.7985314 C6.62735525,13.680203 6.10054928,12.5647404 5.5815045,11.4456956 C5.24490748,10.7199642 4.9416239,9.98157616 4.75690748,9.1993672 C4.64359405,8.7193672 4.70902689,8.26885974 4.9576239,7.84581496 C5.35141495,7.1757254 5.87213137,6.61906868 6.49135525,6.15339704 C6.56813137,6.0957254 6.66472839,6.06432241 6.75201197,6.02062092 C6.76765376,6.03208361 6.78341495,6.04354629 6.79905674,6.05500898 C6.77911645,6.28020301 6.77434033,6.50802391 6.73637018,6.73011346 C6.5652657,7.73047167 6.74819107,8.66575526 7.1890269,9.57274034 C7.7730269,10.774412 8.33959406,11.9849195 8.89147466,13.2017553 C9.13386272,13.736203 9.33493735,14.2921433 9.40013138,14.8834269 C9.43153437,15.1689195 9.37887765,15.4437851 9.23237019,15.6925016 C8.72753436,16.5489792 8.08263884,17.285815 7.31153436,17.911606 C7.23189257,17.9762031 7.13207167,18.0158449 7.04168361,18.0670687 C7.02472839,18.0522628 7.00789257,18.0375762 6.99105675,18.0227702" id="Fill-108" fill="#174F9B"></path>
                            <path d="M11.853815,19.8921195 C11.8690986,19.791821 11.8769792,19.689612 11.9010986,19.5913434 C12.0488001,18.9878807 12.2101135,18.3874031 12.3479045,17.7816717 C12.5161433,17.0417314 12.3747702,16.3360598 12.0599045,15.6597613 C11.3763224,14.191821 10.6848597,12.7275821 10.0035463,11.2585672 C9.56175526,10.3060896 9.16366571,9.33689556 8.92115825,8.31002989 C8.77238213,7.68005973 8.85835228,7.08853734 9.18468064,6.53319406 C9.70157616,5.65367167 10.3851583,4.92292539 11.1979344,4.31182091 C11.2987105,4.23600002 11.4253971,4.19480599 11.5401433,4.13749255 C11.5606806,4.15253733 11.581218,4.16758211 11.6018747,4.18250748 C11.5754866,4.47814927 11.5693971,4.77725375 11.5194866,5.06883584 C11.2947702,6.38191047 11.5351284,7.60949257 12.1137553,8.80017914 C12.8804418,10.3774926 13.6239642,11.9665075 14.3483821,13.5637613 C14.6665911,14.2652538 14.9305911,14.9950448 15.0160836,15.7712836 C15.0573971,16.1458508 14.9881433,16.506806 14.7957851,16.8332538 C14.133218,17.9574329 13.2867702,18.9247165 12.2743523,19.7463284 C12.1699941,19.8309852 12.0388896,19.8830449 11.920203,19.9502687 C11.8981135,19.9309255 11.8760239,19.9115822 11.853815,19.8921195" id="Fill-110" fill="#47A0F4"></path>
                            <path d="M19.1774449,15.0048717 C19.1720717,15.3248717 19.087415,15.5876777 18.936012,15.8307822 C18.4449075,16.6194389 17.8419225,17.3106628 17.1272956,17.9039762 C17.0703404,17.9513792 17.0101613,17.9974687 16.944609,18.031021 C16.8980419,18.0547822 16.840012,18.0563344 16.7871165,18.0676777 C16.7804299,18.0091702 16.7567881,17.9463643 16.7698031,17.8926329 C16.8348777,17.6266031 16.9151165,17.3642747 16.9794747,17.0981254 C17.0478926,16.8154986 17.1190568,16.5321553 17.1629971,16.2451105 C17.240012,15.7420657 17.1154747,15.2676777 16.9050866,14.8149016 C16.3824598,13.6907224 15.8504001,12.5708418 15.3300419,11.4455881 C14.9918926,10.7143642 14.6819224,9.97143885 14.5112956,9.17896123 C14.4174448,8.74290153 14.4701016,8.32606571 14.6900419,7.93573735 C15.0870568,7.23185675 15.6275941,6.65585674 16.2710568,6.17263286 C16.2846687,6.1623642 16.2984001,6.14922988 16.3141613,6.14493137 C16.3866389,6.12522988 16.4600717,6.10827465 16.5330269,6.0903642 C16.5398329,6.16140898 16.5596538,6.234006 16.5512956,6.30325973 C16.4658031,7.018006 16.3307583,7.73585675 16.5376837,8.44725974 C16.6550568,8.85084183 16.8031165,9.24928959 16.9769672,9.63209556 C17.5604896,10.9165135 18.177206,12.1858866 18.7474747,13.4759165 C18.9370866,13.9049314 19.0261613,14.3787224 19.1575046,14.8330508 C19.1761314,14.8977672 19.173624,14.9686926 19.1774449,15.0048717" id="Fill-112" fill="#174F9B"></path>
                        </g>
                    </g>
                </g>
            </g>
        </g>
    </g>
</svg>