<?xml version="1.0" encoding="UTF-8"?>
<svg width="24px" height="24px" viewBox="0 0 24 24" version="1.1" xmlns="http://www.w3.org/2000/svg" xmlns:xlink="http://www.w3.org/1999/xlink">
    <!-- Generator: Sketch 52.5 (67469) - http://www.bohemiancoding.com/sketch -->
    <title>Crypto/coins/STORJ</title>
    <desc>Created with Sketch.</desc>
    <g id="Crypto/coins/STORJ" stroke="none" stroke-width="1" fill="none" fill-rule="evenodd">
        <g id="Group" transform="translate(1.373134, -0.000000)" fill="#2583FF">
            <g id="STORJ">
                <g id="Page-1">
                    <g id="Artboard">
                        <g id="STORJ">
                            <path d="M6.00702092,13.948203 C5.92200599,14.0069493 5.86433435,14.0533971 5.80081196,14.089815 C4.93872241,14.5847404 4.07352838,15.0746508 3.2146627,15.5754269 C3.03806568,15.6784717 2.89096121,15.6955463 2.70911046,15.5885613 C2.35925971,15.3828299 1.98194628,15.3394866 1.58230448,15.4303523 C0.772513436,15.6144717 0.218125374,16.5188299 0.428752241,17.3288598 C0.658602988,18.2120837 1.55006568,18.7331583 2.38648359,18.4723822 C3.10505076,18.2482628 3.4707821,17.744024 3.51937912,17.0075463 C3.53418509,16.7837851 3.61991643,16.6493374 3.81537912,16.5386508 C4.77418509,15.9959642 5.72714032,15.443009 6.6781851,14.8864717 C6.85943883,14.7805613 7.01681197,14.7652777 7.21311048,14.8569792 C7.65848361,15.0653374 8.14421496,15.1583523 8.61872242,15.0507702 C9.04654332,14.953815 9.40427467,15.0169792 9.78218512,15.2125613 C9.98624482,15.3179941 10.0533493,15.4309493 10.0521553,15.6496956 C10.0441553,17.1258747 10.040215,18.6022926 10.0533493,20.0783523 C10.0557374,20.3562031 9.97979706,20.5228896 9.73824482,20.6788299 C9.02111049,21.1418747 8.84439407,22.1148896 9.31722989,22.8274867 C9.79627467,23.5498747 10.7673791,23.752024 11.4860657,23.2791882 C12.4626627,22.6365613 12.4367523,21.231427 11.4341254,20.6192478 C11.3017075,20.5382926 11.1959165,20.4677255 11.1967523,20.2813374 C11.2035583,18.7637255 11.2027224,17.2459941 11.1979463,15.7283822 C11.1973493,15.562412 11.2627821,15.4882628 11.4182448,15.4603225 C11.6787821,15.4135165 11.9411105,15.3706508 12.1959165,15.3013971 C12.4285135,15.2381135 12.6412896,15.2321433 12.8725732,15.3232478 C13.4703045,15.5583523 14.0602747,15.514412 14.617409,15.1933374 C14.7989016,15.0888598 14.9393195,15.0982926 15.1178269,15.2038448 C15.8736478,15.6511284 16.6349613,16.0893374 17.4017672,16.5173971 C17.6291105,16.6443225 17.7312001,16.7966807 17.7351404,17.0671284 C17.7449314,17.7729195 18.3514986,18.4237852 19.0449911,18.5130986 C19.7616478,18.6052777 20.4158568,18.2531583 20.7192598,17.6119643 C21.0046329,17.0085016 20.861827,16.2855165 20.3633195,15.8100538 C19.8720956,15.3413971 19.1518568,15.250412 18.5236777,15.5978747 C18.3470807,15.6956657 18.2114389,15.6887404 18.0426031,15.5890389 C17.3221254,15.1638448 16.5989016,14.7424717 15.8680359,14.3353075 C15.6689911,14.2243821 15.5991404,14.1175165 15.6615881,13.8828896 C15.8452299,13.1930986 15.7147225,12.5601433 15.2828419,11.9809195 C14.9864836,11.5835463 14.7246329,11.1606209 14.4435583,10.7517851 C14.3228419,10.5761433 14.3538866,10.4582926 14.5418269,10.3508299 C15.7209314,9.67608362 16.897409,8.99644183 18.072215,8.31405377 C18.2232598,8.22641197 18.3481553,8.21674033 18.5051702,8.31250153 C18.9013493,8.55429257 19.327618,8.5911881 19.7721553,8.45459108 C20.4787822,8.23751645 20.960812,7.47787466 20.847618,6.75059107 C20.725827,5.96742689 20.0406926,5.36265077 19.2891702,5.37471047 C18.4227822,5.38856122 17.7524538,6.05005376 17.729409,6.92575525 C17.7246329,7.10844182 17.6755583,7.23417316 17.5074389,7.33017316 C16.2993195,8.02175526 15.0944239,8.7193075 13.8917971,9.42032243 C13.7474389,9.50450153 13.6486926,9.49853138 13.5228418,9.38091944 C12.9481553,8.84360601 12.2645732,8.53088959 11.4816478,8.44814332 C11.2631403,8.42509854 11.1975881,8.32826272 11.1987821,8.11011347 C11.2070209,6.67548659 11.2061851,5.24062092 11.1965135,3.80611345 C11.1948418,3.55417315 11.2778269,3.38951643 11.490603,3.25280001 C12.0916777,2.86665076 12.3384836,2.1682627 12.1317971,1.4966209 C11.929409,0.838710451 11.3297672,0.39393433 10.6416478,0.391307464 C9.92475228,0.388441793 9.33251347,0.816143287 9.12331944,1.48754627 C8.90242392,2.1965612 9.16224481,2.8881433 9.80714034,3.29411345 C9.93657318,3.37566569 10.0513194,3.44468061 10.0507224,3.63118807 C10.0457075,5.20682987 10.0515583,6.78259107 10.0410508,8.35835227 C10.0404538,8.45721795 9.95328959,8.59094929 9.86648362,8.6475463 C9.48666273,8.89590451 9.09311049,9.12348661 8.70254332,9.3552478 C8.3179463,9.58354631 7.87902093,9.68491944 7.49215526,9.47465079 C6.23293137,8.79059108 4.99914032,8.0593672 3.75627464,7.34497914 C3.60224479,7.25650152 3.53036419,7.13315824 3.52570748,6.94056122 C3.49836419,5.82032241 2.46899106,5.23405375 1.68200598,5.41674032 C1.02791642,5.56850152 0.588155226,5.9357851 0.429588061,6.58211346 C0.271498509,7.22677018 0.466602987,7.79059108 0.993647765,8.19691944 C1.51973732,8.60241198 2.10755822,8.6473075 2.69705076,8.33387466 C2.89120001,8.23082989 3.03734927,8.23226272 3.2227821,8.34259108 C3.84188658,8.7113075 4.4704239,9.06402392 5.0943045,9.42462093 C5.52940898,9.67608362 5.96272241,9.93029258 6.43197615,10.2038448 C5.33609554,11.3557254 5.22325972,12.6082627 6.00702092,13.948203 M21.2169314,6.95035227 C21.216812,7.64145675 20.9351404,8.18712839 20.3546031,8.56253138 C20.1725135,8.68026272 20.1061255,8.81351645 20.1070807,9.02987466 C20.1149613,10.9787702 20.1154389,12.9276657 20.1075583,14.8765613 C20.1066031,15.1011583 20.1733493,15.2353672 20.3654687,15.360621 C21.2223046,15.9190687 21.4873792,17.0688001 20.9746628,17.9258747 C20.4350807,18.8279643 19.3233195,19.1594269 18.4074986,18.6751284 C18.2207523,18.5763822 18.0768717,18.5821135 17.9017075,18.6834866 C16.1885135,19.6765613 14.4732896,20.666412 12.7554389,21.6514867 C12.5796777,21.7522628 12.5655881,21.9003225 12.5543642,22.0705911 C12.496215,22.9579941 11.8704239,23.6853971 11.0207523,23.8608001 C9.89657318,24.0926807 8.81585675,23.3109494 8.71424481,22.1702926 C8.68702093,21.8667702 8.57251347,21.6889792 8.30385675,21.5367404 C6.65334928,20.6015762 5.01215524,19.6496956 3.37275225,18.6949493 C3.18015524,18.5828299 3.03114031,18.5729195 2.826603,18.6773971 C1.89549852,19.1534568 0.797707466,18.8247404 0.28117015,17.9348299 C-0.236441792,17.0427702 0.019558209,15.9301732 0.890483586,15.3527404 C1.08725971,15.2222329 1.16045374,15.0752478 1.15949851,14.8420538 C1.15173732,12.9181135 1.15149851,10.9941732 1.1590209,9.07011347 C1.15997612,8.83632242 1.08821493,8.68850153 0.888692541,8.56074033 C0.202005971,8.12085974 -0.0951880601,7.38103884 0.0601552241,6.55608361 C0.201647762,5.80539704 0.785528361,5.2359642 1.55472239,5.06975525 C2.0229015,4.96850151 2.46099106,5.02653136 2.87340897,5.25877017 C3.02863285,5.34605375 3.15412539,5.34677017 3.31006569,5.25650151 C5.00188659,4.27668061 6.69502092,3.29888957 8.39436421,2.33208359 C8.62361795,2.20169553 8.69048362,2.0242627 8.70337914,1.7884418 C8.76045377,0.741994033 9.73788661,-0.0820059705 10.8597971,0.0313074628 C11.7130508,0.117635821 12.4827224,0.883367168 12.5446926,1.75966568 C12.5667821,2.07429255 12.7089911,2.24551643 12.9710807,2.39477016 C14.6123941,3.32909852 16.247618,4.27405375 17.8799762,5.2240239 C18.0755583,5.33793435 18.2299463,5.33733734 18.4323344,5.23668062 C19.7316777,4.59059106 21.2089314,5.50450152 21.2169314,6.95035227" id="Fill-482" fill-rule="nonzero"></path>
                            <path d="M6.47822092,12.2469493 C6.48347465,11.1571583 7.35451943,10.2420538 8.45075824,10.2192478 C8.79141496,10.2120836 9.04323586,10.1101135 9.29147467,9.88611347 C10.5448478,8.75309854 12.2809672,9.18533735 13.1421015,10.1664717 C13.4558926,10.5240836 13.6386986,10.9502329 13.7305195,11.409218 C13.7775642,11.6434866 13.8973254,11.7908299 14.0872956,11.9152478 C14.5607284,12.2249792 14.8238926,12.6768001 14.7733851,13.235009 C14.7148777,13.8790687 14.393803,14.3815165 13.7409075,14.5916657 C13.3590568,14.7145314 12.9696836,14.7139344 12.6088478,14.5139344 C12.431415,14.4157851 12.2709374,14.4144717 12.0887284,14.4867105 C11.2509971,14.8188896 10.4363105,14.7737553 9.66019109,14.3042627 C9.47260899,14.1907105 9.2967284,14.1829493 9.09338511,14.241218 C7.76466869,14.6213971 6.47141495,13.6327404 6.47822092,12.2469493" id="Fill-483"></path>
                            <path d="M19.3013374,16.5152598 C19.5570986,16.5215881 19.7691583,16.7343642 19.7597255,16.9749613 C19.750412,17.2100657 19.5176956,17.4209314 19.2739941,17.4148419 C19.0253971,17.4085135 18.837815,17.2135284 18.8398449,16.9633792 C18.8418747,16.6977075 19.0365016,16.508812 19.3013374,16.5152598" id="Fill-484"></path>
                            <path d="M10.1674747,1.92465672 C10.1876538,1.67200001 10.4055642,1.49038807 10.6634747,1.51152239 C10.9236538,1.53265672 11.1007284,1.74555225 11.0739821,2.00501493 C11.0490269,2.24549255 10.8295642,2.43438807 10.597206,2.41528359 C10.3518329,2.39522389 10.1484896,2.16298508 10.1674747,1.92465672" id="Fill-485"></path>
                            <path d="M19.2844299,7.40249555 C19.0329672,7.40177914 18.8469374,7.21754033 18.8432359,6.96548063 C18.8392956,6.69825674 19.0243702,6.5123463 19.2933852,6.51318212 C19.5456837,6.51401794 19.7612061,6.72189854 19.7597732,6.96297316 C19.7584598,7.20810749 19.5473553,7.40321197 19.2844299,7.40249555" id="Fill-486"></path>
                            <path d="M2.40300897,6.96150451 C2.39930747,7.221206 2.22211344,7.40150451 1.96897911,7.40305675 C1.69136717,7.40484779 1.48826269,7.20604182 1.49769553,6.94180301 C1.50677016,6.68962391 1.71154628,6.50645973 1.97685971,6.51362391 C2.22999404,6.52042988 2.40671046,6.70610152 2.40300897,6.96150451" id="Fill-487"></path>
                            <path d="M10.6145314,21.5154867 C10.8668299,21.5121434 11.0825911,21.7175165 11.080203,21.9590687 C11.0776956,22.2176956 10.8846209,22.4036061 10.6201433,22.402412 C10.3560239,22.4010986 10.1686806,22.2135165 10.1696359,21.951427 C10.1705911,21.7117852 10.367606,21.5187105 10.6145314,21.5154867" id="Fill-488"></path>
                            <path d="M1.96318807,16.5170031 C2.21190449,16.5162866 2.39853135,16.7014807 2.40282986,16.9529434 C2.40724777,17.2153911 2.2125015,17.4176598 1.95769553,17.4152717 C1.70288956,17.4131225 1.49787463,17.2095404 1.49882986,16.9601075 C1.49990448,16.7053016 1.6965612,16.5177195 1.96318807,16.5170031" id="Fill-489"></path>
                        </g>
                    </g>
                </g>
            </g>
        </g>
    </g>
</svg>