<?xml version="1.0" encoding="UTF-8"?>
<svg width="24px" height="24px" viewBox="0 0 24 24" version="1.1" xmlns="http://www.w3.org/2000/svg" xmlns:xlink="http://www.w3.org/1999/xlink">
    <!-- Generator: Sketch 52.5 (67469) - http://www.bohemiancoding.com/sketch -->
    <title>Crypto/coins/SYS</title>
    <desc>Created with Sketch.</desc>
    <g id="Crypto/coins/SYS" stroke="none" stroke-width="1" fill="none" fill-rule="evenodd">
        <g id="Group" transform="translate(-0.000000, -0.000000)">
            <g id="SYS">
                <g id="Page-1">
                    <g id="Artboard">
                        <g id="SYS">
                            <path d="M23.9914628,11.9941493 C23.9914628,18.5886568 18.6456717,23.9344479 12.0511642,23.9344479 C5.45665674,23.9344479 0.110865672,18.5886568 0.110865672,11.9941493 C0.110865672,5.39964181 5.45665674,0.0538507465 12.0511642,0.0538507465 C18.6456717,0.0538507465 23.9914628,5.39964181 23.9914628,11.9941493" id="Fill-271" fill="#F4F4F4"></path>
                            <path d="M2.2419224,14.0630568 C2.63069852,14.3308777 3.00729553,14.6191165 3.41063882,14.8631762 C5.02687763,15.8410866 6.78604182,16.4053851 8.65672839,16.6352359 C9.79475825,16.7750568 10.9301612,16.7800717 12.055415,16.5370866 C12.9167881,16.3510568 13.7417433,16.064609 14.4698627,15.550221 C14.8826389,15.2586389 15.2267583,14.902818 15.4055045,14.4197135 C15.6375045,13.792609 15.5146389,13.198818 15.2024001,12.6310568 C14.9096239,12.0987583 14.4986389,11.6656836 14.0455045,11.2690269 C13.9469971,11.1826986 13.846221,11.0988777 13.7464001,11.0139821 L13.7547583,10.9471165 C14.0504001,10.9733851 14.3535642,10.9666986 14.6402508,11.032012 C15.4624598,11.2193553 16.1454448,11.6481314 16.6920717,12.2939821 C17.2061016,12.9013851 17.2638926,13.5627583 16.9437732,14.2748777 C16.6613851,14.9031762 16.2136239,15.3978628 15.6841911,15.8232956 C14.5764896,16.7133254 13.3000717,17.1721911 11.8964896,17.336609 C9.99129556,17.5598926 8.13899705,17.3603702 6.33625077,16.7105792 C4.84622092,16.1733851 3.52132539,15.3676538 2.39177314,14.2499224 C2.33493732,14.1936836 2.26269852,14.1528478 2.19762389,14.1048478 C2.21242986,14.0908777 2.22711643,14.0769075 2.2419224,14.0630568" id="Fill-273" fill="#2885C4"></path>
                            <path d="M10.1945791,11.6551762 C9.49392243,11.4695045 8.8007881,11.2523105 8.27147466,10.7087881 C7.81893735,10.2440717 7.76365376,9.6649672 8.10192242,9.05601198 C8.48759407,8.36144481 9.09535526,7.90019108 9.76723586,7.51248958 C10.6305194,7.01434033 11.5798926,6.79535525 12.5563702,6.67571346 C14.147415,6.48084779 15.7324896,6.5533254 17.3139822,6.79296719 C18.8281314,7.02245973 20.2990568,7.4013254 21.7002508,8.02938511 C21.7728479,8.06186272 21.8436538,8.09851944 21.9045493,8.15953436 C21.5327284,8.02257914 21.1631762,7.87905675 20.788609,7.75022093 C18.7569672,7.05123585 16.6664598,6.74711645 14.5212657,6.85529555 C13.3139821,6.91619107 12.124012,7.09254928 11.0074747,7.59177317 C10.7561314,7.70413138 10.5111165,7.84359406 10.2889075,8.00574332 C9.41141496,8.6451463 9.15816123,9.53613138 9.58681795,10.536012 C9.75195228,10.9210866 9.98634034,11.2763105 10.1945791,11.6551762" id="Fill-275" fill="#2885C4"></path>
                            <path d="M17.1784956,15.9127642 C17.4318687,15.7313911 17.6914508,15.5675702 17.9259583,15.373421 C18.4969434,14.9007045 18.8949135,14.3223165 18.9425553,13.5553911 C18.9827941,12.9096598 18.7640478,12.3325851 18.4286449,11.798615 C17.7603463,10.7347344 16.7580777,10.1328239 15.5800478,9.78715228 C15.0361672,9.62751049 14.4797493,9.5599284 13.9131821,9.60661497 C13.7761075,9.61783885 13.6376001,9.64112243 13.5055404,9.67909258 C13.0404657,9.81282392 12.9436299,10.0062568 13.1092418,10.4475702 C13.0964657,10.4449433 13.0804657,10.4464956 13.0723463,10.4390926 C12.8553911,10.2423165 12.5938986,10.0455403 12.6651821,9.71539109 C12.7353911,9.39049556 13.0461971,9.31765974 13.3259583,9.25580899 C14.1802866,9.06727168 15.027809,9.15873437 15.8618389,9.37007765 C17.1441075,9.69509258 18.2353314,10.3398687 19.0545553,11.3963463 C19.4565852,11.9147941 19.7137792,12.4948538 19.7088837,13.1696001 C19.7044658,13.7704359 19.4687643,14.2761075 19.0772419,14.7143165 C18.5744359,15.2770628 17.932406,15.6337195 17.2450031,15.9181374 C17.2280478,15.9251822 17.2040478,15.9152717 17.1784956,15.9127642" id="Fill-277" fill="#2885C4"></path>
                            <path d="M10.9196896,12.3300896 C11.0142568,12.5422687 11.1410627,12.7465672 11.1952717,12.9687762 C11.2654806,13.2562986 11.1281672,13.4728956 10.8303762,13.5457314 C10.5721075,13.6088956 10.294018,13.6559404 10.0326448,13.6302687 C8.74297317,13.5032239 7.59765973,13.0414926 6.70213734,12.0709851 C5.79204779,11.0844777 5.76494331,9.9704478 6.61760003,8.93271646 C7.1125254,8.33020899 7.74595824,7.91385078 8.47073436,7.626806 C8.40303287,7.67098511 8.33545078,7.71564182 8.26751048,7.75958212 C7.73951048,8.10119406 7.28231645,8.5145672 6.96912242,9.06788063 C6.50774928,9.88292541 6.52351047,10.6934329 7.06500301,11.4578508 C7.8361075,12.5464478 8.91957019,13.0400598 10.2413612,13.0332538 C10.3343762,13.0327762 10.430615,13.0120001 10.5195702,12.9831045 C10.7931224,12.8941493 10.8764657,12.763403 10.8573612,12.4763583 C10.854615,12.4360001 10.8529433,12.3956418 10.8507941,12.3552836 L10.9196896,12.3300896 Z" id="Fill-279" fill="#2885C4"></path>
                        </g>
                    </g>
                </g>
            </g>
        </g>
    </g>
</svg>