<?xml version="1.0" encoding="UTF-8"?>
<svg width="24px" height="24px" viewBox="0 0 24 24" version="1.1" xmlns="http://www.w3.org/2000/svg" xmlns:xlink="http://www.w3.org/1999/xlink">
    <!-- Generator: Sketch 52.5 (67469) - http://www.bohemiancoding.com/sketch -->
    <title>Crypto/coins/TRX</title>
    <desc>Created with Sketch.</desc>
    <g id="Crypto/coins/TRX" stroke="none" stroke-width="1" fill="none" fill-rule="evenodd">
        <g id="Group" transform="translate(-0.000000, -0.000000)">
            <g id="TRX">
                <g id="Page-1">
                    <g id="Artboard">
                        <g id="TRX">
                            <path d="M23.9597374,12.0278448 C23.9597374,18.6223523 18.6139463,23.9681434 12.0194389,23.9681434 C5.42493137,23.9681434 0.0791402988,18.6223523 0.0791402988,12.0278448 C0.0791402988,5.43333734 5.42493137,0.087546269 12.0194389,0.087546269 C18.6139463,0.087546269 23.9597374,5.43333734 23.9597374,12.0278448" id="Fill-435" fill="#020100"></path>
                            <path d="M5.15022092,4.61203584 L16.6357135,7.25920003 C16.6680717,7.26660302 16.6986389,7.28009555 16.7259822,7.29896122 L19.0975643,8.93311048 C19.2179225,9.01609556 19.2477732,9.18122989 19.1639523,9.30099108 L11.1569075,20.7455284 C11.0352359,20.9193792 10.7683702,20.8853493 10.6943403,20.686424 L4.84431047,4.96045375 C4.77123584,4.76391644 4.94592241,4.56487166 5.15022092,4.61203584" id="Fill-436" fill="#FFFFFF"></path>
                            <polygon id="Fill-437" fill="#020100" points="5.57361196 5.57856719 15.9720598 7.97510451 18.2502687 9.54501497 10.9373135 19.9973135"></polygon>
                            <path d="M10.9387583,20.8833792 C10.9307583,20.8833792 10.9226389,20.883021 10.9145194,20.8821852 C10.7832956,20.8689314 10.6876538,20.7517971 10.7009075,20.6206926 L11.4998329,12.6923344 L4.94389256,5.17114032 C4.85732539,5.07167763 4.86759405,4.92087166 4.96705674,4.83418509 C5.06651942,4.74749853 5.21732539,4.75788659 5.30401196,4.85734927 L11.9278926,12.4565135 C11.9711165,12.5063045 11.992012,12.5717374 11.9854448,12.6372896 L11.176012,20.6684538 C11.1637135,20.7915583 11.0598329,20.8833792 10.9387583,20.8833792" id="Fill-438" fill="#FFFFFF"></path>
                            <path d="M11.7479284,12.8522389 C11.6733015,12.8522389 11.6007045,12.8172538 11.5544956,12.7537314 C11.4875105,12.6613135 11.4951523,12.5345075 11.5728836,12.4509254 L16.2213613,7.44961197 C16.3111523,7.35301496 16.4621971,7.34728361 16.5589135,7.43719406 C16.6555105,7.52698511 16.6610031,7.67814929 16.571212,7.7747463 L12.7504359,11.8854329 L18.7653613,9.09725377 C18.8852419,9.04197019 19.0270926,9.09367168 19.0824956,9.21343287 C19.138018,9.33307467 19.0859583,9.47504482 18.9663165,9.5305672 L11.8482269,12.8300299 C11.8159881,12.8450747 11.7817195,12.8522389 11.7479284,12.8522389" id="Fill-439" fill="#FFFFFF"></path>
                        </g>
                    </g>
                </g>
            </g>
        </g>
    </g>
</svg>