<?xml version="1.0" encoding="UTF-8"?>
<svg width="24px" height="24px" viewBox="0 0 24 24" version="1.1" xmlns="http://www.w3.org/2000/svg" xmlns:xlink="http://www.w3.org/1999/xlink">
    <!-- Generator: Sketch 52.5 (67469) - http://www.bohemiancoding.com/sketch -->
    <title>Crypto/coins/USDT</title>
    <desc>Created with Sketch.</desc>
    <g id="Crypto/coins/USDT" stroke="none" stroke-width="1" fill="none" fill-rule="evenodd">
        <g id="Group" transform="translate(-0.000000, -0.000000)">
            <g id="USDT">
                <g id="Page-1">
                    <g id="Artboard">
                        <g id="USDT">
                            <path d="M23.9785792,11.9958448 C23.9785792,18.5903523 18.6327881,23.9361434 12.0382806,23.9361434 C5.44377316,23.9361434 0.09798209,18.5903523 0.09798209,11.9958448 C0.09798209,5.40133734 5.44377316,0.0555462689 12.0382806,0.0555462689 C18.6327881,0.0555462689 23.9785792,5.40133734 23.9785792,11.9958448" id="Fill-692" fill="#1BA27A"></path>
                            <polygon id="Fill-694" fill="#FFFFFF" points="17.6421732 6.0765851 6.3357851 6.0765851 6.3357851 8.80601795 10.6242627 8.80601795 10.6242627 12.8179583 13.3536956 12.8179583 13.3536956 8.80601795 17.6421732 8.80601795"></polygon>
                            <path d="M12.0149493,13.2454329 C8.4673672,13.2454329 5.59142689,12.6840001 5.59142689,11.9913433 C5.59142689,11.298806 8.4673672,10.7372538 12.0149493,10.7372538 C15.562412,10.7372538 18.4383523,11.298806 18.4383523,11.9913433 C18.4383523,12.6840001 15.562412,13.2454329 12.0149493,13.2454329 M19.2274866,12.200418 C19.2274866,11.3072836 15.9983523,10.5832239 12.0149493,10.5832239 C8.0315463,10.5832239 4.80229256,11.3072836 4.80229256,12.200418 C4.80229256,12.986806 7.30629257,13.6420896 10.6242627,13.787403 L10.6242627,19.5466866 L13.3536956,19.5466866 L13.3536956,13.7896717 C16.6973374,13.6488956 19.2274866,12.9909851 19.2274866,12.200418" id="Fill-696" fill="#FFFFFF" fill-rule="nonzero"></path>
                        </g>
                    </g>
                </g>
            </g>
        </g>
    </g>
</svg>