<?xml version="1.0" encoding="UTF-8"?>
<svg width="24px" height="24px" viewBox="0 0 24 24" version="1.1" xmlns="http://www.w3.org/2000/svg" xmlns:xlink="http://www.w3.org/1999/xlink">
    <!-- Generator: Sketch 52.5 (67469) - http://www.bohemiancoding.com/sketch -->
    <title>Crypto/coins/VEN</title>
    <desc>Created with Sketch.</desc>
    <defs>
        <linearGradient x1="12.3059075%" y1="5.86975897%" x2="85.8469904%" y2="59.8879541%" id="linearGradient-1">
            <stop stop-color="#B290D8" offset="0%"></stop>
            <stop stop-color="#26BFE2" offset="100%"></stop>
        </linearGradient>
    </defs>
    <g id="Crypto/coins/VEN" stroke="none" stroke-width="1" fill="none" fill-rule="evenodd">
        <g id="Group" transform="translate(-0.000000, -0.000000)">
            <g id="VEN">
                <g id="Page-1">
                    <g id="Artboard">
                        <g id="VEN">
                            <path d="M23.9537314,12.0526806 C23.9537314,18.6471881 18.6079404,23.9929792 12.0134329,23.9929792 C5.4189254,23.9929792 0.0731343287,18.6471881 0.0731343287,12.0526806 C0.0731343287,5.45817316 5.4189254,0.11238209 12.0134329,0.11238209 C18.6079404,0.11238209 23.9537314,5.45817316 23.9537314,12.0526806" id="Fill-381" fill="#F4F4F4"></path>
                            <path d="M19.3707463,4.42973136 C19.3234628,4.42973136 19.2804777,4.45683584 19.259821,4.4991045 L14.1924777,14.8968359 C13.7579702,15.7881792 12.4878806,15.7892538 12.0521792,14.8983881 L6.99271645,4.55570151 C6.95522391,4.47868659 6.87701495,4.42973136 6.79116421,4.42973136 L4.16143285,4.42973136 C3.99498509,4.42973136 3.88644778,4.60417912 3.96000002,4.75343286 L10.9486568,18.9585672 C11.4224478,19.9216717 12.7984478,19.9125971 13.2593433,18.9431643 L20.0783284,4.60608957 C20.117015,4.52417912 20.0576717,4.42973136 19.9669255,4.42973136 L19.3707463,4.42973136 Z" id="Fill-383" fill="url(#linearGradient-1)"></path>
                            <polygon id="Fill-385" fill="#FFFFFF" opacity="0.200000003" points="10.3302687 17.7018508 4.23498509 5.31200002 8.60967168 10.3862687"></polygon>
                            <polygon id="Fill-387" fill="#FFFFFF" opacity="0.200000003" points="11.4651941 13.6982687 8.60967168 10.3862687 7.46579108 5.52274629"></polygon>
                            <path d="M8.60967168,10.3862687 L4.23498509,5.31200002 L3.96000002,4.75319405 C3.88668658,4.60417912 3.99498509,4.42961196 4.16119405,4.42961196 L6.79128361,4.42961196 C6.87689555,4.42961196 6.95510451,4.47880599 6.99283585,4.55582091 L7.46579108,5.52274629 L8.60967168,10.3862687 Z" id="Fill-389" fill="#FFFFFF" opacity="0.100000001"></path>
                        </g>
                    </g>
                </g>
            </g>
        </g>
    </g>
</svg>