<?xml version="1.0" encoding="UTF-8"?>
<svg width="24px" height="24px" viewBox="0 0 24 24" version="1.1" xmlns="http://www.w3.org/2000/svg" xmlns:xlink="http://www.w3.org/1999/xlink">
    <!-- Generator: Sketch 52.5 (67469) - http://www.bohemiancoding.com/sketch -->
    <title>Crypto/coins/VTC</title>
    <desc>Created with Sketch.</desc>
    <g id="Crypto/coins/VTC" stroke="none" stroke-width="1" fill="none" fill-rule="evenodd">
        <g id="Group" transform="translate(-0.000000, -0.000000)">
            <g id="VTC">
                <g id="Page-1">
                    <g id="Artboard">
                        <g id="VTC">
                            <path d="M23.9437732,12.0205015 C23.9437732,18.6151284 18.5981016,23.9608001 12.0034747,23.9608001 C5.40884778,23.9608001 0.0631761197,18.6151284 0.0631761197,12.0205015 C0.0631761197,5.42706868 5.40884778,0.0802029854 12.0034747,0.0802029854 C15.7419822,0.0802029854 19.0781016,1.79841195 21.2667583,4.48736718 C22.4213852,5.90348659 23.256012,7.58945675 23.6619822,9.43662093 C23.8470568,10.2688597 23.9437732,11.1333374 23.9437732,12.0205015" id="Fill-114" fill="#006700"></path>
                            <path d="M23.6619941,9.43660899 L14.5288598,18.5697434 L5.4840836,9.5249672 L9.15691944,5.85213137 L14.5288598,11.2252657 L21.2667702,4.48735524 C22.4213971,5.90347465 23.256024,7.58944481 23.6619941,9.43660899" id="Fill-116" fill="#FFFFFF"></path>
                        </g>
                    </g>
                </g>
            </g>
        </g>
    </g>
</svg>