<?xml version="1.0" encoding="UTF-8"?>
<svg width="24px" height="24px" viewBox="0 0 24 24" version="1.1" xmlns="http://www.w3.org/2000/svg" xmlns:xlink="http://www.w3.org/1999/xlink">
    <!-- Generator: Sketch 52.5 (67469) - http://www.bohemiancoding.com/sketch -->
    <title>Crypto/coins/WAVES</title>
    <desc>Created with Sketch.</desc>
    <g id="Crypto/coins/WAVES" stroke="none" stroke-width="1" fill="none" fill-rule="evenodd">
        <g id="Group" transform="translate(-0.000000, -0.000000)">
            <g id="WAVES">
                <g id="Page-1">
                    <g id="Artboard">
                        <g id="WAVES">
                            <path d="M11.9577672,23.9952001 C5.37376719,23.9952001 0.0174686568,18.6389016 0.0174686568,12.0549015 C0.0174686568,5.47090152 5.37376719,0.114602986 11.9577672,0.114602986 C18.5417672,0.114602986 23.8980658,5.47090152 23.8980658,12.0549015 C23.8980658,18.6389016 18.5417672,23.9952001 11.9577672,23.9952001" id="Fill-1" fill="#C9C9C9"></path>
                            <path d="M11.9577672,0.845886571 C5.77711047,0.845886571 0.748811943,5.8743045 0.748811943,12.0548418 C0.748811943,18.2354986 5.77711047,23.2639165 11.9577672,23.2639165 C18.138424,23.2639165 23.1667225,18.2354986 23.1667225,12.0548418 C23.1667225,5.8743045 18.138424,0.845886571 11.9577672,0.845886571" id="Fill-3" fill="#FFFFFF"></path>
                            <path d="M7.84378511,11.1059702 L5.95829256,9.22047765 C5.63865077,8.90071645 5.63865077,8.38238809 5.95829256,8.0627463 L10.9679642,3.05307464 C11.5145911,2.50644777 12.4008001,2.50644777 12.9474269,3.05307464 L18.0406807,8.14859705 C18.3604419,8.46847765 18.3602031,8.98692541 18.0403225,9.3065672 L16.1625911,11.1822687 C15.9606807,11.3841792 15.6308896,11.3841792 15.4264717,11.1822687 L12.6815165,8.43719407 C12.287606,8.04340302 11.6449792,8.04089556 11.2510687,8.43719407 L8.57990451,11.1059702 C8.37811347,11.3102687 8.04808362,11.3102687 7.84378511,11.1059702" id="Fill-5" fill="#2FAFD7"></path>
                            <path d="M20.6629852,13.2404777 L12.947403,20.9585673 C12.4007762,21.5050747 11.5145672,21.5050747 10.9679403,20.9585673 L3.25235822,13.2404777 C2.70573135,12.6938508 2.70573135,11.8101493 3.25235822,11.2635224 L4.4672836,10.0485971 C4.779403,9.73647765 5.28519405,9.73647765 5.59731346,10.0485971 L7.49665675,11.9479403 C7.8905672,12.3418508 8.53319407,12.3418508 8.92949257,11.9479403 L11.5982687,9.27677616 C11.8000598,9.07486571 12.1299702,9.07486571 12.3343881,9.27677616 L15.0793433,12.0217314 C15.2763583,12.2212538 15.5348657,12.3197612 15.7957613,12.3197612 C16.0542687,12.3197612 16.3152837,12.2212538 16.5121792,12.0217314 L18.4017314,10.1322985 C18.7137314,9.82017915 19.2197613,9.82017915 19.5317613,10.1322985 L20.6629852,11.2635224 C21.209612,11.8101493 21.209612,12.6938508 20.6629852,13.2404777" id="Fill-7" fill="#D8D8D8"></path>
                        </g>
                    </g>
                </g>
            </g>
        </g>
    </g>
</svg>