<?xml version="1.0" encoding="UTF-8"?>
<svg width="24px" height="24px" viewBox="0 0 24 24" version="1.1" xmlns="http://www.w3.org/2000/svg" xmlns:xlink="http://www.w3.org/1999/xlink">
    <!-- Generator: Sketch 52.5 (67469) - http://www.bohemiancoding.com/sketch -->
    <title>Crypto/coins/WTC</title>
    <desc>Created with Sketch.</desc>
    <g id="Crypto/coins/WTC" stroke="none" stroke-width="1" fill="none" fill-rule="evenodd">
        <g id="Group" transform="translate(-0.000000, -0.000000)">
            <g id="WTC">
                <g id="Page-1">
                    <g id="Artboard">
                        <g id="WTC">
                            <path d="M23.9003344,12.000215 C23.9003344,18.5947225 18.5545434,23.9405135 11.9600359,23.9405135 C5.36552838,23.9405135 0.0197373135,18.5947225 0.0197373135,12.000215 C0.0197373135,5.40570749 5.36552838,0.0599164182 11.9600359,0.0599164182 C18.5545434,0.0599164182 23.9003344,5.40570749 23.9003344,12.000215" id="Fill-216" fill="#0C2A92"></path>
                            <path d="M18.1443822,10.4910568 C16.2543523,10.4910568 13.9277851,10.7502806 11.5095165,11.2341015 C8.82068063,11.772012 6.34306868,12.5223404 4.53303882,13.3471762 C2.79417315,14.1395344 1.86199404,14.9185195 1.97506866,15.4844896 C2.0882627,16.0504598 3.24862091,16.410818 5.15835226,16.4732657 C7.14641197,16.538221 9.72205377,16.2779225 12.4107702,15.740012 C15.099606,15.2021016 17.577218,14.4516538 19.3871284,13.6269374 C21.1259941,12.8345792 22.0582926,12.0555941 21.9450986,11.4896239 C21.8319046,10.9236538 20.6716658,10.5632956 18.761815,10.5008478 C18.561815,10.4942806 18.3557254,10.4910568 18.1443822,10.4910568 M5.77494928,16.7126687 C5.56109853,16.7127881 5.35321793,16.7094448 5.15094928,16.7028777 C3.69697912,16.6552359 1.92671046,16.413206 1.74987463,15.5295045 C1.65232239,15.0417433 2.03942687,14.2309971 4.43775524,13.1381015 C6.26342689,12.3063403 8.75882989,11.5501612 11.4643821,11.0087881 C14.1699344,10.4676538 16.7644419,10.2055642 18.7693374,10.2712359 C20.2233075,10.3187583 21.9935762,10.5609075 22.1702926,11.444609 C22.2678449,11.9323702 21.8807404,12.7431165 19.482412,13.836012 C17.6568598,14.6677732 15.1614568,15.4239523 12.4557851,15.965206 C10.0231881,16.4518926 7.68026272,16.7126687 5.77494928,16.7126687" id="Fill-218" fill="#FFFFFF" fill-rule="nonzero"></path>
                            <path d="M20.247809,8.53997615 L18.4355105,9.43299108 L18.0807643,10.3897672 L16.4277493,14.846006 C15.4684657,15.1439165 14.4193911,15.422603 13.3097792,15.669409 L11.9067941,11.6790806 L11.6215403,11.653409 L10.0144956,16.2715583 L9.80960004,16.859618 L8.15085377,17.4977075 L7.79336123,16.5212299 L6.32219704,12.5047523 L4.55252539,7.67215526 L6.79801794,7.67215526 L8.38595824,11.8600956 L8.8400478,13.0571105 L9.41031646,11.589409 L10.9323463,7.67215526 L12.7189732,7.67215526 L13.8602269,10.7200359 L14.7353314,13.0571105 L15.677421,10.5079762 L16.7258986,7.67215526 L18.9715105,6.6259463 L20.247809,8.53997615 Z" id="Fill-220" fill="#FFFFFF"></path>
                        </g>
                    </g>
                </g>
            </g>
        </g>
    </g>
</svg>