<?xml version="1.0" encoding="UTF-8"?>
<svg width="24px" height="24px" viewBox="0 0 24 24" version="1.1" xmlns="http://www.w3.org/2000/svg" xmlns:xlink="http://www.w3.org/1999/xlink">
    <!-- Generator: Sketch 52.5 (67469) - http://www.bohemiancoding.com/sketch -->
    <title>Crypto/coins/XEM</title>
    <desc>Created with Sketch.</desc>
    <g id="Crypto/coins/XEM" stroke="none" stroke-width="1" fill="none" fill-rule="evenodd">
        <g id="Group" transform="translate(0.059701, -0.000000)">
            <g id="XEM">
                <g id="Page-1">
                    <g id="Artboard">
                        <g id="XEM">
                            <path d="M18.597624,18.2550568 C18.7809075,14.0741613 16.3631165,12.039415 15.0550568,11.249206 C14.1862807,10.7239523 13.4704598,9.97338512 13.0369075,9.05589258 C11.5009075,5.81147465 13.7231165,3.21278807 13.7231165,3.21278807 C15.0674747,1.52574329 16.7509374,0.638340301 19.1186986,1.14496717 C19.1195344,1.14520597 19.1195344,1.14496717 19.1203702,1.14580299 C20.7901016,1.67762389 22.3797135,2.38938508 23.8652061,3.25983285 C23.8661613,3.30019106 23.8661613,3.34066867 23.8661613,3.38114628 C23.8661613,9.01792243 21.8924299,14.1939224 18.597624,18.2550568" id="Fill-630" fill="#67AFE2"></path>
                            <path d="M16.0234031,20.9627225 C14.7749254,22.0849911 13.4059702,23.0761553 11.9386269,23.9141255 C7.24811943,21.2353195 3.56441793,16.9956777 1.5957015,11.9031403 C3.42817912,12.8445135 5.65528361,13.6595583 7.2267463,13.1492299 C10.3646568,12.1310806 12.6495523,10.4522747 15.677612,13.1772896 C17.3793434,14.7091105 17.7481792,16.6756777 17.3356419,18.6909613 C17.155821,19.5689314 16.6900299,20.3635583 16.0234031,20.9627225" id="Fill-632" fill="#1EBBAD"></path>
                            <path d="M15.9832359,0.378650748 C14.1095642,1.10366568 11.6644299,2.64456121 11.4629971,5.7759045 C11.4596538,5.82629256 11.4621612,5.87668062 11.4604896,5.9279045 C11.4324299,6.70665077 11.4803105,10.628203 7.48842988,11.9733971 C7.48842988,11.9733971 4.63445972,12.9657553 2.25201195,10.937815 C1.27493732,10.1061732 0.634579107,8.94581496 0.402459703,7.68396421 C0.138937314,6.25077018 0.00472835823,4.7720836 0.0122507463,3.26068061 C0.0123701493,3.2604418 0.0126089553,3.2600836 0.0127283583,3.25972539 C3.51314628,1.20945672 7.589206,0.0334567166 11.9385792,0.0334567166 C13.3176836,0.0334567166 14.6694448,0.151546269 15.9832359,0.378650748" id="Fill-634" fill="#F7A800"></path>
                        </g>
                    </g>
                </g>
            </g>
        </g>
    </g>
</svg>