<?xml version="1.0" encoding="UTF-8"?>
<svg width="24px" height="24px" viewBox="0 0 24 24" version="1.1" xmlns="http://www.w3.org/2000/svg" xmlns:xlink="http://www.w3.org/1999/xlink">
    <!-- Generator: Sketch 52.5 (67469) - http://www.bohemiancoding.com/sketch -->
    <title>Crypto/coins/XLM</title>
    <desc>Created with Sketch.</desc>
    <g id="Crypto/coins/XLM" stroke="none" stroke-width="1" fill="none" fill-rule="evenodd">
        <g id="Group" transform="translate(-0.000000, -0.000000)">
            <g id="XLM">
                <g id="Page-1">
                    <g id="Artboard">
                        <g id="XLM">
                            <path d="M11.9706986,0.0231283583 C5.37619107,0.0231283583 0.0304000001,5.36891943 0.0304000001,11.9634269 C0.0304000001,18.5579344 5.37619107,23.9037255 11.9706986,23.9037255 C18.565206,23.9037255 23.9109971,18.5579344 23.9109971,11.9634269 C23.9109971,5.36891943 18.565206,0.0231283583 11.9706986,0.0231283583" id="Fill-636" fill="#5B7373"></path>
                            <path d="M11.9706986,0.620143286 C18.2253852,0.620143286 23.3139822,5.70874032 23.3139822,11.9634269 C23.3139822,18.2181135 18.2253852,23.3067105 11.9706986,23.3067105 C5.71601196,23.3067105 0.627414928,18.2181135 0.627414928,11.9634269 C0.627414928,5.70874032 5.71601196,0.620143286 11.9706986,0.620143286" id="Fill-638" fill="#FFFFFF"></path>
                            <path d="M10.9857433,13.1610627 L9.80663885,12.3613015 C9.80663885,12.3613015 7.2573851,14.3605851 8.24831048,16.5765851 C8.35565377,16.8163463 8.5890866,16.9750329 8.85153437,16.9874508 C9.60245974,17.0230329 11.1904,16.7362269 12.1648478,13.9608239 L10.9857433,13.1610627 Z" id="Fill-640" fill="#FF8B00"></path>
                            <path d="M14.2584836,10.9001672 C14.2584836,10.9001672 17.3253493,13.0853612 14.7623642,17.090615 C14.7472001,17.1142568 14.7106627,17.1080478 14.704812,17.0804657 C14.6152598,16.6635105 14.1006329,14.6323463 12.401409,13.6379583 L14.2584836,10.9001672 Z" id="Fill-642" fill="#5B7373"></path>
                            <path d="M11.8840717,9.28968362 C11.8840717,9.28968362 8.71977317,7.24825078 5.94616122,11.1105792 C5.92968361,11.1335045 5.94914629,11.1651463 5.97684779,11.1603702 C6.3973851,11.0894448 8.47487765,10.8164896 10.0271165,12.0274747 L11.8840717,9.28968362 Z" id="Fill-644" fill="#5B7373"></path>
                            <path d="M17.8243702,8.72007168 C19.135415,6.2133254 17.4919523,3.57750449 17.4919523,3.57750449 C17.4919523,3.57750449 14.4352359,3.02526568 12.5910568,5.17034032 C11.2840717,6.69057913 9.71750452,9.56281795 8.91583287,11.1071762 C8.60813138,11.6996538 8.79320601,12.4287284 9.34568362,12.8035344 L10.6390568,13.6806687 L11.9324299,14.5580419 C12.4849075,14.9327284 13.2306986,14.8350568 13.6675941,14.330221 C14.8059822,13.0141612 16.8951762,10.4965493 17.8243702,8.72007168" id="Fill-646" fill="#E6FFFF"></path>
                            <path d="M16.6002508,3.5136836 C15.5541613,3.5136836 13.8084896,3.75428061 12.5910568,5.17040002 C11.2840717,6.69063883 9.71750452,9.56275825 8.91583287,11.1071165 C8.60813138,11.6997135 8.79320601,12.4286687 9.34568362,12.8034747 L10.6390568,13.6807284 L11.9324299,14.5579822 C12.1578627,14.7109374 12.4156538,14.785206 12.671415,14.785206 C13.0422807,14.785206 13.4089672,14.6290269 13.6674747,14.3301613 C14.8058627,13.0141015 16.8951762,10.496609 17.8243702,8.72013138 C19.135415,6.2133851 17.4919523,3.57744479 17.4919523,3.57744479 C17.4919523,3.57744479 17.1387583,3.5136836 16.6002508,3.5136836 M16.6002508,3.99129554 C16.8463404,3.99129554 17.0505195,4.0058627 17.192012,4.02007166 C17.510221,4.63248957 18.381624,6.62425077 17.401206,8.49875824 C16.4973254,10.2267583 14.4476538,12.6982806 13.3062807,14.0176836 C13.1469971,14.2019224 12.9154747,14.3075941 12.671415,14.3075941 C12.5030568,14.3075941 12.3401911,14.2574448 12.2004896,14.1627583 L10.9071165,13.2855045 L9.61386273,12.4082508 C9.26162392,12.1693254 9.14377317,11.704609 9.33959407,11.3271762 C10.1435344,9.77887765 11.681803,6.96060898 12.953206,5.4816836 C14.0680717,4.18496718 15.7167881,3.99129554 16.6002508,3.99129554" id="Fill-648" fill="#5B7373" fill-rule="nonzero"></path>
                            <path d="M14.388203,7.86174332 C13.7815165,7.45028063 13.6234269,6.62496719 14.0348896,6.01840003 C14.4462329,5.41171346 15.2715463,5.2536239 15.8782329,5.66508659 C16.4848001,6.07642988 16.643009,6.90174331 16.2315463,7.50842988 C15.8200836,8.11499705 14.9947702,8.273206 14.388203,7.86174332 M16.1411583,5.2773851 C15.3205016,4.72072838 14.2038448,4.93469853 13.6471881,5.75547465 C13.0905314,6.57613137 13.3045015,7.69266869 14.1252777,8.24944481 C14.9459344,8.80610153 16.0624717,8.59201198 16.6192478,7.77135526 C17.1759045,6.95057913 16.961815,5.83404182 16.1411583,5.2773851" id="Fill-650" fill="#5B7373" fill-rule="nonzero"></path>
                            <polygon id="Fill-652" fill="#5B7373" points="5.05349256 20.4499583 4.85802987 20.3128837 7.24608958 16.9098986 7.44155227 17.0469732"></polygon>
                            <polygon id="Fill-654" fill="#5B7373" points="6.48703286 20.1505195 6.29025674 20.0152359 7.60368958 18.1047881 7.8004657 18.2400717"></polygon>
                        </g>
                    </g>
                </g>
            </g>
        </g>
    </g>
</svg>