<?xml version="1.0" encoding="UTF-8"?>
<svg width="24px" height="24px" viewBox="0 0 24 24" version="1.1" xmlns="http://www.w3.org/2000/svg" xmlns:xlink="http://www.w3.org/1999/xlink">
    <!-- Generator: Sketch 52.5 (67469) - http://www.bohemiancoding.com/sketch -->
    <title>Crypto/coins/XMR</title>
    <desc>Created with Sketch.</desc>
    <g id="Crypto/coins/XMR" stroke="none" stroke-width="1" fill="none" fill-rule="evenodd">
        <g id="Group" transform="translate(-0.000000, -0.000000)">
            <g id="XMR">
                <g id="Page-1">
                    <g id="Artboard">
                        <g id="XMR">
                            <path d="M23.9785792,11.9680239 C23.9785792,18.5625314 18.6327881,23.9083225 12.0382806,23.9083225 C5.44377316,23.9083225 0.09798209,18.5625314 0.09798209,11.9680239 C0.09798209,5.37351644 5.44377316,0.0277253732 12.0382806,0.0277253732 C18.6327881,0.0277253732 23.9785792,5.37351644 23.9785792,11.9680239" id="Fill-609" fill="#FFFFFF"></path>
                            <path d="M22.1987225,18.2417553 C21.5510807,19.2901135 20.7445135,20.2300538 19.8136478,21.0295762 C19.7600359,21.076024 19.706424,21.1216359 19.6517374,21.1661732 C18.9971702,21.7094568 18.2826628,22.183009 17.5207523,22.5766807 C17.3982448,22.6415165 17.2749016,22.7031285 17.149409,22.7608001 C15.6001553,23.4975165 13.8667821,23.9083822 12.0382448,23.9083822 C10.1704239,23.9083822 8.40254332,23.4792479 6.82809555,22.7132777 C6.7460657,22.6748299 6.66511048,22.6343523 6.58427465,22.5918449 C5.82128958,22.2002031 5.10582689,21.7277255 4.44911047,21.1852777 C4.37531942,21.1255762 4.3023642,21.0639643 4.230603,21.0022329 C3.31275225,20.2089195 2.51848359,19.2779344 1.87788657,18.2417553 L6.82809555,18.2417553 L6.82809555,11.8840239 L10.2898269,15.3457553 L10.8037374,15.8597851 L12.0605732,17.1165016 L13.3163344,15.8597851 L13.8313195,15.3457553 L17.149409,12.0267105 L17.149409,18.2417553 L22.1987225,18.2417553 Z" id="Fill-610" fill="#4C4C4C"></path>
                            <path d="M23.9785792,11.9680239 C23.9785792,13.3311284 23.7499225,14.6403822 23.329027,15.8597254 L19.8136837,15.8597254 L19.8136837,5.82080002 L17.1494448,8.48515824 L12.060609,13.5749493 L4.23051942,5.74485973 L4.23051942,15.8597254 L0.747653734,15.8597254 C0.326638807,14.6403822 0.09798209,13.3311284 0.09798209,11.9680239 C0.09798209,9.99178512 0.578579107,8.12790451 1.42956419,6.48563585 C1.82323583,5.7237254 2.29690747,5.00921793 2.84031046,4.35453136 C3.26323583,3.84360599 3.72866867,3.36802389 4.23051942,2.93387464 C5.01380301,2.25685971 5.88604182,1.67918807 6.82801197,1.22282986 C8.40257914,0.4567403 10.1703403,0.0277253732 12.0382806,0.0277253732 C13.8666986,0.0277253732 15.6001911,0.438591047 17.1494448,1.17518806 C18.1156538,1.6326209 19.0111762,2.21745673 19.8136837,2.90653136 C20.3357135,3.35488957 20.8195344,3.84766569 21.2555941,4.37888957 C21.7979225,5.03560599 22.2705195,5.75094928 22.6621613,6.51393436 C23.5039523,8.14915824 23.9785792,10.0028896 23.9785792,11.9680239" id="Fill-611" fill="#FF6600"></path>
                        </g>
                    </g>
                </g>
            </g>
        </g>
    </g>
</svg>