<?xml version="1.0" encoding="UTF-8"?>
<svg width="24px" height="24px" viewBox="0 0 24 24" version="1.1" xmlns="http://www.w3.org/2000/svg" xmlns:xlink="http://www.w3.org/1999/xlink">
    <!-- Generator: Sketch 52.5 (67469) - http://www.bohemiancoding.com/sketch -->
    <title>Crypto/coins/XRP</title>
    <desc>Created with Sketch.</desc>
    <g id="Crypto/coins/XRP" stroke="none" stroke-width="1" fill="none" fill-rule="evenodd">
        <g id="Group" transform="translate(-0.000000, -0.000000)">
            <g id="XRP">
                <g id="Page-1">
                    <g id="Artboard">
                        <g id="XRP">
                            <path d="M11.993612,0.118973135 C5.3991045,0.118973135 0.0533134331,5.4647642 0.0533134331,12.0592717 C0.0533134331,18.6537792 5.3991045,23.9995702 11.993612,23.9995702 C18.5881195,23.9995702 23.9339105,18.6537792 23.9339105,12.0592717 C23.9339105,5.4647642 18.5881195,0.118973135 11.993612,0.118973135" id="Fill-513" fill="#266BA6"></path>
                            <path d="M11.993612,22.9940896 C5.95444779,22.9940896 1.05880597,18.0984478 1.05880597,12.0592836 C1.05880597,6.02011943 5.95444779,1.12447762 11.993612,1.12447762 C18.0327762,1.12447762 22.928418,6.02011943 22.928418,12.0592836 C22.928418,18.0984478 18.0327762,22.9940896 11.993612,22.9940896" id="Fill-514" fill="#FFFFFF"></path>
                            <path d="M14.572621,13.3722986 C14.4085613,13.3722986 14.2473672,13.3847165 14.0899941,13.4084777 C13.6191881,13.0076418 13.2557254,12.5097314 13.287606,11.9379105 C13.3124418,11.4922986 13.5204418,11.1210747 13.8190687,10.8140896 C14.0349493,10.8598209 14.2585911,10.8842986 14.4880836,10.8842986 C16.2637254,10.8842986 17.7031284,9.44477616 17.7031284,7.66913436 C17.7031284,5.89349256 16.2637254,4.45397017 14.4880836,4.45397017 C12.7123224,4.45397017 11.2729194,5.89349256 11.2729194,7.66913436 C11.2729194,8.4946866 11.5843224,9.24740302 12.0957254,9.81671646 C12.0249195,10.2419105 11.869815,10.6175523 11.5690389,10.8137314 C11.2484418,11.022806 10.6130986,11.0556418 9.92091944,11.0095523 C9.45082989,9.81695526 8.28915824,8.97265675 6.92963585,8.97265675 C5.15399405,8.97265675 3.71447166,10.4120597 3.71447166,12.1878209 C3.71447166,13.9634627 5.15399405,15.4029851 6.92963585,15.4029851 C8.39184481,15.4029851 9.62515825,14.4265075 10.0153672,13.0902687 C10.5793075,13.0041792 11.0879642,13.0118209 11.3574568,13.2251941 C11.6997851,13.4961195 11.8736359,14.0751045 11.9538747,14.7232239 C11.5788299,15.2491941 11.3574568,15.8922986 11.3574568,16.5874628 C11.3574568,18.3631046 12.7969792,19.8026269 14.572621,19.8026269 C16.3483822,19.8026269 17.7877851,18.3631046 17.7877851,16.5874628 C17.7877851,14.811821 16.3483822,13.3722986 14.572621,13.3722986" id="Fill-515" fill="#2C71AE"></path>
                        </g>
                    </g>
                </g>
            </g>
        </g>
    </g>
</svg>