<?xml version="1.0" encoding="UTF-8"?>
<svg width="24px" height="24px" viewBox="0 0 24 24" version="1.1" xmlns="http://www.w3.org/2000/svg" xmlns:xlink="http://www.w3.org/1999/xlink">
    <!-- Generator: Sketch 52.5 (67469) - http://www.bohemiancoding.com/sketch -->
    <title>Crypto/coins/XUC</title>
    <desc>Created with Sketch.</desc>
    <defs>
        <linearGradient x1="100%" y1="50%" x2="0%" y2="50%" id="linearGradient-1">
            <stop stop-color="#82BFD8" offset="0%"></stop>
            <stop stop-color="#2C9BCD" offset="100%"></stop>
        </linearGradient>
        <linearGradient x1="100%" y1="50%" x2="0%" y2="50%" id="linearGradient-2">
            <stop stop-color="#2B99CB" offset="0%"></stop>
            <stop stop-color="#17467F" offset="100%"></stop>
        </linearGradient>
    </defs>
    <g id="Crypto/coins/XUC" stroke="none" stroke-width="1" fill="none" fill-rule="evenodd">
        <g id="Group" transform="translate(-0.000000, -0.000000)">
            <g id="XUC">
                <g id="Page-1">
                    <g id="Artboard">
                        <g id="XUC">
                            <path d="M11.4825075,0.677373137 C11.4825075,0.71426866 11.4863284,0.750328361 11.493015,0.785313436 L4.48119405,3.68967166 C4.3792239,3.53874628 4.20632838,3.439403 4.01002987,3.439403 C3.69611942,3.439403 3.44167166,3.69408957 3.44167166,4.00800002 C3.44167166,4.20405972 3.54089554,4.37695524 3.69194031,4.4791642 L0.787582093,11.4911045 C0.752597018,11.4842986 0.71629851,11.4804777 0.679402988,11.4804777 C0.365492539,11.4804777 0.110805971,11.7349254 0.110805971,12.0490747 C0.110805971,12.3629851 0.365492539,12.6176717 0.679402988,12.6176717 C0.71629851,12.6176717 0.752597018,12.6137314 0.787582093,12.6069254 L3.69194031,19.6187464 C3.54089554,19.7210747 3.44167166,19.8939702 3.44167166,20.0899105 C3.44167166,20.4040598 3.69611942,20.6587464 4.01002987,20.6587464 C4.20632838,20.6587464 4.3792239,20.5592837 4.48119405,20.4083583 L11.493015,23.3125971 C11.4863284,23.3477016 11.4825075,23.3836419 11.4825075,23.4207762 C11.4825075,23.7346867 11.7371941,23.9893732 12.0511045,23.9893732 C12.3652538,23.9893732 12.6197015,23.7346867 12.6197015,23.4207762 C12.6197015,23.3836419 12.6158806,23.3477016 12.6091941,23.3125971 L19.621015,20.4083583 C19.7229852,20.5592837 19.8961195,20.6587464 20.0921792,20.6587464 C20.4060896,20.6587464 20.6607762,20.4040598 20.6607762,20.0899105 C20.6607762,19.8939702 20.5615523,19.7210747 20.4103881,19.6187464 L23.3148658,12.6069254 C23.3498508,12.6137314 23.3859105,12.6176717 23.4228061,12.6176717 C23.7369553,12.6176717 23.9914031,12.3629851 23.9914031,12.0490747 C23.9914031,11.7349254 23.7369553,11.4804777 23.4228061,11.4804777 C23.3859105,11.4804777 23.3498508,11.4842986 23.3148658,11.4911045 L20.4103881,4.4791642 C20.5615523,4.37695524 20.6607762,4.20405972 20.6607762,4.00800002 C20.6607762,3.69408957 20.4060896,3.439403 20.0921792,3.439403 C19.8961195,3.439403 19.7229852,3.53874628 19.621015,3.68967166 L12.6091941,0.785313436 C12.6158806,0.750328361 12.6197015,0.71426866 12.6197015,0.677373137 C12.6197015,0.363223882 12.3652538,0.10877612 12.0511045,0.10877612 C11.7371941,0.10877612 11.4825075,0.363223882 11.4825075,0.677373137 Z M12.5357612,1.00119403 L19.5204777,3.89444778 L15.9056717,3.89444778 C15.8267463,3.67486569 15.6176717,3.51761195 15.3709851,3.51761195 C15.2784478,3.51761195 15.191403,3.54041793 15.1141493,3.5795821 L12.5357612,1.00119403 Z M11.5664478,1.00119403 L9.05110452,3.51653733 C8.96716422,3.46794031 8.86997019,3.439403 8.76608959,3.439403 C8.49110451,3.439403 8.26149257,3.63486569 8.20883586,3.89444778 L4.58173136,3.89444778 L11.5664478,1.00119403 Z M12.3646568,1.15152239 L14.934806,3.72191046 C14.892418,3.77253733 14.8591045,3.83092539 14.8365374,3.89444778 L9.32322392,3.89444778 C9.3063881,3.81062688 9.2705672,3.73397016 9.22125377,3.66817912 L11.7377911,1.15152239 C11.8275821,1.21098508 11.9351642,1.24597015 12.0511045,1.24597015 C12.1670448,1.24597015 12.2746269,1.21098508 12.3646568,1.15152239 Z M15.8778508,4.3432836 C15.9120001,4.27594032 15.9327762,4.20107464 15.9379105,4.12167166 L19.5350449,4.12167166 C19.5800598,4.34447763 19.7557016,4.51988062 19.9783881,4.56525375 L19.9783881,8.15892541 C19.9054329,8.17397018 19.8372538,8.20286571 19.7774329,8.24286571 L15.8778508,4.3432836 Z M9.24107467,4.32023882 C9.28023884,4.26101494 9.30865676,4.19402987 9.32322392,4.12167166 L14.8042986,4.12167166 C14.8103881,4.22268658 14.8426269,4.31629853 14.8946866,4.39617912 L12.414209,6.84083585 C12.3157015,6.7590448 12.1892538,6.70973137 12.0511045,6.70973137 C11.9346866,6.70973137 11.8267463,6.74471645 11.7365971,6.80477615 L9.24107467,4.32023882 Z M4.12382091,8.15892541 L4.12382091,4.56525375 C4.34674629,4.51988062 4.52214927,4.34447763 4.5672836,4.12167166 L8.20883586,4.12167166 C8.22149257,4.18304479 8.24417914,4.24059703 8.2746269,4.29301494 L4.32477614,8.24286571 C4.26495524,8.20286571 4.19701494,8.17397018 4.12382091,8.15892541 Z M4.48525375,8.40417914 L8.42614929,4.46304479 C8.52107466,4.53397017 8.6384478,4.57659703 8.76608959,4.57659703 C8.8823881,4.57659703 8.9905672,4.54137315 9.08059705,4.48155226 L11.5763583,6.96585078 C11.5196418,7.05194033 11.4858508,7.15414928 11.4831045,7.26447764 L4.53814927,8.50614929 C4.52382091,8.47032839 4.50614927,8.43617914 4.48525375,8.40417914 Z M15.7355225,4.52238808 L19.6169553,8.40417914 C19.5961792,8.43617914 19.5783881,8.47032839 19.5640598,8.50614929 L12.6191045,7.26447764 C12.6169553,7.17611943 12.5948657,7.09325376 12.5568956,7.01946272 L15.0540896,4.55844778 C15.1445971,4.6192239 15.2534926,4.6550448 15.3709851,4.6550448 C15.5097314,4.6550448 15.6367762,4.60501494 15.7355225,4.52238808 Z M20.5654926,9.03092541 C20.6255523,8.94065675 20.6607762,8.83247765 20.6607762,8.71617914 C20.6607762,8.44107466 20.4653135,8.21170153 20.2058508,8.15892541 L20.2058508,4.57982091 L23.0989852,11.564418 L20.5654926,9.03092541 Z M3.89635823,4.57982091 L3.89635823,8.15892541 C3.63689554,8.21170153 3.44167166,8.44107466 3.44167166,8.71617914 C3.44167166,8.83247765 3.47665673,8.94065675 3.53671643,9.03092541 L1.00322388,11.564418 L3.89635823,4.57982091 Z M12.5260896,7.5905672 C12.5472239,7.558806 12.5648956,7.52441794 12.5792239,7.48835824 L19.5241792,8.73002989 C19.5269255,8.84095526 19.5610747,8.94411944 19.6185075,9.0304478 L17.0896717,11.5701493 C17.0013135,11.5136717 16.8964777,11.4804777 16.7838807,11.4804777 C16.6829851,11.4804777 16.5885374,11.5071045 16.5062687,11.5530747 L12.5260896,7.5905672 Z M4.48417912,9.02985078 C4.54125375,8.94364183 4.5752836,8.84071645 4.57802987,8.73002989 L11.5229851,7.48835824 C11.5442389,7.54149257 11.5731344,7.59104481 11.6085971,7.6348657 L7.5906866,11.5947463 C7.49564182,11.5233433 7.37791048,11.4804777 7.24979107,11.4804777 C7.15737316,11.4804777 7.07056719,11.5030448 6.99343286,11.5420896 L4.48417912,9.02985078 Z M12.365612,7.75188063 L16.3339702,11.7023284 C16.259821,11.7984478 16.2152836,11.9183284 16.2152836,12.0490747 C16.2152836,12.1625075 16.2488359,12.2681792 16.3061493,12.3568956 L12.3711045,16.3087762 C12.2798806,16.2465672 12.1697911,16.2101493 12.0511045,16.2101493 C11.9385075,16.2101493 11.8339105,16.2432239 11.7456717,16.299821 L7.75665675,12.3061493 C7.79582093,12.2287762 7.81838809,12.141612 7.81838809,12.0490747 C7.81838809,11.9454329 7.79032839,11.8485971 7.74185078,11.7648956 L11.7845971,7.78053735 C11.8643583,7.8226866 11.9547463,7.84692541 12.0511045,7.84692541 C12.1675224,7.84692541 12.2755821,7.81170153 12.365612,7.75188063 Z M4.12382091,14.7259702 L4.12382091,9.27343287 C4.19617912,9.2586269 4.26364181,9.22997019 4.3233433,9.1905672 L6.81397018,11.6841792 C6.73134331,11.7830448 6.68143286,11.910209 6.68143286,12.0490747 C6.68143286,12.1740896 6.72202988,12.2894329 6.79056719,12.3832836 L4.3271642,14.8111045 C4.26662688,14.7703881 4.19785076,14.7408956 4.12382091,14.7259702 Z M17.2813135,12.324418 C17.3263284,12.2428657 17.3524777,12.149015 17.3524777,12.0490747 C17.3524777,11.9300299 17.3155822,11.8194627 17.2532538,11.7282389 L19.7797016,9.19092541 C19.8391643,9.23020899 19.9062687,9.2586269 19.9783881,9.27343287 L19.9783881,14.7259702 C19.9054329,14.7406568 19.8374926,14.7695523 19.7776717,14.8096717 L17.2813135,12.324418 Z M20.2058508,14.7259702 L20.2058508,9.27343287 C20.2779702,9.25886571 20.3447165,9.2303284 20.4041792,9.19116422 L22.9486568,11.7356418 C22.8891941,11.8256717 22.8542091,11.9331344 22.8542091,12.0490747 C22.8542091,12.1648956 22.8891941,12.2725971 22.9486568,12.3623881 L20.4605374,14.8505075 C20.3887762,14.7893732 20.3017314,14.7453135 20.2058508,14.7259702 Z M1.15355224,12.3623881 C1.21325374,12.2725971 1.24800001,12.1648956 1.24800001,12.0490747 C1.24800001,11.9331344 1.21325374,11.8256717 1.15355224,11.7356418 L3.69802987,9.19116422 C3.75749255,9.2303284 3.82423882,9.25886571 3.89635823,9.27343287 L3.89635823,14.7259702 C3.80047763,14.7453135 3.71355225,14.7893732 3.64167166,14.8505075 L1.15355224,12.3623881 Z M7.61432839,12.4853732 L11.5819702,16.4576717 C11.5595224,16.4903881 11.5405374,16.5257314 11.5251344,16.5631045 L4.57814927,15.2730747 C4.57635823,15.1626269 4.54280599,15.0599404 4.48644778,14.9732538 L6.958806,12.5367165 C7.04405973,12.5877015 7.14328361,12.6176717 7.24979107,12.6176717 C7.38865675,12.6176717 7.51558212,12.5680001 7.61432839,12.4853732 Z M17.1326568,12.4975523 L19.6171941,14.9709851 C19.5598807,15.0580299 19.5259702,15.1617911 19.5240598,15.2733135 L12.5786269,16.5670448 C12.5651344,16.5338508 12.5486568,16.5019702 12.5294329,16.4720001 L16.4649553,12.5198806 C16.5560598,12.5813732 16.6656717,12.6176717 16.7838807,12.6176717 C16.9154628,12.6176717 17.0362986,12.5725374 17.1326568,12.4975523 Z M20.2058508,15.8403583 C20.4653135,15.7877016 20.6607762,15.5583284 20.6607762,15.2831045 C20.6607762,15.1927165 20.6390449,15.1073433 20.6013135,15.031403 L23.0989852,12.5338508 L20.2058508,19.5184478 L20.2058508,15.8403583 Z M1.00322388,12.5338508 L3.50089554,15.031403 C3.46316419,15.1073433 3.44167166,15.1927165 3.44167166,15.2831045 C3.44167166,15.5583284 3.63689554,15.7877016 3.89635823,15.8403583 L3.89635823,19.5184478 L1.00322388,12.5338508 Z M4.44286569,15.6514628 C4.48191047,15.6057314 4.51391047,15.5534329 4.53683584,15.4967165 L11.4829851,16.7865075 C11.484418,16.9031642 11.5208359,17.0111045 11.5826866,17.1005374 L9.0784478,19.6151643 C8.98889556,19.5561792 8.88155228,19.5214329 8.76608959,19.5214329 C8.6384478,19.5214329 8.52107466,19.5639404 8.42614929,19.6349852 L4.44286569,15.6514628 Z M12.5299105,17.0846568 C12.5844777,16.9995225 12.6167165,16.8989851 12.6191045,16.7910448 L19.565612,15.4969553 C19.5885374,15.5536717 19.620418,15.6057314 19.6595822,15.6514628 L15.6909851,19.6200598 C15.5997613,19.5578508 15.4896717,19.5214329 15.3709851,19.5214329 C15.2552836,19.5214329 15.1477016,19.556418 15.0579105,19.6156419 L12.5299105,17.0846568 Z M15.8493135,19.7834031 L19.8402389,15.7924777 C19.8837016,15.8138508 19.9299105,15.8304478 19.9783881,15.8403583 L19.9783881,19.5327762 C19.7557016,19.5781493 19.5800598,19.7535523 19.5350449,19.9763583 L15.9282389,19.9763583 C15.9140299,19.9065075 15.8866866,19.8414329 15.8493135,19.7834031 Z M4.12382091,19.5327762 L4.12382091,15.8403583 C4.17253733,15.8304478 4.21874629,15.8138508 4.26197017,15.7924777 L8.2746269,19.805015 C8.24417914,19.8574329 8.22149257,19.9149852 8.20883586,19.9763583 L4.5672836,19.9763583 C4.52214927,19.7535523 4.34674629,19.5781493 4.12382091,19.5327762 Z M12.3718209,17.2482389 L14.8970747,19.7762389 C14.8574329,19.8361792 14.8285374,19.9036419 14.8137314,19.9763583 L9.32322392,19.9763583 C9.30853735,19.9034031 9.27964183,19.8354628 9.23976123,19.7756419 L11.7465075,17.2581493 C11.8346269,17.3142687 11.9389851,17.3473434 12.0511045,17.3473434 C12.1700299,17.3473434 12.2804777,17.3106866 12.3718209,17.2482389 Z M15.9282389,20.203821 L19.5204777,20.203821 L12.5357612,23.0969553 L15.0644777,20.5683583 C15.1529553,20.6253135 15.2580299,20.6587464 15.3709851,20.6587464 C15.6460896,20.6587464 15.8754628,20.4634031 15.9282389,20.203821 Z M9.22125377,20.4298508 C9.2705672,20.3640598 9.3063881,20.2875225 9.32322392,20.203821 L14.8137314,20.203821 C14.8291344,20.2790449 14.8593433,20.3486568 14.901015,20.4100299 L12.3646568,22.946627 C12.2746269,22.8870449 12.1670448,22.8521792 12.0511045,22.8521792 C11.9351642,22.8521792 11.8275821,22.8870449 11.7377911,22.946627 L9.22125377,20.4298508 Z M4.58173136,20.203821 L8.20883586,20.203821 C8.26149257,20.4634031 8.49110451,20.6587464 8.76608959,20.6587464 C8.86997019,20.6587464 8.96716422,20.6303284 9.05110452,20.5813732 L11.5664478,23.0969553 L4.58173136,20.203821 Z" id="Fill-347" fill="url(#linearGradient-1)" fill-rule="nonzero"></path>
                            <path d="M7.22137316,12.0490747 C7.22137316,14.7217911 9.38794034,16.8883583 12.0606568,16.8883583 C14.7332538,16.8883583 16.899821,14.7217911 16.899821,12.0490747 C16.899821,9.37647765 14.7332538,7.20979107 12.0606568,7.20979107 C9.38794034,7.20979107 7.22137316,9.37647765 7.22137316,12.0490747" id="Fill-349" fill="url(#linearGradient-2)"></path>
                            <path d="M10.4215523,11.5754269 L14.0217911,11.5754269 C13.8240598,10.9681433 13.3269851,10.4956657 12.705015,10.3319642 C12.5508657,10.291009 12.3889553,10.2693971 12.2216717,10.2693971 C12.0613135,10.2693971 11.905612,10.2893374 11.7571941,10.3268299 C11.1260299,10.4859941 10.6211941,10.961815 10.4215523,11.5754269 Z M15.1595822,12.1627702 C15.1595822,12.2843224 15.1521792,12.4043224 15.1374926,12.5227702 L10.3624478,12.5227702 C10.5011941,13.244203 11.0504478,13.820203 11.7571941,13.9987105 C11.905612,14.036203 12.0613135,14.0561433 12.2216717,14.0561433 C12.3889553,14.0561433 12.5508657,14.0345314 12.705015,13.9935762 C13.2007762,13.8628299 13.617612,13.5365015 13.8666866,13.1009195 L15.0066269,13.1009195 C14.6648956,14.1152478 13.7841792,14.8822926 12.705015,15.0608001 L12.705015,15.7067702 L11.7571941,16.0479045 L11.7571941,15.0636657 C10.4721791,14.860203 9.46465676,13.8218747 9.30597019,12.5227702 L8.51623884,12.5227702 L8.51623884,11.5754269 L9.3423881,11.5754269 C9.58465676,10.3836657 10.5483583,9.45351646 11.7571941,9.26187467 L11.7571941,8.56193436 L12.705015,8.33447168 L12.705015,9.26462093 C13.9052538,9.4631881 14.8598807,10.3898747 15.1009553,11.5754269 C15.1391642,11.7653971 15.1595822,11.9614568 15.1595822,12.1627702 Z" id="Fill-351" fill="#14417E" fill-rule="nonzero"></path>
                            <path d="M10.2510209,11.4617314 C10.4505433,10.8481194 10.9554986,10.3722986 11.5866627,10.213015 C11.7349612,10.1756418 11.8907821,10.1557015 12.0511403,10.1557015 C12.2183045,10.1557015 12.3803344,10.1771941 12.5344836,10.2181493 C13.1564538,10.3819702 13.653409,10.8544478 13.8512598,11.4617314 L10.2510209,11.4617314 Z M14.9890508,12.0490747 C14.9890508,11.8477612 14.9685135,11.6515821 14.9304239,11.4617314 C14.6893493,10.2761791 13.7347224,9.34949258 12.5344836,9.15092541 L12.5344836,8.22065675 L11.5866627,8.44823884 L11.5866627,9.14805974 C10.3778269,9.33982093 9.41400601,10.2699702 9.17185675,11.4617314 L8.34558809,11.4617314 L8.34558809,12.4089553 L9.13543884,12.4089553 C9.29400601,13.7080598 10.3016478,14.7463881 11.5866627,14.9499702 L11.5866627,15.934209 L12.5344836,15.5930747 L12.5344836,14.9471045 C13.6136478,14.7685971 14.4943642,14.0015523 14.8360956,12.9871045 L13.6960359,12.9871045 C13.4470807,13.422806 13.0302448,13.7491344 12.5344836,13.8798807 C12.3803344,13.9208359 12.2183045,13.9423284 12.0511403,13.9423284 C11.8907821,13.9423284 11.7349612,13.9225075 11.5866627,13.885015 C10.8799165,13.7065075 10.3306627,13.1305075 10.1917971,12.4089553 L14.9668419,12.4089553 C14.9816478,12.2906269 14.9890508,12.1706269 14.9890508,12.0490747 Z" id="Fill-353" fill="#FFFFFF" fill-rule="nonzero"></path>
                        </g>
                    </g>
                </g>
            </g>
        </g>
    </g>
</svg>