<?xml version="1.0" encoding="UTF-8"?>
<svg width="24px" height="24px" viewBox="0 0 24 24" version="1.1" xmlns="http://www.w3.org/2000/svg" xmlns:xlink="http://www.w3.org/1999/xlink">
    <!-- Generator: Sketch 52.5 (67469) - http://www.bohemiancoding.com/sketch -->
    <title>Crypto/coins/XZC</title>
    <desc>Created with Sketch.</desc>
    <g id="Crypto/coins/XZC" stroke="none" stroke-width="1" fill="none" fill-rule="evenodd">
        <g id="Group" transform="translate(-0.000000, -0.000000)">
            <g id="XZC">
                <g id="Page-1">
                    <g id="Artboard">
                        <g id="XZC">
                            <path d="M23.9949016,11.9834269 C23.9949016,18.5779344 18.6491105,23.9237255 12.054603,23.9237255 C5.46009555,23.9237255 0.114304478,18.5779344 0.114304478,11.9834269 C0.114304478,5.38891943 5.46009555,0.0431283584 12.054603,0.0431283584 C18.6491105,0.0431283584 23.9949016,5.38891943 23.9949016,11.9834269" id="Fill-410" fill="#38AE50"></path>
                            <path d="M22.2938747,11.9834269 C22.2938747,17.6384717 17.7095165,22.2227105 12.0545911,22.2227105 C6.3995463,22.2227105 1.81530747,17.6384717 1.81530747,11.9834269 C1.81530747,6.32850152 6.3995463,1.74414329 12.0545911,1.74414329 C17.7095165,1.74414329 22.2938747,6.32850152 22.2938747,11.9834269" id="Fill-411" fill="#FFFFFF"></path>
                            <path d="M16.0464359,14.0462687 L16.0464359,16.0168956 L9.3961672,16.0168956 L17.5332419,7.87982093 C17.7256001,7.77558212 17.8741374,7.60197018 17.9476896,7.39301496 C18.0637493,7.1509851 18.0637493,6.86788063 17.9476896,6.62585077 C17.858615,6.37259704 17.6583762,6.17247764 17.4051225,6.08340301 C17.2054807,5.98764182 16.9776598,5.96997017 16.7679881,6.03229853 L7.04130152,6.03229853 C6.55079406,6.03229853 6.15318212,6.42991047 6.15318212,6.92041794 L6.15318212,7.00937316 L6.15318212,7.09844779 L6.15318212,9.95719407 L6.15318212,14.0208359 L10.2168239,9.95719407 L8.10745078,9.95719407 L8.10745078,7.9865672 L14.6626747,7.9865672 L6.33407764,16.3152837 C6.02315226,16.6259702 5.99186868,17.1094329 6.23807764,17.4562986 C6.37921197,17.7600598 6.68619704,17.9711643 7.04321197,17.9711643 L17.1127045,17.9711643 C17.6030926,17.9711643 18.0007046,17.5735523 18.0007046,17.0830448 L18.0007046,16.9939702 L18.0007046,16.9048956 L18.0007046,14.0462687 L18.0007046,9.98262691 L13.9370627,14.0462687 L16.0464359,14.0462687 Z" id="Fill-412" fill="#38AE50"></path>
                        </g>
                    </g>
                </g>
            </g>
        </g>
    </g>
</svg>