<?xml version="1.0" encoding="UTF-8"?>
<svg width="24px" height="24px" viewBox="0 0 24 24" version="1.1" xmlns="http://www.w3.org/2000/svg" xmlns:xlink="http://www.w3.org/1999/xlink">
    <!-- Generator: Sketch 52.5 (67469) - http://www.bohemiancoding.com/sketch -->
    <title>Crypto/coins/ZEC</title>
    <desc>Created with Sketch.</desc>
    <g id="Crypto/coins/ZEC" stroke="none" stroke-width="1" fill="none" fill-rule="evenodd">
        <g id="Group" transform="translate(-0.000000, -0.000000)">
            <g id="ZEC">
                <g id="Page-1">
                    <g id="Artboard">
                        <g id="ZEC">
                            <path d="M12.0223045,0.0951283586 C5.42779704,0.0951283586 0.0820059705,5.44091943 0.0820059705,12.0354269 C0.0820059705,18.6299344 5.42779704,23.9757255 12.0223045,23.9757255 C18.616812,23.9757255 23.9626031,18.6299344 23.9626031,12.0354269 C23.9626031,5.44091943 18.616812,0.0951283586 12.0223045,0.0951283586" id="Fill-686" fill="#208ABE"></path>
                            <path d="M12.0223045,1.25202389 C17.9683344,1.25202389 22.805827,6.08939704 22.805827,12.0354269 C22.805827,17.9814568 17.9683344,22.8188299 12.0223045,22.8188299 C6.07627465,22.8188299 1.2389015,17.9814568 1.2389015,12.0354269 C1.2389015,6.08939704 6.07627465,1.25202389 12.0223045,1.25202389" id="Fill-688" fill="#FFFFFF"></path>
                            <path d="M17.304012,14.1124418 L17.2924299,14.1079045 C17.0785792,14.0434269 16.8439523,14.1285613 16.7404299,14.3125613 C16.2114747,15.2671881 15.6179225,15.9341732 14.9624001,16.3182926 C14.3736239,16.6587105 13.5731463,16.8657553 12.5564299,16.9301135 C12.312609,16.9485016 12.0573254,16.9554269 11.7881911,16.9554269 L11.5237135,16.9554269 L9.64681795,16.9554269 C9.26950452,16.9554269 9.05326571,16.5621135 9.28108661,16.2884419 L11.5237135,13.599606 L12.5564299,12.3597254 L16.9566687,7.08318809 C17.0164896,7.00963585 17.048609,6.92223286 17.048609,6.83244182 L17.048609,6.687606 C17.048609,6.4599045 16.8439523,6.27351644 16.5909374,6.27351644 L12.5564299,6.27351644 L12.5564299,4.38515823 L11.5237135,4.38515823 L11.5237135,6.27351644 L9.3409075,6.27351644 L9.3409075,5.23614331 C9.3409075,5.15339704 9.27177317,5.08665077 9.1890269,5.08665077 L8.60251944,5.08665077 C8.54269854,5.08665077 8.48980302,5.11888957 8.46675824,5.1717851 L7.841206,6.49894928 C7.83881794,6.50587465 7.83189257,6.50814331 7.82962391,6.51506868 L6.59451943,8.95554631 C6.49099704,9.16020302 6.58759406,9.40402392 6.81063883,9.50300899 C7.02460898,9.59733735 7.28216122,9.52593437 7.40407167,9.33966571 C7.75380302,8.80378511 8.09183287,8.39662093 8.41851944,8.12056123 C8.80717616,7.791606 9.26257914,7.54778511 9.78019109,7.39363585 C10.1757732,7.27411346 10.9095045,7.20056122 11.5237135,7.17512839 C11.7122508,7.16605376 11.9101015,7.16139704 12.119415,7.16139704 L12.5564299,7.16139704 L13.8490866,7.16139704 C14.2264001,7.16139704 14.4402508,7.55244182 14.2125493,7.82611347 L12.5564299,9.8111881 L11.5237135,11.046412 L6.52084779,17.0405613 C6.46102689,17.1118448 6.42890749,17.2016359 6.42890749,17.2913075 L6.42890749,17.4269493 C6.42890749,17.6570389 6.63356421,17.8410389 6.88657913,17.8410389 L11.5237135,17.8410389 L11.5237135,19.6856956 L12.5564299,19.6856956 L12.5564299,17.8410389 L15.9629971,17.8410389 C16.1539225,17.8410389 16.3263404,17.7328598 16.3930866,17.5719046 L17.5868777,14.6484419 C17.6766687,14.4299344 17.5501016,14.1861135 17.304012,14.1124418" id="Fill-690" fill="#208ABE"></path>
                        </g>
                    </g>
                </g>
            </g>
        </g>
    </g>
</svg>