<?xml version="1.0" encoding="UTF-8"?>
<svg width="24px" height="24px" viewBox="0 0 24 24" version="1.1" xmlns="http://www.w3.org/2000/svg" xmlns:xlink="http://www.w3.org/1999/xlink">
    <!-- Generator: Sketch 52.5 (67469) - http://www.bohemiancoding.com/sketch -->
    <title>Crypto/coins/ZEN</title>
    <desc>Created with Sketch.</desc>
    <g id="Crypto/coins/ZEN" stroke="none" stroke-width="1" fill="none" fill-rule="evenodd">
        <g id="Group" transform="translate(-0.000000, -0.000000)">
            <g id="ZEN">
                <g id="Page-1">
                    <g id="Artboard">
                        <g id="ZEN">
                            <path d="M23.9715822,12.0242389 C23.9715822,18.6187463 18.6257911,23.9645374 12.0312836,23.9645374 C5.43677614,23.9645374 0.090985075,18.6187463 0.090985075,12.0242389 C0.090985075,5.42973137 5.43677614,0.0839402989 12.0312836,0.0839402989 C18.6257911,0.0839402989 23.9715822,5.42973137 23.9715822,12.0242389" id="Fill-877" fill="#FCEDDB"></path>
                            <polygon id="Fill-879" fill="#FA8900" points="12.2885135 12.0797374 15.1910807 13.7554389 15.1910807 6.94146869 12.2885135 5.26564778"></polygon>
                            <polygon id="Fill-881" fill="#0D1006" points="18.0936598 8.61717019 15.1910926 10.2929911 15.1910926 6.94146869 18.0936598 5.26564778"></polygon>
                            <polygon id="Fill-883" fill="#0D1006" points="9.38593437 13.7405374 6.48336719 15.4162389 6.48336719 12.0647165 9.38593437 10.3888956"></polygon>
                            <polygon id="Fill-885" fill="#0D1006" points="12.2885135 12.0797374 9.38594631 13.7554389 9.38594631 10.4039165 12.2885135 8.72821496"></polygon>
                            <polygon id="Fill-887" fill="#CDB18C" points="15.1910807 6.94144481 12.2885135 5.2656239 15.1910807 3.5899224 18.0936478 5.2656239"></polygon>
                            <polygon id="Fill-889" fill="#FA8900" points="3.58083584 13.7554627 6.48340301 15.4312836 6.48340301 12.0797612 3.58083584 10.4039403"></polygon>
                            <polygon id="Fill-891" fill="#CDB18C" points="6.48341495 12.0797374 3.58084778 10.4039165 6.48341495 8.72821496 9.38598213 10.4039165"></polygon>
                            <polygon id="Fill-893" fill="#0D1006" points="18.0936598 18.767821 15.1910926 20.4436419 15.1910926 17.0921195 18.0936598 15.4162986"></polygon>
                            <polygon id="Fill-895" fill="#FA8900" points="12.2885135 18.7828657 15.1910807 20.4586867 15.1910807 17.1071643 12.2885135 15.4313433"></polygon>
                            <polygon id="Fill-897" fill="#CDB18C" points="15.1910807 17.1071404 9.38594631 13.7554986 12.2885135 12.0797971 18.0936478 15.4313195"></polygon>
                        </g>
                    </g>
                </g>
            </g>
        </g>
    </g>
</svg>