<?xml version="1.0" encoding="UTF-8"?>
<svg width="24px" height="24px" viewBox="0 0 24 24" version="1.1" xmlns="http://www.w3.org/2000/svg" xmlns:xlink="http://www.w3.org/1999/xlink">
    <!-- Generator: Sketch 52.5 (67469) - http://www.bohemiancoding.com/sketch -->
    <title>Crypto/coins/ZRX</title>
    <desc>Created with Sketch.</desc>
    <g id="Crypto/coins/ZRX" stroke="none" stroke-width="1" fill="none" fill-rule="evenodd">
        <g id="Group" transform="translate(-0.000000, -0.000000)" fill="#000000">
            <g id="ZRX">
                <g id="Page-1">
                    <g id="Artboard">
                        <g id="ZRX">
                            <path d="M0.0951761198,11.2510329 C0.218280598,10.5859583 0.323713434,9.91670452 0.468788062,9.25640601 C0.70866866,8.16506272 1.11284777,7.1362866 1.70317613,6.1407045 C3.33445972,8.27921197 4.93792241,10.3730627 6.53123585,12.4747941 C7.06878809,13.183809 7.057206,13.1926448 6.44228062,13.8223762 C6.0733254,14.2002866 5.71631047,14.5910926 5.33099704,14.9513314 C5.10783286,15.1599284 5.0936239,15.3395105 5.23690748,15.5996896 C5.80765376,16.6364657 6.56216122,17.5089434 7.50675824,18.2192717 C7.61637018,18.3018986 7.72562391,18.3850031 7.87977317,18.5017792 C7.23690749,18.9950329 6.62556421,19.4682269 6.0095642,19.935212 C5.58914629,20.2541374 5.15810151,20.559212 4.73935524,20.8802867 C4.51559405,21.0515105 4.32825076,21.0989135 4.09183285,20.8787344 C2.2621015,19.1753314 0.998698512,17.1421374 0.459235823,14.6851822 C0.324549255,14.0720478 0.215773135,13.4530627 0.0951761198,12.8368239 L0.0951761198,11.2510329 Z" id="Fill-841"></path>
                            <path d="M12.7816239,0.0570029853 C13.4476538,0.179749254 14.1164299,0.289600001 14.7791165,0.427988061 C15.8925493,0.660465674 16.9294448,1.09234627 17.9910568,1.69485374 C15.5591762,3.44052539 13.1739821,5.15252539 10.7409075,6.89903286 C10.2070568,6.37712241 9.66293735,5.87407764 9.15535526,5.3365254 C8.90532541,5.07180898 8.70234033,5.05545077 8.39380302,5.22942092 C7.26496719,5.86595823 6.34484779,6.72494331 5.57051943,7.83980899 C5.41422092,7.64494332 5.28013137,7.48661496 5.15547465,7.32112242 C4.49242987,6.44100301 3.8377433,5.55455525 3.16634031,4.6808836 C2.98544479,4.44542091 2.9737433,4.28303285 3.18735524,4.04960002 C5.15977316,1.89485374 7.60287764,0.637062689 10.4749971,0.183450747 C10.7461612,0.140465672 11.017803,0.0991522392 11.2890866,0.0570029853 L12.7816239,0.0570029853 Z" id="Fill-843"></path>
                            <path d="M6.14077614,22.3038449 C8.53002989,20.517815 10.8740299,18.7655762 13.3386269,16.9231881 C13.8624478,17.4940538 14.3940299,18.0365016 14.8804777,18.6168001 C15.1756419,18.9688001 15.4318807,18.9474269 15.795821,18.734412 C16.885612,18.0966807 17.7906866,17.269218 18.5285971,16.1635463 C18.9166568,16.6631284 19.2865672,17.1298747 19.6459702,17.604621 C20.0580299,18.1485016 20.4441792,18.7128001 20.8731941,19.2425911 C21.1482986,19.5822926 21.082627,19.8050986 20.7965374,20.1057553 C18.9055523,22.0922628 16.6127762,23.332621 13.9155821,23.7807404 C11.2588657,24.2220538 8.74185078,23.7297553 6.3669254,22.4782926 C6.30005973,22.4430688 6.24525376,22.3855165 6.14077614,22.3038449" id="Fill-845"></path>
                            <path d="M16.1979105,5.50335525 C17.3267463,4.6614448 18.4008956,3.87135524 19.4602389,3.0620418 C19.713015,2.86884777 19.8528359,3.01260897 20.0133135,3.15875822 C21.1019105,4.15075823 21.9933732,5.29571345 22.6601195,6.61034033 C23.6190449,8.5009672 24.0789852,10.5125493 23.9563583,12.6253851 C23.8512837,14.4327881 23.3845374,16.1567284 22.4242986,17.8220419 C21.9427464,17.1930269 21.4937911,16.6118926 21.0504478,16.0265792 C19.8137911,14.394221 18.5834628,12.7573254 17.3400001,11.1302209 C17.167224,10.9039523 17.1434628,10.7643702 17.3687762,10.5490866 C17.8509254,10.0880717 18.2869852,9.57917616 18.7650747,9.11362392 C18.9982687,8.88651944 19.0020896,8.6930866 18.8551046,8.42060899 C18.3002389,7.39219108 17.5513434,6.53607167 16.626806,5.82860898 C16.505015,5.73523584 16.3825075,5.64329555 16.1979105,5.50335525" id="Fill-847"></path>
                        </g>
                    </g>
                </g>
            </g>
        </g>
    </g>
</svg>