<?xml version="1.0" encoding="UTF-8"?>
<svg width="24px" height="24px" viewBox="0 0 24 24" version="1.1" xmlns="http://www.w3.org/2000/svg" xmlns:xlink="http://www.w3.org/1999/xlink">
    <!-- Generator: Sketch 52.5 (67469) - http://www.bohemiancoding.com/sketch -->
    <title>Icons/Star</title>
    <desc>Created with Sketch.</desc>
    <defs>
        <path d="M19,10.27 C18.8986254,9.87806825 18.5709488,9.58592286 18.17,9.52999999 L14.53,8.99999999 L12.93,5.59999997 C12.7791504,5.21831996 12.4104086,4.96755949 12,4.96755949 C11.5895914,4.96755949 11.2208496,5.21831996 11.07,5.59999997 L9.46999999,8.99999999 L5.87999997,9.54999999 C5.47905118,9.60592286 5.15137459,9.89806825 5.04999997,10.29 C4.92951099,10.6766421 5.02915627,11.0982183 5.30999997,11.39 L7.88999998,14 L7.26999998,17.72 C7.1977773,18.1250907 7.35557221,18.5368969 7.67999998,18.79 C7.99748905,19.0347324 8.43044167,19.0662198 8.77999999,18.87 L12,17.1 L15.21,18.87 C15.5570591,19.0618022 15.9846635,19.0304184 16.3,18.79 C16.6302995,18.5453743 16.7931115,18.1344678 16.72,17.73 L16.09,14 L18.69,11.37 C18.9886547,11.0887847 19.1078651,10.66578 19,10.27 Z M15.29,13.11 C15.0367347,13.3772805 14.9189555,13.7453404 14.97,14.11 L15.55,17.67 L12.55,15.99 C12.2371708,15.8246554 11.8628292,15.8246554 11.55,15.99 L8.54999999,17.67 L8.99999999,14.14 C9.05149547,13.7734859 8.92952469,13.4038775 8.66999999,13.14 L6.19999998,10.59 L9.58999999,10.07 C9.96231946,10.017439 10.280502,9.77501419 10.43,9.42999999 L12,6.19999998 L13.52,9.42999999 C13.669498,9.77501419 13.9876805,10.017439 14.36,10.07 L17.75,10.59 L15.29,13.11 Z" id="path-1"></path>
    </defs>
    <g id="Icons/Star" stroke="none" stroke-width="1" fill="none" fill-rule="evenodd">
        <mask id="mask-2" fill="white">
            <use xlink:href="#path-1"></use>
        </mask>
        <g fill-rule="nonzero"></g>
        <g id="UI/Color/Flat/Elements-Base" mask="url(#mask-2)" fill="#a8aab7">
            <rect id="Base" x="0" y="0" width="24" height="24"></rect>
        </g>
    </g>
</svg>